
<svg xmlns="http://www.w3.org/2000/svg" xmlns:xlink="http://www.w3.org/1999/xlink" style="isolation:isolate" viewBox="0 0 20 20" width="20pt" height="20pt" aria-labelledby="alienTitle" role="img">
  <title id="alienTitle">Alien</title>
<defs><clipPath id="_clipPath_WNxIkHeJgyWt3UxIpgVEAEnDB07f48SW"><rect width="20" height="20"/></clipPath></defs><g clip-path="url(#_clipPath_WNxIkHeJgyWt3UxIpgVEAEnDB07f48SW)"><g><path d=" M 9.678 1.123 C 10.593 1.106 11.504 1.232 12.372 1.495 C 14.399 2.098 15.975 3.549 16.6 5.388 C 17.103 6.628 17.303 7.952 17.186 9.269 C 17.047 12.198 15.565 14.943 13.092 16.849 C 12.102 17.654 11.015 18.355 9.851 18.94 L 9.798 18.964 L 9.691 19 C 9.624 19 9.558 19 9.491 18.976 L 9.397 18.916 L 9.251 18.844 L 8.877 18.664 L 8.344 18.411 C 7.231 17.838 6.196 17.149 5.263 16.357 C 3.689 14.977 2.536 13.256 1.915 11.359 C 1.635 10.478 1.47 9.571 1.422 8.656 L 1.422 8.524 C 1.421 8.367 1.421 8.211 1.422 8.055 C 1.424 6.323 2.104 4.647 3.342 3.322 C 4.083 2.566 5.024 1.992 6.077 1.652 C 7.184 1.278 8.361 1.098 9.544 1.123 L 9.678 1.123 Z  M 9.371 18.904 L 9.384 18.904 L 9.371 18.892 L 9.371 18.904 Z " fill-rule="evenodd" fill="rgb(0,0,0)" fill-opacity="0.2"/><path d=" M 10.451 0.835 C 10.771 0.835 11.078 0.859 11.398 0.883 C 11.985 0.931 12.572 1.039 13.132 1.219 C 14.673 1.688 15.966 2.655 16.76 3.934 C 17.249 4.694 17.592 5.522 17.773 6.385 C 17.897 6.907 17.973 7.438 18 7.971 L 18 8.331 C 17.96 9.311 17.812 10.285 17.56 11.239 C 16.96 13.314 15.671 15.175 13.865 16.573 C 12.875 17.373 11.788 18.07 10.625 18.652 L 10.558 18.688 L 10.464 18.712 C 10.398 18.736 10.331 18.712 10.251 18.7 L 10.171 18.64 C 10.118 18.614 10.065 18.59 10.011 18.567 L 9.638 18.387 C 9.169 18.163 8.711 17.923 8.264 17.666 C 7.464 17.198 6.717 16.669 6.037 16.081 C 4.872 15.067 3.931 13.865 3.262 12.536 C 2.614 11.229 2.252 9.822 2.195 8.392 L 2.195 8.259 L 2.182 8.151 C 2.158 7.538 2.221 6.924 2.369 6.325 C 2.639 5.127 3.235 4.009 4.103 3.069 C 4.84 2.3 5.787 1.716 6.85 1.375 C 7.957 0.996 9.134 0.812 10.318 0.835 L 10.451 0.835 Z  M 10.144 18.616 L 10.158 18.628 L 10.131 18.604 L 10.144 18.616 Z " fill-rule="evenodd" fill="rgb(255,255,255)" vector-effect="non-scaling-stroke" stroke-width="0.061" stroke="rgb(207,207,207)" stroke-linejoin="round" stroke-linecap="butt" stroke-miterlimit="1.41"/><path d=" M 10.411 17.69 C 10.251 17.474 3.449 15.264 3.116 8.283 C 3.116 8.283 2.582 2.024 9.878 1.664 C 17.186 1.303 17.146 8.067 17.146 8.067 C 17.106 12.416 14.879 15.396 10.411 17.69 Z " fill-rule="evenodd" fill="rgb(134,214,107)"/><path d=" M 10.464 1.375 L 11.345 1.411 C 11.878 1.471 12.425 1.567 12.945 1.724 C 14.824 2.281 16.286 3.625 16.866 5.328 C 17.243 6.239 17.442 7.203 17.453 8.175 L 17.453 8.331 C 17.427 9.239 17.293 10.141 17.053 11.023 C 16.499 12.949 15.303 14.677 13.625 15.972 C 12.71 16.718 11.703 17.367 10.625 17.907 L 10.571 17.931 L 10.478 17.967 C 10.411 17.967 10.344 17.967 10.278 17.943 L 10.198 17.895 L 10.064 17.823 C 9.931 17.775 9.824 17.702 9.704 17.654 C 9.272 17.45 8.849 17.23 8.437 16.994 C 7.697 16.562 7.005 16.067 6.37 15.516 C 5.291 14.578 4.418 13.465 3.796 12.236 C 3.189 11.021 2.854 9.711 2.809 8.38 L 2.809 7.827 C 2.812 6.22 3.44 4.664 4.583 3.43 C 5.271 2.722 6.147 2.185 7.13 1.868 C 8.153 1.525 9.24 1.362 10.331 1.387 L 10.464 1.375 Z  M 10.184 17.871 L 10.184 17.883 L 10.171 17.859 L 10.171 17.871 L 10.184 17.871 Z  M 10.384 1.916 C 9.359 1.924 8.342 2.078 7.37 2.372 C 6.305 2.732 5.375 3.357 4.689 4.175 L 4.476 4.463 C 3.769 5.486 3.399 6.67 3.409 7.875 L 3.409 8.307 C 3.472 9.279 3.669 10.239 3.996 11.167 C 4.344 12.105 4.853 12.989 5.503 13.786 C 6.523 15.042 7.833 16.083 9.344 16.837 L 9.904 17.126 L 10.371 17.342 L 10.398 17.366 L 10.424 17.366 L 10.611 17.27 L 11.438 16.789 C 12.105 16.393 12.772 15.948 13.372 15.444 C 14.325 14.642 15.118 13.699 15.719 12.657 C 16.384 11.473 16.757 10.174 16.813 8.848 C 16.828 8.624 16.837 8.4 16.84 8.175 L 16.84 7.995 C 16.831 7.55 16.769 7.107 16.653 6.673 C 16.481 5.923 16.189 5.198 15.786 4.523 C 15.334 3.824 14.714 3.225 13.972 2.769 C 12.908 2.199 11.689 1.908 10.451 1.928 L 10.384 1.928 L 10.384 1.916 Z  M 10.998 13.293 C 11.105 13.305 10.371 12.068 12.038 10.338 C 12.038 10.338 13.399 8.968 14.612 9.893 C 15.813 10.83 14.252 12.224 14.252 12.224 C 13.172 13.077 12.212 13.425 10.998 13.305 L 10.998 13.293 Z  M 9.264 13.293 C 9.144 13.305 9.878 12.068 8.21 10.338 C 8.21 10.338 6.85 8.968 5.636 9.893 C 4.436 10.83 5.997 12.224 5.997 12.224 C 7.077 13.077 8.037 13.425 9.251 13.305 L 9.264 13.293 Z " fill-rule="evenodd" fill="rgb(67,50,49)"/></g></g></svg>