<svg xmlns="http://www.w3.org/2000/svg" xmlns:xlink="http://www.w3.org/1999/xlink" style="isolation:isolate" viewBox="0 0 20 20" width="20pt" height="20pt" aria-labelledby="bananaTitle" role="img">
  <title id="bananaTitle">Banana</title>
<defs>
<clipPath id="_clipPath_EUQQdowLUEy0LnQwuoMimA1ceEqMImW8"><rect width="20" height="20"/></clipPath></defs><g clip-path="url(#_clipPath_EUQQdowLUEy0LnQwuoMimA1ceEqMImW8)"><g><path d=" M 3.977 10.807 C 3.977 10.807 2.722 5.217 6.175 2.53 C 9.654 -0.157 9.615 5.904 9.615 5.904 C 9.615 5.904 13.313 5.109 15.266 7.325 C 15.266 7.325 16.119 8.566 13.895 9.325 C 13.895 9.325 12.395 10.048 12.279 10.699 C 12.279 10.699 13.365 12.603 16.262 13.374 C 19.158 14.145 18.408 19.036 14.335 19.157 C 10.261 19.277 6.873 16.591 6.873 16.591 C 6.873 16.591 7.494 19.627 5.283 19.326 C 3.058 19.012 0.627 15.807 2.929 11.651 C 3.408 10.783 3.977 10.807 3.977 10.807 Z " fill-rule="evenodd" fill="rgb(0,0,0)" 
fill-opacity="0.2"/><path d=" M 4.571 10.084 C 4.571 10.084 3.317 4.494 6.77 1.807 C 10.236 -0.868 10.21 5.181 10.21 5.181 C 10.21 5.181 13.908 4.398 15.848 6.603 C 15.848 6.603 16.714 7.843 14.49 8.603 C 14.49 8.603 12.99 9.325 12.874 9.976 C 12.874 9.976 13.947 11.88 16.844 12.651 C 19.74 13.422 19.003 18.314 14.93 18.434 C 10.856 18.555 7.468 15.868 7.468 15.868 C 7.468 15.868 8.089 18.904 5.865 18.603 C 3.653 18.289 1.209 15.085 3.524 10.928 C 4.002 10.06 4.559 10.084 4.559 10.084 L 4.571 10.084 Z " fill-rule="evenodd" fill="rgb(255,255,255)"/><path d=" M 8.36 1.012 L 8.529 1.012 L 8.554 1.024 L 8.619 1.024 L 8.645 1.036 L 8.671 1.036 L 8.697 1.06 L 8.748 1.06 L 8.774 1.084 L 8.8 1.084 L 8.826 1.096 L 8.852 1.096 L 8.878 1.133 L 8.904 1.133 L 8.917 1.157 L 8.942 1.157 L 8.968 1.181 L 8.994 1.181 L 9.02 1.205 L 9.033 1.217 L 9.059 1.229 L 9.085 1.253 L 9.11 1.253 L 9.123 1.277 L 9.149 1.301 L 9.175 1.301 L 9.188 1.325 L 9.214 1.349 L 9.227 1.361 L 9.253 1.386 L 9.266 1.398 L 9.292 1.422 L 9.304 1.434 L 9.33 1.458 L 9.343 1.482 L 9.369 1.494 L 9.382 1.518 L 9.408 1.542 L 9.421 1.554 L 9.434 1.578 L 9.46 1.602 L 9.473 1.627 L 9.485 1.651 L 9.498 1.663 L 9.524 1.687 L 9.537 1.711 L 9.55 1.735 L 9.563 1.759 L 9.589 1.783 L 9.589 1.795 L 9.615 1.819 L 9.628 1.843 L 9.641 1.867 L 9.654 1.892 L 9.667 1.916 L 9.679 1.94 L 9.692 1.964 L 9.718 2 L 9.718 2.024 L 9.744 2.048 L 9.744 2.072 L 9.77 2.096 L 9.77 2.121 L 9.783 2.157 L 9.796 2.181 L 9.822 2.229 L 9.848 2.289 L 9.873 2.349 L 9.886 2.398 L 9.912 2.458 L 9.925 2.518 L 9.951 2.566 L 9.964 2.627 L 9.99 2.687 L 10.003 2.747 L 10.029 2.807 L 10.029 2.868 L 10.054 2.916 L 10.067 2.976 L 10.08 3.036 L 10.093 3.096 L 10.106 3.157 L 10.119 3.217 L 10.132 3.277 L 10.145 3.337 L 10.158 3.398 L 10.171 3.446 L 10.171 3.506 L 10.197 3.566 L 10.197 3.627 L 10.21 3.675 L 10.21 3.735 L 10.223 3.795 L 10.236 3.855 L 10.236 3.904 L 10.248 3.964 L 10.248 4.012 L 10.261 4.072 L 10.261 4.121 L 10.274 4.169 L 10.274 4.277 L 10.3 4.374 L 10.3 4.554 L 10.313 4.639 L 10.313 4.795 L 10.326 4.868 L 10.326 5.036 L 10.442 5.036 L 10.494 5.024 L 10.546 5.024 L 10.598 5.012 L 10.662 5 L 10.727 5 L 10.805 4.988 L 10.882 4.976 L 10.96 4.976 L 11.037 4.964 L 11.115 4.964 L 11.205 4.952 L 11.335 4.952 L 11.386 4.94 L 12.305 4.94 L 12.369 4.952 L 12.473 4.952 L 12.537 4.964 L 12.589 4.964 L 12.654 4.976 L 12.705 4.976 L 12.77 5 L 12.887 5 L 12.938 5.024 L 13.003 5.024 L 13.055 5.036 L 13.119 5.036 L 13.184 5.06 L 13.236 5.06 L 13.3 5.084 L 13.352 5.084 L 13.417 5.109 L 13.481 5.121 L 13.533 5.133 L 13.598 5.157 L 13.662 5.157 L 13.714 5.181 L 13.779 5.205 L 13.843 5.217 L 13.895 5.241 L 13.96 5.253 L 14.025 5.277 L 14.076 5.301 L 14.141 5.313 L 14.193 5.337 L 14.257 5.362 L 14.322 5.386 L 14.374 5.41 L 14.438 5.434 L 14.49 5.47 L 14.555 5.494 L 14.606 5.518 L 14.671 5.542 L 14.697 5.566 L 14.723 5.578 L 14.762 5.59 L 14.787 5.615 L 14.813 5.615 L 14.839 5.639 L 14.865 5.651 L 14.904 5.675 L 14.93 5.687 L 14.956 5.711 L 14.981 5.723 L 15.007 5.735 L 15.046 5.759 L 15.072 5.771 L 15.098 5.795 L 15.124 5.807 L 15.15 5.831 L 15.175 5.843 L 15.201 5.868 L 15.24 5.892 L 15.266 5.904 L 15.292 5.928 L 15.318 5.952 L 15.344 5.964 L 15.369 5.988 L 15.395 6.012 L 15.421 6.024 L 15.447 6.048 L 15.473 6.072 L 15.499 6.096 L 15.525 6.121 L 15.55 6.133 L 15.576 6.157 L 15.602 6.181 L 15.628 6.205 L 15.654 6.229 L 15.68 6.253 L 15.706 6.277 L 15.732 6.301 L 15.757 6.325 L 15.783 6.349 L 15.809 6.374 L 15.835 6.398 L 15.861 6.422 L 15.874 6.446 L 15.9 6.482 L 15.925 6.506 L 15.951 6.53 L 15.964 6.542 L 15.964 6.554 L 15.977 6.578 L 16.003 6.603 L 16.003 6.627 L 16.016 6.639 L 16.016 6.663 L 16.029 6.675 L 16.042 6.699 L 16.042 6.723 L 16.068 6.747 L 16.068 6.771 L 16.081 6.795 L 16.081 6.831 L 16.094 6.856 L 16.107 6.892 L 16.107 6.916 L 16.119 6.952 L 16.119 7 L 16.132 7.024 L 16.132 7.374 L 16.119 7.398 L 16.119 7.422 L 16.107 7.446 L 16.107 7.47 L 16.094 7.482 L 16.094 7.506 L 16.081 7.53 L 16.081 7.554 L 16.068 7.578 L 16.055 7.603 L 16.055 7.627 L 16.029 7.639 L 16.029 7.663 L 16.003 7.687 L 16.003 7.711 L 15.99 7.735 L 15.964 7.759 L 15.964 7.783 L 15.938 7.807 L 15.925 7.831 L 15.913 7.843 L 15.887 7.868 L 15.887 7.892 L 15.861 7.916 L 15.835 7.94 L 15.822 7.964 L 15.796 7.988 L 15.77 8.012 L 15.757 8.036 L 15.732 8.048 L 15.706 8.072 L 15.68 8.097 L 15.654 8.121 L 15.628 8.145 L 15.602 8.169 L 15.576 8.181 L 15.55 8.205 L 15.512 8.229 L 15.486 8.253 L 15.46 8.277 L 15.421 8.301 L 15.395 8.313 L 15.356 8.337 L 15.318 8.362 L 15.292 8.386 L 15.253 8.398 L 15.214 8.422 L 15.175 8.446 L 15.137 8.458 L 15.098 8.482 L 15.059 8.506 L 15.007 8.53 L 14.969 8.542 L 14.93 8.566 L 14.878 8.59 L 14.839 8.603 L 14.787 8.627 L 14.736 8.639 L 14.684 8.663 L 14.632 8.675 L 14.581 8.699 L 14.542 8.711 L 14.49 8.747 L 14.451 8.759 L 14.412 8.783 L 14.361 8.807 L 14.322 8.831 L 14.257 8.856 L 14.206 8.892 L 14.141 8.928 L 14.076 8.964 L 14.037 8.988 L 14.012 9.012 L 13.973 9.024 L 13.934 9.048 L 13.908 9.072 L 13.869 9.097 L 13.831 9.121 L 13.805 9.145 L 13.766 9.169 L 13.727 9.193 L 13.688 9.217 L 13.65 9.241 L 13.624 9.265 L 13.585 9.289 L 13.546 9.325 L 13.52 9.35 L 13.481 9.374 L 13.456 9.398 L 13.417 9.434 L 13.391 9.458 L 13.352 9.482 L 13.326 9.518 L 13.3 9.542 L 13.262 9.566 L 13.236 9.603 L 13.21 9.627 L 13.21 9.639 L 13.184 9.651 L 13.184 9.663 L 13.158 9.687 L 13.145 9.711 L 13.132 9.723 L 13.119 9.735 L 13.119 9.747 L 13.106 9.771 L 13.093 9.771 L 13.093 9.795 L 13.068 9.807 L 13.068 9.831 L 13.055 9.844 L 13.055 9.856 L 13.042 9.88 L 13.029 9.904 L 13.016 9.928 L 13.016 9.952 L 13.003 9.952 L 13.003 9.964 L 13.029 10 L 13.042 10.024 L 13.055 10.048 L 13.081 10.072 L 13.093 10.097 L 13.119 10.121 L 13.132 10.157 L 13.158 10.181 L 13.184 10.217 L 13.21 10.253 L 13.249 10.289 L 13.274 10.338 L 13.313 10.374 L 13.339 10.41 L 13.378 10.458 L 13.417 10.494 L 13.456 10.542 L 13.507 10.591 L 13.546 10.639 L 13.598 10.687 L 13.65 10.735 L 13.701 10.783 L 13.727 10.807 L 13.753 10.831 L 13.779 10.868 L 13.805 10.892 L 13.831 10.916 L 13.856 10.94 L 13.895 10.964 L 13.921 10.988 L 13.947 11.024 L 13.986 11.048 L 14.012 11.072 L 14.05 11.097 L 14.076 11.133 L 14.115 11.157 L 14.141 11.181 L 14.18 11.205 L 14.218 11.241 L 14.244 11.265 L 14.283 11.289 L 14.322 11.313 L 14.361 11.35 L 14.4 11.374 L 14.438 11.398 L 14.477 11.422 L 14.516 11.458 L 14.555 11.482 L 14.594 11.506 L 14.632 11.542 L 14.671 11.566 L 14.71 11.591 L 14.762 11.615 L 14.8 11.651 L 14.839 11.675 L 14.891 11.699 L 14.93 11.723 L 14.981 11.747 L 15.02 11.783 L 15.072 11.807 L 15.124 11.832 L 15.163 11.856 L 15.214 11.88 L 15.266 11.916 L 15.318 11.94 L 15.356 11.964 L 15.408 11.988 L 15.46 12.012 L 15.512 12.036 L 15.563 12.06 L 15.628 12.085 L 15.68 12.109 L 15.732 12.133 L 15.783 12.157 L 15.835 12.181 L 15.9 12.205 L 15.951 12.229 L 16.016 12.253 L 16.068 12.277 L 16.132 12.301 L 16.184 12.313 L 16.249 12.338 L 16.313 12.362 L 16.365 12.386 L 16.43 12.398 L 16.494 12.422 L 16.559 12.446 L 16.624 12.458 L 16.688 12.482 L 16.753 12.506 L 16.818 12.518 L 16.882 12.542 L 16.921 12.542 L 16.96 12.554 L 16.986 12.566 L 17.025 12.566 L 17.063 12.591 L 17.089 12.591 L 17.128 12.615 L 17.154 12.615 L 17.193 12.639 L 17.219 12.651 L 17.257 12.663 L 17.283 12.675 L 17.322 12.687 L 17.348 12.711 L 17.374 12.711 L 17.413 12.735 L 17.438 12.759 L 17.464 12.759 L 17.503 12.783 L 17.529 12.795 L 17.555 12.819 L 17.581 12.832 L 17.607 12.856 L 17.645 12.868 L 17.671 12.892 L 17.697 12.904 L 17.723 12.928 L 17.749 12.952 L 17.775 12.964 L 17.801 12.988 L 17.826 13 L 17.852 13.024 L 17.878 13.048 L 17.891 13.072 L 17.917 13.085 L 17.943 13.109 L 17.969 13.133 L 17.995 13.157 L 18.007 13.181 L 18.033 13.205 L 18.059 13.229 L 18.072 13.253 L 18.098 13.265 L 18.124 13.289 L 18.137 13.313 L 18.163 13.338 L 18.176 13.362 L 18.201 13.386 L 18.214 13.41 L 18.24 13.446 L 18.253 13.47 L 18.266 13.494 L 18.292 13.518 L 18.305 13.542 L 18.318 13.566 L 18.344 13.603 L 18.344 13.627 L 18.37 13.651 L 18.383 13.675 L 18.408 13.699 L 18.408 13.735 L 18.434 13.759 L 18.434 13.783 L 18.46 13.819 L 18.46 13.844 L 18.486 13.868 L 18.486 13.904 L 18.512 13.928 L 18.512 13.952 L 18.538 13.988 L 18.538 14.012 L 18.551 14.048 L 18.564 14.073 L 18.564 14.097 L 18.589 14.133 L 18.589 14.157 L 18.602 14.193 L 18.602 14.205 L 18.615 14.241 L 18.628 14.265 L 18.628 14.301 L 18.641 14.326 L 18.641 14.362 L 18.654 14.386 L 18.654 14.422 L 18.667 14.458 L 18.667 14.482 L 18.68 14.518 L 18.68 14.579 L 18.693 14.603 L 18.693 14.675 L 18.706 14.699 L 18.706 14.832 L 18.719 14.868 L 18.719 15.326 L 18.706 15.362 L 18.706 15.41 L 18.693 15.446 L 18.693 15.506 L 18.68 15.542 L 18.68 15.579 L 18.667 15.603 L 18.667 15.639 L 18.654 15.675 L 18.654 15.699 L 18.641 15.735 L 18.641 15.771 L 18.628 15.807 L 18.628 15.832 L 18.602 15.868 L 18.602 15.904 L 18.589 15.928 L 18.589 15.964 L 18.564 16 L 18.564 16.024 L 18.551 16.06 L 18.551 16.097 L 18.525 16.121 L 18.525 16.157 L 18.499 16.181 L 18.499 16.217 L 18.473 16.253 L 18.473 16.277 L 18.447 16.314 L 18.447 16.35 L 18.421 16.374 L 18.421 16.41 L 18.395 16.434 L 18.383 16.47 L 18.37 16.506 L 18.357 16.53 L 18.331 16.567 L 18.331 16.591 L 18.305 16.627 L 18.292 16.651 L 18.266 16.687 L 18.253 16.711 L 18.24 16.747 L 18.214 16.771 L 18.201 16.807 L 18.176 16.832 L 18.163 16.868 L 18.137 16.892 L 18.124 16.916 L 18.098 16.952 L 18.085 16.976 L 18.059 17.012 L 18.033 17.036 L 18.02 17.061 L 17.995 17.097 L 17.969 17.121 L 17.956 17.145 L 17.93 17.181 L 17.904 17.205 L 17.878 17.229 L 17.865 17.253 L 17.839 17.289 L 17.814 17.314 L 17.788 17.338 L 17.762 17.362 L 17.736 17.398 L 17.71 17.422 L 17.684 17.446 L 17.658 17.47 L 17.632 17.494 L 17.607 17.518 L 17.581 17.542 L 17.555 17.567 L 17.516 17.591 L 17.49 17.615 L 17.464 17.639 L 17.438 17.663 L 17.413 17.687 L 17.374 17.711 L 17.348 17.735 L 17.322 17.759 L 17.283 17.783 L 17.257 17.808 L 17.232 17.832 L 17.193 17.844 L 17.167 17.868 L 17.128 17.892 L 17.102 17.916 L 17.063 17.928 L 17.038 17.952 L 16.999 17.976 L 16.96 17.988 L 16.934 18.012 L 16.895 18.036 L 16.869 18.048 L 16.831 18.073 L 16.792 18.085 L 16.753 18.109 L 16.727 18.121 L 16.688 18.145 L 16.65 18.157 L 16.611 18.169 L 16.572 18.193 L 16.533 18.205 L 16.494 18.217 L 16.456 18.241 L 16.417 18.253 L 16.378 18.265 L 16.339 18.277 L 16.301 18.301 L 16.262 18.301 L 16.223 18.326 L 16.184 18.338 L 16.145 18.35 L 16.107 18.362 L 16.068 18.374 L 16.016 18.386 L 15.977 18.386 L 15.938 18.41 L 15.9 18.41 L 15.848 18.422 L 15.809 18.434 L 15.77 18.446 L 15.719 18.446 L 15.68 18.458 L 15.628 18.47 L 15.589 18.47 L 15.538 18.482 L 15.499 18.494 L 15.447 18.494 L 15.408 18.506 L 15.318 18.506 L 15.266 18.518 L 15.214 18.518 L 15.175 18.53 L 14.981 18.53 L 14.93 18.542 L 14.167 18.542 L 14.115 18.53 L 13.973 18.53 L 13.934 18.518 L 13.831 18.518 L 13.792 18.506 L 13.701 18.506 L 13.611 18.482 L 13.507 18.482 L 13.417 18.47 L 13.326 18.458 L 13.236 18.434 L 13.145 18.434 L 13.055 18.41 L 12.964 18.398 L 12.874 18.386 L 12.783 18.362 L 12.705 18.35 L 12.615 18.326 L 12.524 18.314 L 12.434 18.289 L 12.356 18.265 L 12.266 18.253 L 12.175 18.229 L 12.098 18.205 L 12.007 18.181 L 11.93 18.169 L 11.839 18.145 L 11.761 18.121 L 11.671 18.097 L 11.593 18.073 L 11.516 18.048 L 11.425 18.012 L 11.348 17.988 L 11.27 17.964 L 11.192 17.94 L 11.115 17.916 L 11.037 17.88 L 10.96 17.856 L 10.882 17.832 L 10.805 17.795 L 10.727 17.771 L 10.649 17.747 L 10.585 17.711 L 10.507 17.687 L 10.43 17.651 L 10.365 17.627 L 10.287 17.591 L 10.223 17.567 L 10.145 17.53 L 10.08 17.506 L 10.016 17.47 L 9.938 17.446 L 9.873 17.41 L 9.809 17.386 L 9.744 17.35 L 9.679 17.314 L 9.615 17.289 L 9.55 17.253 L 9.485 17.229 L 9.421 17.193 L 9.356 17.157 L 9.304 17.133 L 9.24 17.097 L 9.188 17.073 L 9.123 17.036 L 9.072 17.012 L 9.007 16.976 L 8.955 16.952 L 8.904 16.916 L 8.839 16.892 L 8.787 16.856 L 8.735 16.832 L 8.684 16.795 L 8.632 16.771 L 8.593 16.735 L 8.49 16.687 L 8.399 16.627 L 8.309 16.567 L 8.218 16.518 L 8.141 16.47 L 8.063 16.41 L 7.985 16.362 L 7.921 16.326 L 7.856 16.277 L 7.791 16.229 L 7.727 16.193 L 7.675 16.157 L 7.636 16.133 L 7.636 16.205 L 7.649 16.265 L 7.649 16.374 L 7.662 16.422 L 7.662 17.157 L 7.649 17.193 L 7.649 17.265 L 7.636 17.289 L 7.636 17.362 L 7.623 17.398 L 7.623 17.434 L 7.61 17.47 L 7.597 17.506 L 7.597 17.542 L 7.585 17.579 L 7.572 17.615 L 7.572 17.639 L 7.546 17.675 L 7.546 17.711 L 7.533 17.747 L 7.52 17.783 L 7.507 17.82 L 7.494 17.844 L 7.481 17.88 L 7.468 17.916 L 7.455 17.94 L 7.429 17.976 L 7.429 18.012 L 7.403 18.036 L 7.391 18.073 L 7.365 18.097 L 7.352 18.133 L 7.326 18.157 L 7.313 18.193 L 7.287 18.217 L 7.261 18.253 L 7.248 18.277 L 7.222 18.301 L 7.21 18.314 L 7.197 18.326 L 7.184 18.35 L 7.171 18.35 L 7.158 18.374 L 7.145 18.374 L 7.132 18.398 L 7.119 18.398 L 7.106 18.422 L 7.093 18.422 L 7.08 18.446 L 7.054 18.446 L 7.054 18.47 L 7.028 18.47 L 7.028 18.494 L 7.003 18.494 L 6.99 18.506 L 6.964 18.518 L 6.964 18.53 L 6.938 18.53 L 6.925 18.555 L 6.899 18.555 L 6.899 18.567 L 6.873 18.579 L 6.847 18.579 L 6.847 18.591 L 6.822 18.603 L 6.796 18.603 L 6.783 18.627 L 6.744 18.627 L 6.731 18.639 L 6.705 18.651 L 6.692 18.651 L 6.666 18.663 L 6.653 18.663 L 6.628 18.675 L 6.615 18.675 L 6.589 18.687 L 6.55 18.687 L 6.524 18.699 L 6.511 18.699 L 6.485 18.711 L 6.421 18.711 L 6.395 18.723 L 6.304 18.723 L 6.278 18.735 L 5.929 18.735 L 5.903 18.723 L 5.852 18.723 L 5.826 18.711 L 5.761 18.711 L 5.735 18.699 L 5.709 18.699 L 5.684 18.687 L 5.645 18.687 L 5.619 18.675 L 5.593 18.663 L 5.567 18.663 L 5.528 18.651 L 5.503 18.651 L 5.477 18.639 L 5.451 18.639 L 5.425 18.615 L 5.386 18.615 L 5.36 18.603 L 5.334 18.603 L 5.309 18.579 L 5.257 18.579 L 5.231 18.567 L 5.205 18.567 L 5.179 18.542 L 5.153 18.542 L 5.128 18.53 L 5.102 18.518 L 5.076 18.506 L 5.05 18.494 L 5.024 18.482 L 4.998 18.47 L 4.972 18.458 L 4.934 18.446 L 4.908 18.434 L 4.882 18.422 L 4.856 18.41 L 4.83 18.398 L 4.804 18.374 L 4.778 18.374 L 4.752 18.35 L 4.727 18.338 L 4.701 18.326 L 4.675 18.314 L 4.649 18.289 L 4.623 18.277 L 4.597 18.265 L 4.571 18.241 L 4.546 18.241 L 4.52 18.217 L 4.494 18.193 L 4.468 18.181 L 4.442 18.169 L 4.416 18.145 L 4.39 18.133 L 4.365 18.109 L 4.339 18.097 L 4.313 18.073 L 4.287 18.061 L 4.274 18.036 L 4.248 18.024 L 4.222 18 L 4.196 17.988 L 4.171 17.964 L 4.145 17.94 L 4.119 17.928 L 4.093 17.904 L 4.067 17.88 L 4.054 17.868 L 4.028 17.844 L 4.002 17.82 L 3.977 17.795 L 3.951 17.783 L 3.925 17.759 L 3.912 17.735 L 3.886 17.711 L 3.86 17.687 L 3.834 17.663 L 3.808 17.651 L 3.796 17.627 L 3.77 17.603 L 3.744 17.579 L 3.718 17.554 L 3.705 17.53 L 3.679 17.506 L 3.653 17.482 L 3.64 17.458 L 3.615 17.434 L 3.589 17.41 L 3.576 17.386 L 3.55 17.362 L 3.524 17.326 L 3.511 17.301 L 3.485 17.277 L 3.472 17.253 L 3.446 17.229 L 3.421 17.205 L 3.408 17.169 L 3.382 17.145 L 3.369 17.121 L 3.343 17.097 L 3.33 17.061 L 3.304 17.036 L 3.291 17.012 L 3.265 16.976 L 3.252 16.952 L 3.227 16.928 L 3.214 16.892 L 3.188 16.868 L 3.188 16.844 L 3.162 16.807 L 3.136 16.783 L 3.123 16.747 L 3.11 16.723 L 3.084 16.687 L 3.071 16.663 L 3.058 16.627 L 3.033 16.603 L 3.033 16.567 L 3.007 16.542 L 2.994 16.506 L 2.968 16.47 L 2.968 16.446 L 2.942 16.41 L 2.929 16.386 L 2.916 16.35 L 2.89 16.314 L 2.89 16.289 L 2.864 16.253 L 2.864 16.217 L 2.839 16.181 L 2.826 16.157 L 2.813 16.121 L 2.8 16.085 L 2.787 16.048 L 2.774 16.024 L 2.761 15.988 L 2.748 15.952 L 2.735 15.916 L 2.722 15.88 L 2.722 15.844 L 2.696 15.807 L 2.696 15.783 L 2.67 15.747 L 2.67 15.711 L 2.658 15.675 L 2.645 15.639 L 2.645 15.603 L 2.619 15.567 L 2.619 15.53 L 2.606 15.494 L 2.606 15.458 L 2.593 15.41 L 2.58 15.374 L 2.58 15.338 L 2.567 15.301 L 2.567 15.253 L 2.541 15.217 L 2.541 15.145 L 2.528 15.109 L 2.528 15.073 L 2.515 15.036 L 2.515 14.988 L 2.502 14.952 L 2.502 14.88 L 2.489 14.844 L 2.489 14.759 L 2.477 14.723 L 2.477 14.639 L 2.464 14.603 L 2.464 14.398 L 2.451 14.362 L 2.451 13.832 L 2.464 13.783 L 2.464 13.699 L 2.477 13.663 L 2.477 13.566 L 2.489 13.53 L 2.489 13.482 L 2.502 13.446 L 2.502 13.35 L 2.515 13.313 L 2.528 13.265 L 2.528 13.217 L 2.541 13.181 L 2.541 13.133 L 2.554 13.085 L 2.567 13.036 L 2.567 13 L 2.593 12.952 L 2.593 12.904 L 2.606 12.868 L 2.619 12.819 L 2.619 12.759 L 2.645 12.711 L 2.645 12.663 L 2.67 12.627 L 2.67 12.579 L 2.696 12.53 L 2.696 12.482 L 2.722 12.434 L 2.722 12.398 L 2.748 12.362 L 2.761 12.313 L 2.774 12.265 L 2.787 12.217 L 2.813 12.169 L 2.826 12.121 L 2.839 12.072 L 2.864 12.024 L 2.864 11.976 L 2.89 11.94 L 2.916 11.892 L 2.929 11.844 L 2.955 11.795 L 2.968 11.747 L 2.994 11.699 L 3.007 11.651 L 3.033 11.603 L 3.058 11.554 L 3.071 11.506 L 3.097 11.458 L 3.123 11.41 L 3.136 11.362 L 3.162 11.313 L 3.188 11.265 L 3.214 11.217 L 3.239 11.169 L 3.265 11.121 L 3.291 11.06 L 3.317 11.012 L 3.343 10.964 L 3.369 10.916 L 3.395 10.868 L 3.421 10.831 L 3.446 10.783 L 3.459 10.747 L 3.485 10.711 L 3.511 10.675 L 3.537 10.639 L 3.563 10.603 L 3.589 10.566 L 3.615 10.542 L 3.627 10.506 L 3.653 10.482 L 3.679 10.446 L 3.705 10.422 L 3.731 10.398 L 3.757 10.374 L 3.783 10.35 L 3.808 10.325 L 3.834 10.301 L 3.847 10.277 L 3.873 10.253 L 3.899 10.241 L 3.925 10.217 L 3.951 10.205 L 3.977 10.181 L 3.99 10.169 L 4.015 10.157 L 4.041 10.133 L 4.067 10.133 L 4.08 10.109 L 4.106 10.109 L 4.132 10.084 L 4.145 10.084 L 4.171 10.06 L 4.196 10.06 L 4.209 10.048 L 4.235 10.048 L 4.248 10.036 L 4.274 10.024 L 4.287 10.024 L 4.3 10.012 L 4.326 10.012 L 4.339 10 L 4.377 10 L 4.377 9.988 L 4.403 9.988 L 4.403 9.916 L 4.377 9.856 L 4.377 9.795 L 4.365 9.723 L 4.352 9.651 L 4.339 9.566 L 4.326 9.482 L 4.326 9.386 L 4.313 9.289 L 4.3 9.181 L 4.3 9.145 L 4.287 9.084 L 4.287 8.964 L 4.274 8.916 L 4.274 8.856 L 4.261 8.783 L 4.261 8.663 L 4.248 8.603 L 4.248 8.47 L 4.235 8.398 L 4.235 8.109 L 4.222 8.036 L 4.222 7.193 L 4.235 7.109 L 4.235 6.94 L 4.248 6.868 L 4.248 6.783 L 4.261 6.699 L 4.274 6.615 L 4.274 6.53 L 4.287 6.446 L 4.3 6.362 L 4.313 6.277 L 4.326 6.193 L 4.339 6.109 L 4.352 6.012 L 4.365 5.928 L 4.377 5.843 L 4.39 5.759 L 4.416 5.675 L 4.429 5.59 L 4.455 5.494 L 4.468 5.41 L 4.494 5.325 L 4.494 5.277 L 4.507 5.241 L 4.52 5.193 L 4.533 5.145 L 4.546 5.109 L 4.546 5.048 L 4.571 5 L 4.571 4.964 L 4.597 4.916 L 4.597 4.88 L 4.623 4.831 L 4.623 4.783 L 4.649 4.747 L 4.662 4.699 L 4.675 4.651 L 4.688 4.615 L 4.701 4.566 L 4.727 4.53 L 4.727 4.482 L 4.752 4.434 L 4.765 4.398 L 4.778 4.349 L 4.804 4.313 L 4.817 4.265 L 4.83 4.229 L 4.856 4.181 L 4.869 4.133 L 4.882 4.096 L 4.908 4.048 L 4.921 4.012 L 4.946 3.964 L 4.959 3.928 L 4.985 3.88 L 4.998 3.843 L 5.024 3.795 L 5.037 3.759 L 5.063 3.711 L 5.089 3.675 L 5.102 3.627 L 5.128 3.59 L 5.153 3.542 L 5.179 3.506 L 5.192 3.458 L 5.218 3.422 L 5.244 3.386 L 5.27 3.337 L 5.296 3.301 L 5.321 3.253 L 5.347 3.217 L 5.36 3.181 L 5.386 3.133 L 5.412 3.096 L 5.451 3.06 L 5.477 3.012 L 5.503 2.976 L 5.528 2.94 L 5.554 2.892 L 5.58 2.855 L 5.606 2.819 L 5.645 2.783 L 5.671 2.735 L 5.697 2.699 L 5.735 2.663 L 5.761 2.627 L 5.787 2.59 L 5.826 2.554 L 5.852 2.506 L 5.89 2.47 L 5.916 2.434 L 5.955 2.398 L 5.981 2.361 L 6.02 2.325 L 6.059 2.289 L 6.084 2.253 L 6.123 2.217 L 6.162 2.181 L 6.188 2.145 L 6.227 2.108 L 6.266 2.072 L 6.304 2.036 L 6.343 2.012 L 6.382 1.976 L 6.421 1.94 L 6.459 1.904 L 6.498 1.867 L 6.537 1.843 L 6.576 1.807 L 6.615 1.771 L 6.653 1.735 L 6.692 1.711 L 6.731 1.675 L 6.783 1.639 L 6.822 1.614 L 6.86 1.59 L 6.899 1.554 L 6.938 1.554 L 6.977 1.53 L 7.016 1.494 L 7.054 1.47 L 7.093 1.446 L 7.132 1.422 L 7.171 1.398 L 7.21 1.374 L 7.248 1.361 L 7.287 1.337 L 7.326 1.313 L 7.365 1.301 L 7.391 1.277 L 7.429 1.253 L 7.468 1.241 L 7.507 1.229 L 7.546 1.205 L 7.572 1.193 L 7.61 1.181 L 7.649 1.169 L 7.675 1.145 L 7.714 1.145 L 7.753 1.12 L 7.779 1.12 L 7.817 1.108 L 7.843 1.072 L 7.921 1.072 L 7.947 1.06 L 7.985 1.048 L 8.011 1.048 L 8.05 1.036 L 8.076 1.036 L 8.115 1.024 L 8.205 1.024 L 8.231 1 L 8.36 1 L 8.36 1.012 Z  M 8.296 1.133 L 8.128 1.133 L 8.102 1.157 L 8.037 1.157 L 8.011 1.169 L 7.985 1.181 L 7.947 1.181 L 7.921 1.193 L 7.843 1.193 L 7.817 1.217 L 7.779 1.217 L 7.753 1.241 L 7.714 1.241 L 7.714 1.277 L 7.675 1.277 L 7.636 1.301 L 7.61 1.313 L 7.572 1.325 L 7.533 1.349 L 7.507 1.361 L 7.468 1.386 L 7.429 1.398 L 7.403 1.422 L 7.365 1.434 L 7.326 1.458 L 7.287 1.482 L 7.261 1.506 L 7.222 1.518 L 7.184 1.542 L 7.145 1.566 L 7.106 1.59 L 7.067 1.627 L 7.028 1.651 L 6.99 1.675 L 6.951 1.699 L 6.912 1.735 L 6.873 1.759 L 6.809 1.795 L 6.783 1.795 L 6.731 1.831 L 6.692 1.867 L 6.653 1.892 L 6.615 1.928 L 6.576 1.964 L 6.537 1.988 L 6.498 2.024 L 6.472 2.06 L 6.434 2.096 L 6.395 2.121 L 6.356 2.157 L 6.317 2.193 L 6.291 2.229 L 6.253 2.265 L 6.214 2.301 L 6.188 2.337 L 6.149 2.374 L 6.11 2.41 L 6.084 2.446 L 6.046 2.482 L 6.02 2.518 L 5.981 2.554 L 5.955 2.59 L 5.929 2.627 L 5.89 2.663 L 5.865 2.699 L 5.826 2.735 L 5.8 2.771 L 5.774 2.807 L 5.748 2.843 L 5.722 2.88 L 5.684 2.928 L 5.658 2.964 L 5.632 3 L 5.606 3.036 L 5.58 3.084 L 5.554 3.121 L 5.528 3.157 L 5.503 3.193 L 5.477 3.241 L 5.451 3.277 L 5.425 3.313 L 5.399 3.349 L 5.373 3.398 L 5.36 3.434 L 5.334 3.482 L 5.309 3.518 L 5.283 3.554 L 5.27 3.602 L 5.244 3.639 L 5.218 3.675 L 5.205 3.723 L 5.179 3.759 L 5.153 3.807 L 5.14 3.843 L 5.115 3.892 L 5.102 3.928 L 5.076 3.976 L 5.063 4.012 L 5.037 4.048 L 5.024 4.096 L 5.011 4.133 L 4.985 4.181 L 4.972 4.217 L 4.959 4.265 L 4.934 4.301 L 4.921 4.349 L 4.908 4.398 L 4.882 4.434 L 4.882 4.482 L 4.856 4.518 L 4.843 4.566 L 4.83 4.602 L 4.817 4.651 L 4.791 4.687 L 4.791 4.735 L 4.765 4.783 L 4.765 4.819 L 4.74 4.868 L 4.74 4.904 L 4.714 4.952 L 4.714 4.988 L 4.688 5.036 L 4.688 5.084 L 4.675 5.121 L 4.662 5.169 L 4.649 5.205 L 4.636 5.253 L 4.623 5.289 L 4.623 5.337 L 4.597 5.422 L 4.571 5.506 L 4.559 5.59 L 4.533 5.687 L 4.533 5.771 L 4.507 5.856 L 4.494 5.94 L 4.481 6.024 L 4.468 6.109 L 4.455 6.193 L 4.442 6.277 L 4.429 6.362 L 4.429 6.446 L 4.403 6.53 L 4.403 6.699 L 4.39 6.783 L 4.39 6.856 L 4.377 6.94 L 4.377 7.024 L 4.365 7.109 L 4.365 7.265 L 4.352 7.337 L 4.352 8.386 L 4.365 8.446 L 4.365 8.639 L 4.377 8.711 L 4.377 8.771 L 4.39 8.831 L 4.39 8.952 L 4.403 9 L 4.403 9.06 L 4.416 9.121 L 4.416 9.169 L 4.442 9.277 L 4.442 9.374 L 4.468 9.47 L 4.468 9.554 L 4.481 9.639 L 4.494 9.711 L 4.507 9.783 L 4.507 9.844 L 4.533 9.892 L 4.533 9.94 L 4.546 9.988 L 4.546 10.024 L 4.559 10.072 L 4.559 10.084 L 4.468 10.084 L 4.442 10.097 L 4.416 10.097 L 4.416 10.109 L 4.377 10.109 L 4.365 10.121 L 4.352 10.121 L 4.326 10.133 L 4.313 10.133 L 4.3 10.145 L 4.274 10.145 L 4.261 10.157 L 4.248 10.169 L 4.222 10.169 L 4.209 10.193 L 4.183 10.193 L 4.171 10.217 L 4.145 10.217 L 4.119 10.241 L 4.106 10.241 L 4.08 10.265 L 4.067 10.277 L 4.041 10.289 L 4.015 10.313 L 4.002 10.325 L 3.977 10.35 L 3.951 10.362 L 3.925 10.386 L 3.912 10.41 L 3.886 10.434 L 3.86 10.446 L 3.834 10.47 L 3.821 10.494 L 3.796 10.53 L 3.77 10.554 L 3.744 10.578 L 3.731 10.615 L 3.705 10.639 L 3.679 10.675 L 3.653 10.699 L 3.627 10.735 L 3.615 10.771 L 3.589 10.807 L 3.563 10.844 L 3.537 10.88 L 3.524 10.928 L 3.498 10.976 L 3.472 11.024 L 3.446 11.072 L 3.421 11.121 L 3.395 11.169 L 3.369 11.217 L 3.343 11.265 L 3.317 11.313 L 3.291 11.362 L 3.265 11.41 L 3.252 11.458 L 3.227 11.506 L 3.201 11.554 L 3.188 11.603 L 3.162 11.651 L 3.136 11.687 L 3.123 11.735 L 3.097 11.783 L 3.084 11.832 L 3.058 11.88 L 3.046 11.928 L 3.033 11.976 L 3.007 12.024 L 2.994 12.072 L 2.981 12.109 L 2.955 12.157 L 2.942 12.205 L 2.929 12.253 L 2.916 12.301 L 2.89 12.35 L 2.89 12.386 L 2.864 12.434 L 2.864 12.482 L 2.839 12.53 L 2.826 12.566 L 2.826 12.615 L 2.8 12.663 L 2.8 12.711 L 2.774 12.747 L 2.774 12.795 L 2.761 12.844 L 2.748 12.892 L 2.735 12.928 L 2.735 12.976 L 2.722 13.024 L 2.709 13.06 L 2.709 13.109 L 2.683 13.157 L 2.683 13.241 L 2.67 13.277 L 2.67 13.326 L 2.658 13.374 L 2.658 13.41 L 2.645 13.458 L 2.645 13.494 L 2.632 13.542 L 2.632 13.579 L 2.619 13.627 L 2.619 13.747 L 2.606 13.795 L 2.606 13.964 L 2.593 14 L 2.593 14.603 L 2.606 14.639 L 2.606 14.759 L 2.619 14.795 L 2.619 14.88 L 2.632 14.916 L 2.632 14.952 L 2.645 14.988 L 2.645 15.024 L 2.658 15.06 L 2.658 15.097 L 2.67 15.145 L 2.67 15.181 L 2.683 15.217 L 2.683 15.253 L 2.696 15.289 L 2.696 15.326 L 2.722 15.362 L 2.722 15.434 L 2.748 15.47 L 2.748 15.53 L 2.774 15.567 L 2.774 15.603 L 2.787 15.639 L 2.8 15.675 L 2.8 15.711 L 2.826 15.747 L 2.826 15.783 L 2.839 15.807 L 2.852 15.844 L 2.864 15.88 L 2.877 15.916 L 2.89 15.952 L 2.903 15.976 L 2.916 16.012 L 2.929 16.048 L 2.942 16.085 L 2.955 16.109 L 2.968 16.145 L 2.981 16.181 L 2.994 16.205 L 3.007 16.241 L 3.02 16.265 L 3.046 16.301 L 3.046 16.338 L 3.071 16.362 L 3.084 16.398 L 3.097 16.422 L 3.11 16.458 L 3.136 16.482 L 3.136 16.518 L 3.162 16.542 L 3.175 16.579 L 3.201 16.603 L 3.201 16.639 L 3.227 16.663 L 3.252 16.699 L 3.252 16.723 L 3.278 16.747 L 3.304 16.783 L 3.304 16.807 L 3.33 16.832 L 3.356 16.868 L 3.369 16.892 L 3.395 16.916 L 3.408 16.952 L 3.421 16.976 L 3.446 17 L 3.459 17.024 L 3.485 17.048 L 3.498 17.085 L 3.524 17.109 L 3.537 17.133 L 3.563 17.157 L 3.576 17.181 L 3.602 17.205 L 3.627 17.229 L 3.64 17.265 L 3.666 17.289 L 3.679 17.314 L 3.705 17.338 L 3.731 17.362 L 3.744 17.386 L 3.77 17.41 L 3.796 17.434 L 3.808 17.446 L 3.834 17.47 L 3.86 17.494 L 3.873 17.518 L 3.899 17.542 L 3.925 17.567 L 3.938 17.591 L 3.964 17.615 L 3.99 17.627 L 4.015 17.651 L 4.028 17.675 L 4.054 17.699 L 4.08 17.711 L 4.106 17.735 L 4.119 17.759 L 4.145 17.771 L 4.171 17.795 L 4.196 17.82 L 4.222 17.832 L 4.235 17.856 L 4.261 17.88 L 4.287 17.892 L 4.313 17.916 L 4.339 17.928 L 4.365 17.952 L 4.39 17.964 L 4.403 17.988 L 4.429 18 L 4.455 18.012 L 4.481 18.036 L 4.507 18.048 L 4.533 18.073 L 4.559 18.085 L 4.584 18.097 L 4.61 18.121 L 4.636 18.133 L 4.649 18.145 L 4.675 18.169 L 4.701 18.169 L 4.727 18.193 L 4.752 18.205 L 4.778 18.217 L 4.804 18.241 L 4.83 18.241 L 4.856 18.265 L 4.882 18.265 L 4.908 18.289 L 4.934 18.301 L 4.959 18.314 L 4.985 18.326 L 5.011 18.338 L 5.037 18.35 L 5.063 18.362 L 5.089 18.374 L 5.115 18.386 L 5.14 18.386 L 5.166 18.41 L 5.192 18.41 L 5.218 18.422 L 5.244 18.434 L 5.27 18.446 L 5.296 18.446 L 5.321 18.47 L 5.347 18.47 L 5.373 18.482 L 5.399 18.482 L 5.425 18.494 L 5.451 18.506 L 5.477 18.506 L 5.503 18.518 L 5.528 18.518 L 5.554 18.53 L 5.58 18.542 L 5.606 18.542 L 5.632 18.555 L 5.658 18.555 L 5.684 18.567 L 5.735 18.567 L 5.761 18.579 L 5.787 18.579 L 5.813 18.591 L 5.865 18.591 L 5.89 18.603 L 5.994 18.603 L 6.02 18.615 L 6.395 18.615 L 6.421 18.603 L 6.472 18.603 L 6.498 18.591 L 6.511 18.591 L 6.537 18.579 L 6.576 18.579 L 6.589 18.567 L 6.615 18.567 L 6.628 18.555 L 6.641 18.555 L 6.666 18.542 L 6.679 18.542 L 6.692 18.53 L 6.718 18.53 L 6.718 18.518 L 6.744 18.518 L 6.757 18.494 L 6.783 18.494 L 6.809 18.482 L 6.822 18.47 L 6.834 18.47 L 6.847 18.446 L 6.873 18.446 L 6.873 18.434 L 6.899 18.434 L 6.912 18.41 L 6.925 18.41 L 6.938 18.398 L 6.951 18.398 L 6.964 18.374 L 6.977 18.374 L 6.99 18.35 L 7.003 18.35 L 7.016 18.338 L 7.028 18.326 L 7.041 18.314 L 7.054 18.301 L 7.054 18.289 L 7.08 18.289 L 7.08 18.265 L 7.093 18.265 L 7.106 18.241 L 7.119 18.241 L 7.145 18.205 L 7.158 18.181 L 7.184 18.157 L 7.197 18.133 L 7.222 18.097 L 7.235 18.073 L 7.261 18.048 L 7.274 18.012 L 7.287 17.988 L 7.3 17.964 L 7.326 17.928 L 7.326 17.904 L 7.352 17.868 L 7.352 17.832 L 7.378 17.808 L 7.378 17.771 L 7.403 17.747 L 7.403 17.711 L 7.416 17.675 L 7.429 17.651 L 7.429 17.615 L 7.442 17.579 L 7.455 17.542 L 7.455 17.518 L 7.468 17.482 L 7.481 17.446 L 7.481 17.41 L 7.494 17.386 L 7.494 17.314 L 7.507 17.277 L 7.507 17.241 L 7.52 17.205 L 7.52 17.109 L 7.533 17.073 L 7.533 16.904 L 7.546 16.88 L 7.546 16.386 L 7.533 16.338 L 7.533 16.229 L 7.52 16.193 L 7.52 16.145 L 7.507 16.097 L 7.507 16.024 L 7.494 16 L 7.494 15.94 L 7.468 15.904 L 7.468 15.868 L 7.507 15.892 L 7.559 15.928 L 7.585 15.952 L 7.623 15.976 L 7.662 16.012 L 7.701 16.036 L 7.753 16.073 L 7.804 16.109 L 7.869 16.157 L 7.921 16.193 L 7.985 16.241 L 8.063 16.277 L 8.128 16.326 L 8.205 16.386 L 8.296 16.434 L 8.373 16.482 L 8.464 16.542 L 8.554 16.591 L 8.658 16.651 L 8.71 16.675 L 8.748 16.711 L 8.8 16.735 L 8.852 16.771 L 8.904 16.795 L 8.968 16.832 L 9.02 16.856 L 9.072 16.892 L 9.123 16.916 L 9.188 16.952 L 9.24 16.976 L 9.304 17.012 L 9.356 17.036 L 9.421 17.073 L 9.485 17.097 L 9.55 17.133 L 9.602 17.169 L 9.667 17.193 L 9.731 17.229 L 9.796 17.253 L 9.861 17.289 L 9.925 17.314 L 10.003 17.35 L 10.067 17.374 L 10.132 17.41 L 10.197 17.434 L 10.274 17.47 L 10.339 17.494 L 10.417 17.53 L 10.481 17.554 L 10.559 17.591 L 10.623 17.615 L 10.701 17.651 L 10.779 17.675 L 10.856 17.699 L 10.921 17.735 L 10.999 17.759 L 11.076 17.783 L 11.154 17.808 L 11.231 17.844 L 11.309 17.868 L 11.386 17.892 L 11.477 17.916 L 11.555 17.94 L 11.632 17.964 L 11.71 17.988 L 11.8 18.012 L 11.878 18.036 L 11.955 18.061 L 12.046 18.085 L 12.124 18.109 L 12.214 18.133 L 12.292 18.145 L 12.382 18.169 L 12.473 18.193 L 12.55 18.205 L 12.641 18.229 L 12.731 18.241 L 12.809 18.265 L 12.899 18.277 L 12.99 18.289 L 13.081 18.301 L 13.171 18.326 L 13.262 18.326 L 13.352 18.35 L 13.443 18.35 L 13.533 18.374 L 13.624 18.374 L 13.714 18.386 L 13.805 18.398 L 13.895 18.398 L 13.934 18.41 L 14.05 18.41 L 14.089 18.422 L 14.27 18.422 L 14.309 18.434 L 15.163 18.434 L 15.214 18.422 L 15.305 18.422 L 15.344 18.41 L 15.395 18.41 L 15.434 18.398 L 15.473 18.398 L 15.525 18.386 L 15.563 18.386 L 15.615 18.374 L 15.654 18.362 L 15.693 18.362 L 15.732 18.35 L 15.783 18.338 L 15.822 18.326 L 15.861 18.326 L 15.9 18.301 L 15.938 18.301 L 15.99 18.289 L 16.029 18.277 L 16.068 18.265 L 16.107 18.253 L 16.145 18.241 L 16.184 18.229 L 16.223 18.217 L 16.262 18.193 L 16.301 18.193 L 16.339 18.169 L 16.378 18.169 L 16.417 18.145 L 16.443 18.133 L 16.482 18.109 L 16.52 18.109 L 16.559 18.085 L 16.598 18.061 L 16.624 18.048 L 16.663 18.036 L 16.701 18.012 L 16.727 18 L 16.766 17.976 L 16.805 17.964 L 16.831 17.94 L 16.869 17.928 L 16.895 17.904 L 16.934 17.892 L 16.96 17.868 L 16.999 17.844 L 17.025 17.832 L 17.063 17.808 L 17.089 17.783 L 17.115 17.771 L 17.154 17.747 L 17.18 17.723 L 17.206 17.699 L 17.245 17.675 L 17.27 17.663 L 17.296 17.639 L 17.322 17.615 L 17.348 17.591 L 17.387 17.567 L 17.413 17.542 L 17.438 17.518 L 17.464 17.494 L 17.49 17.47 L 17.516 17.446 L 17.542 17.422 L 17.568 17.398 L 17.594 17.374 L 17.62 17.35 L 17.645 17.326 L 17.671 17.301 L 17.697 17.277 L 17.71 17.253 L 17.736 17.217 L 17.762 17.193 L 17.788 17.169 L 17.801 17.145 L 17.826 17.121 L 17.852 17.085 L 17.878 17.061 L 17.891 17.036 L 17.917 17.012 L 17.93 16.976 L 17.956 16.952 L 17.982 16.928 L 17.995 16.904 L 18.02 16.868 L 18.033 16.844 L 18.046 16.82 L 18.072 16.783 L 18.085 16.759 L 18.111 16.723 L 18.124 16.699 L 18.137 16.675 L 18.163 16.639 L 18.176 16.615 L 18.189 16.579 L 18.201 16.554 L 18.227 16.518 L 18.227 16.494 L 18.253 16.47 L 18.266 16.434 L 18.279 16.41 L 18.292 16.374 L 18.305 16.338 L 18.318 16.314 L 18.331 16.277 L 18.344 16.253 L 18.357 16.217 L 18.37 16.193 L 18.383 16.157 L 18.395 16.133 L 18.408 16.097 L 18.408 16.073 L 18.434 16.036 L 18.434 16 L 18.447 15.976 L 18.447 15.94 L 18.473 15.916 L 18.473 15.88 L 18.486 15.856 L 18.486 15.82 L 18.499 15.783 L 18.499 15.759 L 18.512 15.723 L 18.512 15.699 L 18.525 15.663 L 18.525 15.627 L 18.538 15.603 L 18.538 15.567 L 18.551 15.542 L 18.551 15.506 L 18.564 15.47 L 18.564 15.41 L 18.576 15.386 L 18.576 15.253 L 18.589 15.229 L 18.589 14.687 L 18.576 14.651 L 18.576 14.591 L 18.564 14.566 L 18.564 14.506 L 18.551 14.47 L 18.551 14.446 L 18.538 14.41 L 18.538 14.386 L 18.525 14.362 L 18.525 14.326 L 18.512 14.301 L 18.499 14.265 L 18.499 14.241 L 18.486 14.217 L 18.473 14.181 L 18.473 14.157 L 18.46 14.121 L 18.447 14.097 L 18.447 14.073 L 18.421 14.036 L 18.421 14.012 L 18.408 13.988 L 18.395 13.964 L 18.383 13.928 L 18.37 13.904 L 18.357 13.88 L 18.344 13.856 L 18.331 13.819 L 18.318 13.795 L 18.305 13.771 L 18.292 13.747 L 18.279 13.723 L 18.253 13.699 L 18.253 13.663 L 18.227 13.639 L 18.214 13.615 L 18.201 13.591 L 18.176 13.566 L 18.176 13.542 L 18.15 13.518 L 18.137 13.494 L 18.111 13.47 L 18.098 13.446 L 18.072 13.422 L 18.059 13.398 L 18.046 13.374 L 18.02 13.362 L 17.995 13.338 L 17.982 13.313 L 17.956 13.289 L 17.943 13.265 L 17.917 13.241 L 17.904 13.229 L 17.878 13.205 L 17.852 13.181 L 17.826 13.157 L 17.814 13.145 L 17.788 13.121 L 17.762 13.109 L 17.736 13.085 L 17.723 13.06 L 17.697 13.048 L 17.671 13.024 L 17.645 13.012 L 17.62 12.988 L 17.594 12.976 L 17.568 12.952 L 17.542 12.94 L 17.516 12.928 L 17.49 12.904 L 17.464 12.892 L 17.438 12.88 L 17.4 12.856 L 17.374 12.844 L 17.348 12.832 L 17.322 12.819 L 17.296 12.795 L 17.257 12.795 L 17.232 12.771 L 17.206 12.759 L 17.167 12.747 L 17.141 12.735 L 17.102 12.723 L 17.076 12.711 L 17.051 12.699 L 17.012 12.687 L 16.986 12.687 L 16.947 12.663 L 16.921 12.663 L 16.882 12.651 L 16.844 12.639 L 16.779 12.615 L 16.714 12.603 L 16.65 12.579 L 16.585 12.566 L 16.52 12.542 L 16.456 12.518 L 16.391 12.506 L 16.326 12.482 L 16.262 12.458 L 16.197 12.434 L 16.145 12.422 L 16.081 12.398 L 16.016 12.374 L 15.964 12.35 L 15.9 12.325 L 15.848 12.301 L 15.783 12.277 L 15.732 12.253 L 15.68 12.229 L 15.615 12.205 L 15.563 12.181 L 15.512 12.157 L 15.46 12.133 L 15.408 12.109 L 15.356 12.085 L 15.305 12.048 L 15.253 12.024 L 15.201 12 L 15.15 11.976 L 15.098 11.952 L 15.046 11.928 L 15.007 11.892 L 14.956 11.868 L 14.904 11.844 L 14.865 11.819 L 14.813 11.783 L 14.775 11.759 L 14.723 11.735 L 14.684 11.711 L 14.645 11.675 L 14.594 11.651 L 14.555 11.627 L 14.516 11.591 L 14.477 11.566 L 14.438 11.542 L 14.4 11.506 L 14.361 11.482 L 14.322 11.458 L 14.283 11.422 L 14.244 11.398 L 14.206 11.374 L 14.167 11.338 L 14.128 11.313 L 14.102 11.289 L 14.063 11.265 L 14.025 11.229 L 13.999 11.205 L 13.96 11.181 L 13.921 11.145 L 13.895 11.121 L 13.869 11.097 L 13.831 11.072 L 13.805 11.036 L 13.779 11.012 L 13.74 10.988 L 13.714 10.964 L 13.688 10.94 L 13.662 10.904 L 13.637 10.88 L 13.611 10.856 L 13.546 10.807 L 13.507 10.759 L 13.456 10.711 L 13.404 10.663 L 13.365 10.615 L 13.326 10.566 L 13.287 10.518 L 13.249 10.47 L 13.21 10.434 L 13.171 10.398 L 13.145 10.35 L 13.106 10.313 L 13.081 10.277 L 13.055 10.241 L 13.029 10.205 L 13.003 10.181 L 12.99 10.145 L 12.964 10.121 L 12.964 10.109 L 12.938 10.084 L 12.925 10.06 L 12.899 10.024 L 12.887 10 L 12.874 9.988 L 12.874 9.916 L 12.887 9.916 L 12.887 9.892 L 12.899 9.88 L 12.899 9.856 L 12.912 9.844 L 12.912 9.831 L 12.925 9.807 L 12.951 9.783 L 12.951 9.747 L 12.977 9.735 L 12.977 9.723 L 12.99 9.699 L 13.003 9.699 L 13.003 9.675 L 13.029 9.663 L 13.029 9.627 L 13.055 9.627 L 13.055 9.603 L 13.081 9.591 L 13.081 9.566 L 13.106 9.554 L 13.106 9.542 L 13.145 9.506 L 13.171 9.482 L 13.197 9.446 L 13.236 9.422 L 13.262 9.386 L 13.3 9.362 L 13.326 9.337 L 13.365 9.301 L 13.404 9.277 L 13.43 9.253 L 13.468 9.217 L 13.507 9.193 L 13.546 9.169 L 13.572 9.145 L 13.611 9.109 L 13.65 9.084 L 13.688 9.06 L 13.727 9.036 L 13.766 9.012 L 13.792 8.988 L 13.831 8.964 L 13.869 8.94 L 13.908 8.916 L 13.934 8.904 L 13.973 8.88 L 14.012 8.856 L 14.076 8.819 L 14.141 8.783 L 14.193 8.747 L 14.257 8.723 L 14.309 8.687 L 14.348 8.663 L 14.387 8.651 L 14.425 8.627 L 14.477 8.603 L 14.49 8.603 L 14.542 8.578 L 14.594 8.554 L 14.645 8.542 L 14.684 8.518 L 14.736 8.506 L 14.787 8.482 L 14.826 8.47 L 14.865 8.446 L 14.917 8.434 L 14.956 8.41 L 14.994 8.386 L 15.033 8.374 L 15.072 8.35 L 15.111 8.325 L 15.15 8.313 L 15.188 8.289 L 15.214 8.265 L 15.253 8.253 L 15.292 8.229 L 15.318 8.205 L 15.356 8.193 L 15.382 8.169 L 15.408 8.145 L 15.434 8.133 L 15.473 8.109 L 15.499 8.084 L 15.525 8.06 L 15.55 8.048 L 15.576 8.024 L 15.589 8 L 15.615 7.976 L 15.641 7.964 L 15.654 7.94 L 15.68 7.916 L 15.706 7.904 L 15.719 7.88 L 15.744 7.856 L 15.744 7.831 L 15.77 7.819 L 15.783 7.795 L 15.809 7.771 L 15.809 7.747 L 15.835 7.735 L 15.848 7.711 L 15.861 7.687 L 15.874 7.663 L 15.874 7.651 L 15.9 7.627 L 15.9 7.603 L 15.913 7.59 L 15.925 7.566 L 15.925 7.542 L 15.938 7.53 L 15.951 7.506 L 15.951 7.482 L 15.964 7.47 L 15.964 7.458 L 15.977 7.434 L 15.977 7.398 L 15.99 7.374 L 15.99 7.337 L 16.003 7.325 L 16.003 7.205 L 16.016 7.193 L 16.016 7.024 L 16.003 7 L 16.003 6.94 L 15.99 6.916 L 15.977 6.892 L 15.977 6.856 L 15.964 6.831 L 15.964 6.807 L 15.938 6.783 L 15.938 6.747 L 15.913 6.723 L 15.913 6.687 L 15.887 6.675 L 15.887 6.663 L 15.874 6.639 L 15.874 6.615 L 15.861 6.615 L 15.835 6.578 L 15.809 6.554 L 15.783 6.53 L 15.757 6.506 L 15.732 6.482 L 15.719 6.458 L 15.693 6.434 L 15.667 6.41 L 15.641 6.386 L 15.615 6.362 L 15.589 6.337 L 15.563 6.313 L 15.538 6.289 L 15.525 6.265 L 15.499 6.241 L 15.473 6.229 L 15.447 6.205 L 15.421 6.181 L 15.395 6.157 L 15.369 6.145 L 15.344 6.121 L 15.318 6.096 L 15.292 6.084 L 15.266 6.06 L 15.24 6.036 L 15.214 6.024 L 15.188 6 L 15.163 5.976 L 15.137 5.964 L 15.111 5.94 L 15.085 5.928 L 15.046 5.904 L 15.02 5.892 L 14.994 5.88 L 14.969 5.856 L 14.943 5.843 L 14.917 5.819 L 14.891 5.807 L 14.865 5.795 L 14.826 5.771 L 14.8 5.771 L 14.775 5.759 L 14.749 5.735 L 14.723 5.723 L 14.697 5.711 L 14.671 5.699 L 14.632 5.675 L 14.606 5.675 L 14.555 5.639 L 14.49 5.615 L 14.438 5.578 L 14.387 5.554 L 14.322 5.53 L 14.27 5.506 L 14.206 5.482 L 14.154 5.458 L 14.089 5.446 L 14.05 5.41 L 13.986 5.386 L 13.934 5.374 L 13.869 5.349 L 13.818 5.325 L 13.753 5.313 L 13.688 5.301 L 13.637 5.277 L 13.572 5.265 L 13.52 5.253 L 13.456 5.241 L 13.404 5.217 L 13.339 5.217 L 13.287 5.193 L 13.223 5.193 L 13.171 5.169 L 13.106 5.169 L 13.055 5.157 L 12.99 5.145 L 12.938 5.145 L 12.874 5.121 L 12.757 5.121 L 12.705 5.109 L 12.654 5.096 L 12.537 5.096 L 12.486 5.084 L 12.421 5.084 L 12.369 5.072 L 12.266 5.072 L 12.201 5.06 L 11.205 5.06 L 11.128 5.072 L 11.05 5.072 L 10.96 5.084 L 10.895 5.084 L 10.817 5.096 L 10.753 5.096 L 10.688 5.121 L 10.559 5.121 L 10.507 5.145 L 10.43 5.145 L 10.391 5.157 L 10.352 5.157 L 10.313 5.169 L 10.261 5.181 L 10.223 5.181 L 10.223 4.807 L 10.21 4.723 L 10.21 4.651 L 10.171 4.566 L 10.171 4.289 L 10.158 4.241 L 10.158 4.181 L 10.145 4.133 L 10.145 4.084 L 10.132 4.024 L 10.132 3.976 L 10.119 3.916 L 10.119 3.868 L 10.106 3.807 L 10.106 3.759 L 10.08 3.699 L 10.08 3.59 L 10.054 3.53 L 10.054 3.47 L 10.042 3.41 L 10.029 3.361 L 10.016 3.313 L 10.003 3.253 L 9.99 3.193 L 9.977 3.133 L 9.964 3.072 L 9.951 3.024 L 9.938 2.964 L 9.912 2.904 L 9.912 2.843 L 9.886 2.783 L 9.861 2.735 L 9.861 2.675 L 9.835 2.614 L 9.809 2.566 L 9.796 2.506 L 9.77 2.446 L 9.757 2.398 L 9.731 2.337 L 9.705 2.289 L 9.679 2.241 L 9.679 2.205 L 9.667 2.181 L 9.654 2.157 L 9.641 2.121 L 9.628 2.096 L 9.615 2.072 L 9.602 2.036 L 9.589 2.024 L 9.576 2 L 9.563 1.976 L 9.55 1.952 L 9.524 1.916 L 9.524 1.904 L 9.498 1.88 L 9.498 1.855 L 9.46 1.831 L 9.46 1.807 L 9.434 1.795 L 9.434 1.759 L 9.421 1.747 L 9.395 1.723 L 9.395 1.699 L 9.356 1.675 L 9.343 1.639 L 9.317 1.614 L 9.304 1.602 L 9.292 1.578 L 9.266 1.566 L 9.266 1.542 L 9.227 1.518 L 9.214 1.506 L 9.201 1.494 L 9.188 1.47 L 9.162 1.458 L 9.149 1.434 L 9.123 1.434 L 9.11 1.41 L 9.085 1.386 L 9.072 1.374 L 9.046 1.361 L 9.033 1.349 L 9.007 1.337 L 9.007 1.313 L 8.981 1.313 L 8.942 1.277 L 8.929 1.277 L 8.904 1.253 L 8.891 1.253 L 8.865 1.229 L 8.813 1.229 L 8.8 1.217 L 8.774 1.217 L 8.748 1.193 L 8.723 1.193 L 8.71 1.181 L 8.684 1.181 L 8.658 1.157 L 8.632 1.157 L 8.619 1.145 L 8.593 1.145 L 8.554 1.133 L 8.516 1.133 L 8.49 1.12 L 8.296 1.12 L 8.296 1.133 Z " fill-rule="evenodd" fill="rgb(207,207,207)"/><path d=" M 9.369 6.94 C 9.24 8.663 12.822 12.157 16.055 13.326 C 19.585 14.603 16.921 17.133 15.835 17.314 C 10.636 18.217 7.442 14.121 7.442 14.121 C 7.442 14.121 2.981 7.759 7.054 2.602 C 9.085 0.012 9.498 5.253 9.382 6.94 L 9.369 6.94 Z " fill-rule="evenodd" fill="rgb(250,247,151)"/><path d=" M 9.02 10.615 C 9.537 10.229 10.145 10.06 10.274 9.386 C 10.378 8.783 9.136 7.253 9.304 6.976 C 10.132 5.566 11.555 5.687 12.279 5.807 C 12.977 5.928 16.792 7.024 14.387 7.627 C 12.935 7.932 11.823 9.02 11.567 10.386 L 11.904 10.747 L 14.49 12.554 L 16.016 13.277 L 17.27 14.06 L 17.878 15.145 L 17.102 16.675 L 15.77 17.35 L 12.796 17.35 L 9.718 16.145 L 7.468 14.036 L 6.615 12.47 L 6.563 12.325 C 5.955 13.241 5.787 14.374 6.136 15.699 C 6.718 17.94 5.916 17.844 5.916 17.844 C 3.356 16.82 3.653 13.241 3.653 13.241 C 4.339 8.723 8.373 10.771 8.373 10.771 L 8.244 10.844 C 8.503 10.795 8.761 10.723 9.02 10.603 L 9.02 10.615 Z " fill-rule="evenodd" fill="rgb(215,211,43)"/><path d=" M 5.49 10.253 C 5.326 9.632 5.218 8.999 5.166 8.362 C 5.056 7.069 5.232 5.769 5.684 4.542 C 5.99 3.773 6.417 3.05 6.951 2.398 C 7.156 2.145 7.416 1.936 7.714 1.783 C 7.918 1.692 8.156 1.692 8.36 1.783 C 8.554 1.855 8.71 2.012 8.826 2.181 C 8.876 2.258 8.919 2.338 8.955 2.422 C 9.075 2.652 9.166 2.895 9.227 3.145 C 9.351 3.571 9.438 4.006 9.485 4.446 C 9.561 5.046 9.6 5.649 9.602 6.253 C 9.913 5.971 10.295 5.768 10.714 5.663 C 11.232 5.525 11.778 5.509 12.305 5.615 C 12.435 5.637 12.565 5.665 12.693 5.699 C 13.368 5.879 14.026 6.113 14.658 6.398 C 14.76 6.45 14.859 6.507 14.956 6.566 L 15.046 6.627 L 15.111 6.687 L 15.163 6.723 C 15.263 6.816 15.335 6.932 15.369 7.06 C 15.383 7.116 15.383 7.173 15.369 7.229 C 15.369 7.265 15.344 7.313 15.318 7.35 C 15.284 7.404 15.24 7.453 15.188 7.494 C 15.11 7.557 15.023 7.61 14.93 7.651 C 14.8 7.711 14.671 7.747 14.542 7.783 L 14.361 7.831 L 14.296 7.856 C 13.6 8.039 12.978 8.412 12.512 8.928 L 12.305 9.181 C 12.046 9.542 11.878 9.952 11.787 10.362 C 12.483 11.007 13.24 11.592 14.05 12.109 C 14.628 12.47 15.238 12.784 15.874 13.048 L 16.068 13.121 L 16.223 13.181 L 16.301 13.205 C 16.523 13.296 16.739 13.401 16.947 13.518 C 17.323 13.726 17.635 14.021 17.852 14.374 C 17.995 14.642 18.053 14.943 18.02 15.241 C 17.995 15.603 17.839 15.928 17.632 16.229 L 17.516 16.374 C 17.401 16.526 17.272 16.667 17.128 16.795 C 16.885 17.017 16.611 17.208 16.313 17.362 C 16.136 17.449 15.943 17.506 15.744 17.53 C 14.604 17.703 13.438 17.658 12.318 17.398 C 10.441 16.902 8.765 15.895 7.507 14.506 L 7.287 14.253 L 7.274 14.229 C 6.974 13.797 6.714 13.342 6.498 12.868 C 6.288 13.296 6.174 13.759 6.162 14.229 C 6.144 14.746 6.213 15.263 6.369 15.759 L 6.382 15.856 C 6.466 16.233 6.522 16.616 6.55 17 C 6.555 17.182 6.537 17.364 6.498 17.542 C 6.461 17.698 6.37 17.837 6.24 17.94 C 6.193 17.972 6.14 17.997 6.084 18.012 C 6.013 18.033 5.938 18.037 5.865 18.024 C 5.839 18.024 5.826 18.024 5.8 18 L 5.735 17.976 C 5.474 17.867 5.231 17.725 5.011 17.554 C 4.804 17.386 4.623 17.193 4.442 16.988 C 4.235 16.711 4.054 16.422 3.925 16.109 C 3.689 15.566 3.54 14.993 3.485 14.41 C 3.44 14.022 3.427 13.631 3.446 13.241 L 3.446 13.217 L 3.498 12.904 C 3.617 12.299 3.854 11.719 4.196 11.193 C 4.444 10.859 4.772 10.582 5.153 10.386 L 5.451 10.265 L 5.49 10.253 Z  M 6.395 10.494 L 6.162 10.518 C 5.86 10.548 5.566 10.629 5.296 10.759 C 5.151 10.836 5.016 10.929 4.895 11.036 C 4.503 11.385 4.222 11.827 4.08 12.313 C 3.973 12.623 3.899 12.942 3.86 13.265 L 3.86 13.53 C 3.856 14.231 3.961 14.929 4.171 15.603 C 4.364 16.184 4.706 16.713 5.166 17.145 C 5.396 17.343 5.658 17.505 5.942 17.627 L 5.942 17.639 C 5.968 17.639 5.981 17.615 5.994 17.603 C 6.015 17.581 6.032 17.557 6.046 17.53 L 6.072 17.494 L 6.072 17.458 L 6.097 17.41 L 6.11 17.35 L 6.123 17.253 L 6.123 17.157 C 6.149 16.988 6.123 16.807 6.11 16.639 C 6.078 16.42 6.035 16.203 5.981 15.988 L 5.942 15.795 L 5.903 15.639 L 5.878 15.518 C 5.784 15.082 5.741 14.638 5.748 14.193 C 5.779 13.571 5.956 12.962 6.266 12.41 C 6.573 11.876 7.006 11.415 7.533 11.06 L 7.934 10.795 C 7.466 10.627 6.973 10.53 6.472 10.506 L 6.421 10.506 L 6.395 10.494 Z  M 8.425 11.012 C 7.733 11.331 7.151 11.823 6.744 12.434 C 6.997 12.973 7.286 13.496 7.61 14 C 7.765 14.191 7.934 14.372 8.115 14.542 C 9.412 15.875 11.135 16.783 13.029 17.133 C 13.905 17.283 14.802 17.288 15.68 17.145 L 15.77 17.133 C 15.835 17.116 15.899 17.099 15.964 17.085 L 16.119 17.012 C 16.394 16.884 16.643 16.712 16.857 16.506 C 16.968 16.396 17.072 16.28 17.167 16.157 C 16.589 16.147 16.015 16.066 15.46 15.916 C 14.015 15.546 12.674 14.888 11.529 13.988 C 10.354 13.132 9.31 12.131 8.425 11.012 Z  M 10.455 9.578 L 10.442 9.603 L 10.417 9.639 L 10.404 9.687 C 10.254 9.956 10.047 10.193 9.796 10.386 C 9.511 10.615 9.188 10.771 8.852 10.892 L 8.955 11.012 C 9.348 11.508 9.78 11.975 10.248 12.41 C 11.031 13.141 11.888 13.799 12.809 14.374 C 13.983 15.081 15.306 15.545 16.688 15.735 C 16.934 15.771 17.18 15.783 17.426 15.783 C 17.561 15.534 17.623 15.255 17.607 14.976 C 17.596 14.843 17.561 14.713 17.503 14.591 C 17.353 14.31 17.119 14.076 16.831 13.916 C 16.63 13.78 16.413 13.667 16.184 13.579 L 15.874 13.458 L 15.744 13.422 C 14.64 12.985 13.615 12.392 12.705 11.663 C 11.882 11.04 11.129 10.342 10.455 9.578 Z  M 10.197 9.265 C 9.882 8.85 9.613 8.406 9.395 7.94 C 9.279 7.662 9.205 7.37 9.175 7.072 L 9.175 6.831 C 9.225 6.112 9.204 5.39 9.11 4.675 C 9.063 4.27 8.993 3.868 8.904 3.47 C 8.816 3.108 8.686 2.757 8.516 2.422 C 8.469 2.347 8.413 2.278 8.348 2.217 C 8.31 2.179 8.266 2.146 8.218 2.121 C 8.178 2.1 8.134 2.088 8.089 2.084 C 7.997 2.084 7.907 2.109 7.83 2.157 C 7.813 2.164 7.795 2.172 7.779 2.181 L 7.714 2.217 C 7.662 2.253 7.615 2.293 7.572 2.337 C 7.486 2.411 7.408 2.492 7.339 2.578 C 7.218 2.717 7.106 2.862 7.003 3.012 C 6.29 3.999 5.826 5.124 5.645 6.301 C 5.539 6.992 5.518 7.691 5.58 8.386 C 5.632 8.988 5.748 9.578 5.903 10.157 C 6.444 10.078 6.997 10.115 7.52 10.265 C 7.845 10.347 8.161 10.455 8.464 10.591 L 8.619 10.554 C 9.046 10.427 9.432 10.204 9.744 9.904 C 9.857 9.783 9.953 9.65 10.029 9.506 L 10.067 9.434 L 10.08 9.41 C 10.113 9.361 10.152 9.317 10.197 9.277 L 10.197 9.265 Z  M 11.438 10.036 C 11.614 9.454 11.932 8.918 12.369 8.47 C 12.799 8.054 13.332 7.744 13.921 7.566 L 14.218 7.47 L 14.4 7.422 L 14.477 7.398 C 14.598 7.364 14.715 7.32 14.826 7.265 C 14.874 7.243 14.917 7.215 14.956 7.181 L 14.956 7.096 C 14.931 7.06 14.9 7.028 14.865 7 L 14.658 6.856 C 14.51 6.763 14.355 6.683 14.193 6.615 C 13.668 6.378 13.118 6.196 12.55 6.072 C 12.254 6.002 11.951 5.962 11.645 5.952 L 11.58 5.952 C 11.31 5.951 11.04 5.983 10.779 6.048 C 10.292 6.192 9.873 6.485 9.589 6.88 L 9.589 6.964 C 9.582 7.118 9.6 7.272 9.641 7.422 C 9.712 7.7 9.825 7.968 9.977 8.217 C 10.209 7.86 10.522 7.556 10.895 7.325 C 11.05 7.237 11.215 7.165 11.386 7.109 L 11.399 7.109 L 11.542 7.47 C 11.516 7.47 11.503 7.47 11.477 7.494 L 11.412 7.506 C 10.879 7.717 10.456 8.115 10.236 8.615 C 10.579 9.128 10.982 9.605 11.438 10.036 Z " fill-rule="evenodd" fill="rgb(67,50,49)"/></g></g></svg>