<svg xmlns="http://www.w3.org/2000/svg" xmlns:xlink="http://www.w3.org/1999/xlink" style="isolation:isolate" viewBox="0 0 20 20" width="20pt" height="20pt" aria-labelledby="catTitle" role="img">
  <title id="catTitle">Cat</title>
<defs><clipPath id="_clipPath_PHXSAGipDNYODde7JSPLjezKzalNDQsv"><rect width="20" height="20"/></clipPath></defs><g clip-path="url(#_clipPath_PHXSAGipDNYODde7JSPLjezKzalNDQsv)"><g><path d=" M 8.313 7.349 C 8.2 7.108 8.172 6.842 8.234 6.587 C 8.28 6.409 8.374 6.245 8.509 6.11 L 8.496 6.05 C 8.345 5.749 8.335 5.405 8.47 5.098 C 8.516 4.99 8.587 4.892 8.679 4.812 L 8.665 4.752 L 8.639 4.681 C 8.612 4.591 8.594 4.499 8.587 4.407 C 8.569 4.171 8.638 3.936 8.783 3.74 L 8.757 3.68 L 8.731 3.621 C 8.699 3.543 8.673 3.463 8.652 3.382 C 8.579 3.156 8.584 2.915 8.665 2.691 C 8.684 2.65 8.706 2.61 8.731 2.572 L 8.731 2.453 C 8.741 2.221 8.772 1.99 8.822 1.762 C 8.949 1.517 9.188 1.334 9.476 1.262 L 9.476 1.238 C 9.598 1.258 9.717 1.294 9.828 1.345 C 10.153 1.484 10.405 1.732 10.534 2.036 C 10.607 2.256 10.634 2.486 10.612 2.715 L 10.638 2.739 L 10.678 2.775 C 10.784 2.895 10.864 3.032 10.913 3.18 C 10.991 3.394 11.004 3.632 11.004 3.859 L 11.017 3.871 C 11.083 3.93 11.148 3.99 11.174 4.049 L 11.279 4.288 L 11.37 4.645 L 11.409 5.193 L 11.409 5.217 L 11.422 5.252 L 11.448 5.288 L 11.527 5.419 C 11.698 5.783 11.761 6.181 11.71 6.575 L 11.749 6.622 C 11.749 6.646 11.775 6.658 11.788 6.682 C 11.926 6.903 11.994 7.154 11.984 7.408 C 11.984 7.551 11.958 7.682 11.919 7.813 L 11.945 7.861 L 12.35 8.028 C 12.389 8.075 14.375 6.039 16.648 5.264 C 16.883 5.193 16.975 5.205 17.38 6.372 C 17.646 7.327 17.632 8.33 17.341 9.279 C 17.313 9.476 17.3 9.675 17.302 9.874 L 17.315 10.029 C 17.315 10.065 17.341 10.1 17.354 10.124 L 17.38 10.124 L 17.406 10.136 C 17.432 10.136 17.445 10.16 17.458 10.172 C 17.502 10.224 17.49 10.299 17.432 10.339 C 17.402 10.358 17.364 10.366 17.328 10.362 L 16.936 10.362 L 16.988 10.803 L 16.988 10.863 C 16.963 10.907 16.912 10.935 16.857 10.934 L 16.805 10.934 L 16.596 10.863 L 16.544 11.292 C 16.557 11.303 16.988 11.768 16.91 13.34 L 16.91 13.388 C 16.91 13.626 17.197 13.864 17.367 14.043 C 17.445 14.126 17.537 14.186 17.628 14.246 C 17.803 14.347 17.999 14.416 18.203 14.448 L 18.216 14.448 L 18.242 14.46 L 18.281 14.496 C 18.316 14.538 18.316 14.596 18.281 14.639 L 18.242 14.674 L 18.216 14.674 L 17.511 14.889 L 18.294 15.163 L 18.321 15.175 L 18.347 15.187 L 18.373 15.222 C 18.39 15.254 18.391 15.29 18.376 15.322 C 18.361 15.354 18.331 15.379 18.294 15.389 L 18.268 15.389 L 17.432 15.532 L 17.602 15.604 C 17.79 15.681 17.973 15.769 18.151 15.866 L 18.294 15.961 C 18.332 15.986 18.367 16.014 18.399 16.044 L 18.451 16.116 L 18.464 16.175 C 18.464 16.235 17.589 16.735 17.106 16.545 C 16.897 16.985 16.073 17.355 15.485 17.724 C 13.134 19.237 8.822 19.451 6.052 18.117 C 5.935 18.176 5.295 17.402 5.269 17.378 C 4.942 17.212 4.485 17.402 4.459 17.402 L 4.419 17.402 C 4.368 17.382 4.336 17.334 4.341 17.283 L 4.289 16.747 C 4.054 16.721 3.819 16.701 3.583 16.687 C 3.532 16.662 3.505 16.609 3.518 16.556 C 3.524 16.533 3.538 16.513 3.557 16.497 L 3.596 16.473 L 3.897 16.199 L 3.374 16.068 L 3.348 16.068 C 3.314 16.068 3.281 16.055 3.257 16.032 C 3.207 15.986 3.207 15.912 3.257 15.866 L 3.257 15.854 L 4.367 14.782 C 4.165 14.048 4.151 13.281 4.328 12.542 L 3.962 12.483 L 3.936 12.483 L 3.936 12.447 C 3.915 12.439 3.897 12.427 3.884 12.411 L 3.884 12.387 L 3.805 12.233 L 3.309 12.054 L 3.283 12.054 L 3.257 12.018 C 3.225 11.986 3.215 11.94 3.23 11.899 L 3.243 11.875 L 3.374 11.756 L 3.034 11.697 L 3.021 11.697 L 2.995 11.685 C 2.931 11.658 2.902 11.589 2.93 11.53 L 2.956 11.494 L 3.178 11.292 C 3.1 11.184 2.786 10.97 1.258 9.231 C 0.774 8.683 1.022 8.29 1.022 8.29 C 1.022 8.29 1.179 8.028 2.629 8.183 C 2.878 8.206 3.113 8.183 3.361 8.171 C 3.637 8.159 3.912 8.131 4.184 8.087 L 4.393 8.052 L 4.511 8.028 C 4.681 8.004 4.864 7.98 5.033 7.98 C 5.437 7.964 5.84 8.033 6.209 8.183 L 6.601 8.337 L 6.928 8.433 C 7.085 8.48 7.62 8.504 7.908 8.385 C 8.091 8.314 8.078 8.135 8.104 8.028 C 8.169 7.849 8.274 7.67 8.404 7.516 C 8.394 7.496 8.385 7.476 8.378 7.456 L 8.339 7.396 L 8.313 7.361 L 8.313 7.349 Z " fill-rule="evenodd" fill="rgb(0,0,0)" fill-opacity="0.2"/><mask id="_mask_ASxI8rtOkhTDZ5QKUGt5vKElY88eGTef" x="-200%" y="-200%" width="400%" height="400%"><rect x="-200%" y="-200%" width="400%" height="400%" style="fill:white;"/><path d=" M 8.835 7.111 C 8.718 6.871 8.686 6.605 8.744 6.348 C 8.756 6.281 8.783 6.216 8.822 6.158 C 8.875 6.053 8.946 5.957 9.031 5.872 L 9.031 5.86 C 8.997 5.774 8.966 5.686 8.94 5.598 C 8.888 5.36 8.875 5.086 8.979 4.847 C 9.033 4.74 9.108 4.644 9.201 4.562 L 9.175 4.502 L 9.162 4.442 C 9.128 4.35 9.106 4.254 9.097 4.157 C 9.078 3.92 9.147 3.686 9.293 3.49 L 9.28 3.43 C 9.23 3.338 9.191 3.243 9.162 3.144 C 9.094 2.917 9.103 2.676 9.188 2.453 C 9.207 2.412 9.228 2.372 9.253 2.334 C 9.251 2.062 9.282 1.79 9.345 1.524 C 9.469 1.281 9.702 1.099 9.985 1.024 L 10.011 1 L 10.142 1.024 L 10.364 1.107 C 10.692 1.247 10.945 1.5 11.069 1.81 C 11.142 2.026 11.169 2.252 11.148 2.477 L 11.174 2.501 L 11.2 2.537 C 11.318 2.656 11.396 2.799 11.435 2.942 C 11.514 3.168 11.54 3.394 11.527 3.621 L 11.553 3.644 C 11.618 3.692 11.67 3.763 11.71 3.823 L 11.814 4.049 C 11.892 4.346 11.936 4.65 11.945 4.955 L 11.945 5.014 C 11.984 5.072 12.019 5.131 12.049 5.193 C 12.224 5.552 12.292 5.946 12.245 6.336 L 12.271 6.396 L 12.311 6.444 L 12.324 6.455 L 12.415 6.634 C 12.536 6.937 12.545 7.267 12.441 7.575 L 12.481 7.623 C 12.494 7.647 12.872 7.778 12.872 7.801 C 12.925 7.849 14.898 5.812 17.184 5.038 C 17.406 4.955 17.511 4.967 17.903 6.134 C 18.161 7.061 18.157 8.032 17.889 8.957 L 17.876 9.04 C 17.844 9.293 17.835 9.548 17.85 9.803 C 17.85 9.826 17.863 9.862 17.889 9.886 L 17.916 9.886 L 17.929 9.898 C 17.954 9.904 17.977 9.916 17.994 9.934 C 18.029 9.976 18.029 10.034 17.994 10.077 L 17.968 10.112 C 17.937 10.131 17.9 10.14 17.863 10.136 L 17.458 10.112 L 17.524 10.565 L 17.524 10.589 L 17.511 10.625 C 17.486 10.669 17.435 10.697 17.38 10.696 L 17.328 10.696 L 17.132 10.625 L 17.079 11.053 C 17.079 11.065 17.524 11.542 17.432 13.114 L 17.432 13.15 C 17.445 13.388 17.733 13.626 17.903 13.805 C 17.978 13.884 18.066 13.952 18.164 14.007 C 18.335 14.107 18.526 14.176 18.726 14.21 L 18.752 14.21 L 18.778 14.234 C 18.788 14.24 18.797 14.248 18.804 14.258 C 18.846 14.302 18.846 14.368 18.804 14.412 L 18.765 14.436 L 18.739 14.436 L 18.033 14.663 L 18.83 14.936 L 18.856 14.936 L 18.869 14.96 L 18.909 14.984 C 18.941 15.037 18.924 15.104 18.869 15.139 L 18.83 15.163 L 18.804 15.163 L 17.955 15.294 L 18.125 15.365 C 18.415 15.484 18.687 15.636 18.935 15.818 L 18.987 15.877 L 19 15.937 C 19 15.997 18.125 16.497 17.628 16.318 C 17.432 16.747 16.609 17.116 16.021 17.486 C 13.669 19.01 9.358 19.213 6.575 17.879 C 6.471 17.938 5.83 17.164 5.791 17.14 C 5.465 16.985 5.007 17.176 4.994 17.176 L 4.942 17.164 C 4.896 17.14 4.87 17.093 4.877 17.045 L 4.811 16.509 C 4.581 16.487 4.35 16.471 4.119 16.461 C 4.082 16.443 4.058 16.41 4.053 16.372 C 4.048 16.334 4.062 16.297 4.093 16.271 L 4.119 16.247 L 4.419 15.973 L 3.897 15.83 L 3.831 15.83 C 3.798 15.819 3.771 15.797 3.756 15.767 C 3.742 15.738 3.74 15.705 3.753 15.675 L 3.779 15.627 L 3.792 15.627 L 4.903 14.543 C 4.772 14.639 4.615 12.614 4.85 12.304 L 4.498 12.244 L 4.459 12.244 L 4.432 12.233 C 4.411 12.221 4.393 12.205 4.38 12.185 L 4.38 12.173 L 4.315 12.006 L 3.805 11.839 L 3.766 11.804 C 3.734 11.771 3.724 11.726 3.74 11.685 L 3.766 11.649 L 3.884 11.53 L 3.557 11.47 L 3.518 11.47 C 3.502 11.461 3.489 11.449 3.479 11.434 C 3.441 11.4 3.431 11.348 3.452 11.303 L 3.479 11.268 L 3.701 11.077 C 3.609 10.958 3.309 10.756 1.78 9.005 C 1.297 8.457 1.532 8.075 1.532 8.075 C 1.532 8.075 1.702 7.79 3.152 7.956 C 3.387 7.98 3.635 7.956 3.871 7.933 C 4.151 7.921 4.43 7.893 4.707 7.849 L 4.903 7.813 L 5.033 7.79 C 5.203 7.766 5.373 7.742 5.556 7.742 C 5.96 7.728 6.362 7.797 6.732 7.944 L 7.124 8.099 L 7.45 8.206 C 7.594 8.242 8.143 8.266 8.43 8.147 C 8.6 8.075 8.587 7.897 8.626 7.79 C 8.692 7.611 8.796 7.432 8.927 7.277 L 8.888 7.23 L 8.861 7.158 L 8.822 7.134 L 8.835 7.123 L 8.835 7.111 Z " fill-rule="evenodd" fill="black" stroke="none"/></mask><path d=" M 8.835 7.111 C 8.718 6.871 8.686 6.605 8.744 6.348 C 8.756 6.281 8.783 6.216 8.822 6.158 C 8.875 6.053 8.946 5.957 9.031 5.872 L 9.031 5.86 C 8.997 5.774 8.966 5.686 8.94 5.598 C 8.888 5.36 8.875 5.086 8.979 4.847 C 9.033 4.74 9.108 4.644 9.201 4.562 L 9.175 4.502 L 9.162 4.442 C 9.128 4.35 9.106 4.254 9.097 4.157 C 9.078 3.92 9.147 3.686 9.293 3.49 L 9.28 3.43 C 9.23 3.338 9.191 3.243 9.162 3.144 C 9.094 2.917 9.103 2.676 9.188 2.453 C 9.207 2.412 9.228 2.372 9.253 2.334 C 9.251 2.062 9.282 1.79 9.345 1.524 C 9.469 1.281 9.702 1.099 9.985 1.024 L 10.011 1 L 10.142 1.024 L 10.364 1.107 C 10.692 1.247 10.945 1.5 11.069 1.81 C 11.142 2.026 11.169 2.252 11.148 2.477 L 11.174 2.501 L 11.2 2.537 C 11.318 2.656 11.396 2.799 11.435 2.942 C 11.514 3.168 11.54 3.394 11.527 3.621 L 11.553 3.644 C 11.618 3.692 11.67 3.763 11.71 3.823 L 11.814 4.049 C 11.892 4.346 11.936 4.65 11.945 4.955 L 11.945 5.014 C 11.984 5.072 12.019 5.131 12.049 5.193 C 12.224 5.552 12.292 5.946 12.245 6.336 L 12.271 6.396 L 12.311 6.444 L 12.324 6.455 L 12.415 6.634 C 12.536 6.937 12.545 7.267 12.441 7.575 L 12.481 7.623 C 12.494 7.647 12.872 7.778 12.872 7.801 C 12.925 7.849 14.898 5.812 17.184 5.038 C 17.406 4.955 17.511 4.967 17.903 6.134 C 18.161 7.061 18.157 8.032 17.889 8.957 L 17.876 9.04 C 17.844 9.293 17.835 9.548 17.85 9.803 C 17.85 9.826 17.863 9.862 17.889 9.886 L 17.916 9.886 L 17.929 9.898 C 17.954 9.904 17.977 9.916 17.994 9.934 C 18.029 9.976 18.029 10.034 17.994 10.077 L 17.968 10.112 C 17.937 10.131 17.9 10.14 17.863 10.136 L 17.458 10.112 L 17.524 10.565 L 17.524 10.589 L 17.511 10.625 C 17.486 10.669 17.435 10.697 17.38 10.696 L 17.328 10.696 L 17.132 10.625 L 17.079 11.053 C 17.079 11.065 17.524 11.542 17.432 13.114 L 17.432 13.15 C 17.445 13.388 17.733 13.626 17.903 13.805 C 17.978 13.884 18.066 13.952 18.164 14.007 C 18.335 14.107 18.526 14.176 18.726 14.21 L 18.752 14.21 L 18.778 14.234 C 18.788 14.24 18.797 14.248 18.804 14.258 C 18.846 14.302 18.846 14.368 18.804 14.412 L 18.765 14.436 L 18.739 14.436 L 18.033 14.663 L 18.83 14.936 L 18.856 14.936 L 18.869 14.96 L 18.909 14.984 C 18.941 15.037 18.924 15.104 18.869 15.139 L 18.83 15.163 L 18.804 15.163 L 17.955 15.294 L 18.125 15.365 C 18.415 15.484 18.687 15.636 18.935 15.818 L 18.987 15.877 L 19 15.937 C 19 15.997 18.125 16.497 17.628 16.318 C 17.432 16.747 16.609 17.116 16.021 17.486 C 13.669 19.01 9.358 19.213 6.575 17.879 C 6.471 17.938 5.83 17.164 5.791 17.14 C 5.465 16.985 5.007 17.176 4.994 17.176 L 4.942 17.164 C 4.896 17.14 4.87 17.093 4.877 17.045 L 4.811 16.509 C 4.581 16.487 4.35 16.471 4.119 16.461 C 4.082 16.443 4.058 16.41 4.053 16.372 C 4.048 16.334 4.062 16.297 4.093 16.271 L 4.119 16.247 L 4.419 15.973 L 3.897 15.83 L 3.831 15.83 C 3.798 15.819 3.771 15.797 3.756 15.767 C 3.742 15.738 3.74 15.705 3.753 15.675 L 3.779 15.627 L 3.792 15.627 L 4.903 14.543 C 4.772 14.639 4.615 12.614 4.85 12.304 L 4.498 12.244 L 4.459 12.244 L 4.432 12.233 C 4.411 12.221 4.393 12.205 4.38 12.185 L 4.38 12.173 L 4.315 12.006 L 3.805 11.839 L 3.766 11.804 C 3.734 11.771 3.724 11.726 3.74 11.685 L 3.766 11.649 L 3.884 11.53 L 3.557 11.47 L 3.518 11.47 C 3.502 11.461 3.489 11.449 3.479 11.434 C 3.441 11.4 3.431 11.348 3.452 11.303 L 3.479 11.268 L 3.701 11.077 C 3.609 10.958 3.309 10.756 1.78 9.005 C 1.297 8.457 1.532 8.075 1.532 8.075 C 1.532 8.075 1.702 7.79 3.152 7.956 C 3.387 7.98 3.635 7.956 3.871 7.933 C 4.151 7.921 4.43 7.893 4.707 7.849 L 4.903 7.813 L 5.033 7.79 C 5.203 7.766 5.373 7.742 5.556 7.742 C 5.96 7.728 6.362 7.797 6.732 7.944 L 7.124 8.099 L 7.45 8.206 C 7.594 8.242 8.143 8.266 8.43 8.147 C 8.6 8.075 8.587 7.897 8.626 7.79 C 8.692 7.611 8.796 7.432 8.927 7.277 L 8.888 7.23 L 8.861 7.158 L 8.822 7.134 L 8.835 7.123 L 8.835 7.111 Z " fill-rule="evenodd" fill="rgb(255,255,255)"/><path d=" M 8.835 7.111 C 8.718 6.871 8.686 6.605 8.744 6.348 C 8.756 6.281 8.783 6.216 8.822 6.158 C 8.875 6.053 8.946 5.957 9.031 5.872 L 9.031 5.86 C 8.997 5.774 8.966 5.686 8.94 5.598 C 8.888 5.36 8.875 5.086 8.979 4.847 C 9.033 4.74 9.108 4.644 9.201 4.562 L 9.175 4.502 L 9.162 4.442 C 9.128 4.35 9.106 4.254 9.097 4.157 C 9.078 3.92 9.147 3.686 9.293 3.49 L 9.28 3.43 C 9.23 3.338 9.191 3.243 9.162 3.144 C 9.094 2.917 9.103 2.676 9.188 2.453 C 9.207 2.412 9.228 2.372 9.253 2.334 C 9.251 2.062 9.282 1.79 9.345 1.524 C 9.469 1.281 9.702 1.099 9.985 1.024 L 10.011 1 L 10.142 1.024 L 10.364 1.107 C 10.692 1.247 10.945 1.5 11.069 1.81 C 11.142 2.026 11.169 2.252 11.148 2.477 L 11.174 2.501 L 11.2 2.537 C 11.318 2.656 11.396 2.799 11.435 2.942 C 11.514 3.168 11.54 3.394 11.527 3.621 L 11.553 3.644 C 11.618 3.692 11.67 3.763 11.71 3.823 L 11.814 4.049 C 11.892 4.346 11.936 4.65 11.945 4.955 L 11.945 5.014 C 11.984 5.072 12.019 5.131 12.049 5.193 C 12.224 5.552 12.292 5.946 12.245 6.336 L 12.271 6.396 L 12.311 6.444 L 12.324 6.455 L 12.415 6.634 C 12.536 6.937 12.545 7.267 12.441 7.575 L 12.481 7.623 C 12.494 7.647 12.872 7.778 12.872 7.801 C 12.925 7.849 14.898 5.812 17.184 5.038 C 17.406 4.955 17.511 4.967 17.903 6.134 C 18.161 7.061 18.157 8.032 17.889 8.957 L 17.876 9.04 C 17.844 9.293 17.835 9.548 17.85 9.803 C 17.85 9.826 17.863 9.862 17.889 9.886 L 17.916 9.886 L 17.929 9.898 C 17.954 9.904 17.977 9.916 17.994 9.934 C 18.029 9.976 18.029 10.034 17.994 10.077 L 17.968 10.112 C 17.937 10.131 17.9 10.14 17.863 10.136 L 17.458 10.112 L 17.524 10.565 L 17.524 10.589 L 17.511 10.625 C 17.486 10.669 17.435 10.697 17.38 10.696 L 17.328 10.696 L 17.132 10.625 L 17.079 11.053 C 17.079 11.065 17.524 11.542 17.432 13.114 L 17.432 13.15 C 17.445 13.388 17.733 13.626 17.903 13.805 C 17.978 13.884 18.066 13.952 18.164 14.007 C 18.335 14.107 18.526 14.176 18.726 14.21 L 18.752 14.21 L 18.778 14.234 C 18.788 14.24 18.797 14.248 18.804 14.258 C 18.846 14.302 18.846 14.368 18.804 14.412 L 18.765 14.436 L 18.739 14.436 L 18.033 14.663 L 18.83 14.936 L 18.856 14.936 L 18.869 14.96 L 18.909 14.984 C 18.941 15.037 18.924 15.104 18.869 15.139 L 18.83 15.163 L 18.804 15.163 L 17.955 15.294 L 18.125 15.365 C 18.415 15.484 18.687 15.636 18.935 15.818 L 18.987 15.877 L 19 15.937 C 19 15.997 18.125 16.497 17.628 16.318 C 17.432 16.747 16.609 17.116 16.021 17.486 C 13.669 19.01 9.358 19.213 6.575 17.879 C 6.471 17.938 5.83 17.164 5.791 17.14 C 5.465 16.985 5.007 17.176 4.994 17.176 L 4.942 17.164 C 4.896 17.14 4.87 17.093 4.877 17.045 L 4.811 16.509 C 4.581 16.487 4.35 16.471 4.119 16.461 C 4.082 16.443 4.058 16.41 4.053 16.372 C 4.048 16.334 4.062 16.297 4.093 16.271 L 4.119 16.247 L 4.419 15.973 L 3.897 15.83 L 3.831 15.83 C 3.798 15.819 3.771 15.797 3.756 15.767 C 3.742 15.738 3.74 15.705 3.753 15.675 L 3.779 15.627 L 3.792 15.627 L 4.903 14.543 C 4.772 14.639 4.615 12.614 4.85 12.304 L 4.498 12.244 L 4.459 12.244 L 4.432 12.233 C 4.411 12.221 4.393 12.205 4.38 12.185 L 4.38 12.173 L 4.315 12.006 L 3.805 11.839 L 3.766 11.804 C 3.734 11.771 3.724 11.726 3.74 11.685 L 3.766 11.649 L 3.884 11.53 L 3.557 11.47 L 3.518 11.47 C 3.502 11.461 3.489 11.449 3.479 11.434 C 3.441 11.4 3.431 11.348 3.452 11.303 L 3.479 11.268 L 3.701 11.077 C 3.609 10.958 3.309 10.756 1.78 9.005 C 1.297 8.457 1.532 8.075 1.532 8.075 C 1.532 8.075 1.702 7.79 3.152 7.956 C 3.387 7.98 3.635 7.956 3.871 7.933 C 4.151 7.921 4.43 7.893 4.707 7.849 L 4.903 7.813 L 5.033 7.79 C 5.203 7.766 5.373 7.742 5.556 7.742 C 5.96 7.728 6.362 7.797 6.732 7.944 L 7.124 8.099 L 7.45 8.206 C 7.594 8.242 8.143 8.266 8.43 8.147 C 8.6 8.075 8.587 7.897 8.626 7.79 C 8.692 7.611 8.796 7.432 8.927 7.277 L 8.888 7.23 L 8.861 7.158 L 8.822 7.134 L 8.835 7.123 L 8.835 7.111 Z " fill-rule="evenodd" fill="rgb(255,255,255)" mask="url(#_mask_ASxI8rtOkhTDZ5QKUGt5vKElY88eGTef)" vector-effect="non-scaling-stroke" stroke-width="0.07" stroke="rgb(207,207,207)" stroke-linejoin="round" stroke-linecap="butt" stroke-miterlimit="1.41"/><path d=" M 8.417 8.707 C 8.417 8.707 10.86 8.469 12.415 8.6 C 13.068 8.659 13.264 8.278 13.317 8.218 C 13.356 8.159 13.813 7.837 14.231 7.659 C 14.649 7.468 14.989 6.348 17.106 5.598 C 17.106 5.598 17.576 6.837 16.949 8.85 C 16.949 8.85 16.766 9.862 17.066 9.862 L 16.557 9.838 L 16.622 10.386 L 16.309 10.279 L 16.23 10.875 C 16.23 10.875 17.014 11.506 16.648 13.138 C 16.648 13.138 16.57 14.043 17.693 14.269 L 16.779 14.579 L 17.772 14.936 L 16.648 15.127 C 16.648 15.127 17.746 15.544 17.85 15.782 C 17.85 15.782 16.74 15.484 16.531 15.723 L 16.87 16.056 L 16.505 16.187 L 16.792 16.545 C 16.792 16.545 16.505 16.485 16.243 16.628 C 15.982 16.783 14.414 17.402 14.414 17.402 C 14.414 17.402 10.625 18.915 8.182 17.557 C 8.182 17.557 7.268 17.247 6.915 17.45 C 6.915 17.45 7.006 17.212 6.784 17.009 C 6.562 16.795 6.262 16.556 6.262 16.556 C 6.262 16.556 5.7 16.425 5.321 16.723 C 5.321 16.723 5.739 16.116 5.739 16.009 C 5.739 16.009 5.125 15.842 4.85 16.009 C 4.85 16.009 5.517 15.711 5.608 15.413 L 4.432 15.556 L 5.569 14.639 C 5.569 14.639 5.308 13.305 5.517 12.34 L 5.687 12.042 L 5.203 11.959 L 5.138 11.756 L 4.641 11.577 L 4.877 11.315 L 4.393 11.232 L 4.654 10.994 L 4.354 10.589 C 4.354 10.589 2.943 9.683 2.59 8.945 C 2.59 8.945 2.094 8.826 1.95 8.29 C 1.95 8.29 3.936 8.516 5.033 8.278 C 6.131 8.04 6.471 8.326 7.111 8.552 C 7.525 8.704 7.974 8.758 8.417 8.707 Z " fill-rule="evenodd" fill="rgb(253,243,236)"/><path d=" M 5.112 11.804 C 5.112 11.804 5.386 12.054 5.621 12.042 C 5.765 12.042 5.896 11.851 5.935 11.685 C 6.013 11.303 5.974 9.946 5.974 9.946 C 5.974 9.946 4.341 9.088 3.596 9.005 C 2.865 8.933 2.76 9.005 2.525 8.885 C 2.29 8.79 2.76 9.243 2.76 9.243 L 4.302 10.541 L 4.628 10.958 L 4.419 11.22 L 4.864 11.351 L 4.707 11.601 L 5.112 11.804 Z  M 14.493 9.1 C 14.493 9.1 16.086 8.504 16.348 7.075 C 16.609 5.657 17.223 6.062 17.223 6.062 L 17.288 7.373 L 16.897 9.016 L 16.923 9.815 L 16.57 9.874 L 16.596 10.351 L 16.335 10.315 L 16.282 10.803 L 16.217 10.922 C 16.217 10.922 15.59 9.981 14.493 9.1 Z " fill-rule="evenodd" fill="rgb(247,209,183)"/><path d=" M 4.798 9.386 C 5.412 9.648 5.974 9.946 5.974 9.946 L 5.974 11.089 C 5.784 11.108 5.592 11.087 5.412 11.03 C 4.393 10.779 4.681 9.695 4.798 9.386 Z  M 15.616 8.469 C 15.616 8.469 15.799 8.016 15.904 8.147 C 16.23 8.552 16.687 9.29 15.838 9.922 C 14.623 10.815 14.532 9.731 14.532 9.731 L 14.466 9.112 L 14.898 8.933 L 15.603 8.469 L 15.616 8.469 Z " fill-rule="evenodd" fill="rgb(240,166,116)"/><path d=" M 12.298 13.245 C 12.298 13.245 12.219 11.947 13.343 11.494 C 14.493 11.053 15.198 12.209 14.754 12.804 C 14.31 13.388 13.709 13.412 13.709 13.412 C 13.709 13.412 12.402 13.638 12.298 13.245 Z " fill-rule="evenodd" fill="rgb(224,212,87)"/><path d=" M 9.776 13.317 C 9.776 13.317 9.593 12.03 8.391 11.768 C 7.189 11.518 6.732 12.769 7.281 13.281 C 7.829 13.781 8.43 13.71 8.43 13.71 C 8.43 13.71 9.737 13.71 9.776 13.317 Z " fill-rule="evenodd" fill="rgb(110,201,195)"/><path d=" M 9.358 8.719 C 9.358 8.719 8.875 7.992 9.528 7.218 C 9.528 7.218 9.005 6.527 9.619 5.931 C 9.619 5.931 9.227 5.157 9.763 4.728 C 9.763 4.728 9.462 4.18 9.854 3.716 C 9.854 3.716 9.502 3.096 9.789 2.656 C 9.789 2.656 9.789 1.81 9.985 1.655 C 9.985 1.655 10.952 1.81 10.847 3.037 C 10.847 3.037 11.239 3.275 11.187 4.109 C 11.187 4.109 11.54 4.204 11.54 5.348 C 11.54 5.348 11.906 5.872 11.801 6.61 C 11.801 6.61 12.193 7.063 11.971 7.766 C 11.971 7.766 12.494 8.242 12.206 8.921 C 11.919 9.588 11.017 9.588 10.73 9.564 C 9.789 9.493 9.358 8.719 9.358 8.719 Z " fill-rule="evenodd" fill="rgb(227,157,255)"/><path d=" M 9.528 7.23 C 9.894 7.635 10.664 8.135 12.01 7.825 C 12.141 7.956 12.441 8.385 12.206 8.921 C 11.919 9.588 11.017 9.588 10.73 9.564 C 9.789 9.493 9.358 8.719 9.358 8.719 C 9.358 8.719 8.875 7.992 9.528 7.218 L 9.528 7.23 Z  M 9.75 4.704 C 10.024 4.74 10.56 5.014 11.579 5.419 C 11.67 5.586 11.88 6.015 11.814 6.551 C 11.422 6.36 10.22 5.8 9.593 5.86 C 9.502 5.645 9.332 5.074 9.763 4.728 L 9.763 4.704 L 9.75 4.704 Z  M 9.789 2.596 C 10.05 2.691 10.377 2.846 10.847 3.037 C 10.847 3.037 11.239 3.275 11.187 4.109 C 10.757 3.909 10.3 3.761 9.828 3.668 C 9.75 3.525 9.541 3.025 9.789 2.656 L 9.789 2.596 Z " fill-rule="evenodd" fill="rgb(249,160,160)"/><path d=" M 9.293 7.075 C 9.194 6.848 9.171 6.599 9.227 6.36 C 9.261 6.231 9.323 6.109 9.41 6.003 L 9.476 5.919 L 9.462 5.86 L 9.436 5.788 L 9.397 5.669 C 9.332 5.437 9.346 5.192 9.436 4.967 C 9.481 4.871 9.543 4.782 9.619 4.704 L 9.606 4.645 L 9.58 4.585 C 9.557 4.499 9.544 4.412 9.541 4.323 C 9.523 4.106 9.582 3.888 9.711 3.704 C 9.661 3.599 9.617 3.492 9.58 3.382 C 9.522 3.17 9.531 2.947 9.606 2.739 C 9.62 2.698 9.638 2.658 9.658 2.62 L 9.658 2.513 C 9.672 2.297 9.703 2.082 9.75 1.87 C 9.759 1.821 9.772 1.773 9.789 1.727 C 9.812 1.669 9.848 1.616 9.894 1.572 L 9.946 1.536 L 10.063 1.56 L 10.259 1.631 C 10.585 1.778 10.824 2.048 10.913 2.37 C 10.975 2.571 10.997 2.781 10.978 2.989 L 11.004 3.013 L 11.017 3.037 C 11.122 3.156 11.187 3.275 11.226 3.418 C 11.305 3.621 11.318 3.835 11.305 4.049 L 11.331 4.073 C 11.385 4.121 11.429 4.178 11.461 4.24 L 11.553 4.442 L 11.631 4.8 L 11.657 5.288 L 11.657 5.312 L 11.684 5.348 C 11.713 5.398 11.739 5.45 11.762 5.503 C 11.916 5.841 11.974 6.21 11.932 6.575 L 11.958 6.622 L 11.984 6.67 L 11.984 6.682 L 11.997 6.682 L 12.075 6.849 C 12.183 7.129 12.192 7.433 12.102 7.718 L 12.102 7.73 L 12.141 7.766 L 12.167 7.813 C 12.286 7.975 12.366 8.158 12.402 8.349 L 12.415 8.48 L 12.467 8.48 L 12.533 8.492 C 12.663 8.492 12.794 8.48 12.912 8.421 C 12.969 8.397 13.022 8.365 13.068 8.326 C 13.103 8.297 13.133 8.265 13.16 8.23 L 13.212 8.159 L 13.212 8.147 C 13.49 7.932 13.792 7.744 14.114 7.587 L 14.192 7.551 L 14.205 7.539 C 14.289 7.469 14.367 7.393 14.44 7.313 L 14.636 7.075 C 14.838 6.862 15.051 6.659 15.276 6.467 C 15.775 6.062 16.35 5.743 16.975 5.526 L 17.001 5.526 L 17.066 5.503 C 17.092 5.495 17.119 5.495 17.145 5.503 L 17.171 5.514 L 17.197 5.538 L 17.21 5.574 L 17.236 5.634 C 17.325 5.993 17.373 6.361 17.38 6.729 C 17.396 7.488 17.281 8.243 17.04 8.969 C 17.011 9.206 17.007 9.445 17.027 9.683 C 17.027 9.695 17.027 9.731 17.053 9.755 L 17.079 9.755 L 17.106 9.767 C 17.121 9.776 17.135 9.788 17.145 9.803 C 17.168 9.839 17.168 9.885 17.145 9.922 L 17.132 9.957 C 17.106 9.976 17.073 9.984 17.04 9.981 L 16.687 9.969 L 16.74 10.386 L 16.74 10.41 C 16.718 10.457 16.665 10.486 16.609 10.482 L 16.57 10.482 L 16.4 10.422 L 16.348 10.815 L 16.387 10.851 C 16.518 11.006 16.622 11.184 16.701 11.375 C 16.866 11.815 16.911 12.285 16.831 12.745 C 16.816 12.892 16.795 13.04 16.766 13.185 C 16.774 13.498 16.95 13.788 17.236 13.96 C 17.382 14.052 17.546 14.117 17.72 14.15 L 17.733 14.15 L 17.759 14.174 C 17.759 14.174 17.785 14.174 17.785 14.198 C 17.82 14.24 17.82 14.299 17.785 14.341 L 17.746 14.365 L 17.733 14.365 L 17.119 14.567 L 17.811 14.829 L 17.824 14.829 L 17.837 14.841 L 17.863 14.877 C 17.891 14.936 17.862 15.005 17.798 15.032 L 17.785 15.032 L 17.04 15.163 L 17.197 15.234 L 17.302 15.282 C 17.474 15.362 17.64 15.453 17.798 15.556 L 17.889 15.639 C 17.91 15.661 17.928 15.685 17.942 15.711 L 17.955 15.758 C 17.958 15.812 17.92 15.861 17.863 15.877 L 17.798 15.877 L 17.759 15.866 L 17.693 15.854 C 17.436 15.794 17.174 15.754 16.91 15.735 L 16.727 15.735 L 16.949 15.973 L 16.975 16.009 C 16.987 16.052 16.972 16.098 16.936 16.128 L 16.91 16.14 L 16.687 16.223 L 16.87 16.461 L 16.883 16.473 L 16.883 16.533 C 16.877 16.589 16.828 16.634 16.766 16.64 L 16.674 16.64 C 16.573 16.628 16.469 16.64 16.374 16.676 L 16.309 16.711 C 16.282 16.711 16.269 16.735 16.243 16.747 L 16.152 16.783 L 15.812 16.938 L 15.42 17.104 C 15.064 17.25 14.707 17.393 14.349 17.533 C 13.14 17.964 11.858 18.198 10.56 18.224 C 9.711 18.218 8.876 18.021 8.13 17.652 L 8.117 17.652 C 7.854 17.569 7.583 17.513 7.307 17.486 L 7.098 17.486 C 7.051 17.494 7.007 17.51 6.967 17.533 L 6.941 17.557 L 6.889 17.557 C 6.834 17.554 6.787 17.521 6.771 17.474 L 6.771 17.438 L 6.784 17.402 L 6.784 17.307 C 6.782 17.222 6.745 17.141 6.68 17.081 L 6.549 16.961 L 6.222 16.687 L 6.196 16.664 C 6.136 16.651 6.075 16.643 6.013 16.64 C 5.837 16.629 5.661 16.662 5.504 16.735 C 5.467 16.752 5.432 16.772 5.399 16.795 L 5.386 16.807 L 5.373 16.807 L 5.347 16.83 L 5.282 16.83 C 5.273 16.831 5.264 16.831 5.255 16.83 C 5.191 16.803 5.162 16.735 5.19 16.676 L 5.19 16.664 L 5.295 16.521 L 5.543 16.14 L 5.543 16.116 L 5.569 16.092 L 5.504 16.092 C 5.409 16.072 5.313 16.06 5.216 16.056 C 5.138 16.056 5.073 16.056 5.007 16.08 L 4.981 16.08 L 4.903 16.116 L 4.877 16.116 C 4.843 16.129 4.805 16.129 4.772 16.116 C 4.731 16.089 4.71 16.042 4.72 15.997 C 4.722 15.975 4.731 15.954 4.746 15.937 L 4.785 15.913 C 4.81 15.899 4.836 15.887 4.864 15.877 L 4.877 15.877 L 4.929 15.842 C 5.06 15.77 5.19 15.687 5.321 15.58 L 5.334 15.58 L 5.334 15.568 L 4.432 15.663 L 4.38 15.663 C 4.366 15.657 4.352 15.649 4.341 15.639 C 4.304 15.609 4.289 15.563 4.302 15.52 L 4.328 15.484 L 4.341 15.472 L 5.425 14.603 L 5.412 14.484 L 5.386 14.377 C 5.322 13.887 5.295 13.393 5.308 12.9 C 5.308 12.757 5.334 12.626 5.36 12.483 L 5.373 12.364 L 5.373 12.34 L 5.386 12.304 L 5.386 12.292 L 5.491 12.125 L 5.164 12.066 L 5.151 12.066 L 5.125 12.054 C 5.107 12.042 5.094 12.025 5.086 12.006 L 5.086 11.994 L 5.02 11.851 L 4.589 11.685 L 4.563 11.685 C 4.563 11.661 4.55 11.661 4.537 11.649 C 4.514 11.617 4.509 11.577 4.524 11.542 L 4.537 11.506 L 4.641 11.387 L 4.354 11.351 L 4.328 11.351 L 4.315 11.339 C 4.262 11.309 4.24 11.249 4.263 11.196 C 4.263 11.172 4.276 11.172 4.289 11.161 L 4.472 10.97 L 4.249 10.66 L 4.21 10.636 L 4.145 10.589 L 3.988 10.482 C 3.548 10.159 3.137 9.805 2.76 9.421 C 2.66 9.306 2.573 9.183 2.499 9.052 C 2.485 9.045 2.472 9.037 2.46 9.028 L 2.407 9.005 C 2.115 8.872 1.904 8.627 1.832 8.337 L 1.832 8.266 C 1.845 8.225 1.879 8.194 1.924 8.183 L 1.963 8.183 L 2.094 8.195 C 2.797 8.261 3.504 8.285 4.21 8.266 C 4.451 8.251 4.691 8.224 4.929 8.183 C 4.994 8.183 5.06 8.159 5.112 8.147 L 5.203 8.135 C 5.36 8.099 5.517 8.087 5.674 8.075 C 6.025 8.06 6.376 8.125 6.693 8.266 L 7.032 8.409 C 7.323 8.521 7.632 8.59 7.947 8.611 C 8.086 8.623 8.226 8.623 8.365 8.611 L 8.365 8.6 L 8.391 8.6 L 9.136 8.528 C 8.976 8.082 9.063 7.594 9.371 7.218 L 9.358 7.17 L 9.319 7.111 L 9.293 7.075 Z  M 17.066 5.896 L 17.027 5.753 C 16.412 5.984 15.842 6.306 15.342 6.706 L 14.95 7.087 L 14.636 7.456 L 14.584 7.504 C 14.512 7.596 14.423 7.676 14.323 7.742 L 14.218 7.79 C 14.009 7.885 13.826 7.992 13.643 8.111 L 13.473 8.23 C 13.46 8.242 13.447 8.254 13.434 8.266 L 13.421 8.278 L 13.382 8.337 L 13.356 8.373 C 13.239 8.517 13.074 8.622 12.886 8.671 C 12.729 8.714 12.564 8.726 12.402 8.707 C 12.377 8.84 12.329 8.969 12.258 9.088 C 12.199 9.182 12.124 9.266 12.036 9.338 C 11.837 9.499 11.593 9.606 11.331 9.648 C 11.054 9.692 10.771 9.692 10.495 9.648 C 10.124 9.576 9.789 9.397 9.541 9.136 C 9.441 9.033 9.353 8.922 9.28 8.802 L 9.24 8.754 L 8.456 8.814 L 8.391 8.814 C 8.247 8.838 8.091 8.85 7.947 8.838 C 7.698 8.828 7.452 8.788 7.215 8.719 L 6.588 8.48 L 6.497 8.433 C 6.356 8.384 6.212 8.344 6.066 8.314 C 5.755 8.275 5.439 8.295 5.138 8.373 L 5.007 8.397 L 4.929 8.409 C 4.524 8.479 4.112 8.507 3.701 8.492 C 3.178 8.492 2.656 8.469 2.133 8.421 C 2.081 8.48 2.446 8.79 2.577 8.826 L 2.616 8.838 C 2.642 8.838 2.642 8.838 2.656 8.862 L 2.682 8.874 C 2.764 8.907 2.853 8.927 2.943 8.933 L 3.1 8.921 L 3.191 8.897 L 3.217 8.897 C 3.347 8.875 3.48 8.875 3.609 8.897 L 4.093 8.993 C 4.947 9.246 5.737 9.651 6.418 10.184 L 6.392 10.339 C 6.392 10.339 6.275 10.339 6.222 10.315 L 6.196 10.291 C 5.994 10.122 5.775 9.971 5.543 9.838 C 4.946 9.53 4.31 9.29 3.648 9.124 C 3.532 9.108 3.413 9.104 3.296 9.112 L 3.243 9.112 L 3.191 9.124 L 3.152 9.136 C 3.053 9.154 2.952 9.158 2.852 9.147 L 3.061 9.386 C 3.329 9.681 3.636 9.945 3.975 10.172 C 4.119 10.291 4.276 10.386 4.432 10.493 L 4.459 10.529 L 4.746 10.922 L 4.772 10.958 C 4.776 10.983 4.771 11.007 4.759 11.03 C 4.759 11.041 4.759 11.053 4.733 11.065 L 4.628 11.161 L 4.89 11.208 L 4.916 11.208 L 4.955 11.232 C 4.992 11.262 5.007 11.308 4.994 11.351 C 4.994 11.375 4.981 11.375 4.968 11.387 L 4.837 11.53 L 5.177 11.649 L 5.19 11.661 L 5.216 11.673 L 5.242 11.708 L 5.242 11.72 L 5.295 11.851 L 5.7 11.935 L 5.726 11.935 L 5.765 11.959 C 5.793 11.983 5.807 12.018 5.804 12.054 L 5.791 12.09 L 5.634 12.376 C 5.543 12.928 5.534 13.489 5.608 14.043 L 5.687 14.591 L 5.687 14.663 C 5.686 14.679 5.682 14.695 5.674 14.71 L 5.661 14.734 L 4.811 15.401 L 5.595 15.306 L 5.621 15.306 L 5.647 15.318 C 5.661 15.318 5.674 15.318 5.687 15.341 C 5.715 15.366 5.729 15.401 5.726 15.437 L 5.713 15.496 C 5.695 15.53 5.673 15.562 5.647 15.592 L 5.608 15.639 C 5.57 15.684 5.526 15.724 5.478 15.758 L 5.386 15.842 L 5.451 15.842 L 5.517 15.854 L 5.752 15.901 L 5.778 15.901 L 5.817 15.925 L 5.843 15.961 L 5.856 15.985 C 5.883 16.032 5.856 16.08 5.843 16.116 L 5.817 16.151 L 5.804 16.187 L 5.765 16.247 L 5.713 16.33 L 5.661 16.425 L 5.647 16.449 L 5.687 16.449 L 5.726 16.437 C 5.909 16.402 6.105 16.414 6.288 16.437 L 6.34 16.461 L 6.353 16.473 L 6.536 16.628 L 6.797 16.842 L 6.823 16.89 L 6.928 16.985 C 7.002 17.071 7.047 17.174 7.058 17.283 L 7.163 17.283 C 7.333 17.259 7.503 17.283 7.673 17.319 C 7.863 17.35 8.051 17.394 8.234 17.45 L 8.326 17.509 L 8.705 17.676 C 9.482 17.967 10.326 18.078 11.161 17.998 C 12.067 17.953 12.961 17.784 13.813 17.497 C 14.151 17.391 14.483 17.268 14.806 17.128 C 15.178 16.973 15.548 16.814 15.917 16.652 L 16.139 16.556 C 16.165 16.556 16.178 16.533 16.204 16.521 L 16.243 16.497 C 16.331 16.462 16.423 16.438 16.518 16.425 L 16.544 16.425 L 16.413 16.259 L 16.4 16.235 C 16.392 16.22 16.387 16.204 16.387 16.187 C 16.387 16.156 16.402 16.126 16.426 16.104 L 16.465 16.08 L 16.661 16.009 L 16.439 15.794 L 16.413 15.746 L 16.413 15.711 C 16.414 15.679 16.428 15.649 16.452 15.627 C 16.468 15.614 16.486 15.602 16.505 15.592 C 16.557 15.562 16.614 15.542 16.674 15.532 C 16.896 15.506 17.122 15.514 17.341 15.556 C 17.105 15.438 16.86 15.334 16.609 15.246 L 16.583 15.222 C 16.529 15.187 16.512 15.121 16.544 15.068 L 16.57 15.044 L 16.596 15.032 L 16.622 15.032 L 17.341 14.901 L 16.74 14.674 L 16.714 14.674 L 16.714 14.663 C 16.698 14.653 16.685 14.641 16.674 14.627 C 16.645 14.571 16.667 14.503 16.727 14.472 L 16.74 14.472 L 17.328 14.281 L 17.275 14.258 L 17.236 14.234 C 17.1 14.175 16.976 14.094 16.87 13.995 C 16.64 13.765 16.518 13.461 16.531 13.15 L 16.531 13.126 L 16.544 13.043 C 16.611 12.701 16.633 12.353 16.609 12.006 C 16.57 11.687 16.459 11.379 16.282 11.101 C 16.244 11.046 16.2 10.994 16.152 10.946 L 16.126 10.922 C 16.118 10.907 16.113 10.891 16.113 10.875 L 16.113 10.851 L 16.178 10.267 L 16.191 10.231 C 16.215 10.193 16.26 10.17 16.309 10.172 L 16.348 10.172 L 16.478 10.22 L 16.439 9.85 L 16.439 9.791 C 16.455 9.762 16.484 9.74 16.518 9.731 L 16.805 9.731 L 16.805 9.695 L 16.792 9.66 C 16.777 9.385 16.79 9.11 16.831 8.838 L 16.87 8.683 L 16.91 8.552 C 17.117 7.757 17.184 6.936 17.106 6.122 C 17.079 6.132 17.052 6.144 17.027 6.158 C 16.922 6.228 16.833 6.317 16.766 6.42 C 16.674 6.539 16.609 6.658 16.557 6.777 C 16.478 6.944 16.426 7.099 16.374 7.254 L 16.309 7.492 L 16.269 7.611 L 16.243 7.694 C 16.144 7.955 15.994 8.197 15.799 8.409 C 15.373 8.875 14.772 9.181 14.114 9.267 L 13.983 9.171 L 14.074 9.052 L 14.14 9.04 L 14.218 9.016 C 14.297 9.016 14.349 8.993 14.427 8.969 C 14.983 8.817 15.464 8.492 15.786 8.052 C 15.877 7.933 15.943 7.79 15.995 7.647 L 16.086 7.373 L 16.113 7.254 C 16.191 7.019 16.283 6.789 16.387 6.563 C 16.511 6.328 16.689 6.121 16.91 5.955 C 16.959 5.93 17.012 5.91 17.066 5.896 Z  M 10.873 15.187 L 10.364 14.901 C 10.267 14.84 10.175 14.773 10.09 14.698 L 10.05 14.663 L 10.024 14.639 C 9.969 14.588 9.936 14.52 9.933 14.448 L 9.933 14.412 L 9.946 14.377 L 9.972 14.341 C 9.993 14.316 10.02 14.296 10.05 14.281 C 10.087 14.264 10.127 14.252 10.168 14.246 L 10.403 14.246 C 10.547 14.281 10.691 14.305 10.847 14.317 C 11.053 14.328 11.259 14.295 11.448 14.222 L 11.54 14.174 L 11.579 14.162 C 11.636 14.137 11.699 14.125 11.762 14.126 C 11.82 14.128 11.876 14.149 11.919 14.186 C 11.971 14.246 11.997 14.317 11.984 14.389 C 11.985 14.47 11.967 14.551 11.932 14.627 C 11.914 14.668 11.892 14.708 11.866 14.746 C 11.823 14.815 11.76 14.873 11.684 14.913 L 11.631 14.925 L 11.566 14.948 C 11.414 14.999 11.269 15.067 11.135 15.151 L 11.135 15.627 L 12.258 16.497 L 12.089 16.664 L 11.226 15.973 L 11.004 15.806 L 10.782 15.973 L 9.907 16.664 L 9.75 16.497 L 10.56 15.854 L 10.86 15.615 L 10.873 15.175 L 10.873 15.187 Z  M 9.894 13.352 L 9.881 13.424 C 9.814 13.533 9.708 13.617 9.58 13.662 L 9.515 13.686 L 9.423 13.71 L 9.332 13.733 C 9.216 13.762 9.098 13.782 8.979 13.793 C 8.823 13.808 8.666 13.816 8.509 13.817 L 8.391 13.817 C 8.166 13.824 7.942 13.783 7.738 13.698 C 7.516 13.608 7.316 13.479 7.15 13.317 C 6.994 13.133 6.916 12.905 6.928 12.673 C 6.944 12.282 7.181 11.926 7.555 11.732 C 7.653 11.686 7.759 11.653 7.869 11.637 C 8.24 11.594 8.617 11.665 8.94 11.839 C 9.175 11.982 9.371 12.173 9.528 12.399 C 9.724 12.677 9.853 12.99 9.907 13.317 L 9.907 13.352 L 9.894 13.352 Z  M 8.078 11.851 C 8.012 11.851 7.947 11.851 7.869 11.875 C 7.761 11.897 7.659 11.937 7.568 11.994 C 7.23 12.226 7.093 12.629 7.228 12.995 C 7.263 13.085 7.322 13.167 7.398 13.233 C 7.591 13.411 7.836 13.535 8.104 13.59 L 8.509 13.59 C 8.808 13.581 9.106 13.546 9.397 13.483 L 9.58 13.4 C 9.619 13.376 9.645 13.352 9.645 13.317 C 9.626 13.195 9.595 13.076 9.554 12.959 C 9.423 12.638 9.227 12.316 8.914 12.113 C 8.765 12.011 8.597 11.934 8.417 11.887 C 8.319 11.865 8.218 11.853 8.117 11.851 L 8.078 11.851 Z  M 12.18 13.233 C 12.172 12.898 12.244 12.565 12.389 12.256 C 12.561 11.895 12.866 11.601 13.251 11.423 L 13.473 11.339 C 13.587 11.306 13.707 11.29 13.826 11.292 C 14.013 11.29 14.197 11.331 14.362 11.411 C 14.782 11.622 15.031 12.034 15.002 12.471 C 14.987 12.621 14.929 12.765 14.832 12.888 C 14.599 13.189 14.257 13.404 13.865 13.495 C 13.818 13.507 13.77 13.514 13.722 13.519 L 13.643 13.543 C 13.367 13.58 13.087 13.596 12.807 13.59 L 12.703 13.579 L 12.624 13.567 L 12.559 13.555 C 12.437 13.532 12.327 13.474 12.245 13.388 C 12.223 13.363 12.205 13.335 12.193 13.305 L 12.18 13.257 L 12.18 13.233 Z  M 8.234 12.28 C 7.947 12.328 7.751 12.614 7.816 12.923 C 7.882 13.233 8.169 13.436 8.47 13.4 C 8.757 13.34 8.94 13.054 8.888 12.745 C 8.822 12.435 8.535 12.233 8.234 12.268 L 8.234 12.28 Z  M 13.826 11.506 L 13.722 11.518 C 13.379 11.575 13.07 11.739 12.846 11.982 C 12.646 12.21 12.516 12.481 12.467 12.769 C 12.439 12.914 12.421 13.061 12.415 13.209 L 12.415 13.221 C 12.428 13.257 12.467 13.281 12.494 13.293 L 12.585 13.328 L 12.716 13.352 L 13.134 13.352 C 13.304 13.352 13.487 13.328 13.656 13.305 L 13.722 13.305 C 13.821 13.289 13.918 13.261 14.009 13.221 C 14.287 13.111 14.52 12.923 14.675 12.685 C 14.696 12.655 14.713 12.623 14.728 12.59 C 14.767 12.471 14.767 12.352 14.741 12.221 C 14.693 11.977 14.537 11.761 14.31 11.625 C 14.184 11.553 14.04 11.512 13.892 11.506 L 13.826 11.506 Z  M 13.604 11.982 C 13.905 11.982 14.153 12.221 14.153 12.542 C 14.153 12.852 13.905 13.102 13.604 13.102 C 13.304 13.102 13.068 12.864 13.068 12.542 C 13.068 12.233 13.304 11.971 13.604 11.971 L 13.604 11.982 Z  M 12.167 8.457 C 12.156 8.254 12.079 8.059 11.945 7.897 C 11.611 7.97 11.267 7.99 10.926 7.956 C 10.415 7.888 9.94 7.675 9.567 7.349 L 9.567 7.361 C 9.502 7.444 9.449 7.516 9.41 7.599 C 9.281 7.884 9.272 8.202 9.384 8.492 L 9.436 8.611 L 9.515 8.731 C 9.58 8.814 9.645 8.909 9.737 8.993 C 9.989 9.23 10.319 9.385 10.678 9.433 C 10.978 9.466 11.282 9.433 11.566 9.338 C 11.697 9.29 11.827 9.219 11.919 9.124 C 12.018 9.03 12.09 8.916 12.128 8.79 L 12.154 8.671 L 12.167 8.576 L 12.167 8.457 Z  M 9.685 6.039 C 9.581 6.145 9.505 6.271 9.462 6.408 C 9.419 6.609 9.447 6.817 9.541 7.003 L 9.632 7.099 L 9.815 7.265 C 10.15 7.523 10.558 7.688 10.991 7.742 C 11.278 7.779 11.571 7.767 11.853 7.706 L 11.853 7.67 C 11.887 7.59 11.909 7.506 11.919 7.42 C 11.935 7.211 11.89 7.001 11.788 6.813 L 11.775 6.801 L 11.71 6.753 L 11.435 6.575 C 10.907 6.27 10.307 6.087 9.685 6.039 Z  M 9.815 4.847 C 9.762 4.896 9.718 4.953 9.685 5.014 C 9.615 5.164 9.592 5.329 9.619 5.491 L 9.619 5.586 C 9.639 5.663 9.665 5.739 9.698 5.812 C 9.941 5.831 10.181 5.871 10.416 5.931 C 10.86 6.05 11.305 6.217 11.684 6.455 C 11.702 6.252 11.685 6.047 11.631 5.848 L 11.618 5.824 L 11.579 5.788 C 11.407 5.565 11.184 5.378 10.926 5.241 C 10.587 5.043 10.21 4.906 9.815 4.836 L 9.815 4.847 Z  M 9.946 3.775 L 9.946 3.799 C 9.891 3.86 9.847 3.928 9.815 4.002 C 9.768 4.149 9.764 4.305 9.802 4.454 C 9.802 4.514 9.828 4.573 9.854 4.621 C 10.032 4.654 10.206 4.698 10.377 4.752 C 10.769 4.871 11.122 5.05 11.422 5.288 C 11.411 5.019 11.371 4.752 11.305 4.49 C 11.287 4.424 11.261 4.36 11.226 4.299 C 11.206 4.267 11.18 4.239 11.148 4.216 L 11.056 4.192 L 11.056 4.157 L 11.03 4.133 C 11.004 4.133 10.991 4.109 10.965 4.097 C 10.735 3.958 10.478 3.861 10.207 3.811 L 9.998 3.787 L 9.946 3.787 L 9.946 3.775 Z  M 9.854 2.763 L 9.841 2.822 C 9.793 2.965 9.784 3.117 9.815 3.263 C 9.831 3.332 9.853 3.4 9.881 3.466 L 9.907 3.537 C 10.316 3.551 10.713 3.667 11.056 3.871 C 11.051 3.692 11.016 3.515 10.952 3.347 C 10.914 3.267 10.861 3.194 10.795 3.132 L 10.782 3.144 L 10.743 3.108 L 10.717 3.085 C 10.608 2.979 10.474 2.897 10.325 2.846 C 10.174 2.793 10.016 2.761 9.854 2.751 L 9.854 2.763 Z  M 10.73 2.799 C 10.725 2.549 10.644 2.305 10.495 2.096 C 10.425 2.013 10.341 1.94 10.246 1.881 C 10.181 1.842 10.111 1.81 10.037 1.786 C 9.995 1.894 9.965 2.006 9.946 2.12 L 9.907 2.548 L 10.05 2.56 L 10.181 2.584 C 10.377 2.632 10.573 2.703 10.73 2.799 Z " fill-rule="evenodd" fill="rgb(55,41,40)"/></g></g></svg>