<svg xmlns="http://www.w3.org/2000/svg" xmlns:xlink="http://www.w3.org/1999/xlink" style="isolation:isolate" viewBox="0 0 20 20" width="20pt" height="20pt" aria-labelledby="dogTitle" role="img">
  <title id="dogTitle">Dog</title>
  <defs><clipPath id="_clipPath_GmtprrrrkfVwmscU7OVZ0jULOlV49ceS"><rect width="20" height="20"/></clipPath></defs><g clip-path="url(#_clipPath_GmtprrrrkfVwmscU7OVZ0jULOlV49ceS)"><g><path d=" M 2.893 8.973 C 2.542 8.469 2.235 7.918 1.976 7.329 C 1.458 6.155 1.126 4.859 1 3.518 L 1 3.088 C 1.014 2.814 1.097 2.555 1.238 2.35 C 1.312 2.257 1.402 2.189 1.5 2.15 C 1.566 2.124 1.634 2.109 1.702 2.104 L 1.833 2.104 C 2.012 2.104 2.214 2.073 2.381 2.12 C 2.56 2.166 5.012 2.212 6.548 4.117 C 7.583 3.349 11.595 3.595 12.44 4.578 C 12.44 4.271 14.75 2.365 17.595 2.611 C 17.815 2.619 18.029 2.704 18.214 2.857 C 18.295 2.931 18.364 3.025 18.417 3.134 L 18.512 3.426 C 18.565 3.819 18.553 4.222 18.476 4.609 C 18.405 5.018 18.297 5.415 18.155 5.792 C 17.933 6.439 17.67 7.061 17.369 7.651 L 16.786 9.019 L 16.905 9.05 L 16.905 10.095 L 16.464 10.248 C 16.632 10.906 16.689 11.603 16.631 12.292 C 16.545 13.166 16.235 13.977 15.75 14.597 L 15.512 14.904 C 15.056 15.413 14.571 15.875 14.06 16.287 C 13.649 16.601 13.214 16.858 12.762 17.055 L 12.714 17.086 L 12.679 17.102 L 12.655 17.163 C 12.53 17.482 12.356 17.764 12.143 17.993 C 12.01 18.143 11.867 18.277 11.714 18.392 C 11.203 18.755 10.631 18.956 10.048 18.976 C 9.75 19.008 9.452 19.008 9.155 18.976 C 8.657 18.921 8.166 18.792 7.69 18.592 C 7.505 18.498 7.326 18.385 7.155 18.254 C 6.949 18.079 6.771 17.855 6.631 17.593 C 6.614 17.563 6.598 17.533 6.583 17.501 L 6.524 17.486 C 5.577 17.297 4.703 16.714 4.036 15.826 C 3.583 15.2 3.255 14.441 3.083 13.613 C 2.965 13.081 2.885 12.536 2.845 11.985 C 2.789 11.419 2.777 10.848 2.81 10.279 L 2.81 10.156 L 2.655 10.095 L 2.643 9.05 L 2.881 8.973 L 2.893 8.973 Z " fill-rule="evenodd" fill="rgb(0,0,0)" fill-opacity="0.2"/><mask id="_mask_gWfVZfyvh9ECiS9lGBvFRHdDdjgY3fwp" x="-200%" y="-200%" width="400%" height="400%"><rect x="-200%" y="-200%" width="400%" height="400%" style="fill:white;"/><path d=" M 3.345 8.404 C 2.992 7.897 2.685 7.34 2.429 6.745 C 1.91 5.571 1.578 4.275 1.452 2.934 C 1.447 2.826 1.447 2.719 1.452 2.611 L 1.452 2.504 C 1.465 2.264 1.531 2.034 1.643 1.843 C 1.722 1.712 1.83 1.616 1.952 1.566 C 2.014 1.541 2.078 1.526 2.143 1.52 L 2.286 1.52 C 2.452 1.52 2.667 1.489 2.833 1.536 C 3.012 1.582 5.452 1.628 7 3.533 C 8.036 2.765 12.036 3.011 12.893 3.994 C 12.893 3.687 15.19 1.797 18.048 2.027 C 18.269 2.04 18.483 2.13 18.667 2.289 C 18.74 2.362 18.805 2.45 18.857 2.55 C 18.952 2.782 19.001 3.04 19 3.303 C 19 3.564 18.964 3.794 18.929 4.025 C 18.849 4.438 18.737 4.839 18.595 5.223 C 18.375 5.863 18.116 6.48 17.821 7.067 L 17.226 8.45 L 17.357 8.481 L 17.345 9.511 L 16.917 9.664 C 17.078 10.324 17.131 11.02 17.071 11.708 C 16.992 12.581 16.686 13.394 16.202 14.013 C 16.041 14.221 15.87 14.416 15.69 14.597 C 15.317 15.011 14.919 15.386 14.5 15.719 C 14.093 16.031 13.662 16.288 13.214 16.487 L 13.155 16.518 L 13.119 16.518 L 13.107 16.579 C 12.984 16.903 12.809 17.191 12.595 17.424 C 12.458 17.571 12.311 17.699 12.155 17.808 C 11.65 18.166 11.087 18.366 10.512 18.392 C 10.211 18.424 9.908 18.424 9.607 18.392 C 9.109 18.338 8.618 18.209 8.143 18.008 C 7.957 17.916 7.777 17.803 7.607 17.67 C 7.488 17.578 7.369 17.455 7.274 17.332 C 7.179 17.21 7.098 17.07 7.036 16.917 L 6.976 16.917 C 6.022 16.722 5.144 16.128 4.476 15.227 C 4.029 14.604 3.706 13.85 3.536 13.029 C 3.417 12.497 3.337 11.952 3.298 11.401 C 3.236 10.794 3.224 10.182 3.262 9.572 L 3.107 9.511 L 3.083 8.481 L 3.345 8.404 Z " fill-rule="evenodd" fill="black" stroke="none"/></mask><path d=" M 3.345 8.404 C 2.992 7.897 2.685 7.34 2.429 6.745 C 1.91 5.571 1.578 4.275 1.452 2.934 C 1.447 2.826 1.447 2.719 1.452 2.611 L 1.452 2.504 C 1.465 2.264 1.531 2.034 1.643 1.843 C 1.722 1.712 1.83 1.616 1.952 1.566 C 2.014 1.541 2.078 1.526 2.143 1.52 L 2.286 1.52 C 2.452 1.52 2.667 1.489 2.833 1.536 C 3.012 1.582 5.452 1.628 7 3.533 C 8.036 2.765 12.036 3.011 12.893 3.994 C 12.893 3.687 15.19 1.797 18.048 2.027 C 18.269 2.04 18.483 2.13 18.667 2.289 C 18.74 2.362 18.805 2.45 18.857 2.55 C 18.952 2.782 19.001 3.04 19 3.303 C 19 3.564 18.964 3.794 18.929 4.025 C 18.849 4.438 18.737 4.839 18.595 5.223 C 18.375 5.863 18.116 6.48 17.821 7.067 L 17.226 8.45 L 17.357 8.481 L 17.345 9.511 L 16.917 9.664 C 17.078 10.324 17.131 11.02 17.071 11.708 C 16.992 12.581 16.686 13.394 16.202 14.013 C 16.041 14.221 15.87 14.416 15.69 14.597 C 15.317 15.011 14.919 15.386 14.5 15.719 C 14.093 16.031 13.662 16.288 13.214 16.487 L 13.155 16.518 L 13.119 16.518 L 13.107 16.579 C 12.984 16.903 12.809 17.191 12.595 17.424 C 12.458 17.571 12.311 17.699 12.155 17.808 C 11.65 18.166 11.087 18.366 10.512 18.392 C 10.211 18.424 9.908 18.424 9.607 18.392 C 9.109 18.338 8.618 18.209 8.143 18.008 C 7.957 17.916 7.777 17.803 7.607 17.67 C 7.488 17.578 7.369 17.455 7.274 17.332 C 7.179 17.21 7.098 17.07 7.036 16.917 L 6.976 16.917 C 6.022 16.722 5.144 16.128 4.476 15.227 C 4.029 14.604 3.706 13.85 3.536 13.029 C 3.417 12.497 3.337 11.952 3.298 11.401 C 3.236 10.794 3.224 10.182 3.262 9.572 L 3.107 9.511 L 3.083 8.481 L 3.345 8.404 Z " fill-rule="evenodd" fill="rgb(255,255,255)"/><path d=" M 3.345 8.404 C 2.992 7.897 2.685 7.34 2.429 6.745 C 1.91 5.571 1.578 4.275 1.452 2.934 C 1.447 2.826 1.447 2.719 1.452 2.611 L 1.452 2.504 C 1.465 2.264 1.531 2.034 1.643 1.843 C 1.722 1.712 1.83 1.616 1.952 1.566 C 2.014 1.541 2.078 1.526 2.143 1.52 L 2.286 1.52 C 2.452 1.52 2.667 1.489 2.833 1.536 C 3.012 1.582 5.452 1.628 7 3.533 C 8.036 2.765 12.036 3.011 12.893 3.994 C 12.893 3.687 15.19 1.797 18.048 2.027 C 18.269 2.04 18.483 2.13 18.667 2.289 C 18.74 2.362 18.805 2.45 18.857 2.55 C 18.952 2.782 19.001 3.04 19 3.303 C 19 3.564 18.964 3.794 18.929 4.025 C 18.849 4.438 18.737 4.839 18.595 5.223 C 18.375 5.863 18.116 6.48 17.821 7.067 L 17.226 8.45 L 17.357 8.481 L 17.345 9.511 L 16.917 9.664 C 17.078 10.324 17.131 11.02 17.071 11.708 C 16.992 12.581 16.686 13.394 16.202 14.013 C 16.041 14.221 15.87 14.416 15.69 14.597 C 15.317 15.011 14.919 15.386 14.5 15.719 C 14.093 16.031 13.662 16.288 13.214 16.487 L 13.155 16.518 L 13.119 16.518 L 13.107 16.579 C 12.984 16.903 12.809 17.191 12.595 17.424 C 12.458 17.571 12.311 17.699 12.155 17.808 C 11.65 18.166 11.087 18.366 10.512 18.392 C 10.211 18.424 9.908 18.424 9.607 18.392 C 9.109 18.338 8.618 18.209 8.143 18.008 C 7.957 17.916 7.777 17.803 7.607 17.67 C 7.488 17.578 7.369 17.455 7.274 17.332 C 7.179 17.21 7.098 17.07 7.036 16.917 L 6.976 16.917 C 6.022 16.722 5.144 16.128 4.476 15.227 C 4.029 14.604 3.706 13.85 3.536 13.029 C 3.417 12.497 3.337 11.952 3.298 11.401 C 3.236 10.794 3.224 10.182 3.262 9.572 L 3.107 9.511 L 3.083 8.481 L 3.345 8.404 Z " fill-rule="evenodd" fill="rgb(255,255,255)" mask="url(#_mask_gWfVZfyvh9ECiS9lGBvFRHdDdjgY3fwp)" vector-effect="non-scaling-stroke" stroke-width="0.061" stroke="rgb(207,207,207)" stroke-linejoin="round" stroke-linecap="butt" stroke-miterlimit="1.41"/><path d=" M 6.714 4.517 C 6.714 4.517 9.464 2.98 13 4.993 C 13 4.993 14.512 3.41 16.976 2.934 C 19.44 2.458 17.012 7.221 17.012 7.221 L 16.059 9.418 C 16.059 9.418 16.988 11.846 15.429 13.69 C 14.668 14.666 13.743 15.403 12.726 15.842 C 12.726 15.842 12.262 17.624 9.881 17.516 C 7.619 17.409 7.369 16.149 7.369 16.149 C 7.369 16.149 4.774 15.934 4.131 12.415 C 3.679 9.879 4.131 8.604 4.131 8.604 C 4.131 8.604 2.786 6.914 2.357 4.148 C 1.976 1.659 3.167 2.504 4.06 2.688 C 4.893 2.842 6.56 4.071 6.726 4.501 L 6.714 4.517 Z " fill-rule="evenodd" fill="rgb(230,182,120)"/><path d=" M 3.857 8.527 C 3.538 8.065 3.259 7.56 3.024 7.021 C 2.55 5.941 2.246 4.75 2.131 3.518 L 2.131 3.118 C 2.142 2.902 2.2 2.695 2.298 2.519 C 2.37 2.397 2.47 2.306 2.583 2.258 C 2.668 2.226 2.757 2.21 2.845 2.212 L 2.893 2.212 C 3.048 2.212 3.202 2.242 3.357 2.289 L 3.798 2.427 L 3.917 2.458 L 4.036 2.488 L 4.131 2.504 L 4.179 2.504 C 4.434 2.571 4.682 2.68 4.917 2.826 C 5.514 3.154 6.081 3.566 6.607 4.056 L 6.774 4.271 L 6.857 4.225 C 8.864 3.47 11.013 3.649 12.929 4.732 L 12.976 4.747 L 13.036 4.701 L 13.119 4.624 C 14.287 3.636 15.607 2.986 16.988 2.719 L 17.131 2.703 C 17.21 2.696 17.29 2.696 17.369 2.703 C 17.567 2.707 17.761 2.781 17.929 2.919 C 17.999 2.986 18.059 3.069 18.107 3.164 C 18.148 3.246 18.18 3.333 18.202 3.426 C 18.231 3.571 18.243 3.721 18.238 3.871 C 18.191 4.478 18.067 5.07 17.869 5.623 C 17.665 6.21 17.427 6.775 17.155 7.313 L 16.619 8.573 L 16.738 8.604 L 16.714 9.557 L 16.333 9.71 C 16.482 10.31 16.531 10.944 16.476 11.57 C 16.386 12.508 16.014 13.363 15.44 13.951 L 15.202 14.228 C 14.861 14.6 14.499 14.939 14.119 15.242 C 13.743 15.531 13.344 15.768 12.929 15.949 L 12.881 15.98 L 12.845 15.98 C 12.731 16.294 12.564 16.572 12.357 16.794 C 12.237 16.94 12.105 17.069 11.964 17.178 C 11.496 17.51 10.974 17.694 10.44 17.716 C 9.572 17.77 8.705 17.571 7.905 17.132 C 7.747 17.022 7.602 16.882 7.476 16.717 C 7.409 16.634 7.349 16.541 7.298 16.441 L 7.25 16.349 L 7.202 16.349 C 6.333 16.165 5.532 15.627 4.917 14.812 C 4.503 14.238 4.204 13.541 4.048 12.784 C 3.932 12.298 3.853 11.798 3.81 11.293 C 3.76 10.773 3.752 10.248 3.786 9.726 L 3.786 9.618 L 3.643 9.557 L 3.631 8.604 L 3.869 8.527 L 3.857 8.527 Z  M 4.107 9.726 C 4.046 10.513 4.09 11.309 4.238 12.077 L 4.357 12.676 C 4.51 13.343 4.77 13.96 5.119 14.489 C 5.517 15.062 6.027 15.487 6.595 15.719 C 6.842 15.829 7.098 15.906 7.357 15.949 L 7.488 15.949 C 7.488 16.011 7.512 16.057 7.524 16.103 C 7.541 16.168 7.565 16.23 7.595 16.287 C 7.663 16.404 7.743 16.507 7.833 16.594 C 7.952 16.717 8.107 16.81 8.25 16.902 C 9.036 17.259 9.875 17.38 10.702 17.255 C 11.131 17.194 11.536 17.025 11.893 16.733 C 12.145 16.527 12.357 16.248 12.512 15.918 C 12.535 15.869 12.555 15.818 12.571 15.765 L 12.595 15.672 L 12.857 15.534 C 13.231 15.344 13.596 15.129 13.952 14.889 C 14.417 14.552 14.845 14.139 15.226 13.66 L 15.417 13.414 C 15.637 13.133 15.818 12.806 15.952 12.446 C 16.164 11.85 16.23 11.186 16.143 10.54 L 16.143 10.494 C 15.798 12.691 14.988 12.584 14.988 12.584 C 14.988 12.584 13.381 12.814 12.298 12.661 C 11.214 12.507 10.595 10.294 10.595 10.294 L 9.762 10.294 C 9.762 10.294 9.155 12.492 8.071 12.661 C 6.988 12.814 5.381 12.584 5.381 12.584 C 5.381 12.584 4.381 12.722 4.131 9.741 L 4.107 9.741 L 4.107 9.726 Z  M 10.702 16.886 C 10.702 16.948 10.607 17.071 10.536 17.086 C 10.345 17.117 9.726 17.117 9.536 17.086 C 9.464 17.086 9.369 16.948 9.369 16.886 C 9.369 16.81 9.464 16.687 9.536 16.671 C 9.726 16.641 10.345 16.641 10.536 16.671 C 10.607 16.687 10.702 16.825 10.702 16.886 Z  M 9.988 13.583 C 10.619 13.583 11.131 14.259 11.131 15.073 C 11.131 15.903 10.619 16.579 9.988 16.579 C 9.68 16.579 9.384 16.42 9.167 16.137 C 8.95 15.854 8.83 15.471 8.833 15.073 C 8.833 14.259 9.345 13.583 9.988 13.583 Z  M 5.143 8.665 C 5.143 8.665 7.071 8.143 8.5 8.819 C 9.583 9.357 9.06 10.402 8.81 10.97 C 8.56 11.539 7.964 12.061 7.655 12.108 C 7.345 12.154 5.75 12.046 5.75 12.046 C 5.75 12.046 4.833 11.739 4.655 10.048 C 4.548 9.034 5.143 8.665 5.143 8.665 Z  M 15.214 8.665 C 15.214 8.665 13.298 8.143 11.857 8.819 C 10.786 9.357 11.298 10.402 11.56 10.97 C 11.798 11.539 12.405 12.061 12.714 12.108 C 13.012 12.154 14.607 12.046 14.607 12.046 C 14.607 12.046 15.536 11.739 15.702 10.048 C 15.821 9.034 15.226 8.665 15.226 8.665 L 15.214 8.665 Z  M 12.929 9.28 C 13.286 9.465 13.452 9.956 13.321 10.387 C 13.202 10.801 12.798 11.001 12.452 10.817 C 12.285 10.744 12.148 10.587 12.072 10.381 C 11.996 10.176 11.987 9.94 12.048 9.726 C 12.19 9.296 12.571 9.111 12.929 9.28 Z  M 7.917 9.28 C 8.274 9.465 8.44 9.956 8.31 10.387 C 8.19 10.801 7.786 11.001 7.44 10.817 C 7.273 10.744 7.136 10.587 7.06 10.381 C 6.984 10.176 6.975 9.94 7.036 9.726 C 7.167 9.296 7.56 9.111 7.917 9.28 Z  M 16.298 8.466 L 16.881 7.114 L 16.94 6.991 L 17 6.852 C 17.27 6.269 17.508 5.664 17.714 5.039 C 17.797 4.723 17.86 4.399 17.905 4.071 L 17.917 3.948 L 17.917 3.764 C 17.913 3.615 17.876 3.471 17.809 3.349 C 17.758 3.263 17.687 3.199 17.607 3.164 C 17.538 3.131 17.466 3.111 17.393 3.103 C 17.262 3.103 17.131 3.103 17 3.134 C 15.671 3.4 14.401 4.029 13.274 4.978 L 13.095 5.147 L 13.024 5.239 L 12.845 5.131 L 12.726 5.07 C 12.239 4.815 11.738 4.609 11.226 4.455 C 9.851 4.052 8.419 4.094 7.06 4.578 L 6.798 4.701 L 6.643 4.778 L 6.571 4.609 C 5.82 3.862 4.974 3.29 4.071 2.919 L 3.976 2.888 L 3.881 2.872 L 3.405 2.719 C 3.369 2.719 3.333 2.719 3.286 2.688 C 3.121 2.643 2.954 2.623 2.786 2.627 C 2.722 2.631 2.66 2.658 2.607 2.703 L 2.583 2.734 C 2.524 2.809 2.482 2.906 2.464 3.011 L 2.464 3.149 C 2.453 3.277 2.449 3.405 2.452 3.533 L 2.464 3.733 C 2.482 3.93 2.51 4.125 2.548 4.317 C 2.815 5.849 3.39 7.264 4.214 8.42 L 4.69 8.281 C 4.69 8.281 5.381 8.035 6.321 7.959 C 7.538 7.782 8.765 8.134 9.81 8.957 C 9.952 9.019 10.071 9.05 10.179 9.05 C 10.309 9.046 10.437 9.015 10.56 8.957 C 10.679 8.881 10.75 8.788 10.75 8.788 C 12.69 7.221 15.667 8.281 15.667 8.281 L 16.298 8.466 Z " fill-rule="evenodd" fill="rgb(67,50,49)"/><path d=" M 15.309 7.528 L 14.381 6.545 C 14.345 5.992 14.536 5.439 15.048 4.901 C 15.048 4.901 16.548 4.04 17.179 4.132 C 17.809 4.225 15.75 6.33 15.309 7.513 L 15.309 7.528 Z  M 4.905 7.421 L 5.917 6.591 C 6 6.053 5.869 5.469 5.405 4.855 C 5.405 4.855 4 3.779 3.357 3.779 C 2.714 3.779 4.571 6.145 4.905 7.421 Z " fill-rule="evenodd" fill="rgb(243,221,192)"/><path d=" M 12.571 9.603 C 12.643 9.649 12.667 9.756 12.643 9.849 C 12.607 9.941 12.524 10.002 12.464 9.972 C 12.393 9.926 12.369 9.818 12.393 9.726 C 12.429 9.618 12.512 9.572 12.571 9.603 Z  M 7.56 9.603 C 7.631 9.649 7.655 9.756 7.631 9.849 C 7.595 9.941 7.512 10.002 7.452 9.972 C 7.381 9.926 7.345 9.818 7.381 9.726 C 7.405 9.618 7.5 9.572 7.56 9.603 Z " fill-rule="evenodd" fill="rgb(255,255,255)"/></g></g></svg>