<svg xmlns="http://www.w3.org/2000/svg" xmlns:xlink="http://www.w3.org/1999/xlink" style="isolation:isolate" viewBox="0 0 20 20" width="20pt" height="20pt" aria-labelledby="donutTitle" role="img">
  <title id="donutTitle">Donut</title>
  <defs><clipPath id="_clipPath_9eNUkJSHBSnCzTfRaKtqMS9pnPCCtpmJ"><rect width="20" height="20"/></clipPath></defs><g clip-path="url(#_clipPath_9eNUkJSHBSnCzTfRaKtqMS9pnPCCtpmJ)"><g><path d=" M 1.471 12.765 L 1.447 12.751 C 1.31 12.634 1.199 12.478 1.126 12.297 C 1.002 11.977 0.968 11.618 1.031 11.273 C 1.057 11.104 1.097 10.937 1.15 10.776 C 1.15 10.734 1.15 10.705 1.173 10.662 C 1.264 10.197 1.304 9.719 1.292 9.242 L 1.292 9.114 L 1.28 9.028 C 1.306 7.926 1.577 6.852 2.066 5.916 C 2.587 4.889 3.315 4.034 4.184 3.43 C 4.929 2.873 5.739 2.452 6.588 2.179 C 7.495 1.877 8.431 1.724 9.373 1.725 L 9.468 1.725 C 11.235 1.751 12.973 2.261 14.549 3.217 C 15.356 3.71 16.098 4.342 16.751 5.092 C 17.344 5.768 17.79 6.607 18.048 7.536 C 18.158 8.017 18.198 8.517 18.167 9.014 L 18.167 9.298 L 18.155 9.469 L 18.167 10.677 L 18.215 12.041 L 18.215 12.211 L 18.203 12.297 L 18.191 12.353 C 18.171 12.483 18.111 12.599 18.024 12.68 C 18.013 12.691 18.001 12.7 17.988 12.709 C 17.966 12.721 17.942 12.731 17.917 12.737 L 17.822 12.737 L 17.703 13.22 C 17.548 13.831 17.346 14.428 17.084 14.982 C 16.545 16.133 15.761 17.094 14.811 17.767 C 13.876 18.414 12.83 18.798 11.753 18.89 C 10.896 19.014 10.031 19.033 9.17 18.947 C 8.2 18.882 7.233 18.74 6.279 18.52 C 5.883 18.422 5.494 18.294 5.112 18.137 C 4.436 17.875 3.801 17.481 3.232 16.971 C 2.13 16.007 1.469 14.482 1.447 12.851 L 1.447 12.794 L 1.471 12.765 Z " fill-rule="evenodd" fill="rgb(0,0,0)" fill-opacity="0.2"/><mask id="_mask_kGkuHS1x9MBh0fwwnF99O4eeb6F91xuE" x="-200%" y="-200%" width="400%" height="400%"><rect x="-200%" y="-200%" width="400%" height="400%" style="fill:white;"/><path d=" M 2.244 12.027 L 2.232 12.027 C 2.089 11.914 1.974 11.757 1.899 11.572 C 1.792 11.302 1.78 11.003 1.804 10.719 C 1.823 10.487 1.863 10.259 1.923 10.037 L 1.947 9.938 C 2.04 9.473 2.08 8.995 2.066 8.517 L 2.066 8.289 C 2.054 8.005 2.078 7.721 2.113 7.437 C 2.278 6.324 2.689 5.284 3.304 4.424 C 3.768 3.742 4.339 3.16 4.97 2.691 C 5.986 1.934 7.119 1.427 8.302 1.199 C 8.914 1.069 9.536 1.002 10.158 1 L 10.253 1 C 11.48 1.012 12.697 1.257 13.859 1.725 C 15.087 2.242 16.227 3.017 17.227 4.012 L 17.536 4.368 C 18.123 5.042 18.564 5.876 18.821 6.797 C 18.942 7.276 18.987 7.777 18.952 8.275 L 18.94 8.588 L 18.94 8.744 C 18.925 9.597 18.945 10.451 19 11.302 L 19 11.359 C 18.998 11.449 18.99 11.54 18.976 11.629 C 18.956 11.758 18.897 11.875 18.81 11.956 L 18.774 11.984 C 18.722 12.012 18.664 12.021 18.607 12.012 L 18.488 12.495 C 18.334 13.106 18.131 13.689 17.869 14.257 C 17.261 15.559 16.335 16.61 15.216 17.27 C 14.241 17.819 13.186 18.138 12.11 18.208 C 11.397 18.278 10.681 18.282 9.968 18.222 C 8.993 18.154 8.023 18.012 7.064 17.796 C 6.669 17.697 6.279 17.569 5.898 17.412 C 5.225 17.141 4.59 16.748 4.018 16.247 C 2.915 15.282 2.255 13.757 2.232 12.126 L 2.232 12.069 L 2.244 12.041 L 2.244 12.027 Z " fill-rule="evenodd" fill="black" stroke="none"/></mask><path d=" M 2.244 12.027 L 2.232 12.027 C 2.089 11.914 1.974 11.757 1.899 11.572 C 1.792 11.302 1.78 11.003 1.804 10.719 C 1.823 10.487 1.863 10.259 1.923 10.037 L 1.947 9.938 C 2.04 9.473 2.08 8.995 2.066 8.517 L 2.066 8.289 C 2.054 8.005 2.078 7.721 2.113 7.437 C 2.278 6.324 2.689 5.284 3.304 4.424 C 3.768 3.742 4.339 3.16 4.97 2.691 C 5.986 1.934 7.119 1.427 8.302 1.199 C 8.914 1.069 9.536 1.002 10.158 1 L 10.253 1 C 11.48 1.012 12.697 1.257 13.859 1.725 C 15.087 2.242 16.227 3.017 17.227 4.012 L 17.536 4.368 C 18.123 5.042 18.564 5.876 18.821 6.797 C 18.942 7.276 18.987 7.777 18.952 8.275 L 18.94 8.588 L 18.94 8.744 C 18.925 9.597 18.945 10.451 19 11.302 L 19 11.359 C 18.998 11.449 18.99 11.54 18.976 11.629 C 18.956 11.758 18.897 11.875 18.81 11.956 L 18.774 11.984 C 18.722 12.012 18.664 12.021 18.607 12.012 L 18.488 12.495 C 18.334 13.106 18.131 13.689 17.869 14.257 C 17.261 15.559 16.335 16.61 15.216 17.27 C 14.241 17.819 13.186 18.138 12.11 18.208 C 11.397 18.278 10.681 18.282 9.968 18.222 C 8.993 18.154 8.023 18.012 7.064 17.796 C 6.669 17.697 6.279 17.569 5.898 17.412 C 5.225 17.141 4.59 16.748 4.018 16.247 C 2.915 15.282 2.255 13.757 2.232 12.126 L 2.232 12.069 L 2.244 12.041 L 2.244 12.027 Z " fill-rule="evenodd" fill="rgb(255,255,255)"/><path d=" M 2.244 12.027 L 2.232 12.027 C 2.089 11.914 1.974 11.757 1.899 11.572 C 1.792 11.302 1.78 11.003 1.804 10.719 C 1.823 10.487 1.863 10.259 1.923 10.037 L 1.947 9.938 C 2.04 9.473 2.08 8.995 2.066 8.517 L 2.066 8.289 C 2.054 8.005 2.078 7.721 2.113 7.437 C 2.278 6.324 2.689 5.284 3.304 4.424 C 3.768 3.742 4.339 3.16 4.97 2.691 C 5.986 1.934 7.119 1.427 8.302 1.199 C 8.914 1.069 9.536 1.002 10.158 1 L 10.253 1 C 11.48 1.012 12.697 1.257 13.859 1.725 C 15.087 2.242 16.227 3.017 17.227 4.012 L 17.536 4.368 C 18.123 5.042 18.564 5.876 18.821 6.797 C 18.942 7.276 18.987 7.777 18.952 8.275 L 18.94 8.588 L 18.94 8.744 C 18.925 9.597 18.945 10.451 19 11.302 L 19 11.359 C 18.998 11.449 18.99 11.54 18.976 11.629 C 18.956 11.758 18.897 11.875 18.81 11.956 L 18.774 11.984 C 18.722 12.012 18.664 12.021 18.607 12.012 L 18.488 12.495 C 18.334 13.106 18.131 13.689 17.869 14.257 C 17.261 15.559 16.335 16.61 15.216 17.27 C 14.241 17.819 13.186 18.138 12.11 18.208 C 11.397 18.278 10.681 18.282 9.968 18.222 C 8.993 18.154 8.023 18.012 7.064 17.796 C 6.669 17.697 6.279 17.569 5.898 17.412 C 5.225 17.141 4.59 16.748 4.018 16.247 C 2.915 15.282 2.255 13.757 2.232 12.126 L 2.232 12.069 L 2.244 12.041 L 2.244 12.027 Z " fill-rule="evenodd" fill="rgb(255,255,255)" mask="url(#_mask_kGkuHS1x9MBh0fwwnF99O4eeb6F91xuE)" vector-effect="non-scaling-stroke" stroke-width="0.079" stroke="rgb(207,207,207)" stroke-linejoin="round" stroke-linecap="butt" stroke-miterlimit="1.41"/><path d=" M 8.218 10.52 C 8.218 10.52 8.849 9.043 10.42 9.099 C 12.372 9.156 12.443 10.179 12.443 10.179 L 14.157 8.361 L 11.086 6.272 L 8.873 6.485 L 7.635 7.607 L 7.754 9.327 L 8.218 10.52 Z " fill-rule="evenodd" fill="rgb(142,93,53)"/><path d=" M 8.099 10.577 C 7.552 9.156 7.623 9.114 7.504 7.536 L 8.825 6.343 L 11.11 6.115 L 14.204 8.233 L 14.24 8.474 L 12.538 10.293 L 12.336 10.194 L 12.336 10.165 C 12.311 10.075 12.27 9.993 12.217 9.924 C 12.125 9.789 12.012 9.678 11.884 9.597 C 11.792 9.539 11.697 9.491 11.598 9.455 C 11.277 9.319 10.939 9.247 10.598 9.242 C 10.356 9.225 10.113 9.239 9.872 9.284 C 9.224 9.427 8.66 9.899 8.325 10.577 L 8.099 10.577 Z  M 8.92 6.627 L 7.754 7.678 L 7.873 9.298 L 8.23 10.208 L 8.266 10.137 L 8.504 9.824 C 9.056 9.161 9.832 8.836 10.61 8.943 C 11.016 8.975 11.416 9.071 11.8 9.227 L 11.919 9.298 C 12.159 9.425 12.361 9.632 12.502 9.895 L 12.502 9.909 L 13.942 8.389 L 13.228 7.906 L 11.063 6.414 L 8.932 6.627 L 8.92 6.627 Z " fill="rgb(67,50,49)"/><path d=" M 3.149 11.728 C 3.149 11.728 2.911 15.806 7.754 16.758 C 12.598 17.696 16.406 16.858 17.56 11.543 C 18.714 6.243 13.752 11.629 13.752 11.629 L 9.73 13.263 L 5.005 10.236 L 3.791 10.051 L 3.149 11.728 Z " fill-rule="evenodd" fill="rgb(142,93,53)"/><path d=" M 2.875 9.938 C 2.875 9.938 3.066 9.156 2.994 8.417 C 2.935 7.664 3.268 4.282 6.921 2.634 C 10.213 1.207 13.894 2.035 16.525 4.794 C 17.988 6.456 17.869 7.849 17.834 8.503 C 17.81 9.17 17.893 11.018 17.893 11.018 C 17.893 11.018 17.917 11.842 17.453 11.359 C 16.989 10.876 16.81 10.762 16.251 11.799 C 15.68 12.851 15.454 14.3 14.823 14.385 C 14.192 14.471 14.109 14.385 13.716 14.57 C 13.335 14.769 12.883 15.764 11.586 15.181 C 10.289 14.598 9.73 14.698 9.206 14.925 C 8.682 15.153 7.957 14.94 7.671 14.257 C 7.397 13.561 6.897 13.874 6.481 13.902 C 6.041 13.916 5.779 14.059 5.136 12.68 C 4.494 11.302 4.125 11.842 3.482 11.714 C 2.351 11.472 2.875 9.938 2.875 9.938 Z  M 8.623 8.858 C 8.623 8.858 8.671 7.266 9.301 7.863 C 9.944 8.474 10.36 8.602 10.646 8.105 C 10.932 7.607 11.015 7.707 11.217 8.162 C 11.408 8.588 11.907 8.588 12.169 8.474 C 12.443 8.332 12.61 9.199 12.169 9.597 C 11.741 9.995 10.884 10.648 9.872 10.378 C 8.873 10.122 8.54 8.886 8.623 8.858 Z " fill-rule="evenodd" fill="rgb(239,155,189)"/><path d=" M 8.659 9.242 C 8.659 9.242 6.195 7.735 8.206 6.584 C 10.265 5.405 11.348 5.874 11.86 6.073 C 13.276 6.641 14.68 8.389 12.562 9.369 C 12.491 9.398 12.455 8.659 12.288 8.531 C 12.026 8.346 11.61 8.673 11.396 8.417 C 11.158 8.133 11.277 7.948 11.039 7.835 C 10.646 7.636 10.325 8.545 10.146 8.432 C 9.337 8.005 9.575 7.977 9.123 7.892 C 8.456 7.75 8.659 9.242 8.659 9.242 Z  M 10.432 2.748 C 10.83 2.747 11.227 2.775 11.622 2.833 C 12.726 3.003 13.784 3.469 14.716 4.197 C 15.458 4.805 16.07 5.613 16.501 6.556 L 16.168 6.769 L 16.12 6.67 L 16.084 6.57 C 15.798 5.961 15.419 5.421 14.966 4.979 C 13.955 4.014 12.731 3.422 11.443 3.274 C 10.609 3.139 9.763 3.153 8.932 3.316 C 8.039 3.488 7.173 3.819 6.362 4.297 C 6.04 4.501 5.733 4.739 5.446 5.007 L 5.267 5.192 C 4.835 5.644 4.514 6.229 4.339 6.883 L 3.982 6.755 C 4.218 5.874 4.686 5.107 5.315 4.567 C 5.813 4.109 6.367 3.745 6.957 3.487 C 7.86 3.057 8.818 2.812 9.789 2.762 L 10.229 2.748 L 10.42 2.748 L 10.432 2.748 Z " fill-rule="evenodd" fill="rgb(232,112,161)"/><path d=" M 4.482 9.313 L 4.577 9.639 C 4.799 10.261 5.157 10.801 5.612 11.202 C 6.271 11.796 7.018 12.235 7.814 12.495 C 9.178 12.991 10.62 13.103 12.026 12.822 C 13.179 12.586 14.261 11.998 15.168 11.117 C 15.63 10.631 16.013 10.049 16.299 9.398 L 16.632 9.597 C 16.451 10.025 16.227 10.426 15.965 10.79 C 15.566 11.345 15.091 11.816 14.561 12.183 C 13.466 12.962 12.218 13.384 10.944 13.405 C 9.829 13.479 8.712 13.311 7.647 12.908 C 6.931 12.632 6.25 12.24 5.624 11.742 C 5.021 11.266 4.543 10.596 4.244 9.81 C 4.184 9.668 4.148 9.526 4.125 9.398 L 4.482 9.284 L 4.482 9.313 Z  M 10.479 5.561 C 10.893 5.572 11.307 5.61 11.717 5.675 C 12.297 5.795 12.84 6.099 13.288 6.556 L 13.49 6.797 C 13.692 7.082 13.847 7.423 13.93 7.792 C 13.978 7.977 14.002 8.19 13.978 8.389 C 13.964 8.594 13.887 8.786 13.764 8.929 C 13.683 9.01 13.583 9.06 13.478 9.071 L 13.443 8.645 L 13.478 8.645 C 13.526 8.616 13.55 8.559 13.573 8.503 L 13.573 8.474 C 13.592 8.419 13.604 8.362 13.609 8.304 L 13.597 8.019 C 13.567 7.83 13.511 7.647 13.431 7.48 C 13.273 7.149 13.053 6.867 12.788 6.655 C 12.321 6.284 11.778 6.073 11.217 6.044 C 11.012 6.02 10.805 6.011 10.598 6.016 C 10.014 6.01 9.432 6.082 8.861 6.229 C 8.722 6.277 8.587 6.339 8.456 6.414 C 8.218 6.542 8.016 6.726 7.885 6.982 C 7.829 7.087 7.789 7.202 7.766 7.323 C 7.729 7.51 7.729 7.705 7.766 7.892 L 7.814 8.034 L 7.457 8.204 L 7.457 8.162 C 7.362 7.832 7.35 7.476 7.421 7.139 C 7.478 6.901 7.579 6.682 7.719 6.499 C 7.996 6.143 8.357 5.896 8.754 5.789 C 8.937 5.724 9.124 5.677 9.313 5.647 C 9.636 5.589 9.963 5.565 10.289 5.575 L 10.467 5.575 L 10.479 5.561 Z " fill-rule="evenodd" fill="rgb(246,201,220)"/><path d=" M 3.03 11.671 L 3.03 11.657 C 2.903 11.559 2.8 11.421 2.732 11.259 C 2.621 10.97 2.592 10.646 2.649 10.336 C 2.671 10.18 2.707 10.027 2.756 9.881 L 2.768 9.796 C 2.857 9.378 2.897 8.948 2.887 8.517 L 2.875 8.375 L 2.875 8.318 C 2.906 7.05 3.296 5.833 3.982 4.865 C 4.402 4.253 4.905 3.73 5.469 3.316 C 6.375 2.635 7.387 2.181 8.444 1.98 C 8.994 1.859 9.552 1.798 10.11 1.796 L 10.194 1.796 C 11.287 1.814 12.371 2.035 13.407 2.449 C 14.509 2.91 15.533 3.603 16.43 4.496 L 16.703 4.808 C 17.232 5.414 17.628 6.165 17.858 6.996 C 17.963 7.425 18.003 7.872 17.977 8.318 L 17.965 8.588 L 17.965 8.73 C 17.955 9.493 17.975 10.257 18.024 11.018 L 18.024 11.06 L 18.012 11.174 L 18.012 11.245 L 18 11.302 C 17.981 11.42 17.926 11.527 17.846 11.6 C 17.817 11.626 17.785 11.645 17.75 11.657 L 17.667 11.657 C 17.499 12.344 17.276 13.011 17.001 13.646 C 16.457 14.81 15.632 15.751 14.633 16.346 C 13.615 16.931 12.501 17.232 11.372 17.227 C 10.529 17.267 9.685 17.22 8.849 17.085 C 8.343 17.007 7.839 16.912 7.338 16.801 C 6.981 16.73 6.636 16.616 6.302 16.474 C 5.707 16.233 5.124 15.906 4.624 15.437 C 3.637 14.572 3.047 13.204 3.03 11.742 L 3.03 11.671 Z  M 17.429 11.529 C 17.413 11.516 17.397 11.501 17.382 11.487 L 17.286 11.387 C 17.233 11.331 17.178 11.279 17.12 11.231 L 17.084 11.202 C 17.039 11.164 16.985 11.145 16.929 11.146 L 16.858 11.174 C 16.819 11.201 16.783 11.235 16.751 11.273 L 16.632 11.416 L 16.477 11.657 C 16.265 12.01 16.089 12.391 15.954 12.794 L 15.775 13.277 L 15.716 13.419 C 15.641 13.597 15.561 13.773 15.478 13.945 L 15.418 14.044 C 15.299 14.229 15.18 14.4 14.99 14.485 C 14.943 14.505 14.896 14.519 14.847 14.527 L 14.775 14.542 L 14.478 14.57 L 14.216 14.584 L 14.133 14.584 C 13.987 14.605 13.846 14.658 13.716 14.741 L 13.562 14.868 L 13.419 15.011 C 13.339 15.076 13.259 15.142 13.181 15.209 C 12.967 15.375 12.721 15.473 12.467 15.494 C 12.312 15.522 12.157 15.494 12.015 15.479 L 11.658 15.366 L 11.42 15.266 L 11.301 15.224 C 11.034 15.103 10.759 15.008 10.479 14.94 C 10.123 14.863 9.757 14.883 9.408 14.996 C 9.368 15.015 9.329 15.034 9.289 15.053 L 9.206 15.082 C 8.716 15.263 8.182 15.123 7.802 14.712 C 7.728 14.628 7.664 14.532 7.611 14.428 L 7.576 14.357 C 7.576 14.329 7.552 14.3 7.54 14.286 L 7.528 14.243 C 7.495 14.184 7.455 14.132 7.409 14.087 C 7.391 14.065 7.371 14.046 7.35 14.03 C 7.238 13.968 7.114 13.948 6.993 13.973 L 6.921 13.973 L 6.814 14.002 L 6.671 14.03 L 6.612 14.03 L 6.517 14.044 L 6.433 14.044 L 6.279 14.059 L 6.124 14.059 C 6.063 14.052 6.003 14.038 5.945 14.016 C 5.788 13.939 5.649 13.817 5.541 13.661 C 5.385 13.43 5.242 13.188 5.112 12.936 L 4.993 12.652 L 4.946 12.581 C 4.852 12.404 4.744 12.237 4.624 12.083 C 4.555 12.009 4.474 11.952 4.386 11.913 C 4.352 11.894 4.316 11.88 4.279 11.87 C 4.204 11.861 4.128 11.861 4.053 11.87 L 3.625 11.87 C 3.524 11.866 3.424 11.847 3.327 11.813 L 3.292 11.799 L 3.292 12.154 L 3.387 12.723 C 3.6 13.732 4.106 14.618 4.815 15.224 C 5.291 15.65 5.826 15.963 6.386 16.204 C 6.93 16.425 7.493 16.578 8.064 16.659 C 8.947 16.812 9.837 16.907 10.729 16.943 C 11.226 16.949 11.723 16.921 12.217 16.858 C 13.142 16.738 14.039 16.405 14.859 15.877 C 15.587 15.384 16.201 14.68 16.644 13.831 C 17.019 13.123 17.293 12.345 17.453 11.529 L 17.429 11.529 Z  M 17.501 11.217 C 17.774 11.558 17.715 9.085 17.715 8.943 L 17.715 8.531 L 17.727 8.304 C 17.736 7.927 17.708 7.55 17.643 7.181 C 17.573 6.848 17.465 6.528 17.322 6.229 C 16.976 5.588 16.551 5.013 16.061 4.524 C 13.422 2.084 9.912 1.455 6.79 2.861 C 6.398 3.046 6.02 3.269 5.66 3.529 C 4.968 4.029 4.369 4.691 3.899 5.476 C 3.48 6.236 3.215 7.102 3.125 8.005 L 3.125 8.545 C 3.131 8.83 3.12 9.115 3.089 9.398 C 3.066 9.58 3.034 9.76 2.994 9.938 L 2.994 9.995 L 2.97 10.051 L 2.947 10.122 C 2.911 10.293 2.875 10.478 2.875 10.662 C 2.875 10.762 2.875 10.876 2.911 10.989 C 2.935 11.092 2.976 11.188 3.03 11.273 C 3.061 11.317 3.097 11.355 3.137 11.387 L 3.137 11.416 L 3.375 11.529 L 3.411 11.529 L 3.458 11.558 C 3.575 11.589 3.696 11.599 3.815 11.586 L 3.851 11.586 L 4.505 11.643 L 4.529 11.657 C 4.708 11.757 4.851 11.913 4.97 12.083 L 5.017 12.183 C 5.081 12.288 5.141 12.397 5.196 12.51 L 5.303 12.737 L 5.374 12.879 C 5.483 13.086 5.602 13.286 5.731 13.476 C 5.814 13.575 5.91 13.675 6.029 13.732 L 6.16 13.76 C 6.203 13.763 6.247 13.763 6.29 13.76 L 6.505 13.76 L 6.862 13.689 L 6.933 13.689 L 7.135 13.661 C 7.28 13.662 7.422 13.717 7.54 13.817 L 7.659 13.945 L 7.754 14.115 L 7.802 14.229 L 7.826 14.272 L 7.945 14.471 C 8.187 14.766 8.529 14.912 8.873 14.868 C 8.944 14.868 9.028 14.84 9.099 14.812 C 9.147 14.812 9.194 14.783 9.242 14.755 C 9.332 14.724 9.424 14.695 9.515 14.67 C 9.865 14.588 10.225 14.588 10.575 14.67 C 10.916 14.746 11.251 14.86 11.574 15.011 L 11.693 15.067 L 11.741 15.096 C 12.025 15.204 12.326 15.233 12.621 15.181 C 12.764 15.138 12.895 15.067 13.014 14.982 L 13.216 14.826 L 13.431 14.613 L 13.478 14.57 L 13.621 14.471 L 13.764 14.4 C 13.931 14.321 14.108 14.283 14.287 14.286 L 14.466 14.286 L 14.549 14.272 L 14.787 14.243 L 14.823 14.243 L 14.883 14.215 C 14.942 14.201 15.002 14.144 15.061 14.101 C 15.158 13.995 15.238 13.87 15.299 13.732 C 15.357 13.622 15.409 13.508 15.454 13.391 L 15.573 13.106 L 15.739 12.623 C 15.885 12.269 16.044 11.923 16.215 11.586 C 16.277 11.485 16.34 11.385 16.406 11.288 L 16.465 11.188 C 16.484 11.163 16.504 11.14 16.525 11.117 C 16.616 10.993 16.736 10.903 16.87 10.861 C 16.917 10.852 16.965 10.852 17.013 10.861 C 17.098 10.878 17.179 10.917 17.251 10.975 L 17.477 11.188 L 17.501 11.217 Z  M 9.051 7.579 L 9.111 7.593 C 9.17 7.593 9.23 7.636 9.266 7.664 L 9.361 7.735 L 9.48 7.835 C 9.598 7.938 9.721 8.033 9.849 8.119 L 9.92 8.176 C 9.944 8.186 9.968 8.195 9.991 8.204 L 10.039 8.233 C 10.132 8.268 10.232 8.268 10.325 8.233 C 10.348 8.233 10.36 8.233 10.384 8.204 C 10.431 8.166 10.471 8.118 10.503 8.062 C 10.537 8.034 10.562 7.994 10.575 7.948 L 10.622 7.892 C 10.658 7.835 10.698 7.783 10.741 7.735 C 10.769 7.701 10.801 7.672 10.836 7.65 C 10.874 7.63 10.914 7.62 10.955 7.622 L 11.003 7.636 C 11.083 7.669 11.15 7.734 11.193 7.821 L 11.217 7.863 C 11.217 7.892 11.241 7.906 11.253 7.934 C 11.253 7.963 11.277 7.977 11.289 8.005 L 11.336 8.105 L 11.348 8.147 C 11.366 8.178 11.386 8.207 11.408 8.233 C 11.584 8.392 11.813 8.444 12.026 8.375 L 12.098 8.346 L 12.134 8.332 L 12.145 8.332 C 12.191 8.312 12.24 8.307 12.288 8.318 L 12.336 8.332 C 12.419 8.389 12.491 8.488 12.514 8.616 L 12.538 8.659 L 12.55 8.744 C 12.562 8.829 12.574 8.915 12.562 8.986 C 12.562 9.185 12.502 9.369 12.407 9.526 C 12.372 9.578 12.332 9.626 12.288 9.668 L 12.229 9.739 C 12.038 9.909 11.824 10.066 11.61 10.194 C 11.23 10.43 10.812 10.566 10.384 10.591 C 10.122 10.594 9.861 10.546 9.611 10.449 C 9.15 10.233 8.778 9.81 8.575 9.27 L 8.54 9.17 C 8.52 9.101 8.504 9.029 8.492 8.957 L 8.492 8.815 L 8.504 8.815 L 8.504 8.687 L 8.516 8.588 L 8.552 8.375 L 8.575 8.218 C 8.592 8.151 8.612 8.084 8.635 8.019 L 8.647 7.948 C 8.706 7.806 8.778 7.664 8.897 7.607 L 8.944 7.593 C 8.971 7.58 8.999 7.57 9.028 7.565 L 9.051 7.565 L 9.051 7.579 Z  M 8.742 8.972 C 8.836 9.323 9.014 9.634 9.254 9.867 C 9.489 10.104 9.78 10.248 10.087 10.279 C 10.479 10.322 10.875 10.254 11.241 10.08 C 11.525 9.941 11.793 9.76 12.038 9.54 L 12.134 9.44 C 12.175 9.4 12.211 9.352 12.241 9.298 C 12.32 9.135 12.341 8.941 12.3 8.758 C 12.291 8.713 12.275 8.669 12.253 8.63 L 12.241 8.616 L 12.181 8.616 C 12.097 8.655 12.009 8.679 11.919 8.687 C 11.696 8.716 11.471 8.645 11.289 8.488 C 11.215 8.424 11.155 8.342 11.11 8.247 L 11.051 8.105 C 11.032 8.066 11.012 8.028 10.991 7.991 C 10.979 7.964 10.962 7.94 10.944 7.92 C 10.931 7.927 10.919 7.937 10.908 7.948 L 10.86 8.005 L 10.765 8.147 C 10.765 8.176 10.741 8.204 10.717 8.233 L 10.694 8.261 C 10.65 8.331 10.598 8.394 10.539 8.446 C 10.477 8.494 10.409 8.528 10.337 8.545 C 10.142 8.578 9.944 8.528 9.777 8.403 C 9.648 8.332 9.524 8.246 9.408 8.147 L 9.218 7.977 L 9.194 7.948 L 9.17 7.934 C 9.148 7.916 9.124 7.902 9.099 7.892 L 9.039 7.892 C 8.992 7.892 8.956 7.934 8.92 7.977 C 8.896 8.021 8.876 8.069 8.861 8.119 C 8.825 8.234 8.801 8.353 8.79 8.474 C 8.769 8.591 8.757 8.71 8.754 8.829 L 8.754 8.972 L 8.742 8.972 Z " fill-rule="evenodd" fill="rgb(67,50,49)"/></g></g></svg>