<?xml version="1.0" encoding="UTF-8" standalone="no"?><!-- Generator: Gravit.io --><svg xmlns="http://www.w3.org/2000/svg" xmlns:xlink="http://www.w3.org/1999/xlink" style="isolation:isolate" viewBox="0 0 20 20" width="20pt" height="20pt"><defs><clipPath id="_clipPath_DG0P8pg8xKnZ9yEbYPcl9cIFKsk23ETF"><rect width="20" height="20"/></clipPath></defs><g clip-path="url(#_clipPath_DG0P8pg8xKnZ9yEbYPcl9cIFKsk23ETF)"><g><path d=" M 1.619 10.491 C 1.619 10.491 3.473 16.217 5.886 18.696 C 5.886 18.696 13.961 19.133 15.455 18.708 C 15.455 18.708 17.671 17.716 17.638 9.854 L 17.556 9.004 L 17.03 8.768 L 18.294 6.95 C 18.294 6.95 18.787 5.769 17.047 5.179 L 17.408 4.081 C 17.408 4.081 16.833 2.192 14.289 2.842 L 13.567 3.255 C 13.567 3.255 13.469 2.157 11.762 2.122 C 11.762 2.122 11.335 1.331 9.94 1.767 C 9.94 1.767 8.135 0.634 7.232 2.712 C 7.232 2.712 5.919 2.24 5.394 3.16 C 5.394 3.16 3.605 2.11 2.702 3.597 C 2.702 3.597 2.489 4.01 2.489 4.235 C 2.489 4.235 0.732 4.648 1.126 6.206 C 1.126 6.206 1.258 6.655 1.553 6.985 C 1.553 6.985 0.486 7.611 1.29 9.039 L 2.16 9.783 L 1.619 10.491 Z " fill-rule="evenodd" fill="rgb(0,0,0)" fill-opacity="0.2"/><path d=" M 2.193 10.078 C 2.193 10.078 4.031 15.804 6.46 18.283 C 6.46 18.283 14.536 18.72 16.029 18.295 C 16.029 18.295 18.245 17.303 18.212 9.441 L 18.13 8.591 L 17.588 8.355 L 18.869 6.537 C 18.869 6.537 19.361 5.356 17.621 4.766 L 17.966 3.68 C 17.966 3.68 17.408 1.791 14.848 2.428 L 14.125 2.842 C 14.125 2.842 14.043 1.744 12.32 1.708 C 12.32 1.708 11.91 0.917 10.514 1.354 C 10.514 1.354 8.709 0.221 7.806 2.299 C 7.806 2.299 6.493 1.826 5.968 2.747 C 5.968 2.747 4.179 1.697 3.276 3.184 C 3.276 3.184 3.063 3.597 3.063 3.821 C 3.063 3.821 1.307 4.235 1.701 5.793 C 1.701 5.793 1.832 6.242 2.127 6.572 C 2.127 6.572 1.061 7.198 1.865 8.626 L 2.735 9.37 L 2.193 10.078 Z " fill-rule="evenodd" fill="rgb(255,255,255)"/><path d=" M 15.964 2.24 L 15.996 2.251 L 16.144 2.251 L 16.177 2.263 L 16.226 2.263 L 16.275 2.275 L 16.308 2.275 L 16.358 2.287 L 16.39 2.299 L 16.44 2.299 L 16.472 2.31 L 16.505 2.322 L 16.554 2.334 L 16.587 2.334 L 16.62 2.358 L 16.669 2.358 L 16.702 2.381 L 16.735 2.381 L 16.768 2.405 L 16.801 2.405 L 16.833 2.428 L 16.866 2.44 L 16.899 2.452 L 16.932 2.476 L 16.965 2.476 L 16.998 2.499 L 17.03 2.511 L 17.063 2.535 L 17.096 2.546 L 17.113 2.57 L 17.145 2.582 L 17.178 2.594 L 17.195 2.617 L 17.227 2.629 L 17.26 2.653 L 17.277 2.665 L 17.309 2.688 L 17.326 2.7 L 17.359 2.724 L 17.375 2.747 L 17.392 2.759 L 17.424 2.783 L 17.441 2.794 L 17.457 2.818 L 17.49 2.842 L 17.49 2.853 L 17.523 2.877 L 17.539 2.889 L 17.572 2.912 L 17.572 2.936 L 17.605 2.948 L 17.605 2.971 L 17.638 2.995 L 17.638 3.007 L 17.671 3.031 L 17.671 3.054 L 17.703 3.066 L 17.703 3.09 L 17.753 3.125 L 17.769 3.16 L 17.802 3.196 L 17.818 3.231 L 17.851 3.267 L 17.868 3.302 L 17.884 3.337 L 17.9 3.373 L 17.917 3.408 L 17.933 3.432 L 17.95 3.467 L 17.966 3.491 L 17.966 3.515 L 17.982 3.538 L 17.999 3.562 L 17.999 3.585 L 18.015 3.621 L 18.015 3.644 L 18.032 3.656 L 18.032 3.68 L 17.703 4.742 L 17.736 4.754 L 17.769 4.778 L 17.802 4.79 L 17.851 4.801 L 17.884 4.813 L 17.917 4.837 L 17.95 4.849 L 17.999 4.86 L 18.032 4.884 L 18.064 4.896 L 18.097 4.919 L 18.13 4.931 L 18.163 4.943 L 18.196 4.967 L 18.212 4.978 L 18.245 5.002 L 18.278 5.014 L 18.311 5.037 L 18.327 5.049 L 18.36 5.073 L 18.376 5.085 L 18.409 5.108 L 18.426 5.12 L 18.458 5.144 L 18.475 5.155 L 18.508 5.179 L 18.524 5.191 L 18.54 5.214 L 18.573 5.226 L 18.573 5.25 L 18.606 5.274 L 18.623 5.285 L 18.639 5.309 L 18.655 5.321 L 18.688 5.344 L 18.688 5.356 L 18.721 5.38 L 18.721 5.403 L 18.737 5.415 L 18.754 5.439 L 18.77 5.462 L 18.787 5.474 L 18.787 5.498 L 18.819 5.51 L 18.819 5.533 L 18.836 5.557 L 18.836 5.569 L 18.852 5.592 L 18.852 5.604 L 18.869 5.628 L 18.885 5.651 L 18.885 5.663 L 18.902 5.687 L 18.902 5.699 L 18.918 5.722 L 18.918 5.734 L 18.934 5.758 L 18.934 5.793 L 18.951 5.817 L 18.951 5.852 L 18.967 5.864 L 18.967 5.935 L 18.984 5.97 L 18.984 6.041 L 19 6.064 L 19 6.348 L 18.984 6.371 L 18.984 6.43 L 18.967 6.442 L 18.967 6.489 L 18.951 6.513 L 18.951 6.537 L 18.934 6.548 L 18.229 7.564 L 17.687 8.331 L 18.163 8.544 L 18.163 8.555 L 18.179 8.555 L 18.179 8.579 L 18.278 9.441 L 18.278 10.326 L 18.261 10.503 L 18.261 10.999 L 18.245 11.164 L 18.245 11.318 L 18.229 11.471 L 18.229 11.625 L 18.212 11.778 L 18.212 11.932 L 18.179 12.085 L 18.179 12.369 L 18.147 12.51 L 18.147 12.652 L 18.13 12.782 L 18.114 12.923 L 18.114 13.041 L 18.081 13.183 L 18.081 13.301 L 18.048 13.431 L 18.048 13.549 L 18.015 13.679 L 18.015 13.797 L 17.982 13.915 L 17.966 14.033 L 17.95 14.151 L 17.933 14.269 L 17.9 14.364 L 17.9 14.482 L 17.868 14.588 L 17.851 14.682 L 17.818 14.8 L 17.802 14.883 L 17.785 14.989 L 17.753 15.084 L 17.736 15.178 L 17.72 15.273 L 17.687 15.367 L 17.671 15.45 L 17.638 15.544 L 17.621 15.627 L 17.588 15.709 L 17.572 15.792 L 17.539 15.875 L 17.523 15.946 L 17.49 16.028 L 17.474 16.099 L 17.441 16.182 L 17.424 16.252 L 17.392 16.323 L 17.375 16.394 L 17.342 16.453 L 17.326 16.524 L 17.293 16.595 L 17.26 16.654 L 17.244 16.713 L 17.211 16.772 L 17.195 16.831 L 17.162 16.89 L 17.145 16.949 L 17.113 16.996 L 17.08 17.055 L 17.063 17.102 L 17.03 17.161 L 17.014 17.209 L 16.981 17.256 L 16.965 17.303 L 16.932 17.35 L 16.899 17.386 L 16.883 17.433 L 16.85 17.468 L 16.833 17.516 L 16.801 17.551 L 16.784 17.586 L 16.751 17.622 L 16.735 17.657 L 16.702 17.693 L 16.686 17.728 L 16.669 17.764 L 16.637 17.799 L 16.62 17.823 L 16.587 17.858 L 16.571 17.882 L 16.554 17.905 L 16.522 17.929 L 16.505 17.952 L 16.489 17.988 L 16.456 18 L 16.456 18.023 L 16.423 18.047 L 16.407 18.07 L 16.39 18.082 L 16.358 18.106 L 16.358 18.129 L 16.325 18.141 L 16.325 18.153 L 16.292 18.177 L 16.243 18.212 L 16.21 18.236 L 16.193 18.259 L 16.161 18.271 L 16.144 18.295 L 16.128 18.295 L 16.095 18.318 L 16.078 18.33 L 16.046 18.342 L 16.029 18.342 L 16.013 18.354 L 15.964 18.354 L 15.931 18.377 L 15.882 18.377 L 15.832 18.389 L 15.783 18.401 L 15.734 18.401 L 15.685 18.413 L 15.635 18.425 L 15.57 18.425 L 15.504 18.436 L 15.455 18.436 L 15.389 18.448 L 15.323 18.448 L 15.258 18.46 L 15.192 18.46 L 15.127 18.472 L 15.044 18.472 L 14.979 18.484 L 14.831 18.484 L 14.749 18.495 L 14.585 18.495 L 14.503 18.507 L 14.175 18.507 L 14.076 18.519 L 13.534 18.519 L 13.338 18.531 L 11.729 18.531 L 11.516 18.519 L 11.105 18.519 L 10.892 18.507 L 10.679 18.507 L 10.482 18.495 L 10.268 18.495 L 10.071 18.484 L 9.874 18.484 L 9.677 18.472 L 9.48 18.472 L 9.284 18.46 L 9.087 18.448 L 8.725 18.436 L 8.381 18.425 L 8.053 18.401 L 7.741 18.401 L 7.462 18.377 L 7.215 18.377 L 7.002 18.354 L 6.789 18.354 L 6.526 18.33 L 6.411 18.33 L 6.411 18.318 L 6.395 18.318 L 6.329 18.248 L 6.28 18.189 L 6.231 18.129 L 6.165 18.07 L 6.116 18 L 6.05 17.941 L 6.001 17.87 L 5.935 17.811 L 5.886 17.74 L 5.837 17.669 L 5.771 17.598 L 5.722 17.527 L 5.673 17.457 L 5.623 17.386 L 5.558 17.315 L 5.509 17.244 L 5.459 17.161 L 5.41 17.091 L 5.344 17.02 L 5.295 16.937 L 5.246 16.866 L 5.197 16.784 L 5.147 16.701 L 5.098 16.63 L 5.049 16.548 L 4.983 16.465 L 4.934 16.382 L 4.885 16.3 L 4.836 16.217 L 4.786 16.134 L 4.737 16.052 L 4.688 15.969 L 4.639 15.886 L 4.606 15.804 L 4.557 15.721 L 4.507 15.639 L 4.458 15.556 L 4.409 15.473 L 4.36 15.379 L 4.327 15.296 L 4.278 15.214 L 4.228 15.131 L 4.179 15.036 L 4.146 14.954 L 4.097 14.871 L 4.048 14.789 L 4.015 14.694 L 3.966 14.612 L 3.916 14.529 L 3.884 14.446 L 3.834 14.352 L 3.802 14.269 L 3.752 14.187 L 3.72 14.104 L 3.637 13.927 L 3.555 13.762 L 3.49 13.596 L 3.408 13.431 L 3.342 13.266 L 3.26 13.1 L 3.194 12.935 L 3.129 12.782 L 3.063 12.628 L 2.997 12.475 L 2.932 12.321 L 2.882 12.18 L 2.817 12.026 L 2.768 11.896 L 2.718 11.755 L 2.653 11.625 L 2.603 11.495 L 2.571 11.377 L 2.521 11.247 L 2.472 11.129 L 2.439 11.011 L 2.39 10.916 L 2.357 10.81 L 2.292 10.633 L 2.242 10.468 L 2.193 10.338 L 2.16 10.22 L 2.127 10.149 L 2.111 10.09 L 2.111 10.055 L 2.636 9.382 L 1.783 8.673 L 1.783 8.65 L 1.766 8.614 L 1.734 8.579 L 1.734 8.544 L 1.701 8.52 L 1.701 8.485 L 1.684 8.449 L 1.668 8.414 L 1.651 8.39 L 1.635 8.355 L 1.635 8.319 L 1.602 8.296 L 1.602 8.237 L 1.569 8.201 L 1.569 8.142 L 1.553 8.107 L 1.553 8.083 L 1.537 8.06 L 1.537 8.024 L 1.52 8.001 L 1.52 7.942 L 1.504 7.918 L 1.504 7.812 L 1.487 7.788 L 1.487 7.387 L 1.504 7.363 L 1.504 7.328 L 1.52 7.304 L 1.52 7.257 L 1.537 7.245 L 1.537 7.198 L 1.553 7.174 L 1.553 7.162 L 1.569 7.139 L 1.586 7.103 L 1.586 7.08 L 1.619 7.044 L 1.619 7.021 L 1.651 6.985 L 1.668 6.962 L 1.684 6.926 L 1.701 6.903 L 1.717 6.879 L 1.734 6.844 L 1.766 6.82 L 1.766 6.796 L 1.799 6.773 L 1.816 6.761 L 1.832 6.737 L 1.848 6.714 L 1.881 6.702 L 1.881 6.678 L 1.914 6.667 L 1.914 6.655 L 1.947 6.631 L 1.98 6.608 L 1.996 6.584 L 2.029 6.572 L 2.029 6.548 L 1.996 6.537 L 1.996 6.525 L 1.98 6.501 L 1.947 6.466 L 1.931 6.43 L 1.898 6.407 L 1.881 6.371 L 1.865 6.336 L 1.832 6.301 L 1.832 6.253 L 1.799 6.218 L 1.799 6.194 L 1.766 6.159 L 1.766 6.135 L 1.734 6.112 L 1.734 6.076 L 1.717 6.053 L 1.701 6.017 L 1.701 5.994 L 1.684 5.97 L 1.651 5.923 L 1.651 5.887 L 1.635 5.852 L 1.635 5.805 L 1.619 5.769 L 1.619 5.734 L 1.602 5.699 L 1.602 5.663 L 1.586 5.628 L 1.586 5.521 L 1.569 5.486 L 1.569 5.108 L 1.586 5.085 L 1.586 5.026 L 1.602 5.002 L 1.602 4.978 L 1.619 4.943 L 1.619 4.919 L 1.635 4.896 L 1.635 4.872 L 1.651 4.837 L 1.668 4.813 L 1.668 4.79 L 1.684 4.766 L 1.701 4.742 L 1.701 4.719 L 1.734 4.695 L 1.734 4.671 L 1.75 4.648 L 1.766 4.624 L 1.766 4.612 L 1.799 4.589 L 1.799 4.565 L 1.816 4.542 L 1.832 4.518 L 1.848 4.506 L 1.865 4.483 L 1.881 4.459 L 1.898 4.447 L 1.914 4.424 L 1.931 4.412 L 1.947 4.388 L 1.963 4.365 L 1.98 4.353 L 1.996 4.341 L 2.029 4.317 L 2.029 4.305 L 2.062 4.282 L 2.062 4.27 L 2.095 4.258 L 2.111 4.235 L 2.127 4.223 L 2.144 4.211 L 2.177 4.199 L 2.177 4.176 L 2.21 4.176 L 2.226 4.152 L 2.242 4.14 L 2.275 4.117 L 2.324 4.093 L 2.357 4.069 L 2.39 4.046 L 2.439 4.022 L 2.472 3.999 L 2.505 3.975 L 2.538 3.963 L 2.571 3.94 L 2.62 3.928 L 2.653 3.916 L 2.686 3.892 L 2.718 3.892 L 2.751 3.869 L 2.768 3.869 L 2.8 3.845 L 2.833 3.845 L 2.85 3.833 L 2.882 3.821 L 2.899 3.821 L 2.948 3.798 L 2.981 3.798 L 2.981 3.703 L 2.997 3.68 L 2.997 3.621 L 3.014 3.597 L 3.014 3.562 L 3.03 3.538 L 3.03 3.515 L 3.047 3.491 L 3.063 3.456 L 3.079 3.408 L 3.096 3.361 L 3.129 3.314 L 3.129 3.278 L 3.161 3.243 L 3.161 3.208 L 3.178 3.184 L 3.211 3.149 L 3.244 3.113 L 3.244 3.066 L 3.276 3.031 L 3.309 2.995 L 3.326 2.971 L 3.358 2.936 L 3.375 2.912 L 3.408 2.889 L 3.424 2.853 L 3.457 2.83 L 3.473 2.806 L 3.506 2.783 L 3.523 2.759 L 3.555 2.735 L 3.588 2.712 L 3.605 2.688 L 3.637 2.665 L 3.654 2.653 L 3.687 2.629 L 3.72 2.606 L 3.736 2.594 L 3.769 2.57 L 3.802 2.558 L 3.834 2.546 L 3.851 2.523 L 3.884 2.511 L 3.916 2.499 L 3.949 2.487 L 3.966 2.476 L 3.999 2.464 L 4.031 2.452 L 4.064 2.44 L 4.081 2.428 L 4.113 2.428 L 4.146 2.417 L 4.179 2.405 L 4.212 2.405 L 4.228 2.393 L 4.261 2.381 L 4.294 2.381 L 4.327 2.369 L 4.376 2.369 L 4.409 2.358 L 4.507 2.358 L 4.524 2.346 L 4.868 2.346 L 4.901 2.358 L 4.983 2.358 L 5.016 2.369 L 5.033 2.369 L 5.065 2.381 L 5.115 2.381 L 5.147 2.393 L 5.164 2.393 L 5.197 2.405 L 5.213 2.405 L 5.262 2.428 L 5.312 2.428 L 5.361 2.452 L 5.41 2.464 L 5.459 2.476 L 5.492 2.499 L 5.541 2.499 L 5.574 2.523 L 5.623 2.535 L 5.656 2.558 L 5.689 2.558 L 5.722 2.582 L 5.755 2.594 L 5.788 2.606 L 5.82 2.629 L 5.853 2.629 L 5.87 2.653 L 5.919 2.665 L 5.935 2.665 L 5.935 2.641 L 5.968 2.629 L 5.968 2.594 L 5.985 2.57 L 6.001 2.558 L 6.017 2.535 L 6.034 2.523 L 6.05 2.499 L 6.067 2.487 L 6.083 2.464 L 6.099 2.452 L 6.116 2.44 L 6.132 2.417 L 6.149 2.417 L 6.165 2.393 L 6.181 2.381 L 6.214 2.369 L 6.214 2.358 L 6.247 2.334 L 6.28 2.31 L 6.296 2.31 L 6.313 2.299 L 6.329 2.287 L 6.362 2.275 L 6.362 2.263 L 6.395 2.263 L 6.411 2.24 L 6.428 2.24 L 6.46 2.228 L 6.493 2.216 L 6.51 2.204 L 6.526 2.204 L 6.559 2.192 L 6.592 2.181 L 6.608 2.181 L 6.641 2.169 L 6.674 2.157 L 6.723 2.157 L 6.723 2.145 L 6.789 2.145 L 6.822 2.133 L 6.904 2.133 L 6.904 2.122 L 7.33 2.122 L 7.363 2.133 L 7.429 2.133 L 7.462 2.145 L 7.495 2.145 L 7.527 2.157 L 7.56 2.157 L 7.577 2.169 L 7.609 2.169 L 7.642 2.181 L 7.659 2.181 L 7.691 2.192 L 7.724 2.204 L 7.757 2.216 L 7.79 2.216 L 7.806 2.181 L 7.823 2.133 L 7.856 2.086 L 7.872 2.039 L 7.905 2.003 L 7.921 1.956 L 7.938 1.921 L 7.97 1.874 L 7.987 1.838 L 8.02 1.803 L 8.036 1.767 L 8.069 1.732 L 8.085 1.697 L 8.118 1.661 L 8.151 1.626 L 8.167 1.59 L 8.2 1.567 L 8.217 1.531 L 8.25 1.508 L 8.282 1.484 L 8.299 1.449 L 8.332 1.425 L 8.364 1.401 L 8.381 1.378 L 8.414 1.354 L 8.446 1.331 L 8.463 1.307 L 8.496 1.283 L 8.529 1.272 L 8.561 1.248 L 8.578 1.224 L 8.594 1.224 L 8.627 1.201 L 8.66 1.189 L 8.676 1.177 L 8.709 1.153 L 8.742 1.153 L 8.775 1.13 L 8.808 1.118 L 8.824 1.106 L 8.857 1.106 L 8.89 1.083 L 8.922 1.083 L 8.955 1.059 L 9.005 1.059 L 9.037 1.047 L 9.07 1.047 L 9.103 1.035 L 9.136 1.035 L 9.152 1.024 L 9.185 1.024 L 9.218 1.012 L 9.366 1.012 L 9.382 1 L 9.612 1 L 9.645 1.012 L 9.71 1.012 L 9.743 1.024 L 9.776 1.024 L 9.792 1.035 L 9.842 1.035 L 9.874 1.047 L 9.891 1.047 L 9.907 1.059 L 9.94 1.059 L 9.956 1.071 L 9.989 1.071 L 10.006 1.083 L 10.055 1.106 L 10.088 1.106 L 10.137 1.13 L 10.17 1.142 L 10.219 1.153 L 10.235 1.177 L 10.268 1.177 L 10.301 1.201 L 10.334 1.212 L 10.367 1.224 L 10.383 1.236 L 10.416 1.248 L 10.432 1.26 L 10.449 1.272 L 10.498 1.295 L 10.564 1.295 L 10.597 1.272 L 10.629 1.272 L 10.662 1.26 L 10.695 1.26 L 10.728 1.248 L 10.761 1.248 L 10.794 1.236 L 10.81 1.236 L 10.843 1.224 L 10.876 1.224 L 10.908 1.212 L 10.941 1.212 L 10.958 1.201 L 11.04 1.201 L 11.089 1.177 L 11.466 1.177 L 11.499 1.189 L 11.565 1.189 L 11.581 1.201 L 11.614 1.201 L 11.647 1.212 L 11.68 1.212 L 11.713 1.224 L 11.745 1.236 L 11.778 1.248 L 11.811 1.248 L 11.828 1.26 L 11.877 1.295 L 11.91 1.295 L 11.942 1.319 L 11.975 1.319 L 11.992 1.342 L 12.024 1.354 L 12.057 1.378 L 12.074 1.378 L 12.107 1.401 L 12.123 1.413 L 12.139 1.437 L 12.172 1.437 L 12.172 1.46 L 12.205 1.484 L 12.221 1.484 L 12.238 1.508 L 12.254 1.519 L 12.271 1.543 L 12.287 1.543 L 12.287 1.567 L 12.304 1.578 L 12.32 1.59 L 12.32 1.602 L 12.336 1.614 L 12.353 1.626 L 12.369 1.649 L 12.369 1.673 L 12.5 1.673 L 12.55 1.685 L 12.648 1.685 L 12.697 1.697 L 12.763 1.697 L 12.796 1.708 L 12.829 1.708 L 12.862 1.72 L 12.894 1.72 L 12.927 1.732 L 12.96 1.732 L 12.993 1.756 L 13.059 1.756 L 13.091 1.767 L 13.124 1.779 L 13.141 1.779 L 13.173 1.803 L 13.206 1.803 L 13.223 1.815 L 13.255 1.815 L 13.288 1.838 L 13.305 1.838 L 13.338 1.85 L 13.354 1.862 L 13.387 1.874 L 13.403 1.885 L 13.436 1.885 L 13.452 1.909 L 13.485 1.909 L 13.485 1.933 L 13.518 1.933 L 13.551 1.956 L 13.584 1.98 L 13.6 1.98 L 13.617 2.003 L 13.649 2.003 L 13.649 2.027 L 13.682 2.039 L 13.699 2.051 L 13.715 2.062 L 13.731 2.074 L 13.748 2.086 L 13.764 2.11 L 13.781 2.11 L 13.797 2.133 L 13.814 2.133 L 13.814 2.157 L 13.846 2.169 L 13.846 2.181 L 13.863 2.204 L 13.879 2.204 L 13.896 2.228 L 13.928 2.251 L 13.945 2.275 L 13.961 2.31 L 13.994 2.334 L 13.994 2.358 L 14.027 2.393 L 14.043 2.417 L 14.06 2.44 L 14.076 2.464 L 14.076 2.487 L 14.109 2.523 L 14.109 2.546 L 14.125 2.57 L 14.125 2.594 L 14.142 2.617 L 14.142 2.629 L 14.158 2.653 L 14.158 2.676 L 14.175 2.7 L 14.175 2.735 L 14.191 2.747 L 14.191 2.771 L 14.815 2.405 L 14.831 2.405 L 14.831 2.393 L 14.897 2.381 L 14.962 2.369 L 15.028 2.358 L 15.077 2.346 L 15.143 2.334 L 15.192 2.322 L 15.258 2.31 L 15.307 2.31 L 15.356 2.299 L 15.422 2.287 L 15.471 2.287 L 15.52 2.275 L 15.635 2.275 L 15.685 2.263 L 15.98 2.263 L 15.964 2.24 Z  M 2.275 10.137 L 2.308 10.22 L 2.341 10.326 L 2.39 10.456 L 2.439 10.621 L 2.505 10.798 L 2.538 10.905 L 2.587 11.011 L 2.62 11.129 L 2.669 11.235 L 2.702 11.353 L 2.751 11.471 L 2.8 11.613 L 2.85 11.731 L 2.915 11.873 L 2.965 12.014 L 3.03 12.156 L 3.079 12.309 L 3.145 12.463 L 3.211 12.616 L 3.276 12.77 L 3.342 12.923 L 3.408 13.089 L 3.473 13.242 L 3.555 13.407 L 3.621 13.573 L 3.703 13.75 L 3.785 13.915 L 3.851 14.08 L 3.9 14.163 L 3.949 14.257 L 3.982 14.34 L 4.031 14.423 L 4.064 14.505 L 4.113 14.588 L 4.146 14.682 L 4.196 14.765 L 4.245 14.848 L 4.278 14.93 L 4.327 15.025 L 4.376 15.107 L 4.409 15.19 L 4.458 15.273 L 4.507 15.355 L 4.557 15.45 L 4.606 15.532 L 4.639 15.615 L 4.688 15.698 L 4.737 15.78 L 4.786 15.863 L 4.836 15.946 L 4.885 16.028 L 4.934 16.111 L 4.983 16.193 L 5.033 16.276 L 5.082 16.359 L 5.131 16.441 L 5.18 16.512 L 5.23 16.595 L 5.279 16.677 L 5.328 16.748 L 5.377 16.831 L 5.426 16.914 L 5.492 16.984 L 5.541 17.055 L 5.591 17.138 L 5.64 17.209 L 5.689 17.28 L 5.755 17.35 L 5.804 17.421 L 5.853 17.492 L 5.902 17.563 L 5.968 17.634 L 6.017 17.704 L 6.067 17.775 L 6.132 17.834 L 6.181 17.905 L 6.247 17.964 L 6.296 18.023 L 6.346 18.094 L 6.411 18.153 L 6.46 18.212 L 6.51 18.248 L 6.559 18.248 L 6.822 18.271 L 7.002 18.271 L 7.232 18.283 L 7.478 18.295 L 7.757 18.307 L 8.053 18.318 L 8.381 18.342 L 8.742 18.342 L 9.103 18.366 L 9.284 18.366 L 9.48 18.377 L 9.677 18.377 L 9.874 18.389 L 10.071 18.389 L 10.285 18.401 L 10.482 18.401 L 10.695 18.413 L 10.892 18.413 L 11.105 18.425 L 11.516 18.425 L 11.729 18.436 L 12.353 18.436 L 12.55 18.448 L 14.076 18.448 L 14.158 18.436 L 14.421 18.436 L 14.503 18.425 L 14.749 18.425 L 14.815 18.413 L 14.897 18.413 L 14.962 18.401 L 15.11 18.401 L 15.176 18.389 L 15.241 18.389 L 15.307 18.377 L 15.373 18.377 L 15.438 18.366 L 15.488 18.366 L 15.553 18.354 L 15.603 18.342 L 15.652 18.342 L 15.701 18.33 L 15.75 18.33 L 15.799 18.307 L 15.849 18.307 L 15.882 18.295 L 15.931 18.295 L 15.964 18.271 L 15.996 18.271 L 16.013 18.259 L 16.029 18.248 L 16.046 18.236 L 16.078 18.224 L 16.095 18.2 L 16.111 18.189 L 16.144 18.165 L 16.177 18.141 L 16.177 18.129 L 16.21 18.106 L 16.243 18.082 L 16.259 18.059 L 16.275 18.047 L 16.292 18.023 L 16.308 18.011 L 16.341 17.988 L 16.341 17.964 L 16.374 17.941 L 16.39 17.917 L 16.423 17.893 L 16.423 17.87 L 16.456 17.846 L 16.472 17.823 L 16.505 17.787 L 16.522 17.764 L 16.538 17.728 L 16.571 17.704 L 16.587 17.669 L 16.62 17.634 L 16.637 17.598 L 16.669 17.563 L 16.686 17.527 L 16.719 17.492 L 16.735 17.445 L 16.768 17.409 L 16.784 17.362 L 16.817 17.327 L 16.833 17.28 L 16.866 17.232 L 16.883 17.185 L 16.916 17.138 L 16.932 17.091 L 16.965 17.032 L 16.981 16.984 L 17.014 16.925 L 17.047 16.878 L 17.063 16.819 L 17.096 16.76 L 17.113 16.701 L 17.145 16.642 L 17.162 16.571 L 17.195 16.512 L 17.227 16.441 L 17.244 16.382 L 17.277 16.311 L 17.293 16.241 L 17.326 16.17 L 17.342 16.099 L 17.375 16.016 L 17.392 15.946 L 17.424 15.863 L 17.441 15.78 L 17.474 15.698 L 17.49 15.615 L 17.523 15.532 L 17.523 15.45 L 17.556 15.355 L 17.588 15.273 L 17.605 15.178 L 17.621 15.084 L 17.654 14.989 L 17.671 14.883 L 17.687 14.789 L 17.72 14.682 L 17.72 14.576 L 17.753 14.482 L 17.769 14.364 L 17.802 14.257 L 17.802 14.139 L 17.835 14.033 L 17.851 13.915 L 17.868 13.797 L 17.884 13.679 L 17.9 13.561 L 17.917 13.443 L 17.933 13.313 L 17.95 13.195 L 17.966 13.053 L 17.966 12.923 L 17.999 12.793 L 17.999 12.628 L 18.015 12.487 L 18.032 12.345 L 18.032 12.203 L 18.064 12.062 L 18.064 11.766 L 18.081 11.613 L 18.081 11.459 L 18.097 11.306 L 18.097 11.141 L 18.114 10.987 L 18.114 10.657 L 18.13 10.491 L 18.13 9.429 L 18.064 8.603 L 17.572 8.378 L 17.556 8.378 L 17.539 8.355 L 17.539 8.319 L 18.081 7.552 L 18.803 6.501 L 18.803 6.489 L 18.819 6.478 L 18.819 6.442 L 18.836 6.442 L 18.836 6.348 L 18.852 6.324 L 18.852 6.253 L 18.869 6.23 L 18.869 5.994 L 18.852 5.958 L 18.852 5.899 L 18.836 5.876 L 18.836 5.84 L 18.819 5.828 L 18.819 5.781 L 18.803 5.769 L 18.803 5.746 L 18.787 5.734 L 18.787 5.71 L 18.77 5.699 L 18.77 5.663 L 18.754 5.663 L 18.754 5.639 L 18.737 5.628 L 18.737 5.604 L 18.721 5.592 L 18.705 5.569 L 18.705 5.557 L 18.688 5.533 L 18.672 5.521 L 18.672 5.498 L 18.639 5.486 L 18.639 5.462 L 18.623 5.451 L 18.606 5.427 L 18.59 5.415 L 18.573 5.392 L 18.557 5.38 L 18.54 5.356 L 18.524 5.344 L 18.508 5.321 L 18.491 5.309 L 18.458 5.285 L 18.458 5.274 L 18.426 5.25 L 18.409 5.25 L 18.393 5.226 L 18.36 5.203 L 18.343 5.191 L 18.311 5.167 L 18.294 5.155 L 18.261 5.132 L 18.245 5.132 L 18.212 5.108 L 18.196 5.085 L 18.163 5.073 L 18.13 5.061 L 18.114 5.037 L 18.081 5.026 L 18.048 5.014 L 18.015 4.99 L 17.982 4.978 L 17.95 4.967 L 17.917 4.943 L 17.884 4.931 L 17.851 4.919 L 17.818 4.908 L 17.785 4.884 L 17.753 4.884 L 17.703 4.86 L 17.671 4.849 L 17.638 4.837 L 17.588 4.813 L 17.572 4.801 L 17.572 4.79 L 17.556 4.79 L 17.556 4.766 L 17.9 3.68 L 17.9 3.644 L 17.884 3.609 L 17.884 3.585 L 17.868 3.574 L 17.868 3.538 L 17.835 3.515 L 17.835 3.479 L 17.818 3.456 L 17.802 3.432 L 17.785 3.396 L 17.769 3.361 L 17.753 3.337 L 17.72 3.302 L 17.703 3.267 L 17.687 3.231 L 17.654 3.196 L 17.638 3.16 L 17.605 3.125 L 17.588 3.101 L 17.572 3.09 L 17.572 3.066 L 17.539 3.054 L 17.539 3.031 L 17.506 3.019 L 17.506 2.995 L 17.474 2.971 L 17.457 2.96 L 17.441 2.936 L 17.424 2.924 L 17.408 2.901 L 17.375 2.889 L 17.375 2.865 L 17.342 2.853 L 17.326 2.83 L 17.293 2.818 L 17.277 2.794 L 17.26 2.783 L 17.227 2.759 L 17.211 2.747 L 17.195 2.724 L 17.162 2.712 L 17.145 2.688 L 17.113 2.676 L 17.08 2.665 L 17.063 2.641 L 17.03 2.629 L 17.014 2.617 L 16.981 2.594 L 16.948 2.582 L 16.932 2.57 L 16.899 2.558 L 16.866 2.535 L 16.833 2.535 L 16.801 2.511 L 16.768 2.511 L 16.751 2.487 L 16.719 2.476 L 16.686 2.464 L 16.653 2.452 L 16.62 2.452 L 16.571 2.428 L 16.538 2.428 L 16.505 2.417 L 16.472 2.405 L 16.44 2.405 L 16.39 2.381 L 16.325 2.381 L 16.292 2.369 L 16.243 2.358 L 16.161 2.358 L 16.128 2.346 L 16.046 2.346 L 15.996 2.334 L 15.52 2.334 L 15.471 2.346 L 15.422 2.346 L 15.373 2.358 L 15.323 2.369 L 15.258 2.369 L 15.209 2.393 L 15.159 2.393 L 15.094 2.405 L 15.044 2.417 L 14.979 2.428 L 14.93 2.44 L 14.88 2.452 L 14.175 2.877 L 14.093 2.877 L 14.076 2.865 L 14.076 2.83 L 14.06 2.806 L 14.06 2.759 L 14.043 2.735 L 14.043 2.712 L 14.027 2.7 L 14.027 2.665 L 14.01 2.641 L 14.01 2.594 L 13.994 2.57 L 13.978 2.546 L 13.978 2.523 L 13.945 2.499 L 13.945 2.476 L 13.928 2.452 L 13.912 2.428 L 13.896 2.405 L 13.879 2.381 L 13.863 2.358 L 13.846 2.334 L 13.814 2.31 L 13.797 2.287 L 13.781 2.251 L 13.764 2.251 L 13.748 2.228 L 13.715 2.204 L 13.715 2.192 L 13.699 2.181 L 13.682 2.169 L 13.666 2.157 L 13.666 2.145 L 13.633 2.133 L 13.633 2.122 L 13.584 2.122 L 13.584 2.11 L 13.551 2.098 L 13.551 2.086 L 13.518 2.074 L 13.518 2.062 L 13.485 2.051 L 13.485 2.039 L 13.469 2.027 L 13.452 2.027 L 13.42 2.003 L 13.37 1.968 L 13.338 1.968 L 13.338 1.956 L 13.288 1.944 L 13.255 1.944 L 13.255 1.909 L 13.19 1.909 L 13.157 1.885 L 13.141 1.885 L 13.108 1.874 L 13.075 1.874 L 13.059 1.85 L 12.993 1.85 L 12.976 1.826 L 12.944 1.826 L 12.911 1.815 L 12.878 1.815 L 12.862 1.803 L 12.829 1.803 L 12.796 1.791 L 12.763 1.791 L 12.73 1.779 L 12.665 1.779 L 12.615 1.767 L 12.32 1.767 L 12.304 1.744 L 12.287 1.744 L 12.287 1.732 L 12.254 1.72 L 12.254 1.697 L 12.238 1.697 L 12.238 1.649 L 12.205 1.649 L 12.205 1.637 L 12.172 1.626 L 12.172 1.614 L 12.139 1.59 L 12.139 1.555 L 12.123 1.555 L 12.107 1.531 L 12.09 1.531 L 12.074 1.519 L 12.057 1.508 L 12.041 1.484 L 12.024 1.484 L 11.992 1.449 L 11.975 1.449 L 11.959 1.437 L 11.926 1.413 L 11.91 1.413 L 11.877 1.401 L 11.877 1.39 L 11.828 1.378 L 11.795 1.366 L 11.778 1.354 L 11.762 1.354 L 11.745 1.331 L 11.713 1.331 L 11.713 1.319 L 11.68 1.319 L 11.663 1.307 L 11.631 1.307 L 11.614 1.295 L 11.483 1.295 L 11.483 1.272 L 11.007 1.272 L 10.974 1.295 L 10.925 1.295 L 10.892 1.319 L 10.859 1.331 L 10.826 1.331 L 10.794 1.342 L 10.777 1.342 L 10.728 1.366 L 10.662 1.366 L 10.629 1.39 L 10.564 1.39 L 10.564 1.413 L 10.482 1.413 L 10.482 1.366 L 10.449 1.366 L 10.4 1.342 L 10.383 1.342 L 10.35 1.331 L 10.334 1.319 L 10.301 1.307 L 10.285 1.295 L 10.235 1.283 L 10.219 1.272 L 10.186 1.26 L 10.153 1.236 L 10.121 1.236 L 10.071 1.201 L 10.039 1.201 L 10.006 1.189 L 9.956 1.177 L 9.94 1.177 L 9.907 1.153 L 9.874 1.153 L 9.874 1.142 L 9.792 1.142 L 9.743 1.118 L 9.694 1.118 L 9.694 1.106 L 9.645 1.106 L 9.612 1.094 L 9.464 1.094 L 9.448 1.083 L 9.234 1.083 L 9.218 1.094 L 9.169 1.094 L 9.136 1.106 L 9.087 1.106 L 9.087 1.142 L 9.054 1.142 L 9.021 1.153 L 9.005 1.165 L 8.972 1.165 L 8.955 1.177 L 8.922 1.177 L 8.89 1.189 L 8.873 1.201 L 8.84 1.212 L 8.824 1.224 L 8.791 1.236 L 8.758 1.248 L 8.742 1.26 L 8.709 1.283 L 8.676 1.295 L 8.66 1.307 L 8.627 1.331 L 8.611 1.342 L 8.578 1.366 L 8.545 1.39 L 8.529 1.401 L 8.496 1.425 L 8.479 1.449 L 8.446 1.472 L 8.414 1.496 L 8.397 1.519 L 8.364 1.543 L 8.348 1.567 L 8.315 1.602 L 8.299 1.626 L 8.266 1.661 L 8.25 1.685 L 8.217 1.72 L 8.2 1.756 L 8.167 1.779 L 8.151 1.815 L 8.118 1.85 L 8.102 1.885 L 8.069 1.933 L 8.053 1.968 L 8.036 2.003 L 8.003 2.051 L 7.987 2.086 L 7.954 2.133 L 7.954 2.181 L 7.921 2.216 L 7.905 2.263 L 7.872 2.31 L 7.872 2.334 L 7.839 2.334 L 7.839 2.346 L 7.774 2.346 L 7.757 2.334 L 7.724 2.334 L 7.708 2.322 L 7.659 2.31 L 7.626 2.299 L 7.609 2.299 L 7.577 2.287 L 7.56 2.287 L 7.527 2.275 L 7.511 2.275 L 7.478 2.263 L 7.412 2.263 L 7.396 2.251 L 7.363 2.251 L 7.33 2.24 L 7.232 2.24 L 7.199 2.228 L 6.854 2.228 L 6.822 2.24 L 6.789 2.24 L 6.772 2.251 L 6.74 2.251 L 6.707 2.263 L 6.674 2.263 L 6.674 2.275 L 6.625 2.275 L 6.608 2.287 L 6.592 2.287 L 6.575 2.299 L 6.559 2.299 L 6.543 2.31 L 6.526 2.31 L 6.51 2.322 L 6.493 2.334 L 6.46 2.334 L 6.46 2.358 L 6.428 2.358 L 6.428 2.369 L 6.395 2.369 L 6.395 2.393 L 6.362 2.393 L 6.362 2.405 L 6.329 2.417 L 6.329 2.428 L 6.296 2.44 L 6.296 2.452 L 6.264 2.464 L 6.264 2.476 L 6.247 2.499 L 6.231 2.499 L 6.214 2.523 L 6.198 2.535 L 6.181 2.546 L 6.165 2.57 L 6.165 2.582 L 6.132 2.594 L 6.132 2.617 L 6.116 2.629 L 6.099 2.653 L 6.083 2.665 L 6.083 2.688 L 6.05 2.712 L 6.05 2.724 L 6.034 2.747 L 6.017 2.771 L 6.001 2.783 L 5.985 2.794 L 5.919 2.794 L 5.902 2.771 L 5.87 2.771 L 5.837 2.747 L 5.804 2.724 L 5.771 2.724 L 5.755 2.7 L 5.722 2.7 L 5.689 2.676 L 5.656 2.665 L 5.623 2.653 L 5.591 2.641 L 5.558 2.617 L 5.525 2.617 L 5.492 2.594 L 5.443 2.582 L 5.41 2.57 L 5.361 2.558 L 5.312 2.546 L 5.312 2.523 L 5.262 2.523 L 5.213 2.499 L 5.147 2.499 L 5.147 2.476 L 5.098 2.476 L 5.065 2.464 L 5.016 2.464 L 5 2.452 L 4.951 2.452 L 4.918 2.44 L 4.803 2.44 L 4.77 2.428 L 4.458 2.428 L 4.425 2.44 L 4.376 2.44 L 4.343 2.452 L 4.327 2.452 L 4.294 2.464 L 4.261 2.464 L 4.245 2.476 L 4.212 2.476 L 4.179 2.499 L 4.163 2.499 L 4.13 2.511 L 4.113 2.511 L 4.081 2.535 L 4.048 2.535 L 4.031 2.558 L 3.999 2.558 L 3.982 2.582 L 3.949 2.582 L 3.933 2.606 L 3.9 2.617 L 3.867 2.629 L 3.851 2.653 L 3.818 2.665 L 3.802 2.688 L 3.769 2.7 L 3.752 2.724 L 3.72 2.735 L 3.703 2.759 L 3.67 2.783 L 3.654 2.806 L 3.621 2.83 L 3.605 2.853 L 3.572 2.877 L 3.555 2.901 L 3.523 2.924 L 3.506 2.948 L 3.49 2.971 L 3.457 3.007 L 3.441 3.031 L 3.424 3.066 L 3.391 3.09 L 3.375 3.125 L 3.358 3.16 L 3.326 3.196 L 3.326 3.231 L 3.293 3.255 L 3.293 3.302 L 3.26 3.337 L 3.26 3.385 L 3.227 3.432 L 3.211 3.479 L 3.211 3.515 L 3.194 3.538 L 3.194 3.562 L 3.178 3.585 L 3.178 3.609 L 3.161 3.644 L 3.161 3.668 L 3.145 3.692 L 3.145 3.762 L 3.129 3.786 L 3.129 3.845 L 3.112 3.845 L 3.112 3.857 L 3.096 3.857 L 3.096 3.869 L 3.047 3.869 L 3.014 3.892 L 2.981 3.892 L 2.948 3.904 L 2.932 3.904 L 2.899 3.928 L 2.882 3.928 L 2.85 3.94 L 2.833 3.951 L 2.8 3.963 L 2.768 3.975 L 2.735 3.987 L 2.702 4.01 L 2.669 4.022 L 2.636 4.034 L 2.603 4.058 L 2.571 4.069 L 2.538 4.093 L 2.505 4.117 L 2.456 4.14 L 2.423 4.152 L 2.39 4.176 L 2.357 4.199 L 2.341 4.223 L 2.324 4.223 L 2.308 4.246 L 2.275 4.246 L 2.275 4.27 L 2.242 4.282 L 2.242 4.294 L 2.21 4.317 L 2.21 4.329 L 2.177 4.341 L 2.16 4.365 L 2.144 4.365 L 2.127 4.388 L 2.111 4.412 L 2.095 4.424 L 2.078 4.435 L 2.062 4.459 L 2.062 4.471 L 2.029 4.494 L 2.029 4.506 L 1.996 4.53 L 1.996 4.553 L 1.98 4.565 L 1.963 4.589 L 1.947 4.601 L 1.931 4.624 L 1.931 4.648 L 1.898 4.671 L 1.898 4.683 L 1.881 4.707 L 1.881 4.73 L 1.848 4.754 L 1.848 4.778 L 1.832 4.801 L 1.832 4.825 L 1.816 4.849 L 1.816 4.872 L 1.799 4.896 L 1.799 4.919 L 1.783 4.943 L 1.783 4.967 L 1.766 4.99 L 1.766 5.014 L 1.75 5.037 L 1.75 5.096 L 1.734 5.12 L 1.734 5.203 L 1.717 5.238 L 1.717 5.616 L 1.734 5.651 L 1.734 5.687 L 1.75 5.71 L 1.75 5.746 L 1.766 5.781 L 1.766 5.828 L 1.783 5.864 L 1.799 5.899 L 1.816 5.946 L 1.816 5.97 L 1.848 5.994 L 1.848 6.017 L 1.865 6.041 L 1.865 6.076 L 1.898 6.1 L 1.898 6.135 L 1.931 6.171 L 1.931 6.194 L 1.963 6.23 L 1.963 6.265 L 1.996 6.289 L 2.013 6.324 L 2.045 6.36 L 2.062 6.395 L 2.078 6.419 L 2.111 6.454 L 2.111 6.466 L 2.127 6.489 L 2.144 6.501 L 2.16 6.513 L 2.16 6.537 L 2.193 6.548 L 2.193 6.596 L 2.177 6.608 L 2.16 6.631 L 2.144 6.631 L 2.111 6.655 L 2.095 6.678 L 2.078 6.678 L 2.062 6.702 L 2.029 6.702 L 2.029 6.737 L 1.996 6.749 L 1.98 6.773 L 1.963 6.785 L 1.947 6.808 L 1.931 6.832 L 1.914 6.844 L 1.898 6.867 L 1.881 6.891 L 1.865 6.914 L 1.848 6.938 L 1.816 6.962 L 1.816 6.997 L 1.783 7.021 L 1.783 7.056 L 1.75 7.08 L 1.75 7.115 L 1.734 7.139 L 1.717 7.174 L 1.717 7.198 L 1.701 7.21 L 1.701 7.245 L 1.684 7.269 L 1.684 7.304 L 1.668 7.316 L 1.668 7.375 L 1.651 7.398 L 1.651 7.481 L 1.635 7.505 L 1.635 7.871 L 1.651 7.906 L 1.651 7.977 L 1.668 8.012 L 1.668 8.024 L 1.684 8.048 L 1.684 8.083 L 1.701 8.107 L 1.701 8.142 L 1.717 8.166 L 1.717 8.189 L 1.75 8.225 L 1.75 8.248 L 1.766 8.284 L 1.766 8.319 L 1.799 8.343 L 1.799 8.378 L 1.816 8.402 L 1.832 8.437 L 1.848 8.473 L 1.865 8.508 L 1.881 8.532 L 1.898 8.567 L 1.914 8.591 L 2.784 9.323 L 2.784 9.346 L 2.8 9.358 L 2.8 9.382 L 2.259 10.066 L 2.259 10.114 L 2.275 10.137 Z " fill-rule="evenodd" fill="rgb(207,207,207)"/><path d=" M 14.503 10.007 L 17.293 9.028 C 17.293 9.028 17.392 16.394 15.504 17.905 L 13.896 17.905 L 13.896 17.764 C 13.83 18.2 10.137 17.527 6.887 17.799 C 6.887 17.799 3.949 12.864 3.72 10.22 C 3.72 10.22 7.79 9.075 14.503 9.948 L 14.503 10.007 Z " fill-rule="evenodd" fill="rgb(231,47,47)"/><path d=" M 5.738 15.58 L 4.392 12.793 C 4.392 12.793 10.006 12.498 14.683 12.439 C 15.882 12.416 17.129 12.239 17.129 12.239 L 16.85 14.671 L 14.733 15.107 L 5.738 15.58 Z " fill-rule="evenodd" fill="rgb(88,197,247)"/><path d=" M 7.215 14.033 L 7.215 14.092 C 7.198 14.13 7.163 14.163 7.117 14.187 C 7.054 14.224 6.981 14.252 6.904 14.269 C 6.807 14.293 6.708 14.312 6.608 14.328 C 6.566 14.339 6.527 14.355 6.493 14.375 L 6.493 14.458 C 6.492 14.568 6.498 14.679 6.51 14.789 L 6.51 14.93 C 6.502 15.011 6.48 15.09 6.444 15.166 C 6.438 15.184 6.427 15.2 6.411 15.214 C 6.391 15.222 6.366 15.222 6.346 15.214 L 6.28 15.202 C 6.256 15.186 6.239 15.166 6.231 15.143 C 6.082 14.586 6.06 14.016 6.165 13.455 L 6.214 13.337 C 6.235 13.306 6.263 13.278 6.296 13.254 C 6.377 13.225 6.459 13.197 6.543 13.171 C 6.585 13.16 6.629 13.152 6.674 13.148 L 6.822 13.124 C 6.854 13.124 6.887 13.124 6.92 13.148 C 6.953 13.148 6.986 13.171 7.019 13.195 L 7.084 13.278 L 7.101 13.396 L 7.101 13.443 C 7.101 13.466 7.101 13.478 7.068 13.49 C 7.049 13.515 7.021 13.536 6.986 13.549 C 6.914 13.574 6.835 13.586 6.756 13.584 L 6.543 13.584 C 6.529 13.663 6.518 13.742 6.51 13.821 L 6.51 13.868 C 6.587 13.859 6.664 13.847 6.74 13.832 L 6.838 13.821 C 6.903 13.811 6.97 13.811 7.035 13.821 L 7.101 13.844 L 7.166 13.903 L 7.199 13.974 L 7.199 14.033 L 7.215 14.033 Z  M 8.758 14.918 L 8.758 14.966 C 8.762 14.985 8.762 15.005 8.758 15.025 C 8.746 15.039 8.729 15.051 8.709 15.06 L 8.676 15.084 C 8.628 15.102 8.57 15.097 8.529 15.072 C 8.488 15.05 8.454 15.022 8.43 14.989 L 8.332 14.859 L 8.233 14.741 C 8.118 14.614 7.986 14.496 7.839 14.387 L 7.839 14.848 C 7.843 14.915 7.838 14.982 7.823 15.048 L 7.774 15.107 L 7.724 15.143 L 7.675 15.143 C 7.642 15.143 7.609 15.143 7.593 15.119 C 7.566 15.102 7.544 15.082 7.527 15.06 C 7.491 15.004 7.469 14.944 7.462 14.883 L 7.462 13.832 L 7.429 13.691 C 7.418 13.565 7.418 13.439 7.429 13.313 C 7.429 13.278 7.429 13.242 7.462 13.218 C 7.472 13.193 7.489 13.169 7.511 13.148 C 7.531 13.129 7.56 13.116 7.593 13.112 C 7.787 13.082 7.985 13.067 8.184 13.065 L 8.25 13.1 C 8.28 13.118 8.308 13.138 8.332 13.159 C 8.364 13.171 8.381 13.195 8.397 13.23 C 8.49 13.345 8.541 13.475 8.545 13.608 C 8.545 13.667 8.545 13.726 8.512 13.785 C 8.476 13.896 8.409 14 8.315 14.092 C 8.269 14.134 8.214 14.17 8.151 14.198 C 8.273 14.288 8.388 14.383 8.496 14.482 L 8.561 14.552 L 8.627 14.623 C 8.674 14.675 8.712 14.731 8.742 14.789 C 8.745 14.832 8.745 14.875 8.742 14.918 L 8.758 14.918 Z  M 10.219 14.883 C 10.219 14.907 10.219 14.93 10.186 14.954 C 10.186 14.977 10.17 15.001 10.137 15.001 C 9.896 15.066 9.638 15.09 9.382 15.072 C 9.352 15.064 9.324 15.052 9.3 15.036 C 9.269 15.024 9.242 15.008 9.218 14.989 C 9.195 14.964 9.178 14.936 9.169 14.907 L 9.152 14.871 L 9.152 14.824 C 9.15 14.812 9.15 14.8 9.152 14.789 L 9.169 14.753 L 9.201 14.73 L 9.251 14.73 L 9.333 14.718 L 9.415 14.706 L 9.415 13.525 L 9.398 13.419 L 9.366 13.431 L 9.333 13.443 L 9.119 13.443 L 9.087 13.419 L 9.054 13.396 C 9.04 13.385 9.029 13.373 9.021 13.36 L 9.021 13.301 C 9.045 13.217 9.116 13.145 9.218 13.1 L 9.3 13.053 C 9.357 13.029 9.418 13.009 9.48 12.994 C 9.576 12.972 9.678 12.968 9.776 12.982 L 9.874 13.006 C 9.907 13.006 9.94 13.03 9.973 13.053 L 10.039 13.136 C 10.039 13.171 10.039 13.207 10.006 13.242 C 10.006 13.278 9.973 13.301 9.94 13.313 L 9.842 13.337 C 9.808 13.347 9.775 13.359 9.743 13.372 L 9.743 13.679 C 9.736 13.75 9.736 13.821 9.743 13.891 L 9.743 14.009 L 9.76 14.127 L 9.76 14.364 L 9.776 14.482 L 9.776 14.588 L 9.809 14.694 L 9.924 14.694 L 9.956 14.682 L 10.071 14.682 C 10.1 14.681 10.128 14.685 10.153 14.694 C 10.186 14.718 10.203 14.753 10.203 14.789 L 10.203 14.883 L 10.219 14.883 Z  M 11.745 14.387 C 11.74 14.444 11.723 14.499 11.696 14.552 C 11.628 14.645 11.533 14.725 11.417 14.789 L 11.302 14.848 L 11.204 14.895 C 11.131 14.928 11.054 14.955 10.974 14.977 C 10.937 14.989 10.899 14.997 10.859 15.001 C 10.825 14.995 10.792 14.988 10.761 14.977 C 10.725 14.965 10.696 14.944 10.679 14.918 C 10.657 14.893 10.64 14.865 10.629 14.836 L 10.58 14.718 C 10.541 14.345 10.519 13.971 10.514 13.596 C 10.531 13.398 10.569 13.2 10.629 13.006 C 10.679 12.98 10.735 12.96 10.794 12.947 L 10.99 12.923 C 11.125 12.903 11.263 12.895 11.401 12.9 C 11.424 12.9 11.446 12.904 11.466 12.912 L 11.532 12.959 C 11.563 12.981 11.581 13.01 11.581 13.041 L 11.598 13.124 L 11.598 13.242 C 11.598 13.266 11.565 13.278 11.549 13.289 C 11.537 13.301 11.519 13.31 11.499 13.313 C 11.308 13.306 11.116 13.31 10.925 13.325 L 10.892 13.419 L 10.892 13.549 L 11.04 13.525 L 11.171 13.514 L 11.302 13.49 L 11.532 13.49 L 11.598 13.537 C 11.629 13.559 11.646 13.589 11.647 13.62 L 11.663 13.714 C 11.676 13.781 11.63 13.846 11.549 13.88 C 11.397 13.911 11.243 13.938 11.089 13.962 C 11.051 13.971 11.016 13.987 10.99 14.009 C 10.902 14.08 10.86 14.175 10.876 14.269 L 10.876 14.399 L 10.925 14.529 C 10.99 14.529 11.04 14.493 11.089 14.458 L 11.253 14.364 C 11.303 14.325 11.358 14.289 11.417 14.257 C 11.471 14.229 11.533 14.209 11.598 14.198 L 11.663 14.198 C 11.685 14.211 11.702 14.227 11.713 14.246 L 11.745 14.316 L 11.745 14.399 L 11.745 14.387 Z  M 13.223 14.198 C 13.223 14.3 13.195 14.4 13.141 14.493 C 13.098 14.578 13.037 14.658 12.96 14.73 L 12.714 14.871 C 12.634 14.904 12.543 14.921 12.451 14.918 C 12.394 14.914 12.338 14.902 12.287 14.883 C 12.23 14.863 12.175 14.839 12.123 14.812 L 12.074 14.682 C 12.059 14.636 12.048 14.588 12.041 14.541 L 12.057 14.493 L 12.107 14.47 L 12.172 14.47 L 12.221 14.493 L 12.287 14.517 L 12.369 14.529 L 12.468 14.529 L 12.583 14.505 C 12.618 14.492 12.651 14.477 12.681 14.458 C 12.718 14.443 12.752 14.423 12.779 14.399 C 12.808 14.37 12.83 14.338 12.845 14.305 C 12.854 14.249 12.865 14.194 12.878 14.139 L 12.878 14.08 L 12.747 14.08 L 12.648 14.092 C 12.583 14.101 12.517 14.109 12.451 14.116 L 12.369 14.116 L 12.271 14.104 C 12.242 14.094 12.214 14.083 12.189 14.068 C 12.157 14.052 12.129 14.032 12.107 14.009 C 12.078 13.989 12.056 13.965 12.041 13.939 C 12.01 13.877 11.988 13.814 11.975 13.75 L 11.975 13.643 C 11.969 13.45 12.031 13.259 12.156 13.089 C 12.203 13.013 12.27 12.945 12.353 12.888 C 12.435 12.841 12.517 12.817 12.615 12.817 C 12.733 12.809 12.851 12.835 12.944 12.888 C 12.993 12.912 13.026 12.947 13.075 13.006 C 13.108 13.041 13.141 13.089 13.157 13.159 L 13.173 13.195 L 13.173 13.266 L 13.157 13.301 L 13.108 13.313 L 13.075 13.313 C 13.016 13.305 12.961 13.289 12.911 13.266 C 12.851 13.239 12.784 13.223 12.714 13.218 C 12.667 13.223 12.622 13.235 12.583 13.254 C 12.515 13.282 12.458 13.323 12.418 13.372 C 12.38 13.415 12.352 13.463 12.336 13.514 L 12.336 13.584 C 12.334 13.6 12.334 13.616 12.336 13.632 L 12.353 13.667 L 12.386 13.691 L 12.418 13.691 L 12.5 13.679 L 12.583 13.655 L 12.665 13.632 L 12.747 13.632 C 12.814 13.625 12.883 13.633 12.944 13.655 C 13.009 13.679 13.059 13.726 13.108 13.785 L 13.157 13.88 L 13.19 13.974 L 13.223 14.092 L 13.223 14.198 Z  M 8.217 13.573 C 8.22 13.545 8.214 13.516 8.2 13.49 C 8.192 13.481 8.181 13.473 8.167 13.466 L 7.938 13.466 L 7.79 13.478 L 7.79 13.75 C 7.79 13.797 7.79 13.856 7.823 13.903 L 7.938 13.856 C 7.978 13.834 8.016 13.81 8.053 13.785 L 8.102 13.75 C 8.12 13.735 8.136 13.719 8.151 13.702 L 8.184 13.643 L 8.184 13.584 L 8.217 13.573 Z  M 4.803 10.031 L 2.603 8.414 C 2.603 8.414 1.816 7.351 2.357 7.233 C 2.899 7.115 3.67 7.328 3.67 7.328 L 6.362 9.76 L 4.803 10.031 Z  M 6.575 9.724 L 3.293 6.773 L 3.079 6.56 C 2.701 6.239 2.431 5.859 2.292 5.451 C 2.292 5.451 2.292 4.388 3.276 4.766 C 3.769 4.967 4.901 6.088 5.886 7.162 L 4.212 4.754 C 3.933 4.317 3.67 3.916 3.72 3.562 L 3.703 3.562 C 3.703 3.562 3.949 2.499 4.852 3.019 C 5.147 3.196 5.837 4.14 6.608 5.297 L 6.346 4.447 C 6.231 3.975 6.132 3.538 6.28 3.208 C 6.28 3.208 6.887 2.228 7.577 2.889 C 7.806 3.125 8.102 3.999 8.397 5.061 L 8.397 3.054 C 8.414 2.57 8.43 2.122 8.676 1.815 C 8.676 1.815 9.546 0.953 10.039 1.697 C 10.121 1.85 10.17 2.263 10.203 2.83 C 10.252 2.617 10.334 2.417 10.465 2.263 C 10.465 2.263 11.417 1.437 11.828 2.204 C 11.86 2.251 11.877 2.322 11.893 2.417 C 12.156 2.228 12.665 1.968 12.976 2.452 C 13.37 3.09 12.681 8.402 12.55 9.405 L 10.826 9.665 L 7.97 9.571 L 7.741 9.276 L 7.691 9.193 L 7.626 9.24 L 7.626 9.276 L 7.215 9.582 L 6.559 9.724 L 6.575 9.724 Z  M 12.665 9.405 L 13.157 4.99 C 13.157 4.99 13.912 3.81 14.569 3.857 L 14.601 3.774 C 14.601 3.774 15.537 2.759 16.111 2.924 C 16.686 3.101 16.948 3.597 16.948 3.597 L 15.799 6.112 C 15.865 6.064 16.998 5.262 17.49 5.498 C 18.015 5.746 18.147 6.277 18.147 6.277 L 15.471 9.665 L 12.681 9.405 L 12.665 9.405 Z  M 7.199 8.626 L 7.691 9.193 L 4.475 4.648 L 7.199 8.614 L 7.199 8.626 Z  M 8.676 6.123 L 8.725 6.348 L 8.693 3.042 L 8.676 6.112 L 8.676 6.123 Z " fill-rule="evenodd" fill="rgb(247,226,88)"/><path d=" M 15.504 18.035 L 13.846 18.035 C 13.821 18.027 13.798 18.015 13.781 18 L 13.731 18 C 13.678 18.012 13.623 18.02 13.567 18.023 L 13.469 18.035 C 13.36 18.041 13.25 18.041 13.141 18.035 L 12.533 18.035 L 12.09 18 L 11.073 17.941 C 9.68 17.852 8.28 17.848 6.887 17.929 L 6.838 17.929 C 6.798 17.922 6.763 17.906 6.74 17.882 L 6.707 17.846 L 6.641 17.728 C 5.832 16.315 5.109 14.877 4.475 13.419 C 4.156 12.658 3.893 11.886 3.687 11.105 C 3.612 10.824 3.557 10.541 3.523 10.255 L 3.523 10.185 L 3.588 10.114 L 3.637 10.09 L 3.703 10.09 L 3.752 10.066 L 4.458 9.913 L 4.573 9.889 L 2.489 8.473 L 2.472 8.461 L 2.423 8.39 C 2.297 8.202 2.187 8.009 2.095 7.812 L 2.062 7.705 L 2.029 7.623 C 2.027 7.583 2.027 7.544 2.029 7.505 C 2.013 7.41 2.029 7.304 2.111 7.233 C 2.173 7.17 2.267 7.127 2.374 7.115 C 2.602 7.089 2.835 7.089 3.063 7.115 C 3.227 7.139 3.391 7.162 3.555 7.21 L 3.178 6.832 L 2.965 6.619 C 2.82 6.471 2.677 6.322 2.538 6.171 L 2.292 5.84 C 2.232 5.742 2.188 5.639 2.16 5.533 L 2.144 5.474 L 2.144 5.392 C 2.144 5.274 2.177 5.144 2.226 5.014 C 2.254 4.935 2.298 4.859 2.357 4.79 C 2.403 4.744 2.458 4.704 2.521 4.671 C 2.58 4.639 2.647 4.615 2.718 4.601 C 2.882 4.565 3.063 4.601 3.211 4.648 C 3.333 4.683 3.445 4.735 3.539 4.801 L 3.703 4.931 L 3.9 5.073 C 4.208 5.333 4.503 5.601 4.786 5.876 L 4.901 5.994 L 4.081 4.801 L 3.9 4.506 C 3.789 4.321 3.69 4.132 3.605 3.94 C 3.567 3.824 3.55 3.704 3.555 3.585 L 3.555 3.491 L 3.736 3.137 C 3.785 3.059 3.852 2.987 3.933 2.924 C 3.986 2.886 4.047 2.854 4.113 2.83 C 4.184 2.802 4.263 2.786 4.343 2.783 C 4.507 2.783 4.671 2.83 4.819 2.901 C 4.929 2.95 5.024 3.014 5.098 3.09 C 5.204 3.186 5.297 3.288 5.377 3.396 C 5.627 3.685 5.851 3.985 6.05 4.294 L 6.214 4.53 L 6.214 4.483 L 6.132 4.164 C 6.087 3.969 6.059 3.771 6.05 3.574 C 6.055 3.45 6.083 3.326 6.132 3.208 L 6.132 3.172 L 6.165 3.125 C 6.247 3.007 6.346 2.901 6.477 2.806 L 6.723 2.641 C 6.794 2.608 6.871 2.584 6.953 2.57 C 6.996 2.566 7.041 2.566 7.084 2.57 L 7.183 2.57 C 7.347 2.594 7.511 2.676 7.609 2.771 C 7.693 2.841 7.76 2.921 7.806 3.007 C 7.922 3.205 8.01 3.41 8.069 3.621 L 8.184 3.928 L 8.266 4.211 L 8.266 3.066 C 8.272 2.885 8.283 2.704 8.299 2.523 C 8.299 2.405 8.332 2.275 8.364 2.145 C 8.407 2.021 8.473 1.902 8.561 1.791 L 8.561 1.744 L 8.611 1.708 C 8.713 1.625 8.823 1.546 8.939 1.472 C 9.074 1.385 9.238 1.325 9.415 1.295 L 9.563 1.295 C 9.636 1.298 9.708 1.31 9.776 1.331 C 9.907 1.378 10.022 1.46 10.104 1.567 L 10.17 1.685 L 10.235 1.85 L 10.268 2.051 L 10.301 2.251 L 10.301 2.275 C 10.301 2.251 10.334 2.24 10.35 2.216 L 10.35 2.204 L 10.367 2.192 L 10.416 2.157 C 10.531 2.062 10.662 1.968 10.81 1.897 C 10.911 1.85 11.022 1.814 11.138 1.791 L 11.352 1.767 C 11.426 1.773 11.499 1.789 11.565 1.815 C 11.729 1.862 11.844 1.968 11.91 2.086 L 11.975 2.192 L 11.975 2.216 C 12.116 2.133 12.287 2.08 12.468 2.062 C 12.552 2.061 12.637 2.073 12.714 2.098 C 12.862 2.145 12.976 2.24 13.042 2.334 L 13.124 2.44 L 13.173 2.594 L 13.206 2.783 L 13.223 2.971 C 13.271 3.273 13.287 3.577 13.272 3.88 L 13.272 4.459 C 13.438 4.271 13.624 4.094 13.83 3.928 C 13.994 3.81 14.158 3.715 14.388 3.692 C 14.425 3.681 14.464 3.673 14.503 3.668 L 14.519 3.668 L 14.552 3.633 C 14.794 3.4 15.069 3.187 15.373 2.995 L 15.635 2.865 C 15.729 2.834 15.829 2.814 15.931 2.806 L 15.996 2.806 C 16.035 2.804 16.073 2.804 16.111 2.806 L 16.226 2.842 L 16.407 2.924 C 16.691 3.088 16.917 3.298 17.063 3.538 L 17.08 3.562 L 17.08 3.609 L 16.078 5.793 L 16.193 5.722 C 16.398 5.608 16.618 5.51 16.85 5.427 C 16.969 5.388 17.097 5.364 17.227 5.356 L 17.293 5.356 C 17.359 5.356 17.424 5.356 17.474 5.38 L 17.638 5.439 L 17.769 5.521 C 18.016 5.722 18.186 5.967 18.261 6.23 L 18.261 6.301 L 16.177 8.851 L 17.293 8.898 L 17.342 8.898 L 17.392 8.921 C 17.422 8.943 17.44 8.973 17.441 9.004 L 17.441 9.264 C 17.438 10.544 17.372 11.824 17.244 13.1 C 17.131 14.114 16.945 15.123 16.686 16.123 C 16.519 16.638 16.283 17.14 15.98 17.622 C 15.888 17.748 15.778 17.867 15.652 17.976 L 15.603 18 C 15.588 18.01 15.572 18.018 15.553 18.023 L 15.488 18.023 L 15.504 18.035 Z  M 14.142 10.031 C 12.731 9.859 11.305 9.764 9.874 9.748 L 9.497 9.748 L 8.594 9.76 C 7.38 9.796 6.172 9.907 4.983 10.09 C 4.655 10.149 4.327 10.208 3.999 10.291 L 3.949 10.291 L 3.933 10.303 L 3.933 10.421 C 4.015 10.916 4.13 11.4 4.294 11.873 C 5.003 13.837 5.908 15.763 7.002 17.634 L 7.019 17.657 C 7.339 17.624 7.663 17.609 7.987 17.61 C 9.038 17.58 10.091 17.603 11.138 17.681 L 12.254 17.752 L 12.468 17.752 C 12.839 17.765 13.212 17.769 13.584 17.764 C 13.634 17.759 13.683 17.751 13.731 17.74 L 13.731 17.693 L 13.731 17.74 L 13.961 17.527 L 14.142 17.055 L 14.158 16.973 C 14.29 16.649 14.378 16.317 14.421 15.981 C 14.534 15.331 14.589 14.676 14.585 14.021 C 14.602 13.037 14.558 12.052 14.454 11.07 L 14.454 11.046 L 14.388 10.066 L 14.158 10.031 L 14.142 10.031 Z  M 14.7 10.078 L 14.7 10.196 C 14.844 11.5 14.915 12.808 14.913 14.116 C 14.899 14.774 14.844 15.432 14.749 16.087 C 14.674 16.499 14.553 16.905 14.388 17.303 C 14.307 17.468 14.202 17.626 14.076 17.775 L 15.422 17.775 L 15.455 17.752 C 15.713 17.447 15.922 17.122 16.078 16.784 C 16.331 16.227 16.507 15.654 16.604 15.072 C 16.786 14.191 16.907 13.305 16.965 12.416 C 17.063 11.394 17.112 10.37 17.113 9.346 L 17.113 9.228 L 14.7 10.078 Z  M 11.778 13.455 L 11.795 13.36 C 11.831 13.246 11.886 13.135 11.959 13.03 L 12.024 12.959 C 12.024 12.935 12.057 12.923 12.074 12.9 C 12.161 12.804 12.287 12.73 12.435 12.687 L 12.55 12.675 L 12.665 12.675 L 12.845 12.687 C 13.026 12.734 13.173 12.829 13.272 12.947 C 13.299 12.985 13.321 13.024 13.338 13.065 L 13.354 13.1 L 13.37 13.136 L 13.403 13.218 C 13.41 13.246 13.41 13.274 13.403 13.301 C 13.387 13.347 13.353 13.388 13.305 13.419 C 13.247 13.458 13.17 13.479 13.091 13.478 L 13.026 13.478 C 12.95 13.467 12.878 13.447 12.812 13.419 L 12.779 13.407 L 12.747 13.396 L 12.697 13.396 C 12.673 13.404 12.651 13.416 12.632 13.431 C 12.61 13.452 12.593 13.476 12.583 13.502 L 12.632 13.502 C 12.723 13.485 12.819 13.485 12.911 13.502 C 12.98 13.514 13.047 13.534 13.108 13.561 C 13.19 13.604 13.258 13.661 13.305 13.726 L 13.403 13.915 C 13.428 14.008 13.439 14.103 13.436 14.198 L 13.436 14.246 C 13.415 14.535 13.217 14.803 12.894 14.977 C 12.843 15.005 12.788 15.029 12.73 15.048 C 12.637 15.076 12.536 15.088 12.435 15.084 L 12.386 15.084 C 12.287 15.075 12.192 15.05 12.107 15.013 C 12.073 14.998 12.04 14.983 12.008 14.966 C 11.983 14.953 11.961 14.937 11.942 14.918 L 11.91 14.871 L 11.91 14.836 C 11.877 14.8 11.877 14.765 11.86 14.718 L 11.86 14.682 L 11.844 14.694 C 11.774 14.765 11.691 14.828 11.598 14.883 L 11.434 14.977 L 11.319 15.036 C 11.22 15.089 11.109 15.129 10.99 15.155 C 10.952 15.157 10.914 15.157 10.876 15.155 L 10.728 15.155 C 10.68 15.14 10.636 15.12 10.597 15.096 C 10.566 15.083 10.539 15.067 10.514 15.048 L 10.498 15.025 C 10.464 14.988 10.436 14.948 10.416 14.907 L 10.416 14.954 L 10.35 15.072 C 10.321 15.102 10.281 15.126 10.235 15.143 L 10.186 15.166 L 10.121 15.166 C 9.947 15.213 9.764 15.24 9.579 15.249 L 9.366 15.249 C 9.253 15.225 9.155 15.176 9.087 15.107 C 9.067 15.089 9.051 15.069 9.037 15.048 L 9.005 15.001 L 9.005 14.989 C 8.972 15.06 8.939 15.143 8.84 15.19 C 8.797 15.214 8.746 15.23 8.693 15.237 C 8.628 15.25 8.56 15.25 8.496 15.237 C 8.417 15.211 8.349 15.17 8.299 15.119 C 8.28 15.1 8.264 15.081 8.25 15.06 L 8.184 14.966 L 8.151 14.93 L 8.085 14.836 L 8.085 14.989 L 8.053 15.072 C 8.035 15.128 8.002 15.18 7.954 15.225 C 7.925 15.245 7.892 15.261 7.856 15.273 C 7.822 15.291 7.782 15.303 7.741 15.308 C 7.719 15.31 7.697 15.31 7.675 15.308 L 7.642 15.296 C 7.547 15.281 7.464 15.238 7.412 15.178 C 7.387 15.152 7.365 15.125 7.347 15.096 C 7.321 15.046 7.305 14.995 7.298 14.942 L 7.281 14.824 L 7.281 14.293 C 7.206 14.336 7.123 14.372 7.035 14.399 C 7.008 14.408 6.981 14.416 6.953 14.423 L 6.822 14.446 L 6.756 14.458 L 6.723 14.458 L 6.723 14.576 L 6.74 14.741 L 6.74 14.977 C 6.734 15.029 6.723 15.08 6.707 15.131 C 6.707 15.178 6.674 15.225 6.641 15.273 C 6.617 15.295 6.59 15.315 6.559 15.332 C 6.522 15.356 6.477 15.372 6.428 15.379 C 6.324 15.388 6.221 15.362 6.149 15.308 C 6.108 15.281 6.074 15.249 6.05 15.214 L 6.05 15.19 L 6.017 15.131 L 5.985 15.013 L 5.968 14.836 L 5.968 14.789 L 5.935 14.73 L 5.935 14.612 C 5.911 14.411 5.9 14.21 5.902 14.009 C 5.902 13.821 5.935 13.632 5.968 13.443 L 5.968 13.419 C 5.988 13.335 6.033 13.254 6.099 13.183 C 6.124 13.165 6.151 13.149 6.181 13.136 L 6.198 13.112 L 6.28 13.089 L 6.362 13.065 C 6.404 13.051 6.448 13.039 6.493 13.03 L 6.526 13.03 C 6.559 13.006 6.592 13.006 6.641 12.994 L 6.805 12.971 L 6.854 12.971 C 6.887 12.971 6.936 12.971 6.986 12.994 L 7.084 13.03 C 7.166 13.065 7.248 13.124 7.281 13.183 C 7.314 13.124 7.347 13.065 7.412 13.018 C 7.443 13.002 7.476 12.99 7.511 12.982 L 7.56 12.971 L 7.659 12.947 L 8.118 12.9 L 8.151 12.9 C 8.202 12.902 8.251 12.91 8.299 12.923 C 8.463 12.971 8.561 13.065 8.643 13.171 C 8.791 13.387 8.826 13.635 8.742 13.868 L 8.66 14.021 L 8.627 14.068 C 8.592 14.11 8.554 14.149 8.512 14.187 L 8.512 14.21 C 8.581 14.268 8.646 14.327 8.709 14.387 L 8.775 14.458 C 8.841 14.524 8.896 14.595 8.939 14.671 L 8.972 14.718 C 9.005 14.665 9.063 14.623 9.136 14.6 L 9.201 14.576 L 9.201 13.608 L 9.152 13.608 C 9.118 13.604 9.085 13.596 9.054 13.584 L 9.037 13.584 L 8.988 13.561 C 8.867 13.5 8.803 13.395 8.824 13.289 L 8.824 13.254 C 8.85 13.183 8.901 13.118 8.972 13.065 C 8.997 13.044 9.025 13.024 9.054 13.006 L 9.185 12.935 L 9.218 12.923 C 9.306 12.888 9.4 12.86 9.497 12.841 C 9.561 12.827 9.627 12.819 9.694 12.817 L 9.809 12.817 C 9.848 12.823 9.886 12.831 9.924 12.841 L 9.989 12.864 C 10.022 12.864 10.039 12.888 10.071 12.9 C 10.169 12.952 10.239 13.027 10.268 13.112 L 10.268 13.218 L 10.252 13.254 C 10.232 13.311 10.192 13.364 10.137 13.407 C 10.096 13.436 10.045 13.457 9.989 13.466 L 9.989 14.328 L 10.006 14.493 L 10.006 14.517 L 10.137 14.517 C 10.186 14.517 10.219 14.541 10.252 14.552 L 10.318 14.576 L 10.35 14.612 L 10.334 14.434 L 10.318 14.234 L 10.318 13.844 C 10.317 13.559 10.355 13.274 10.432 12.994 L 10.432 12.971 L 10.482 12.912 L 10.514 12.888 L 10.547 12.876 C 10.599 12.853 10.654 12.833 10.711 12.817 L 10.81 12.793 L 10.958 12.77 L 11.007 12.77 C 11.088 12.757 11.17 12.749 11.253 12.746 L 11.466 12.746 L 11.549 12.758 C 11.647 12.793 11.729 12.864 11.778 12.935 C 11.804 12.98 11.821 13.028 11.828 13.077 L 11.828 13.242 L 11.811 13.289 L 11.811 13.301 L 11.795 13.337 L 11.729 13.396 L 11.745 13.419 L 11.778 13.431 L 11.778 13.455 Z  M 6.674 13.159 C 6.629 13.164 6.585 13.172 6.543 13.183 L 6.51 13.183 L 6.411 13.218 C 6.378 13.218 6.362 13.242 6.329 13.254 L 6.296 13.254 L 6.296 13.266 L 6.28 13.266 L 6.247 13.313 C 6.206 13.364 6.178 13.42 6.165 13.478 L 6.149 13.573 C 6.121 13.729 6.105 13.887 6.099 14.045 L 6.099 14.246 L 6.116 14.541 L 6.132 14.659 L 6.132 14.718 L 6.165 14.836 L 6.181 14.977 L 6.214 15.096 C 6.214 15.131 6.231 15.166 6.264 15.19 L 6.28 15.214 L 6.296 15.214 C 6.329 15.237 6.362 15.237 6.378 15.237 L 6.428 15.214 L 6.46 15.166 L 6.477 15.107 L 6.477 15.072 L 6.51 14.989 L 6.51 14.517 L 6.493 14.399 L 6.493 14.387 C 6.522 14.368 6.556 14.352 6.592 14.34 L 6.674 14.316 L 6.756 14.316 C 6.789 14.293 6.822 14.293 6.871 14.281 L 6.969 14.257 L 7.068 14.222 L 7.117 14.187 C 7.169 14.157 7.204 14.115 7.215 14.068 L 7.215 14.021 L 7.183 13.974 L 7.183 13.927 C 7.133 13.88 7.084 13.832 7.019 13.821 L 6.871 13.821 L 6.789 13.844 L 6.74 13.844 L 6.592 13.868 L 6.51 13.868 L 6.51 13.691 L 6.543 13.608 L 6.772 13.608 C 6.854 13.6 6.932 13.58 7.002 13.549 C 7.048 13.531 7.083 13.502 7.101 13.466 L 7.101 13.419 C 7.106 13.38 7.106 13.34 7.101 13.301 C 7.07 13.245 7.011 13.199 6.936 13.171 C 6.903 13.153 6.863 13.141 6.822 13.136 L 6.674 13.159 Z  M 8.118 13.065 L 7.97 13.077 L 7.757 13.1 L 7.593 13.124 C 7.548 13.143 7.513 13.172 7.495 13.207 C 7.452 13.269 7.429 13.338 7.429 13.407 L 7.429 13.632 L 7.445 13.702 L 7.445 13.714 L 7.462 13.773 L 7.462 13.821 L 7.495 13.986 L 7.495 14.34 L 7.478 14.458 L 7.478 14.93 L 7.527 15.048 L 7.577 15.119 L 7.659 15.155 L 7.741 15.155 C 7.771 15.136 7.794 15.111 7.806 15.084 L 7.839 14.989 L 7.839 14.399 L 7.938 14.482 C 8.043 14.564 8.142 14.651 8.233 14.741 L 8.381 14.93 L 8.43 15.001 L 8.43 15.013 L 8.512 15.072 L 8.578 15.096 L 8.693 15.096 L 8.725 15.048 C 8.743 15.022 8.754 14.994 8.758 14.966 L 8.758 14.777 L 8.725 14.73 C 8.685 14.671 8.635 14.615 8.578 14.564 L 8.512 14.493 L 8.43 14.423 L 8.184 14.21 L 8.217 14.198 C 8.317 14.133 8.395 14.052 8.446 13.962 C 8.474 13.925 8.496 13.885 8.512 13.844 C 8.534 13.806 8.55 13.766 8.561 13.726 L 8.561 13.608 C 8.555 13.524 8.533 13.44 8.496 13.36 C 8.461 13.276 8.399 13.199 8.315 13.136 C 8.27 13.105 8.213 13.084 8.151 13.077 L 8.102 13.077 L 8.118 13.065 Z  M 9.694 12.982 L 9.563 12.982 C 9.47 13 9.381 13.028 9.3 13.065 L 9.201 13.124 C 9.172 13.138 9.144 13.153 9.119 13.171 C 9.08 13.205 9.051 13.246 9.037 13.289 L 9.021 13.313 L 9.021 13.372 C 9.037 13.407 9.07 13.443 9.119 13.443 L 9.136 13.455 C 9.157 13.458 9.18 13.458 9.201 13.455 L 9.366 13.455 L 9.398 13.431 L 9.398 13.49 C 9.412 13.6 9.412 13.711 9.398 13.821 L 9.398 14.718 L 9.3 14.73 L 9.251 14.73 C 9.218 14.73 9.201 14.741 9.201 14.753 C 9.165 14.768 9.141 14.794 9.136 14.824 L 9.136 14.871 L 9.152 14.907 L 9.152 14.918 L 9.201 14.977 C 9.254 15.053 9.363 15.1 9.48 15.096 L 9.595 15.096 L 9.956 15.06 L 10.071 15.025 C 10.093 15.02 10.115 15.016 10.137 15.013 L 10.153 15.013 C 10.186 15.001 10.186 14.977 10.203 14.954 L 10.203 14.777 C 10.193 14.751 10.176 14.727 10.153 14.706 L 10.137 14.706 L 10.104 14.694 L 9.842 14.694 L 9.842 14.706 L 9.809 14.706 L 9.809 14.671 C 9.776 14.612 9.776 14.552 9.776 14.493 L 9.776 14.175 L 9.76 14.021 L 9.76 13.844 C 9.755 13.754 9.755 13.663 9.76 13.573 L 9.76 13.384 L 9.792 13.36 L 9.924 13.337 L 9.94 13.325 C 9.979 13.304 10.007 13.275 10.022 13.242 L 10.039 13.148 L 10.039 13.124 C 10.026 13.107 10.009 13.091 9.989 13.077 C 9.956 13.052 9.918 13.032 9.874 13.018 L 9.825 13.006 C 9.794 12.995 9.761 12.987 9.727 12.982 L 9.694 12.982 Z  M 11.269 12.912 C 11.226 12.91 11.182 12.91 11.138 12.912 L 10.974 12.935 L 10.925 12.935 C 10.869 12.944 10.814 12.955 10.761 12.971 C 10.713 12.986 10.669 13.006 10.629 13.03 L 10.613 13.077 C 10.563 13.204 10.536 13.335 10.531 13.466 C 10.498 13.702 10.514 13.939 10.514 14.175 L 10.514 14.434 L 10.547 14.576 L 10.58 14.73 L 10.629 14.848 C 10.644 14.881 10.666 14.913 10.695 14.942 L 10.744 14.977 L 10.794 14.989 C 10.81 14.994 10.826 14.998 10.843 15.001 L 10.859 15.001 C 10.886 15.003 10.914 15.003 10.941 15.001 C 11.053 14.973 11.158 14.934 11.253 14.883 L 11.302 14.859 L 11.384 14.812 L 11.466 14.765 C 11.549 14.714 11.621 14.654 11.68 14.588 L 11.713 14.529 C 11.744 14.465 11.755 14.396 11.745 14.328 L 11.713 14.269 C 11.713 14.246 11.68 14.222 11.647 14.21 L 11.565 14.21 C 11.486 14.231 11.413 14.263 11.352 14.305 L 11.286 14.34 L 11.22 14.399 L 11.155 14.434 L 11.056 14.493 C 11.016 14.514 10.972 14.53 10.925 14.541 L 10.908 14.482 L 10.876 14.387 L 10.876 14.222 C 10.878 14.173 10.895 14.125 10.925 14.08 C 10.956 14.037 11.009 14.003 11.073 13.986 L 11.122 13.974 L 11.417 13.927 L 11.483 13.915 L 11.581 13.88 C 11.645 13.843 11.676 13.784 11.663 13.726 L 11.663 13.702 C 11.666 13.671 11.661 13.639 11.647 13.608 C 11.614 13.561 11.565 13.502 11.483 13.49 L 11.45 13.49 L 11.368 13.502 L 11.237 13.514 L 11.073 13.537 L 10.925 13.549 L 10.892 13.549 L 10.892 13.455 L 10.908 13.36 L 10.908 13.337 C 11.105 13.323 11.302 13.319 11.499 13.325 L 11.532 13.325 L 11.581 13.278 L 11.581 13.242 C 11.597 13.22 11.609 13.196 11.614 13.171 L 11.614 13.089 C 11.603 13.05 11.581 13.014 11.549 12.982 C 11.524 12.949 11.483 12.924 11.434 12.912 L 11.269 12.912 Z  M 12.632 12.829 L 12.533 12.829 C 12.463 12.849 12.401 12.882 12.353 12.923 C 12.302 12.958 12.258 12.998 12.221 13.041 L 12.172 13.1 C 12.057 13.257 11.995 13.431 11.992 13.608 L 11.992 13.726 C 11.992 13.785 11.992 13.844 12.024 13.891 C 12.024 13.927 12.057 13.962 12.074 13.986 C 12.106 14.025 12.151 14.057 12.205 14.08 L 12.304 14.116 C 12.385 14.128 12.469 14.128 12.55 14.116 L 12.681 14.116 L 12.747 14.104 L 12.779 14.104 L 12.878 14.08 L 12.878 14.222 C 12.88 14.246 12.88 14.269 12.878 14.293 C 12.859 14.356 12.813 14.414 12.747 14.458 C 12.659 14.511 12.549 14.54 12.435 14.541 L 12.353 14.541 C 12.304 14.541 12.287 14.517 12.254 14.505 L 12.205 14.505 L 12.156 14.482 L 12.09 14.482 C 12.057 14.493 12.041 14.529 12.041 14.552 L 12.041 14.612 L 12.123 14.824 L 12.156 14.848 L 12.336 14.918 L 12.451 14.93 L 12.484 14.93 C 12.585 14.928 12.682 14.903 12.763 14.859 C 13.118 14.667 13.289 14.347 13.206 14.033 C 13.187 13.926 13.131 13.825 13.042 13.738 C 12.995 13.695 12.933 13.662 12.862 13.643 L 12.681 13.643 L 12.632 13.655 L 12.55 13.679 L 12.484 13.691 L 12.418 13.702 C 12.386 13.702 12.369 13.702 12.369 13.679 C 12.346 13.65 12.335 13.618 12.336 13.584 L 12.336 13.525 L 12.369 13.455 C 12.379 13.438 12.39 13.423 12.402 13.407 C 12.451 13.325 12.566 13.242 12.697 13.23 L 12.763 13.23 L 12.862 13.266 L 12.927 13.289 L 12.96 13.301 C 13.002 13.313 13.046 13.321 13.091 13.325 L 13.124 13.325 C 13.157 13.325 13.173 13.301 13.173 13.278 L 13.173 13.171 L 13.157 13.136 C 13.14 13.099 13.118 13.063 13.091 13.03 C 13.024 12.941 12.913 12.873 12.779 12.841 C 12.742 12.834 12.703 12.83 12.665 12.829 L 12.632 12.829 Z  M 11.811 13.939 L 11.795 13.939 C 11.729 13.999 11.636 14.04 11.532 14.057 L 11.565 14.057 C 11.62 14.049 11.677 14.053 11.729 14.068 L 11.778 14.08 C 11.877 14.127 11.942 14.222 11.942 14.305 L 11.959 14.34 L 11.959 14.352 L 12.008 14.34 L 12.107 14.328 L 12.221 14.34 L 12.271 14.352 L 12.304 14.352 L 12.353 14.375 L 12.386 14.375 C 12.424 14.379 12.462 14.379 12.5 14.375 L 12.533 14.364 L 12.583 14.34 C 12.607 14.32 12.624 14.295 12.632 14.269 L 12.5 14.269 C 12.424 14.277 12.347 14.277 12.271 14.269 C 12.035 14.236 11.849 14.107 11.795 13.939 L 11.811 13.939 Z  M 11.483 14.068 L 11.253 14.104 L 11.155 14.127 C 11.134 14.136 11.117 14.148 11.105 14.163 C 11.088 14.197 11.082 14.233 11.089 14.269 L 11.122 14.246 L 11.171 14.21 C 11.231 14.17 11.297 14.134 11.368 14.104 C 11.42 14.087 11.475 14.075 11.532 14.068 C 11.51 14.07 11.488 14.07 11.466 14.068 L 11.483 14.068 Z  M 8.135 13.478 C 8.167 13.478 8.184 13.478 8.184 13.502 C 8.217 13.537 8.217 13.584 8.2 13.62 C 8.2 13.667 8.167 13.702 8.135 13.738 L 8.085 13.785 L 8.069 13.797 C 8.048 13.814 8.026 13.829 8.003 13.844 L 7.921 13.891 C 7.895 13.902 7.868 13.909 7.839 13.915 L 7.806 13.714 L 7.806 13.502 L 8.003 13.478 L 8.085 13.478 L 8.135 13.466 L 8.135 13.478 Z  M 7.215 13.62 C 7.188 13.647 7.155 13.671 7.117 13.691 L 7.199 13.714 L 7.232 13.738 L 7.232 13.62 L 7.215 13.62 Z  M 4.901 8.473 L 3.588 7.41 L 3.506 7.387 C 3.26 7.339 3.014 7.292 2.751 7.292 L 2.702 7.292 C 2.62 7.292 2.538 7.292 2.456 7.316 L 2.406 7.316 L 2.357 7.339 L 2.85 7.753 L 5.525 9.854 L 6.214 9.653 L 4.901 8.473 Z  M 4.918 9.83 L 5.033 9.783 L 4.934 9.701 L 2.653 7.882 L 2.324 7.623 L 2.456 7.942 L 2.702 8.343 L 2.702 8.355 L 4.885 9.842 L 4.918 9.842 L 4.918 9.83 Z  M 7.511 8.957 C 6.591 7.537 5.298 6.258 3.703 5.191 L 3.555 5.073 L 3.391 4.955 C 3.345 4.925 3.296 4.897 3.244 4.872 C 3.208 4.854 3.169 4.838 3.129 4.825 C 3.052 4.798 2.968 4.782 2.882 4.778 L 2.866 4.778 L 2.784 4.79 C 2.669 4.813 2.62 4.884 2.554 4.955 L 2.538 4.99 L 2.505 5.037 L 2.489 5.085 C 2.453 5.193 2.431 5.304 2.423 5.415 L 6.411 9.205 L 6.772 9.582 C 7.101 9.571 7.659 9.382 7.56 9.087 L 7.511 8.945 L 7.511 8.957 Z  M 8.709 6.914 C 8.489 5.999 8.249 5.086 7.987 4.176 L 7.872 3.845 C 7.757 3.546 7.626 3.251 7.478 2.96 L 7.429 2.912 C 7.403 2.892 7.375 2.872 7.347 2.853 C 7.293 2.811 7.225 2.778 7.15 2.759 L 7.084 2.759 C 6.966 2.766 6.855 2.804 6.772 2.865 C 6.638 2.973 6.522 3.092 6.428 3.219 L 8.184 9.075 L 8.266 9.429 L 9.333 9.394 L 8.873 7.599 L 8.873 7.623 L 8.709 6.914 Z  M 10.843 9.311 L 11.105 8.614 L 11.696 7.044 L 11.745 6.867 L 12.139 5.71 L 12.107 5.663 C 12.066 5.566 12.017 5.472 11.959 5.38 L 11.532 4.967 L 11.516 4.943 L 11.483 4.943 L 11.319 5.486 L 10.597 7.871 L 10.088 9.346 L 10.843 9.323 L 10.843 9.311 Z  M 11.663 8.048 L 11.532 8.402 L 11.352 9.323 L 11.663 9.323 L 11.663 8.048 Z  M 14.437 9.311 L 14.667 8.083 L 14.815 7.387 L 15.471 4.624 C 15.317 4.431 15.104 4.265 14.848 4.14 C 14.757 4.094 14.658 4.058 14.552 4.034 L 14.519 4.034 C 14.472 4.038 14.427 4.05 14.388 4.069 L 14.289 4.577 L 13.748 7.21 L 13.485 9.193 C 13.83 9.193 14.093 9.311 14.437 9.311 Z  M 15.537 9.276 L 17.999 6.253 L 17.982 6.206 C 17.934 6.095 17.868 5.988 17.785 5.887 C 17.701 5.779 17.589 5.683 17.457 5.604 C 17.433 5.589 17.405 5.577 17.375 5.569 C 17.344 5.56 17.31 5.556 17.277 5.557 L 16.932 6.005 L 15.061 8.508 L 14.831 9.276 L 15.537 9.276 Z  M 12.993 4.825 C 12.996 4.172 12.98 3.518 12.944 2.865 C 12.926 2.759 12.904 2.652 12.878 2.546 C 12.856 2.496 12.823 2.448 12.779 2.405 C 12.73 2.346 12.665 2.287 12.566 2.287 L 12.533 2.275 L 12.451 2.275 C 12.405 2.282 12.361 2.294 12.32 2.31 C 12.25 2.333 12.184 2.36 12.123 2.393 C 12.09 2.413 12.062 2.437 12.041 2.464 L 12.041 3.007 C 12.044 3.255 12.039 3.503 12.024 3.751 L 11.942 4.73 L 11.926 4.967 C 12.147 5.184 12.314 5.428 12.418 5.687 L 12.418 5.734 L 11.91 7.269 L 11.926 8.803 L 11.893 9.24 L 12.533 9.216 L 12.911 4.978 L 12.944 4.919 C 12.944 4.884 12.976 4.86 12.993 4.825 Z  M 9.842 8.732 L 9.727 9.24 L 9.891 9.24 L 9.842 8.732 Z  M 13.223 9.205 L 13.485 7.198 L 14.027 4.565 L 14.076 4.27 L 13.781 4.565 C 13.649 4.719 13.518 4.872 13.42 5.037 L 13.403 5.061 L 13.157 7.398 L 13.091 8.426 L 13.042 9.216 L 13.206 9.216 L 13.223 9.205 Z  M 7.905 9.087 L 6.378 4.01 L 6.477 4.435 L 7.823 9.087 L 7.905 9.087 Z  M 10.071 2.83 L 10.071 2.629 L 10.055 2.346 L 10.006 2.122 L 9.989 1.98 L 9.956 1.885 C 9.956 1.85 9.956 1.815 9.924 1.779 C 9.909 1.738 9.887 1.698 9.858 1.661 C 9.848 1.653 9.837 1.645 9.825 1.637 C 9.773 1.573 9.692 1.523 9.595 1.496 L 9.464 1.496 C 9.413 1.502 9.363 1.514 9.316 1.531 C 9.246 1.558 9.18 1.589 9.119 1.626 L 8.824 1.838 L 8.857 6.407 L 8.873 6.478 C 9.087 7.304 9.284 8.142 9.464 8.98 L 9.464 9.016 L 9.513 9.016 L 9.546 8.886 L 9.743 6.301 L 9.956 3.479 L 10.006 3.16 L 10.039 2.936 L 10.055 2.818 L 10.071 2.83 Z  M 5.574 8.756 L 2.866 6.135 L 3.194 6.489 L 5.098 8.343 L 5.591 8.732 L 5.574 8.756 Z  M 10.104 8.744 L 10.646 6.82 L 11.056 5.451 L 11.155 5.096 L 11.138 5.12 C 10.924 5.313 10.732 5.518 10.564 5.734 L 10.564 5.758 L 10.318 6.785 L 10.318 6.926 L 10.203 7.304 L 10.104 8.744 Z  M 6.46 5.309 C 6.08 4.743 5.68 4.184 5.262 3.633 L 5.131 3.456 C 5.026 3.333 4.911 3.215 4.786 3.101 L 4.721 3.078 C 4.695 3.061 4.667 3.045 4.639 3.031 C 4.574 3.001 4.501 2.981 4.425 2.971 L 4.376 2.971 C 4.354 2.974 4.332 2.978 4.31 2.983 C 4.218 3.004 4.137 3.045 4.081 3.101 L 4.064 3.137 L 4.031 3.184 L 3.982 3.231 L 3.933 3.302 L 3.884 3.42 L 3.851 3.538 L 6.871 7.942 L 7.363 8.449 L 6.46 5.309 Z  M 15.192 7.918 L 15.192 7.906 L 16.686 5.923 L 16.899 5.628 L 16.735 5.699 C 16.442 5.838 16.167 5.996 15.914 6.171 L 15.291 7.505 L 15.192 7.918 Z  M 6.083 7.139 L 4.097 4.329 L 4.343 4.707 L 5.87 6.926 L 6.083 7.139 Z  M 15.668 6.076 L 16.817 3.597 L 16.784 3.562 C 16.715 3.453 16.62 3.353 16.505 3.267 C 16.394 3.172 16.261 3.092 16.111 3.031 C 16.085 3.021 16.058 3.013 16.029 3.007 L 15.898 3.007 L 15.701 3.503 L 15.422 4.022 L 15.586 4.14 C 15.717 4.258 15.832 4.376 15.914 4.494 L 15.931 4.494 L 15.947 4.53 L 15.947 4.612 L 15.603 6.183 L 15.668 6.076 Z  M 11.762 2.44 L 11.762 2.369 L 11.729 2.263 C 11.707 2.213 11.674 2.165 11.631 2.122 C 11.585 2.058 11.509 2.008 11.417 1.98 L 11.269 1.98 C 11.219 1.983 11.169 1.99 11.122 2.003 C 11.052 2.03 10.985 2.061 10.925 2.098 C 10.809 2.155 10.705 2.222 10.613 2.299 C 10.449 2.96 10.367 3.621 10.334 4.305 L 10.334 4.483 L 10.285 5.569 C 10.383 5.451 10.58 5.309 10.679 5.214 C 10.777 5.108 10.876 5.014 10.99 4.931 C 11.05 4.887 11.116 4.847 11.187 4.813 C 11.264 4.77 11.354 4.742 11.45 4.73 L 11.499 4.73 C 11.559 4.736 11.615 4.752 11.663 4.778 C 11.716 4.223 11.754 3.668 11.778 3.113 L 11.778 2.558 C 11.765 2.524 11.76 2.488 11.762 2.452 L 11.762 2.44 Z  M 8.578 5.321 L 8.561 2.629 L 8.529 3.054 L 8.529 5.179 C 8.561 5.214 8.561 5.262 8.578 5.321 Z  M 15.209 3.892 L 15.438 3.444 L 15.57 3.137 C 15.276 3.303 15.021 3.502 14.815 3.727 C 14.956 3.768 15.089 3.824 15.209 3.892 Z " fill-rule="evenodd" fill="rgb(67,50,49)"/></g></g></svg>