<?xml version="1.0" encoding="UTF-8" standalone="no"?><!-- Generator: Gravit.io --><svg xmlns="http://www.w3.org/2000/svg" xmlns:xlink="http://www.w3.org/1999/xlink" style="isolation:isolate" viewBox="0 0 20 20" width="20pt" height="20pt"><defs><clipPath id="_clipPath_cUXDuaYrxhzfW5jkoZdLiQas3sEZmLlQ"><rect width="20" height="20"/></clipPath></defs><g clip-path="url(#_clipPath_cUXDuaYrxhzfW5jkoZdLiQas3sEZmLlQ)"><g><path d=" M 4.098 6.391 C 3.951 3.393 5.551 1.835 8.646 1.54 C 11.58 1.257 15.644 1.47 15.615 6.379 C 15.908 6.285 15.908 6.238 16.451 5.978 C 18.285 5.128 18.534 6.734 17.977 7.701 C 17.288 8.596 16.432 9.401 15.439 10.086 C 13.752 17.569 11.184 18.725 11.184 18.725 C 11.184 18.725 9.101 19.481 9.218 18.111 C 9.321 16.742 8.896 17.037 8.309 17.509 C 7.502 18.159 6.475 17.663 6.666 16.731 C 6.812 15.94 6.343 16.365 5.947 16.731 C 5.565 17.085 4.436 17.58 4.304 16.601 C 4.113 15.149 3.306 16.294 2.69 16.459 C 2.103 16.612 0.533 16.612 1.369 14.641 C 1.369 14.641 2.983 12.836 3.57 10.003 C 2.578 9.208 1.804 8.255 1.296 7.206 C 0.738 6.238 1.12 5.199 2.939 6.049 C 3.614 6.368 3.79 6.332 4.098 6.403 L 4.098 6.391 Z " fill-rule="evenodd" fill="rgb(0,0,0)" fill-opacity="0.2"/><mask id="_mask_jSL7rGh8Ji87vqb0KcbFXUjRCFCycw18" x="-200%" y="-200%" width="400%" height="400%"><rect x="-200%" y="-200%" width="400%" height="400%" style="fill:white;"/><path d=" M 4.861 5.943 C 4.714 2.945 6.313 1.375 9.38 1.08 C 12.343 0.797 16.393 1.021 16.378 5.919 C 16.671 5.837 16.671 5.778 17.214 5.53 C 19.033 4.68 19.297 6.285 18.74 7.241 C 18.047 8.141 17.186 8.949 16.187 9.637 C 14.5 17.12 11.932 18.277 11.932 18.277 C 11.932 18.277 9.864 19.02 9.967 17.651 C 10.084 16.294 9.673 16.589 9.072 17.061 C 8.265 17.698 7.238 17.203 7.428 16.27 C 7.575 15.491 7.106 15.916 6.71 16.27 C 6.313 16.624 5.184 17.12 5.066 16.152 C 4.876 14.689 4.069 15.834 3.453 15.999 C 2.851 16.164 1.281 16.152 2.132 14.181 C 2.132 14.181 3.731 12.375 4.333 9.543 C 3.335 8.749 2.555 7.796 2.044 6.745 C 1.487 5.789 1.868 4.739 3.687 5.601 C 4.362 5.907 4.538 5.872 4.846 5.943 L 4.861 5.943 Z " fill-rule="evenodd" fill="black" stroke="none"/></mask><path d=" M 4.861 5.943 C 4.714 2.945 6.313 1.375 9.38 1.08 C 12.343 0.797 16.393 1.021 16.378 5.919 C 16.671 5.837 16.671 5.778 17.214 5.53 C 19.033 4.68 19.297 6.285 18.74 7.241 C 18.047 8.141 17.186 8.949 16.187 9.637 C 14.5 17.12 11.932 18.277 11.932 18.277 C 11.932 18.277 9.864 19.02 9.967 17.651 C 10.084 16.294 9.673 16.589 9.072 17.061 C 8.265 17.698 7.238 17.203 7.428 16.27 C 7.575 15.491 7.106 15.916 6.71 16.27 C 6.313 16.624 5.184 17.12 5.066 16.152 C 4.876 14.689 4.069 15.834 3.453 15.999 C 2.851 16.164 1.281 16.152 2.132 14.181 C 2.132 14.181 3.731 12.375 4.333 9.543 C 3.335 8.749 2.555 7.796 2.044 6.745 C 1.487 5.789 1.868 4.739 3.687 5.601 C 4.362 5.907 4.538 5.872 4.846 5.943 L 4.861 5.943 Z " fill-rule="evenodd" fill="rgb(255,255,255)"/><path d=" M 4.861 5.943 C 4.714 2.945 6.313 1.375 9.38 1.08 C 12.343 0.797 16.393 1.021 16.378 5.919 C 16.671 5.837 16.671 5.778 17.214 5.53 C 19.033 4.68 19.297 6.285 18.74 7.241 C 18.047 8.141 17.186 8.949 16.187 9.637 C 14.5 17.12 11.932 18.277 11.932 18.277 C 11.932 18.277 9.864 19.02 9.967 17.651 C 10.084 16.294 9.673 16.589 9.072 17.061 C 8.265 17.698 7.238 17.203 7.428 16.27 C 7.575 15.491 7.106 15.916 6.71 16.27 C 6.313 16.624 5.184 17.12 5.066 16.152 C 4.876 14.689 4.069 15.834 3.453 15.999 C 2.851 16.164 1.281 16.152 2.132 14.181 C 2.132 14.181 3.731 12.375 4.333 9.543 C 3.335 8.749 2.555 7.796 2.044 6.745 C 1.487 5.789 1.868 4.739 3.687 5.601 C 4.362 5.907 4.538 5.872 4.846 5.943 L 4.861 5.943 Z " fill-rule="evenodd" fill="rgb(255,255,255)" mask="url(#_mask_jSL7rGh8Ji87vqb0KcbFXUjRCFCycw18)" vector-effect="non-scaling-stroke" stroke-width="0.21" stroke="rgb(207,207,207)" stroke-linejoin="round" stroke-linecap="butt" stroke-miterlimit="1.41"/><path d=" M 5.668 7.158 C 5.551 4.538 6.401 2.13 9.468 1.835 C 12.475 1.54 15.864 2.036 15.483 7.111 C 15.732 7.04 16.07 6.911 16.51 6.698 C 18.006 5.955 18.432 5.86 17.977 6.698 C 17.508 7.524 16.158 9.082 15.263 9.271 L 15.16 9.283 C 13.766 15.81 11.492 17.474 11.492 17.474 C 11.492 17.474 10.524 17.816 10.612 16.624 C 10.7 15.444 10.025 15.444 9.365 16.011 C 8.72 16.589 7.722 17.037 8.25 15.291 C 8.778 13.544 7.223 14.854 6.886 15.173 C 6.563 15.491 5.521 16.707 5.609 14.807 C 5.712 12.906 3.995 14.854 3.995 14.854 C 3.995 14.854 2.382 15.857 3.071 14.146 C 3.071 14.146 5.14 11.726 5.639 9.248 C 4.758 8.988 3.467 7.501 3.012 6.698 C 2.543 5.86 2.968 5.955 4.48 6.698 C 5.037 6.97 5.419 7.099 5.653 7.158 L 5.668 7.158 Z " fill-rule="evenodd" fill="rgb(255,255,255)"/><path d=" M 18.036 5.872 C 18.094 5.872 18.138 5.884 18.182 5.907 C 18.225 5.922 18.265 5.942 18.3 5.966 C 18.337 5.997 18.367 6.033 18.388 6.073 C 18.461 6.191 18.432 6.32 18.388 6.439 L 18.373 6.509 C 18.344 6.578 18.31 6.645 18.27 6.71 L 18.197 6.852 C 18.069 7.072 17.921 7.285 17.757 7.489 C 17.376 7.988 16.934 8.454 16.437 8.882 C 16.275 9.023 16.084 9.165 15.879 9.283 C 15.732 9.354 15.586 9.436 15.41 9.472 L 15.336 9.779 C 14.943 11.555 14.359 13.3 13.59 14.996 C 13.269 15.632 12.886 16.248 12.446 16.837 C 12.247 17.092 12.026 17.337 11.786 17.569 L 11.698 17.628 L 11.654 17.663 L 11.595 17.687 L 11.566 17.687 C 11.481 17.715 11.392 17.735 11.302 17.746 L 11.008 17.734 C 10.854 17.701 10.715 17.631 10.612 17.533 C 10.474 17.398 10.388 17.234 10.363 17.061 L 10.348 16.967 L 10.348 16.459 C 10.349 16.317 10.334 16.174 10.304 16.034 C 10.287 15.992 10.262 15.952 10.231 15.916 C 10.219 15.902 10.204 15.89 10.187 15.881 L 10.113 15.869 C 10.062 15.873 10.012 15.885 9.967 15.904 C 9.843 15.963 9.729 16.034 9.629 16.117 L 9.526 16.235 L 9.453 16.282 C 9.321 16.4 9.174 16.494 9.013 16.577 C 8.904 16.637 8.786 16.685 8.661 16.719 C 8.581 16.741 8.496 16.753 8.411 16.754 C 8.28 16.749 8.156 16.708 8.059 16.636 C 8.044 16.625 8.029 16.613 8.015 16.601 C 7.912 16.492 7.85 16.36 7.839 16.223 L 7.839 15.904 L 7.869 15.715 C 7.869 15.633 7.898 15.55 7.927 15.479 C 7.942 15.361 7.986 15.267 8.015 15.161 L 8.03 15.078 C 8.066 14.938 8.085 14.796 8.089 14.653 L 8.015 14.653 L 7.81 14.771 C 7.639 14.867 7.481 14.978 7.34 15.102 C 7.233 15.193 7.13 15.287 7.032 15.385 L 6.886 15.515 L 6.827 15.597 C 6.71 15.704 6.592 15.81 6.46 15.893 C 6.372 15.952 6.273 16 6.167 16.034 C 6.055 16.071 5.932 16.079 5.815 16.058 C 5.751 16.049 5.691 16.029 5.639 15.999 C 5.513 15.913 5.426 15.797 5.389 15.668 L 5.36 15.597 L 5.36 15.515 L 5.33 15.397 C 5.308 15.268 5.299 15.138 5.301 15.007 L 5.301 14.618 C 5.301 14.499 5.286 14.38 5.257 14.264 C 5.249 14.247 5.239 14.231 5.228 14.217 L 5.184 14.217 C 5.079 14.258 4.98 14.309 4.89 14.37 L 4.597 14.618 C 4.45 14.736 4.348 14.854 4.23 14.972 L 4.23 14.996 L 4.186 15.031 L 4.127 15.066 C 3.983 15.151 3.831 15.226 3.673 15.291 L 3.57 15.314 C 3.387 15.384 3.18 15.4 2.983 15.361 C 2.874 15.332 2.781 15.274 2.719 15.196 C 2.68 15.153 2.65 15.105 2.631 15.055 C 2.601 14.978 2.586 14.898 2.587 14.818 C 2.609 14.595 2.658 14.373 2.734 14.158 L 2.792 14.039 L 2.822 14.016 C 2.822 13.992 2.851 13.98 2.866 13.957 L 2.968 13.827 C 3.727 12.856 4.356 11.823 4.846 10.747 C 5.043 10.296 5.2 9.834 5.316 9.366 L 5.228 9.354 C 5.022 9.248 4.832 9.118 4.641 8.988 C 3.79 8.275 3.1 7.448 2.602 6.545 C 2.602 6.509 2.602 6.486 2.572 6.462 L 2.572 6.415 C 2.531 6.307 2.531 6.192 2.572 6.084 L 2.572 6.049 L 2.631 5.99 C 2.688 5.933 2.764 5.892 2.851 5.872 L 3.056 5.872 C 3.144 5.872 3.247 5.907 3.35 5.931 L 3.57 6.014 C 3.861 6.12 4.141 6.247 4.406 6.391 L 4.714 6.545 C 4.914 6.639 5.12 6.726 5.33 6.804 L 5.36 6.816 L 5.36 6.545 C 5.375 5.971 5.444 5.399 5.565 4.833 L 5.668 4.503 C 5.874 3.792 6.292 3.131 6.886 2.579 C 7.516 2.042 8.364 1.703 9.277 1.623 L 9.57 1.588 C 9.999 1.549 10.43 1.53 10.861 1.529 C 11.686 1.531 12.5 1.672 13.253 1.942 C 13.841 2.169 14.347 2.514 14.72 2.945 C 15.116 3.37 15.366 3.866 15.527 4.373 C 15.63 4.68 15.688 4.987 15.732 5.294 C 15.806 5.766 15.82 6.238 15.806 6.71 L 15.806 6.745 L 16.202 6.568 L 16.422 6.462 L 16.627 6.368 L 16.818 6.273 C 17.102 6.14 17.396 6.022 17.698 5.919 C 17.793 5.893 17.892 5.877 17.992 5.872 L 18.036 5.872 Z  M 5.595 7.383 C 5.215 7.269 4.847 7.131 4.494 6.97 L 4.054 6.757 C 3.772 6.612 3.478 6.482 3.174 6.368 L 3.189 6.439 C 3.326 6.735 3.508 7.016 3.731 7.277 C 4.158 7.816 4.661 8.315 5.228 8.764 C 5.372 8.86 5.53 8.943 5.697 9.012 L 5.712 9.012 L 5.727 9.023 L 5.976 9.094 L 5.873 9.519 C 5.727 10.166 5.496 10.799 5.184 11.407 C 4.699 12.401 4.084 13.351 3.35 14.24 C 3.276 14.424 3.227 14.614 3.203 14.807 L 3.203 14.913 L 3.233 14.913 C 3.309 14.903 3.384 14.883 3.453 14.854 C 3.56 14.821 3.659 14.773 3.746 14.712 L 3.761 14.712 L 3.79 14.689 L 3.849 14.618 C 4.081 14.392 4.33 14.18 4.597 13.98 L 4.714 13.91 L 4.773 13.874 C 4.934 13.792 5.125 13.733 5.301 13.756 C 5.378 13.76 5.453 13.776 5.521 13.803 L 5.668 13.886 L 5.785 14.051 C 5.844 14.146 5.873 14.252 5.888 14.346 L 5.903 14.7 L 5.903 14.996 L 5.917 15.361 L 5.947 15.479 L 5.991 15.597 C 6.027 15.581 6.062 15.561 6.093 15.538 L 6.24 15.42 L 6.666 15.019 L 6.724 14.96 C 6.93 14.768 7.156 14.59 7.399 14.429 L 7.546 14.346 L 7.649 14.287 L 7.737 14.252 C 7.883 14.181 8.045 14.134 8.206 14.158 C 8.258 14.167 8.307 14.183 8.353 14.205 C 8.44 14.242 8.512 14.3 8.558 14.37 C 8.602 14.429 8.631 14.488 8.631 14.547 C 8.661 14.653 8.646 14.759 8.631 14.854 C 8.631 14.972 8.602 15.09 8.573 15.208 L 8.499 15.444 L 8.47 15.562 C 8.425 15.765 8.401 15.97 8.397 16.176 C 8.397 16.211 8.397 16.247 8.426 16.282 L 8.529 16.258 C 8.728 16.169 8.91 16.058 9.072 15.928 L 9.204 15.81 L 9.262 15.751 C 9.394 15.656 9.512 15.574 9.658 15.503 C 9.754 15.459 9.858 15.427 9.967 15.409 C 10.113 15.38 10.266 15.388 10.407 15.432 C 10.473 15.459 10.532 15.495 10.583 15.538 C 10.744 15.656 10.832 15.834 10.876 16.011 C 10.908 16.194 10.918 16.38 10.906 16.565 L 10.906 16.99 C 10.915 17.027 10.93 17.063 10.95 17.096 L 10.95 17.12 C 10.979 17.179 11.023 17.238 11.096 17.262 L 11.184 17.273 C 11.229 17.275 11.273 17.271 11.316 17.262 C 11.441 17.16 11.554 17.05 11.654 16.931 C 12.408 16.018 13.001 15.025 13.414 13.98 C 14.03 12.452 14.511 10.89 14.852 9.307 L 14.911 9.071 L 15.145 9.047 L 15.175 9.035 C 15.247 9.019 15.316 8.995 15.38 8.964 L 15.586 8.87 C 15.797 8.748 15.99 8.605 16.158 8.445 C 16.566 8.092 16.925 7.704 17.229 7.288 C 17.455 6.995 17.651 6.687 17.816 6.368 C 17.643 6.419 17.476 6.482 17.317 6.557 L 16.847 6.781 L 16.525 6.946 L 16.378 7.017 C 16.114 7.135 15.864 7.241 15.586 7.312 L 15.204 7.076 L 15.204 6.911 L 15.219 6.745 C 15.243 5.973 15.154 5.2 14.955 4.444 C 14.808 3.972 14.559 3.5 14.177 3.122 C 13.872 2.803 13.481 2.545 13.033 2.367 C 12.273 2.079 11.435 1.953 10.597 2.001 C 10.045 2.007 9.495 2.054 8.954 2.142 C 8.329 2.272 7.761 2.537 7.311 2.909 C 6.871 3.299 6.563 3.771 6.357 4.267 L 6.269 4.491 C 6.134 4.861 6.045 5.24 6.005 5.624 C 5.938 6.134 5.919 6.647 5.947 7.158 L 5.595 7.383 Z  M 10.48 5.966 C 10.803 5.966 11.067 6.191 11.067 6.462 C 11.067 6.734 10.803 6.958 10.48 6.958 C 10.32 6.955 10.169 6.901 10.059 6.808 C 9.949 6.715 9.889 6.59 9.893 6.462 C 9.893 6.191 10.157 5.966 10.48 5.966 Z  M 12.798 4.349 C 13.312 4.349 13.737 4.668 13.737 5.081 C 13.737 5.482 13.312 5.801 12.798 5.801 C 12.553 5.808 12.315 5.735 12.136 5.6 C 11.957 5.465 11.852 5.278 11.844 5.081 C 11.844 4.668 12.27 4.349 12.798 4.349 Z  M 8.573 4.302 C 9.101 4.302 9.526 4.633 9.526 5.034 C 9.526 5.435 9.086 5.766 8.573 5.766 C 8.325 5.772 8.085 5.698 7.905 5.561 C 7.726 5.423 7.623 5.233 7.619 5.034 C 7.619 4.633 8.045 4.302 8.573 4.302 Z " fill-rule="evenodd" fill="rgb(67,50,49)"/></g></g></svg>