<?xml version="1.0" encoding="UTF-8" standalone="no"?><!-- Generator: Gravit.io --><svg xmlns="http://www.w3.org/2000/svg" xmlns:xlink="http://www.w3.org/1999/xlink" style="isolation:isolate" viewBox="0 0 20 20" width="20pt" height="20pt"><defs><clipPath id="_clipPath_g9eVpmm87I7TxzElaBbUTUJ3MONMNukm"><rect width="20" height="20"/></clipPath></defs><g clip-path="url(#_clipPath_g9eVpmm87I7TxzElaBbUTUJ3MONMNukm)"><g><path d=" M 4.498 5.86 C 4.553 5.687 4.621 5.52 4.701 5.36 C 5.092 4.5 5.637 3.738 6.3 3.12 C 7.219 2.236 8.343 1.662 9.542 1.465 C 9.905 1.399 10.272 1.364 10.64 1.357 L 10.747 1.357 C 11.021 1.362 11.296 1.386 11.568 1.429 C 12.432 1.581 13.243 1.993 13.913 2.62 C 14.8 3.475 15.414 4.629 15.662 5.908 L 15.662 5.943 C 15.718 6.218 15.754 6.496 15.769 6.777 C 15.79 7.234 15.787 7.691 15.758 8.147 C 15.681 9.368 15.492 10.578 15.193 11.756 L 15.15 11.911 C 15.214 12.125 15.278 12.34 15.321 12.554 C 15.434 13.193 15.379 13.856 15.161 14.46 C 15.022 14.865 14.809 15.222 14.553 15.556 C 14.521 15.806 14.479 16.068 14.415 16.318 C 14.285 16.85 14.023 17.329 13.658 17.7 C 13.367 17.967 13.009 18.129 12.634 18.165 C 12.392 18.354 12.135 18.517 11.866 18.653 C 11.352 18.927 10.781 19.042 10.214 18.987 C 9.75 18.918 9.318 18.689 8.977 18.331 L 8.795 18.141 L 8.742 18.141 C 8.415 18.082 8.103 17.949 7.825 17.748 C 7.567 17.561 7.348 17.313 7.185 17.021 C 6.908 16.545 6.759 16.163 6.716 15.592 L 6.716 15.353 C 6.375 15.616 6.002 15.58 5.607 15.663 C 5.414 15.711 5.218 15.743 5.021 15.758 C 4.584 15.797 4.144 15.785 3.709 15.723 C 3.245 15.645 2.806 15.44 2.43 15.127 L 2.259 14.96 C 1.779 14.455 1.432 13.812 1.257 13.102 C 1.187 12.849 1.133 12.59 1.097 12.328 L 1.076 12.173 L 1.076 12.137 C 1.02 11.808 0.995 11.472 1.001 11.137 C 1.014 10.023 1.31 8.937 1.854 8.004 C 2.412 7.107 3.189 6.408 4.093 5.991 C 4.221 5.931 4.36 5.896 4.498 5.86 Z  M 9.286 8.564 C 11.088 7.694 12.698 8.504 12.698 8.504 C 12.431 4.859 11.514 3.775 11.514 3.775 C 9.179 3.597 7.26 6.015 7.26 6.015 L 7.217 6.098 C 7.665 6.289 8.849 6.932 9.275 8.564 L 9.286 8.564 Z " fill-rule="evenodd" fill="rgb(0,0,0)" fill-opacity="0.2"/><path d=" M 4.978 5.503 L 5.031 5.348 C 5.42 4.342 6.016 3.452 6.769 2.751 C 7.692 1.862 8.825 1.291 10.032 1.107 C 10.395 1.041 10.763 1.005 11.131 1 L 11.237 1 C 12.39 1 13.507 1.442 14.404 2.251 C 15.252 3.075 15.848 4.174 16.11 5.395 C 16.121 5.443 16.142 5.491 16.142 5.55 L 16.153 5.586 C 16.24 6.076 16.276 6.576 16.259 7.075 C 16.245 8.54 16.048 9.995 15.673 11.399 L 15.63 11.554 C 15.789 12.017 15.868 12.51 15.865 13.007 C 15.853 13.383 15.78 13.755 15.652 14.103 C 15.499 14.503 15.291 14.873 15.033 15.199 C 15.005 15.456 14.959 15.711 14.894 15.961 C 14.767 16.491 14.508 16.97 14.148 17.343 C 13.857 17.61 13.5 17.772 13.124 17.807 C 12.882 17.992 12.625 18.152 12.357 18.284 C 11.845 18.567 11.274 18.69 10.704 18.641 C 10.15 18.56 9.641 18.255 9.275 17.783 L 9.233 17.783 C 8.591 17.676 8.022 17.269 7.665 16.664 C 7.388 16.187 7.249 15.806 7.207 15.234 C 7.207 15.163 7.196 15.294 7.196 14.996 C 6.865 15.258 6.482 15.211 6.087 15.306 C 5.894 15.354 5.698 15.386 5.501 15.401 C 5.067 15.435 4.631 15.423 4.2 15.365 C 3.736 15.287 3.297 15.083 2.92 14.77 L 2.739 14.603 C 2.264 14.096 1.921 13.453 1.747 12.745 C 1.665 12.445 1.604 12.138 1.566 11.828 L 1.555 11.792 C 1.499 11.462 1.474 11.127 1.481 10.791 C 1.493 9.674 1.788 8.583 2.334 7.647 C 2.891 6.746 3.668 6.043 4.573 5.622 C 4.712 5.574 4.85 5.526 4.989 5.503 L 4.978 5.503 Z  M 9.766 8.207 C 11.557 7.337 13.178 8.147 13.178 8.147 C 12.901 4.502 11.994 3.418 11.994 3.418 C 9.659 3.239 7.74 5.657 7.74 5.657 L 7.708 5.741 C 8.156 5.931 9.329 6.563 9.766 8.207 Z " fill-rule="evenodd" fill="rgb(255,255,255)" vector-effect="non-scaling-stroke" stroke-width="0.044" stroke="rgb(207,207,207)" stroke-linejoin="round" stroke-linecap="butt" stroke-miterlimit="1.41"/><path d=" M 7.58 14.031 C 7.185 14.472 6.407 14.889 4.914 14.77 C 2.6 14.615 2.355 11.577 2.355 11.577 C 2.355 11.577 1.758 8.588 4.061 6.575 C 6.386 4.573 8.316 6.777 8.731 7.861 C 9.009 8.6 9.03 9.386 8.923 9.981 C 10.693 7.956 13.754 8.147 15.001 11.161 C 16.579 14.972 11.536 16.938 10.747 16.997 L 9.574 17.033 C 9.574 17.033 7.516 17.116 7.58 14.043 L 7.58 14.031 Z " fill-rule="evenodd" fill="rgb(113,87,94)"/><path d=" M 13.732 11.184 L 13.775 10.946 C 14.201 8.659 13.882 2.942 12.175 2.668 C 9.723 2.275 6.993 4.705 6.983 5.955 C 6.567 5.788 6.119 5.657 5.49 5.788 C 5.49 5.788 6.567 2.179 10.373 1.667 C 14.777 1.083 15.566 5.765 15.566 5.765 C 15.811 6.432 15.694 10.386 14.628 12.483 C 14.59 12.566 14.561 12.654 14.543 12.745 L 14.628 13.102 C 14.735 13.543 14.692 13.996 14.564 14.412 C 14.5 15.401 14.18 16.902 12.858 17.033 C 12.111 17.629 9.99 18.939 8.763 15.818 C 8.017 13.936 10.075 11.673 10.075 11.673 C 10.075 11.673 12.293 9.648 13.732 11.184 Z " fill-rule="evenodd" fill="rgb(144,118,121)"/><path d=" M 13.732 13.996 C 14.116 14.365 14.105 15.091 13.69 15.616 C 13.284 16.14 12.645 16.271 12.261 15.889 C 11.877 15.52 11.888 14.794 12.303 14.27 C 12.709 13.745 13.348 13.626 13.732 13.996 Z " fill-rule="evenodd" fill="rgb(221,208,189)"/><path d=" M 5.373 5.669 L 5.426 5.526 C 5.58 5.111 5.78 4.718 6.023 4.359 C 6.769 3.172 7.833 2.279 9.062 1.81 C 9.71 1.576 10.386 1.455 11.067 1.453 L 11.163 1.453 C 11.416 1.447 11.669 1.467 11.92 1.512 C 12.722 1.65 13.475 2.034 14.095 2.62 C 14.919 3.429 15.485 4.516 15.705 5.717 C 17.861 6.358 19.256 8.689 18.961 11.16 C 18.666 13.631 16.774 15.473 14.543 15.461 C 14.423 15.953 14.183 16.399 13.85 16.747 C 13.719 16.863 13.576 16.959 13.423 17.033 C 13.243 17.117 13.052 17.165 12.858 17.176 L 12.719 17.307 C 12.549 17.432 12.371 17.543 12.186 17.641 C 11.715 17.893 11.192 18 10.672 17.95 C 10.138 17.878 9.65 17.579 9.307 17.116 C 9.169 17.093 8.966 17.069 8.934 17.045 C 8.493 16.876 8.117 16.544 7.868 16.104 C 7.59 15.586 7.442 14.993 7.441 14.389 C 7.121 14.543 6.535 14.806 6.396 14.841 C 6.221 14.884 6.043 14.912 5.863 14.925 C 5.458 14.963 5.051 14.955 4.648 14.901 C 4.147 14.814 3.68 14.565 3.304 14.186 C 2.858 13.708 2.537 13.102 2.376 12.435 C 2.299 12.155 2.242 11.868 2.206 11.577 C 2.153 11.267 2.132 10.952 2.142 10.636 C 2.154 9.593 2.427 8.573 2.931 7.694 C 3.443 6.854 4.161 6.196 4.999 5.8 L 5.373 5.681 L 5.373 5.669 Z  M 13.583 11.244 C 13.453 11.121 13.31 11.017 13.156 10.934 C 13.037 10.878 12.912 10.838 12.783 10.815 C 12.363 10.735 11.932 10.785 11.536 10.958 C 11.04 11.144 10.578 11.427 10.171 11.792 C 9.968 12.017 9.783 12.26 9.616 12.519 C 9.331 12.942 9.098 13.407 8.923 13.9 C 8.795 14.305 8.71 14.734 8.753 15.151 C 8.774 15.405 8.839 15.651 8.945 15.878 L 9.083 16.199 C 9.254 16.545 9.467 16.866 9.723 17.128 C 9.946 17.352 10.213 17.515 10.501 17.605 L 10.715 17.641 C 11.17 17.693 11.629 17.598 12.037 17.367 C 12.15 17.309 12.26 17.245 12.367 17.176 C 12.069 17.135 11.775 17.055 11.493 16.938 L 11.408 16.914 L 11.386 16.914 L 11.365 16.89 L 11.29 16.842 C 10.902 16.592 10.607 16.195 10.459 15.723 C 10.401 15.507 10.379 15.281 10.395 15.056 C 10.433 14.546 10.599 14.059 10.875 13.65 C 10.951 13.527 11.037 13.412 11.131 13.305 C 11.484 12.908 11.945 12.653 12.442 12.578 L 12.591 12.554 L 12.655 12.554 C 12.762 12.519 12.858 12.495 12.954 12.435 C 13.058 12.384 13.152 12.311 13.231 12.221 C 13.38 12.042 13.455 11.804 13.508 11.577 L 13.54 11.435 L 13.572 11.268 L 13.572 11.244 L 13.583 11.244 Z  M 11.781 1.834 C 11.959 1.929 12.131 2.041 12.293 2.167 C 12.653 2.489 12.953 2.885 13.178 3.335 C 13.341 3.652 13.473 3.987 13.572 4.335 C 13.669 4.675 13.747 5.021 13.807 5.372 C 13.99 6.339 14.083 7.325 14.084 8.314 C 14.092 9.166 14.042 10.019 13.935 10.863 L 13.903 11.041 L 13.85 11.363 C 13.799 11.71 13.687 12.042 13.519 12.34 C 13.448 12.447 13.362 12.539 13.263 12.614 C 13.185 12.679 13.099 12.732 13.007 12.769 C 12.911 12.816 12.805 12.84 12.698 12.864 L 12.506 12.9 L 12.442 12.9 C 12.325 12.935 12.207 12.959 12.09 13.019 C 11.757 13.151 11.459 13.376 11.226 13.674 L 11.12 13.829 C 11.04 13.962 10.969 14.101 10.907 14.246 C 10.746 14.586 10.672 14.969 10.693 15.353 C 10.71 15.524 10.753 15.689 10.821 15.842 C 10.977 16.154 11.206 16.413 11.482 16.592 L 11.504 16.604 L 11.514 16.604 L 11.621 16.652 C 11.92 16.771 12.229 16.854 12.538 16.878 C 12.719 16.878 12.901 16.878 13.071 16.831 C 13.308 16.773 13.528 16.651 13.711 16.473 C 14.037 16.071 14.258 15.576 14.351 15.044 C 14.421 14.604 14.446 14.156 14.425 13.71 L 14.425 13.591 L 14.404 13.555 L 14.393 13.483 C 14.311 13.109 14.357 12.714 14.521 12.376 L 14.564 12.28 L 14.617 12.161 C 14.903 11.53 15.104 10.856 15.214 10.16 C 15.471 8.83 15.565 7.468 15.492 6.11 C 15.483 6.03 15.468 5.95 15.449 5.872 L 15.428 5.812 L 15.417 5.741 C 15.341 5.37 15.227 5.01 15.076 4.669 C 14.725 3.806 14.173 3.065 13.476 2.525 C 12.975 2.151 12.401 1.914 11.802 1.834 L 11.792 1.834 L 11.781 1.834 Z  M 13.775 9.612 C 12.709 8.663 11.238 8.523 10.043 9.255 C 9.288 9.676 8.678 10.362 8.305 11.208 C 8.061 11.738 7.899 12.31 7.825 12.9 C 7.744 13.479 7.715 14.065 7.74 14.651 C 7.777 15.188 7.946 15.704 8.23 16.14 C 8.343 16.296 8.476 16.432 8.625 16.545 C 8.753 16.628 8.881 16.699 9.03 16.759 L 9.062 16.759 C 8.852 16.429 8.684 16.068 8.561 15.687 C 8.508 15.525 8.473 15.357 8.454 15.187 C 8.422 14.746 8.497 14.293 8.625 13.876 C 8.933 13.012 9.39 12.223 9.968 11.554 L 9.979 11.554 C 10.153 11.398 10.339 11.259 10.533 11.137 C 10.809 10.952 11.098 10.792 11.397 10.66 C 11.891 10.454 12.426 10.404 12.943 10.517 C 13.175 10.581 13.395 10.69 13.594 10.839 L 13.636 10.875 L 13.658 10.803 C 13.722 10.41 13.764 10.017 13.775 9.612 Z  M 13.21 13.614 C 13.316 13.614 13.434 13.638 13.551 13.686 C 13.743 13.766 13.905 13.917 14.009 14.115 C 14.149 14.398 14.187 14.73 14.116 15.044 C 14.031 15.449 13.796 15.818 13.476 16.044 C 13.284 16.175 13.05 16.271 12.826 16.271 C 12.631 16.276 12.438 16.218 12.271 16.104 C 12.129 16.001 12.015 15.857 11.941 15.687 C 11.834 15.437 11.813 15.139 11.866 14.853 C 11.999 14.25 12.423 13.781 12.965 13.638 L 13.146 13.614 L 13.21 13.614 Z  M 13.626 14.103 C 13.565 14.05 13.496 14.01 13.423 13.984 C 13.248 13.926 13.06 13.934 12.89 14.007 C 12.526 14.155 12.251 14.494 12.154 14.913 C 12.092 15.168 12.131 15.441 12.261 15.663 L 12.346 15.758 C 12.4 15.813 12.461 15.857 12.527 15.889 C 12.73 15.985 12.954 15.961 13.156 15.866 C 13.503 15.691 13.759 15.349 13.85 14.937 C 13.891 14.737 13.872 14.528 13.796 14.341 C 13.761 14.265 13.714 14.196 13.658 14.138 L 13.626 14.103 Z  M 8.849 9.815 C 8.843 9.324 8.804 8.834 8.731 8.349 C 8.689 8.186 8.636 8.027 8.571 7.873 C 8.381 7.469 8.128 7.106 7.825 6.801 C 7.435 6.388 6.953 6.1 6.428 5.967 C 6.288 5.937 6.145 5.921 6.002 5.919 L 5.948 5.919 C 5.743 5.923 5.539 5.955 5.341 6.015 C 4.861 6.158 4.434 6.444 4.061 6.789 C 3.445 7.356 2.974 8.096 2.696 8.933 C 2.431 9.769 2.361 10.667 2.494 11.542 L 2.504 11.613 C 2.622 12.501 2.979 13.328 3.528 13.984 C 3.643 14.092 3.764 14.191 3.891 14.281 C 4.136 14.444 4.408 14.549 4.69 14.591 C 4.92 14.627 5.152 14.639 5.383 14.627 C 5.785 14.623 6.186 14.571 6.578 14.472 L 7.431 14.079 L 7.431 13.972 C 7.439 13.596 7.474 13.221 7.537 12.852 C 7.688 11.715 8.149 10.658 8.859 9.826 L 8.849 9.815 Z  M 3.901 10.577 L 3.88 10.66 C 3.855 10.807 3.834 10.954 3.816 11.101 C 3.802 11.267 3.799 11.434 3.805 11.601 C 3.807 12.185 3.975 12.752 4.285 13.221 C 4.454 13.451 4.665 13.638 4.904 13.769 L 5.117 13.876 L 4.999 14.174 C 4.621 14.005 4.287 13.73 4.029 13.376 C 3.808 13.063 3.658 12.696 3.592 12.304 C 3.494 11.823 3.483 11.325 3.56 10.839 L 3.613 10.505 L 3.901 10.577 Z  M 15.065 11.828 C 14.962 12.144 14.837 12.45 14.692 12.745 L 14.724 12.852 L 14.756 13.007 L 14.799 13.197 C 14.82 13.305 14.799 13.602 14.777 13.829 C 14.884 13.638 15.033 13.424 15.044 13.412 C 15.195 12.899 15.202 12.346 15.065 11.828 Z  M 9.126 9.553 C 9.786 8.933 10.602 8.559 11.461 8.48 C 12.293 8.43 13.116 8.694 13.796 9.231 C 13.834 7.847 13.719 6.463 13.455 5.11 C 13.345 4.617 13.191 4.139 12.997 3.68 C 12.93 3.537 12.851 3.402 12.762 3.275 C 12.69 3.177 12.608 3.089 12.517 3.013 C 12.434 2.942 12.34 2.889 12.239 2.858 L 12.101 2.834 L 11.93 2.811 L 11.269 2.811 C 10.449 2.895 9.66 3.197 8.966 3.692 C 8.394 4.076 7.882 4.563 7.452 5.133 L 7.26 5.491 C 7.196 5.616 7.152 5.753 7.132 5.896 C 8.084 6.401 8.787 7.352 9.051 8.492 C 9.105 8.731 9.126 9.207 9.126 9.553 Z  M 6.204 6.98 C 6.343 6.98 6.482 7.003 6.631 7.027 L 6.663 7.027 L 6.62 7.349 L 6.535 7.337 L 6.46 7.325 L 6.119 7.301 C 5.497 7.322 4.927 7.695 4.605 8.29 C 4.522 8.425 4.45 8.568 4.392 8.719 L 4.125 8.612 L 4.146 8.54 C 4.303 8.156 4.532 7.815 4.818 7.539 C 5.191 7.185 5.662 6.987 6.151 6.98 L 6.204 6.98 Z  M 12.218 2.513 C 11.979 2.29 11.704 2.12 11.408 2.012 C 10.819 1.804 10.188 1.796 9.595 1.989 L 9.307 2.096 L 9.286 2.096 C 8.625 2.319 8.004 2.669 7.452 3.132 C 6.71 3.771 6.118 4.601 5.725 5.55 L 5.725 5.574 L 5.714 5.586 L 5.778 5.586 C 6.139 5.562 6.501 5.614 6.844 5.741 L 6.865 5.681 C 6.919 5.479 7.004 5.288 7.111 5.098 C 7.312 4.751 7.56 4.441 7.846 4.18 C 8.736 3.309 9.825 2.732 10.992 2.513 C 11.395 2.45 11.804 2.45 12.207 2.513 L 12.218 2.513 Z " fill-rule="evenodd" fill="rgb(67,50,49)"/></g></g></svg>