<?xml version="1.0" encoding="UTF-8" standalone="no"?><!-- Generator: Gravit.io --><svg xmlns="http://www.w3.org/2000/svg" xmlns:xlink="http://www.w3.org/1999/xlink" style="isolation:isolate" viewBox="0 0 20 20" width="20pt" height="20pt"><defs><clipPath id="_clipPath_QFKgExazoynwlK9xSfViOyabwCQG7mIk"><rect width="20" height="20"/></clipPath></defs><g clip-path="url(#_clipPath_QFKgExazoynwlK9xSfViOyabwCQG7mIk)"><g><path d=" M 17.171 12.496 C 17.186 12.686 17.174 12.877 17.134 13.064 C 17.039 13.492 16.787 13.874 16.422 14.144 C 16.273 14.266 16.111 14.373 15.939 14.462 C 15.249 14.866 14.501 15.172 13.717 15.372 C 11.971 15.871 10.119 15.949 8.332 15.599 C 7.167 15.377 6.041 15.002 4.987 14.485 C 4.471 14.249 3.971 13.983 3.49 13.689 C 3.066 13.433 2.663 13.148 2.282 12.837 C 1.806 12.438 1.392 11.979 1.05 11.473 C 0.984 11.352 0.927 11.227 0.881 11.098 L 0.869 11.052 L 0.881 10.984 L 0.893 10.961 L 0.978 10.859 C 1.474 10.24 2.006 9.648 2.572 9.085 C 3.357 8.288 4.2 7.544 5.096 6.857 C 5.663 6.43 6.26 6.038 6.883 5.686 C 7.317 5.448 7.776 5.232 8.247 5.05 C 8.722 4.87 9.216 4.74 9.72 4.663 C 10.23 4.579 10.753 4.598 11.254 4.72 C 11.492 4.784 11.72 4.88 11.93 5.004 L 11.966 5.027 L 11.978 5.027 C 12.015 5.05 12.063 5.05 12.099 5.05 L 12.22 5.05 C 12.363 5.029 12.501 4.986 12.63 4.925 L 12.667 4.902 L 12.751 4.857 C 13.283 4.609 13.854 4.444 14.442 4.368 L 14.683 4.356 L 14.744 4.356 C 14.947 4.355 15.15 4.378 15.347 4.425 L 15.468 4.459 L 15.782 4.561 C 16.084 4.663 16.386 4.8 16.651 4.982 C 16.99 5.221 17.263 5.533 17.448 5.891 C 17.705 6.417 17.817 6.996 17.774 7.574 C 17.754 7.935 17.713 8.296 17.654 8.653 L 17.509 9.256 L 17.473 9.313 L 17.593 9.381 C 18.089 9.663 18.442 10.123 18.571 10.654 C 18.593 10.774 18.601 10.896 18.596 11.018 C 18.563 11.432 18.343 11.813 17.992 12.064 C 17.752 12.256 17.478 12.406 17.183 12.507 L 17.171 12.496 Z " fill-rule="evenodd" fill="rgb(0,0,0)" fill-opacity="0.2"/><mask id="_mask_UL0p5mZyMQGQTCDBSEtLFdC9UkbgCpnT" x="-200%" y="-200%" width="400%" height="400%"><rect x="-200%" y="-200%" width="400%" height="400%" style="fill:white;"/><path d=" M 17.702 12.325 L 17.714 12.439 C 17.721 12.712 17.667 12.982 17.557 13.235 C 17.43 13.524 17.226 13.779 16.965 13.974 C 16.816 14.094 16.654 14.201 16.482 14.292 C 16.024 14.561 15.539 14.785 15.033 14.963 C 13.727 15.444 12.331 15.676 10.928 15.645 C 9.493 15.618 8.077 15.34 6.75 14.826 C 5.334 14.303 4.014 13.574 2.838 12.666 C 2.358 12.268 1.939 11.809 1.594 11.302 C 1.523 11.182 1.462 11.056 1.413 10.927 L 1.413 10.882 L 1.425 10.813 L 1.437 10.802 L 1.521 10.688 C 2.017 10.07 2.549 9.478 3.115 8.915 C 3.894 8.12 4.729 7.375 5.615 6.687 C 6.188 6.261 6.789 5.87 7.414 5.516 C 7.849 5.277 8.308 5.061 8.778 4.879 C 9.249 4.7 9.739 4.571 10.24 4.493 C 10.759 4.413 11.278 4.413 11.785 4.55 C 12.024 4.614 12.251 4.709 12.461 4.834 L 12.486 4.857 L 12.51 4.857 C 12.548 4.871 12.589 4.878 12.63 4.879 L 12.751 4.879 L 12.969 4.822 L 13.15 4.754 L 13.198 4.732 L 13.282 4.686 C 13.814 4.438 14.385 4.273 14.973 4.197 L 15.214 4.186 L 15.263 4.186 C 15.467 4.189 15.669 4.216 15.867 4.265 L 16.011 4.3 L 16.313 4.391 C 16.615 4.504 16.917 4.629 17.183 4.811 C 17.522 5.049 17.796 5.361 17.98 5.721 C 18.235 6.243 18.347 6.818 18.306 7.392 C 18.305 7.755 18.265 8.116 18.185 8.472 L 18.04 9.074 L 18.004 9.131 C 18.196 9.232 18.374 9.354 18.535 9.495 C 18.867 9.797 19.076 10.199 19.127 10.631 C 19.139 10.792 19.123 10.953 19.079 11.109 C 18.977 11.415 18.784 11.687 18.523 11.893 C 18.279 12.082 18.001 12.228 17.702 12.325 Z " fill-rule="evenodd" fill="black" stroke="none"/></mask><path d=" M 17.702 12.325 L 17.714 12.439 C 17.721 12.712 17.667 12.982 17.557 13.235 C 17.43 13.524 17.226 13.779 16.965 13.974 C 16.816 14.094 16.654 14.201 16.482 14.292 C 16.024 14.561 15.539 14.785 15.033 14.963 C 13.727 15.444 12.331 15.676 10.928 15.645 C 9.493 15.618 8.077 15.34 6.75 14.826 C 5.334 14.303 4.014 13.574 2.838 12.666 C 2.358 12.268 1.939 11.809 1.594 11.302 C 1.523 11.182 1.462 11.056 1.413 10.927 L 1.413 10.882 L 1.425 10.813 L 1.437 10.802 L 1.521 10.688 C 2.017 10.07 2.549 9.478 3.115 8.915 C 3.894 8.12 4.729 7.375 5.615 6.687 C 6.188 6.261 6.789 5.87 7.414 5.516 C 7.849 5.277 8.308 5.061 8.778 4.879 C 9.249 4.7 9.739 4.571 10.24 4.493 C 10.759 4.413 11.278 4.413 11.785 4.55 C 12.024 4.614 12.251 4.709 12.461 4.834 L 12.486 4.857 L 12.51 4.857 C 12.548 4.871 12.589 4.878 12.63 4.879 L 12.751 4.879 L 12.969 4.822 L 13.15 4.754 L 13.198 4.732 L 13.282 4.686 C 13.814 4.438 14.385 4.273 14.973 4.197 L 15.214 4.186 L 15.263 4.186 C 15.467 4.189 15.669 4.216 15.867 4.265 L 16.011 4.3 L 16.313 4.391 C 16.615 4.504 16.917 4.629 17.183 4.811 C 17.522 5.049 17.796 5.361 17.98 5.721 C 18.235 6.243 18.347 6.818 18.306 7.392 C 18.305 7.755 18.265 8.116 18.185 8.472 L 18.04 9.074 L 18.004 9.131 C 18.196 9.232 18.374 9.354 18.535 9.495 C 18.867 9.797 19.076 10.199 19.127 10.631 C 19.139 10.792 19.123 10.953 19.079 11.109 C 18.977 11.415 18.784 11.687 18.523 11.893 C 18.279 12.082 18.001 12.228 17.702 12.325 Z " fill-rule="evenodd" fill="rgb(255,255,255)"/><path d=" M 17.702 12.325 L 17.714 12.439 C 17.721 12.712 17.667 12.982 17.557 13.235 C 17.43 13.524 17.226 13.779 16.965 13.974 C 16.816 14.094 16.654 14.201 16.482 14.292 C 16.024 14.561 15.539 14.785 15.033 14.963 C 13.727 15.444 12.331 15.676 10.928 15.645 C 9.493 15.618 8.077 15.34 6.75 14.826 C 5.334 14.303 4.014 13.574 2.838 12.666 C 2.358 12.268 1.939 11.809 1.594 11.302 C 1.523 11.182 1.462 11.056 1.413 10.927 L 1.413 10.882 L 1.425 10.813 L 1.437 10.802 L 1.521 10.688 C 2.017 10.07 2.549 9.478 3.115 8.915 C 3.894 8.12 4.729 7.375 5.615 6.687 C 6.188 6.261 6.789 5.87 7.414 5.516 C 7.849 5.277 8.308 5.061 8.778 4.879 C 9.249 4.7 9.739 4.571 10.24 4.493 C 10.759 4.413 11.278 4.413 11.785 4.55 C 12.024 4.614 12.251 4.709 12.461 4.834 L 12.486 4.857 L 12.51 4.857 C 12.548 4.871 12.589 4.878 12.63 4.879 L 12.751 4.879 L 12.969 4.822 L 13.15 4.754 L 13.198 4.732 L 13.282 4.686 C 13.814 4.438 14.385 4.273 14.973 4.197 L 15.214 4.186 L 15.263 4.186 C 15.467 4.189 15.669 4.216 15.867 4.265 L 16.011 4.3 L 16.313 4.391 C 16.615 4.504 16.917 4.629 17.183 4.811 C 17.522 5.049 17.796 5.361 17.98 5.721 C 18.235 6.243 18.347 6.818 18.306 7.392 C 18.305 7.755 18.265 8.116 18.185 8.472 L 18.04 9.074 L 18.004 9.131 C 18.196 9.232 18.374 9.354 18.535 9.495 C 18.867 9.797 19.076 10.199 19.127 10.631 C 19.139 10.792 19.123 10.953 19.079 11.109 C 18.977 11.415 18.784 11.687 18.523 11.893 C 18.279 12.082 18.001 12.228 17.702 12.325 Z " fill-rule="evenodd" fill="rgb(255,255,255)" mask="url(#_mask_UL0p5mZyMQGQTCDBSEtLFdC9UkbgCpnT)" vector-effect="non-scaling-stroke" stroke-width="0.07" stroke="rgb(206,206,206)" stroke-linejoin="round" stroke-linecap="butt" stroke-miterlimit="1.41"/><path d=" M 2.463 10.757 C 2.463 10.757 5.385 7.039 8.766 5.618 C 10.529 4.879 11.664 5.05 12.341 5.448 C 12.606 5.607 13.101 5.368 13.101 5.368 C 13.101 5.368 14.43 4.663 15.516 4.948 C 16.446 5.198 18.245 5.811 17.352 9.085 L 16.869 9.995 L 16.941 11.632 C 16.941 11.632 17.46 12.769 16.253 13.553 C 16.253 13.553 11.194 15.986 6.339 13.814 C 2.886 12.268 2.463 10.757 2.463 10.757 Z " fill-rule="evenodd" fill="rgb(234,82,98)"/><path d=" M 3.924 11.075 C 3.924 11.075 5.627 10.336 6.098 9.893 C 6.545 9.461 9.636 8.074 10.421 8.074 C 11.194 8.074 11.689 8.165 11.942 8.301 C 12.208 8.426 12.932 8.472 13.391 8.267 C 13.922 8.017 14.961 8.017 15.323 8.494 C 15.673 8.949 15.661 9.165 15.673 9.313 C 15.685 9.472 14.418 10.938 14.418 10.938 L 11.761 11.143 L 7.897 11.427 L 6.786 11.359 C 6.786 11.359 6.75 11.325 6.243 11.302 C 5.736 11.291 3.997 11.143 3.924 11.075 Z " fill-rule="evenodd" fill="rgb(67,50,49)"/><path d=" M 7.921 10.734 C 8.766 10.415 10.336 10.643 11.097 10.415 C 11.858 10.188 12.425 9.768 13.971 9.847 C 13.971 9.847 15.142 9.051 16.712 9.131 C 18.282 9.21 19.489 11.473 16.543 12.087 C 13.596 12.7 13.427 10.961 10.626 11.075 C 7.812 11.188 9.068 11.495 6.158 11.2 C 5.458 11.132 6.931 11.098 7.921 10.722 L 7.921 10.734 Z " fill-rule="evenodd" fill="rgb(248,217,231)"/><path d=" M 14.236 8.096 L 14.236 8.119 C 14.333 8.767 14.116 10.37 13.838 10.791 C 13.56 11.211 10.771 10.882 11.242 10.518 C 11.568 10.29 11.52 8.96 11.447 8.142 C 11.664 8.187 11.821 8.233 11.942 8.29 C 12.208 8.426 12.944 8.472 13.391 8.267 C 13.609 8.153 13.922 8.096 14.236 8.096 Z  M 14.309 8.096 C 14.731 8.108 15.13 8.221 15.323 8.483 C 15.444 8.642 15.516 8.767 15.565 8.869 L 15.541 9.563 C 15.347 9.824 15.021 10.234 14.756 10.541 L 13.862 10.768 C 14.285 10.313 14.309 8.449 14.309 8.096 Z  M 7.873 8.938 C 8.875 8.483 9.986 8.074 10.409 8.074 C 10.807 8.074 11.133 8.096 11.387 8.142 L 11.423 8.449 C 11.544 9.677 11.181 10.404 11.181 10.404 C 10.155 10.746 9.024 10.676 8.054 10.211 C 7.997 10.052 7.957 9.888 7.933 9.722 C 7.895 9.869 7.782 9.988 7.631 10.04 C 7.148 10.245 6.243 10.109 6.243 10.109 L 6.243 9.79 C 6.533 9.586 7.124 9.279 7.788 8.972 L 7.909 9.37 C 7.894 9.226 7.882 9.082 7.873 8.938 L 7.873 8.938 Z " fill-rule="evenodd" fill="rgb(255,255,255)"/><path d=" M 14.019 9.665 C 14.069 9.345 14.101 9.022 14.116 8.699 L 14.116 8.483 C 14.116 8.358 14.112 8.233 14.104 8.108 L 14.104 8.085 L 15.058 8.233 L 15.082 8.267 L 14.454 8.187 C 14.447 8.62 14.423 9.052 14.381 9.483 C 14.711 9.324 15.059 9.201 15.42 9.12 L 15.432 8.676 L 15.697 8.994 L 15.697 9.063 C 16.08 8.997 16.469 8.978 16.857 9.006 C 17.214 9.05 17.55 9.192 17.823 9.415 L 17.968 9.529 C 18.265 9.808 18.446 10.18 18.475 10.575 C 18.485 10.875 18.382 11.169 18.185 11.404 C 17.949 11.676 17.64 11.884 17.291 12.007 C 16.345 12.368 15.301 12.44 14.309 12.212 C 14.033 12.135 13.766 12.032 13.512 11.905 L 13.029 11.689 C 12.616 11.505 12.182 11.364 11.737 11.268 C 11.35 11.204 10.957 11.185 10.566 11.211 L 10.324 11.211 C 9.848 11.243 9.373 11.289 8.899 11.348 L 8.573 11.416 L 8.477 11.416 C 8.428 11.439 8.38 11.439 8.32 11.45 C 8.107 11.47 7.893 11.473 7.68 11.461 C 7.163 11.451 6.647 11.413 6.134 11.348 L 6.074 11.336 L 5.977 11.325 C 5.941 11.318 5.908 11.302 5.88 11.279 C 5.842 11.251 5.822 11.205 5.827 11.16 C 5.832 11.114 5.861 11.073 5.905 11.052 L 6.001 11.018 L 6.146 10.995 L 6.533 10.938 C 6.971 10.867 7.403 10.764 7.825 10.631 L 7.909 10.609 C 8.072 10.55 8.243 10.512 8.416 10.495 L 8.452 10.484 C 8.399 10.459 8.347 10.432 8.295 10.404 L 8.151 10.415 L 7.982 10.336 C 7.957 10.336 7.957 10.336 7.945 10.313 C 7.929 10.293 7.917 10.269 7.909 10.245 C 7.891 10.208 7.875 10.17 7.861 10.131 L 7.873 10.052 C 7.763 10.125 7.64 10.178 7.511 10.211 L 7.426 10.222 C 7.335 10.24 7.242 10.251 7.148 10.256 L 6.907 10.279 L 6.81 10.279 C 6.545 10.211 6.267 10.347 6.037 10.245 L 6.086 9.927 L 6.327 9.722 L 6.363 9.711 L 6.363 9.995 L 6.424 9.995 C 6.665 10.016 6.907 10.02 7.148 10.006 L 7.269 9.995 L 7.39 9.972 L 7.45 9.961 L 7.499 9.938 C 7.593 9.913 7.677 9.861 7.74 9.79 C 7.76 9.766 7.776 9.739 7.788 9.711 L 7.764 9.506 L 7.752 9.392 L 7.668 9.12 L 7.064 9.336 L 7.812 8.926 L 7.994 8.858 L 7.994 8.949 L 8.018 9.347 L 8.066 9.506 C 8.09 9.574 8.09 9.642 8.066 9.711 L 8.066 9.733 L 8.09 9.904 L 8.151 10.109 C 8.384 10.223 8.632 10.31 8.887 10.37 L 9.105 10.415 L 9.962 10.404 L 10.131 10.404 C 10.402 10.391 10.672 10.365 10.94 10.325 L 11.085 10.279 L 11.109 10.234 C 11.279 9.692 11.344 9.126 11.302 8.563 L 11.266 8.312 L 11.266 8.187 L 11.592 8.187 C 11.627 8.732 11.635 9.279 11.616 9.824 L 11.592 9.995 L 11.568 10.109 L 11.737 10.052 C 12.013 9.955 12.295 9.875 12.582 9.813 C 13.022 9.72 13.473 9.69 13.922 9.722 L 13.995 9.688 L 14.019 9.665 Z  M 9.105 10.688 C 8.948 10.688 8.803 10.688 8.658 10.711 C 8.418 10.731 8.183 10.781 7.957 10.859 C 7.603 10.976 7.24 11.067 6.871 11.132 C 7.284 11.164 7.699 11.183 8.114 11.188 L 8.356 11.166 L 8.803 11.098 L 8.899 11.086 C 9.338 11.015 9.782 10.977 10.228 10.972 L 10.469 10.95 L 11.012 10.95 C 11.635 10.961 12.25 11.085 12.824 11.314 C 13.089 11.416 13.343 11.541 13.609 11.655 L 13.741 11.711 C 13.981 11.812 14.227 11.899 14.478 11.973 C 14.796 12.055 15.126 12.093 15.456 12.087 C 16.016 12.077 16.571 11.981 17.098 11.802 C 17.43 11.706 17.727 11.525 17.956 11.279 C 18.081 11.136 18.165 10.963 18.197 10.779 L 18.221 10.631 C 18.217 10.287 18.064 9.959 17.799 9.722 C 17.625 9.564 17.42 9.44 17.195 9.358 C 17.022 9.29 16.838 9.251 16.651 9.245 C 16.235 9.234 15.82 9.284 15.42 9.392 C 14.941 9.516 14.485 9.708 14.067 9.961 L 14.043 9.972 L 14.019 9.972 L 13.971 9.983 L 13.862 9.983 C 13.462 9.974 13.062 10.001 12.667 10.063 C 12.402 10.115 12.143 10.191 11.894 10.29 L 11.507 10.427 C 11.302 10.499 11.093 10.56 10.88 10.609 L 10.686 10.666 C 10.576 10.701 10.463 10.727 10.348 10.745 L 10.288 10.745 C 9.901 10.779 9.515 10.757 9.141 10.688 L 9.105 10.688 Z " fill-rule="evenodd" fill="rgb(67,50,49)"/><path d=" M 11.459 10.302 C 12.063 10.074 12.667 9.79 13.971 9.847 C 13.971 9.847 15.142 9.051 16.712 9.131 C 18.282 9.21 19.489 11.473 16.543 12.087 C 13.91 12.644 13.5 11.302 11.423 11.098" fill-rule="evenodd" fill="rgb(248,217,231)"/><path d=" M 17.183 12.052 C 17.232 12.48 17.102 12.908 16.82 13.246 C 16.665 13.427 16.477 13.581 16.265 13.701 L 16.06 13.814 C 15.43 14.183 14.747 14.463 14.031 14.644 C 11.774 15.267 9.359 15.147 7.185 14.303 C 5.894 13.838 4.688 13.186 3.61 12.371 C 3.176 12.006 2.798 11.585 2.487 11.12 C 2.426 11.018 2.374 10.912 2.33 10.802 L 2.33 10.7 L 2.355 10.677 L 2.427 10.586 C 2.88 10.032 3.363 9.5 3.876 8.994 C 4.594 8.274 5.365 7.602 6.182 6.982 C 6.701 6.597 7.246 6.244 7.812 5.925 C 8.211 5.709 8.622 5.516 9.044 5.357 C 9.48 5.196 9.934 5.082 10.397 5.016 C 10.862 4.939 11.339 4.954 11.797 5.061 C 11.996 5.113 12.187 5.19 12.365 5.289 L 12.413 5.323 L 12.437 5.334 L 12.461 5.334 C 12.498 5.357 12.534 5.357 12.57 5.357 L 12.679 5.357 L 12.872 5.311 L 13.041 5.243 L 13.077 5.22 L 13.162 5.186 C 13.645 4.964 14.163 4.814 14.695 4.743 L 14.961 4.743 C 15.148 4.742 15.334 4.761 15.516 4.8 L 15.637 4.834 L 15.915 4.913 C 16.193 5.016 16.458 5.141 16.7 5.3 C 17.012 5.513 17.265 5.793 17.436 6.118 C 17.67 6.587 17.774 7.103 17.738 7.619 C 17.729 8.127 17.648 8.632 17.497 9.12 L 17.46 9.176 C 17.639 9.261 17.802 9.372 17.943 9.506 C 18.239 9.771 18.427 10.125 18.475 10.506 C 18.487 10.652 18.47 10.798 18.426 10.938 C 18.402 11.052 18.354 11.154 18.306 11.245 C 18.197 11.404 18.064 11.53 17.919 11.643 C 17.704 11.814 17.459 11.949 17.195 12.041 L 17.183 12.052 Z  M 17.195 9.085 L 17.231 9.04 C 17.356 8.547 17.433 8.045 17.46 7.539 L 17.46 7.346 C 17.447 6.886 17.31 6.436 17.062 6.039 C 16.777 5.631 16.35 5.33 15.854 5.186 C 15.755 5.153 15.654 5.122 15.553 5.095 L 15.444 5.061 C 15.294 5.024 15.14 5.005 14.985 5.004 L 14.913 5.004 C 14.688 5.009 14.465 5.04 14.248 5.095 C 13.869 5.177 13.504 5.307 13.162 5.482 L 13.126 5.505 C 12.99 5.558 12.848 5.596 12.703 5.618 C 12.603 5.638 12.501 5.638 12.401 5.618 C 12.363 5.608 12.326 5.592 12.292 5.573 L 12.22 5.539 L 12.172 5.505 C 12.094 5.462 12.013 5.424 11.93 5.391 L 11.773 5.345 C 11.294 5.214 10.787 5.199 10.3 5.3 C 10.095 5.33 9.893 5.376 9.696 5.436 C 9.008 5.626 8.353 5.909 7.752 6.278 C 6.872 6.764 6.053 7.344 5.313 8.005 C 4.333 8.848 3.432 9.768 2.62 10.757 L 2.62 10.768 C 2.79 11.093 3.005 11.395 3.26 11.666 C 4.108 12.47 5.102 13.124 6.194 13.598 C 7.052 13.988 7.951 14.293 8.875 14.508 C 10.497 14.848 12.181 14.82 13.79 14.428 C 14.585 14.214 15.348 13.904 16.06 13.508 L 16.35 13.314 C 16.539 13.161 16.692 12.971 16.796 12.757 C 16.888 12.556 16.929 12.339 16.917 12.121 C 16.658 12.201 16.391 12.258 16.12 12.291 C 15.565 12.365 15.001 12.346 14.454 12.234 C 14.235 12.181 14.021 12.113 13.814 12.03 L 13.077 11.689 L 12.944 11.643 C 12.575 11.489 12.191 11.368 11.797 11.279 L 11.761 11.279 L 7.897 11.564 L 6.786 11.484 L 6.726 11.484 L 6.702 11.473 C 6.638 11.462 6.573 11.454 6.508 11.45 L 6.158 11.416 L 6.062 11.416 C 5.497 11.382 4.933 11.333 4.371 11.268 L 4.166 11.245 L 3.973 11.211 C 3.924 11.202 3.879 11.182 3.84 11.154 L 3.816 11.132 L 3.804 11.109 L 3.792 11.075 C 3.792 11.029 3.792 10.984 3.828 10.961 L 3.864 10.938 L 4.021 10.859 C 4.568 10.614 5.103 10.349 5.627 10.063 L 5.929 9.847 L 5.965 9.813 L 6.001 9.779 L 6.037 9.756 L 6.231 9.62 L 6.436 9.495 C 6.904 9.22 7.393 8.977 7.897 8.767 C 8.504 8.504 9.125 8.269 9.757 8.062 C 9.97 8.003 10.188 7.961 10.409 7.937 L 10.457 7.937 C 10.833 7.938 11.209 7.969 11.58 8.028 C 11.734 8.061 11.884 8.111 12.027 8.176 L 12.051 8.187 L 12.256 8.244 C 12.601 8.299 12.955 8.267 13.282 8.153 L 13.367 8.119 L 13.415 8.096 C 13.819 7.948 14.258 7.909 14.683 7.983 L 15.045 8.096 C 15.179 8.157 15.298 8.242 15.396 8.347 L 15.456 8.415 L 15.528 8.528 L 15.673 8.767 L 15.77 9.017 L 15.77 9.04 C 15.998 9.005 16.228 8.986 16.458 8.983 L 16.531 8.983 C 16.755 8.985 16.979 9.016 17.195 9.074 L 17.195 9.085 Z  M 17.002 9.301 C 16.883 9.272 16.762 9.257 16.639 9.256 C 16.45 9.251 16.26 9.259 16.072 9.279 L 15.963 9.279 L 15.553 9.358 L 15.408 9.392 C 14.963 9.509 14.536 9.681 14.14 9.904 L 13.947 9.983 L 13.838 9.983 C 13.434 9.971 13.029 9.997 12.63 10.063 C 12.366 10.115 12.107 10.191 11.858 10.29 L 11.568 10.404 L 11.242 10.518 L 11.326 10.347 L 11.399 10.177 L 11.761 10.052 C 12.029 9.953 12.303 9.87 12.582 9.802 C 13.019 9.715 13.466 9.688 13.91 9.722 L 13.922 9.722 L 13.995 9.688 L 14.055 9.642 C 14.503 9.387 14.993 9.203 15.504 9.097 C 15.443 8.937 15.362 8.784 15.263 8.642 L 15.227 8.574 L 15.178 8.528 C 15.15 8.495 15.117 8.464 15.082 8.437 C 15.019 8.391 14.95 8.353 14.876 8.324 C 14.768 8.284 14.654 8.257 14.538 8.244 C 14.184 8.198 13.822 8.237 13.488 8.358 L 13.415 8.392 L 13.367 8.415 C 13.122 8.509 12.858 8.552 12.594 8.54 C 12.39 8.534 12.187 8.504 11.99 8.449 C 11.958 8.443 11.925 8.436 11.894 8.426 L 11.846 8.392 L 11.809 8.381 C 11.637 8.326 11.459 8.288 11.278 8.267 C 11.037 8.221 10.771 8.21 10.517 8.21 L 10.397 8.21 L 10.276 8.221 L 10.143 8.244 C 9.879 8.298 9.62 8.374 9.37 8.472 C 8.273 8.862 7.221 9.357 6.231 9.949 L 6.158 10.018 L 6.122 10.052 L 5.796 10.279 C 5.524 10.447 5.242 10.599 4.951 10.734 L 4.347 11.018 L 4.528 11.041 C 5.042 11.098 5.557 11.14 6.074 11.166 L 6.388 11.177 C 6.532 11.193 6.677 11.208 6.822 11.223 L 7.909 11.302 L 11.338 11.041 L 11.447 10.961 L 11.544 10.972 L 11.785 11.007 L 11.821 11.007 L 12.256 11.098 L 12.558 11.211 L 12.594 11.223 L 12.606 11.223 L 13.029 11.393 L 13.572 11.643 C 13.735 11.707 13.896 11.775 14.055 11.848 C 14.335 11.951 14.627 12.023 14.925 12.064 C 15.584 12.119 16.248 12.053 16.881 11.871 L 17.026 11.836 L 17.207 11.768 L 17.207 11.757 C 17.352 11.7 17.485 11.643 17.617 11.552 C 17.738 11.473 17.847 11.382 17.931 11.279 C 18.062 11.137 18.149 10.964 18.185 10.779 L 18.197 10.631 C 18.193 10.287 18.04 9.959 17.774 9.722 C 17.652 9.61 17.514 9.514 17.364 9.438 L 17.364 9.426 L 17.098 9.336 L 17.014 9.29 L 17.002 9.301 Z " fill-rule="evenodd" fill="rgb(67,50,49)"/></g></g></svg>