<?xml version="1.0" encoding="UTF-8" standalone="no"?><!-- Generator: Gravit.io --><svg xmlns="http://www.w3.org/2000/svg" xmlns:xlink="http://www.w3.org/1999/xlink" style="isolation:isolate" viewBox="0 0 20 20" width="20pt" height="20pt"><defs><clipPath id="_clipPath_pfazCseUXbcCEhNclU8ghxNES4HruyAM"><rect width="20" height="20"/></clipPath></defs><g clip-path="url(#_clipPath_pfazCseUXbcCEhNclU8ghxNES4HruyAM)"><g><path d=" M 18.069 6.285 L 18.13 6.295 C 18.166 6.316 18.202 6.348 18.214 6.4 L 18.214 6.548 C 18.203 8.303 17.513 10.003 16.256 11.374 C 15.106 12.632 13.534 13.546 11.76 13.987 C 7.756 14.955 3.53 13.299 1.703 10.046 C 1.078 8.96 0.747 7.763 0.736 6.548 L 0.724 6.495 L 0.724 6.422 C 0.724 6.39 0.748 6.369 0.76 6.348 C 0.782 6.323 0.811 6.305 0.845 6.295 L 0.905 6.285 L 18.069 6.285 Z " fill-rule="evenodd" fill="rgb(0,0,0)" fill-opacity="0.2"/><mask id="_mask_Zq4YcTAEJ8ov0l9F4TfrOlyEVYHHegmN" x="-200%" y="-200%" width="400%" height="400%"><rect x="-200%" y="-200%" width="400%" height="400%" style="fill:white;"/><path d=" M 18.855 6 L 18.903 6.011 C 18.94 6.032 18.976 6.063 18.988 6.105 L 19 6.158 L 19 6.263 C 18.985 8.02 18.291 9.72 17.03 11.09 C 15.883 12.346 14.315 13.259 12.545 13.703 C 8.539 14.669 4.312 13.008 2.489 9.751 C 1.856 8.667 1.516 7.47 1.497 6.253 L 1.497 6.137 C 1.504 6.095 1.53 6.057 1.57 6.032 L 1.63 6.011 L 18.855 6.011 L 18.855 6 Z " fill-rule="evenodd" fill="black" stroke="none"/></mask><path d=" M 18.855 6 L 18.903 6.011 C 18.94 6.032 18.976 6.063 18.988 6.105 L 19 6.158 L 19 6.263 C 18.985 8.02 18.291 9.72 17.03 11.09 C 15.883 12.346 14.315 13.259 12.545 13.703 C 8.539 14.669 4.312 13.008 2.489 9.751 C 1.856 8.667 1.516 7.47 1.497 6.253 L 1.497 6.137 C 1.504 6.095 1.53 6.057 1.57 6.032 L 1.63 6.011 L 18.855 6.011 L 18.855 6 Z " fill-rule="evenodd" fill="rgb(255,255,255)"/><path d=" M 18.855 6 L 18.903 6.011 C 18.94 6.032 18.976 6.063 18.988 6.105 L 19 6.158 L 19 6.263 C 18.985 8.02 18.291 9.72 17.03 11.09 C 15.883 12.346 14.315 13.259 12.545 13.703 C 8.539 14.669 4.312 13.008 2.489 9.751 C 1.856 8.667 1.516 7.47 1.497 6.253 L 1.497 6.137 C 1.504 6.095 1.53 6.057 1.57 6.032 L 1.63 6.011 L 18.855 6.011 L 18.855 6 Z " fill-rule="evenodd" fill="rgb(255,255,255)" mask="url(#_mask_Zq4YcTAEJ8ov0l9F4TfrOlyEVYHHegmN)" vector-effect="non-scaling-stroke" stroke-width="0.114" stroke="rgb(207,207,207)" stroke-linejoin="round" stroke-linecap="butt" stroke-miterlimit="1.41"/><path d=" M 2.331 6.506 C 2.335 8.326 3.169 10.07 4.65 11.353 C 6.131 12.637 8.137 13.353 10.224 13.345 C 12.312 13.35 14.317 12.631 15.796 11.346 C 17.274 10.061 18.106 8.316 18.106 6.495 L 2.331 6.495 L 2.331 6.506 Z " fill-rule="evenodd" fill="rgb(113,207,81)"/><path d=" M 17.598 6.569 C 17.61 6.453 13.416 6.558 9.523 6.558 C 6.018 6.558 2.779 6.432 2.791 6.527 C 3.052 9.952 6.265 12.638 10.2 12.723 C 14.119 12.644 17.324 9.978 17.598 6.569 Z " fill-rule="evenodd" fill="rgb(243,238,164)"/><path d=" M 17.163 6.59 C 17.187 6.39 13.694 6.495 10.237 6.485 C 6.888 6.485 3.576 6.369 3.613 6.548 C 4.157 9.772 6.985 12.238 10.382 12.238 C 13.766 12.238 16.583 9.794 17.151 6.59 L 17.163 6.59 Z " fill-rule="evenodd" fill="rgb(249,74,135)"/><path d=" M 18.13 6.369 L 18.19 6.369 C 18.226 6.39 18.251 6.422 18.263 6.464 L 18.275 6.506 L 18.275 6.59 C 18.27 6.886 18.246 7.182 18.202 7.475 C 17.89 9.442 16.622 11.197 14.721 12.291 C 12.451 13.633 9.552 13.872 7.033 12.923 C 4.18 11.846 2.29 9.436 2.174 6.727 L 2.174 6.485 L 2.211 6.422 L 2.247 6.39 L 2.283 6.369 L 18.142 6.369 L 18.13 6.369 Z  M 10.224 6.653 L 2.489 6.653 C 2.517 7.564 2.756 8.459 3.19 9.288 C 4.751 12.251 8.527 13.811 12.146 12.986 C 15.476 12.242 17.841 9.669 17.948 6.674 L 17.948 6.643 L 10.212 6.643 L 10.224 6.653 Z " fill="rgb(55,41,40)"/><path d=" M 11.155 10.921 C 11.3 10.974 11.324 11.174 11.216 11.385 C 11.119 11.585 10.926 11.701 10.793 11.648 C 10.648 11.606 10.623 11.395 10.72 11.195 C 10.829 10.984 11.022 10.868 11.155 10.921 Z  M 8.955 10.689 L 9.028 10.7 C 9.161 10.752 9.185 10.963 9.088 11.163 C 9.004 11.332 8.847 11.448 8.726 11.448 L 8.653 11.448 C 8.52 11.385 8.484 11.184 8.593 10.974 C 8.677 10.805 8.834 10.689 8.955 10.689 Z  M 12.678 10.036 C 12.823 10.089 12.847 10.289 12.751 10.5 C 12.642 10.7 12.449 10.816 12.316 10.763 C 12.183 10.71 12.146 10.51 12.255 10.31 C 12.352 10.099 12.545 9.983 12.678 10.036 Z  M 10.345 9.836 C 10.478 9.888 10.503 10.099 10.406 10.299 C 10.297 10.51 10.104 10.626 9.971 10.573 C 9.838 10.521 9.801 10.32 9.91 10.11 C 10.007 9.909 10.2 9.794 10.345 9.836 Z  M 8.496 9.182 C 8.641 9.235 8.665 9.435 8.569 9.646 C 8.46 9.846 8.266 9.962 8.133 9.92 C 8 9.867 7.964 9.657 8.073 9.456 C 8.17 9.246 8.363 9.13 8.496 9.182 Z  M 14.334 9.119 C 14.479 9.172 14.503 9.383 14.407 9.583 C 14.298 9.794 14.105 9.909 13.972 9.857 C 13.827 9.804 13.802 9.593 13.911 9.393 C 14.008 9.182 14.201 9.077 14.334 9.119 Z  M 6.659 8.877 C 6.804 8.929 6.828 9.14 6.731 9.34 C 6.622 9.551 6.429 9.667 6.296 9.614 C 6.151 9.562 6.127 9.361 6.236 9.151 C 6.332 8.951 6.526 8.835 6.659 8.877 Z  M 11.929 8.708 C 12.062 8.761 12.086 8.972 11.989 9.172 C 11.88 9.383 11.687 9.488 11.554 9.446 C 11.421 9.393 11.385 9.182 11.494 8.982 C 11.59 8.771 11.784 8.655 11.929 8.708 Z  M 9.838 8.476 C 9.971 8.529 9.995 8.729 9.898 8.94 C 9.801 9.14 9.608 9.256 9.463 9.203 C 9.33 9.151 9.306 8.951 9.403 8.75 C 9.499 8.54 9.705 8.424 9.838 8.476 Z  M 7.783 8.002 C 7.916 8.055 7.94 8.266 7.843 8.466 C 7.747 8.666 7.553 8.782 7.408 8.74 C 7.275 8.687 7.251 8.476 7.348 8.276 C 7.444 8.065 7.65 7.949 7.783 8.002 Z  M 13.621 7.939 C 13.754 7.992 13.778 8.202 13.682 8.403 C 13.573 8.613 13.379 8.729 13.246 8.677 C 13.113 8.624 13.077 8.424 13.186 8.213 C 13.283 8.013 13.476 7.897 13.621 7.939 Z  M 11.179 7.412 C 11.312 7.465 11.349 7.675 11.24 7.876 C 11.143 8.076 10.95 8.192 10.817 8.15 C 10.672 8.097 10.648 7.886 10.744 7.686 C 10.853 7.475 11.046 7.359 11.179 7.412 Z  M 5.377 7.307 C 5.498 7.359 5.535 7.57 5.438 7.77 C 5.329 7.981 5.136 8.086 5.003 8.044 C 4.87 7.992 4.833 7.781 4.942 7.581 C 5.039 7.37 5.232 7.265 5.365 7.307 L 5.377 7.307 Z  M 9.282 7.096 C 9.415 7.138 9.439 7.349 9.342 7.549 C 9.233 7.76 9.04 7.876 8.907 7.823 C 8.774 7.77 8.738 7.57 8.847 7.359 C 8.943 7.159 9.137 7.043 9.282 7.085 L 9.282 7.096 Z  M 6.961 7.054 C 7.106 7.106 7.13 7.317 7.021 7.517 C 6.925 7.728 6.731 7.844 6.598 7.791 C 6.453 7.739 6.429 7.538 6.526 7.328 C 6.635 7.128 6.828 7.012 6.961 7.054 Z  M 15.108 7.033 C 15.253 7.085 15.277 7.296 15.18 7.496 C 15.072 7.697 14.878 7.812 14.745 7.77 C 14.6 7.718 14.576 7.507 14.685 7.307 C 14.781 7.096 14.975 6.98 15.108 7.033 Z  M 12.69 6.938 C 12.823 6.991 12.86 7.201 12.751 7.401 C 12.654 7.612 12.461 7.728 12.316 7.675 C 12.195 7.623 12.158 7.423 12.255 7.212 C 12.364 7.012 12.557 6.896 12.69 6.938 Z " fill-rule="evenodd" fill="rgb(238,231,231)"/><path d=" M 11.252 10.953 C 11.385 11.005 11.421 11.206 11.312 11.416 C 11.216 11.617 11.022 11.732 10.889 11.68 C 10.744 11.627 10.72 11.427 10.817 11.216 C 10.926 11.016 11.119 10.9 11.252 10.953 Z  M 9.064 10.721 L 9.137 10.731 C 9.258 10.784 9.294 10.995 9.197 11.195 C 9.112 11.364 8.955 11.48 8.834 11.48 L 8.762 11.469 C 8.629 11.416 8.593 11.206 8.701 11.005 C 8.786 10.837 8.943 10.721 9.064 10.721 Z  M 12.787 10.068 C 12.932 10.12 12.956 10.32 12.86 10.521 C 12.751 10.731 12.557 10.847 12.424 10.795 C 12.279 10.742 12.255 10.542 12.352 10.331 C 12.461 10.131 12.654 10.015 12.787 10.057 L 12.787 10.068 Z  M 10.454 9.867 C 10.575 9.92 10.611 10.131 10.515 10.331 C 10.406 10.542 10.212 10.658 10.079 10.605 C 9.946 10.552 9.91 10.341 10.019 10.141 C 10.116 9.931 10.309 9.825 10.454 9.867 Z  M 8.581 9.214 C 8.726 9.267 8.75 9.467 8.653 9.678 C 8.544 9.878 8.351 9.994 8.218 9.941 C 8.073 9.888 8.049 9.688 8.158 9.488 C 8.254 9.277 8.448 9.161 8.581 9.214 Z  M 14.419 9.151 C 14.564 9.203 14.588 9.414 14.479 9.614 C 14.383 9.825 14.189 9.931 14.056 9.888 C 13.911 9.836 13.887 9.625 13.984 9.425 C 14.092 9.214 14.286 9.109 14.419 9.151 Z  M 6.767 8.908 C 6.913 8.961 6.937 9.172 6.828 9.372 C 6.731 9.583 6.538 9.699 6.405 9.646 C 6.26 9.593 6.236 9.383 6.332 9.182 C 6.441 8.972 6.635 8.866 6.767 8.908 Z  M 12.038 8.74 C 12.158 8.792 12.195 8.993 12.098 9.203 C 11.989 9.404 11.796 9.52 11.663 9.477 C 11.53 9.425 11.494 9.214 11.602 9.014 C 11.699 8.803 11.893 8.687 12.026 8.74 L 12.038 8.74 Z  M 9.946 8.508 C 10.079 8.561 10.104 8.761 10.007 8.961 C 9.898 9.172 9.705 9.288 9.572 9.235 C 9.439 9.182 9.403 8.982 9.511 8.771 C 9.608 8.571 9.801 8.455 9.946 8.508 Z  M 7.892 8.034 C 8.025 8.086 8.049 8.287 7.952 8.497 C 7.843 8.698 7.65 8.814 7.517 8.771 C 7.384 8.719 7.348 8.508 7.456 8.308 C 7.553 8.097 7.747 7.981 7.892 8.034 Z  M 13.73 7.971 C 13.851 8.023 13.887 8.234 13.79 8.434 C 13.682 8.645 13.488 8.761 13.355 8.708 C 13.222 8.655 13.186 8.445 13.295 8.245 C 13.391 8.034 13.585 7.928 13.73 7.971 Z  M 11.288 7.444 C 11.421 7.496 11.457 7.697 11.349 7.907 C 11.252 8.108 11.059 8.223 10.913 8.181 C 10.781 8.129 10.756 7.918 10.853 7.718 C 10.962 7.507 11.155 7.391 11.288 7.444 Z  M 5.486 7.338 C 5.607 7.391 5.643 7.602 5.535 7.802 C 5.438 8.013 5.244 8.118 5.112 8.076 C 4.966 8.023 4.942 7.812 5.039 7.612 C 5.148 7.401 5.341 7.286 5.474 7.338 L 5.486 7.338 Z  M 9.39 7.128 C 9.511 7.17 9.548 7.38 9.451 7.581 C 9.342 7.791 9.149 7.907 9.016 7.855 C 8.883 7.802 8.847 7.591 8.955 7.391 C 9.052 7.18 9.245 7.075 9.378 7.117 L 9.39 7.128 Z  M 7.07 7.085 C 7.203 7.138 7.239 7.349 7.13 7.549 C 7.033 7.76 6.84 7.876 6.695 7.823 C 6.574 7.77 6.538 7.56 6.635 7.359 C 6.743 7.149 6.937 7.043 7.07 7.085 Z  M 15.217 7.064 C 15.362 7.117 15.386 7.317 15.289 7.528 C 15.18 7.728 14.987 7.844 14.854 7.802 C 14.709 7.749 14.685 7.538 14.781 7.338 C 14.89 7.128 15.084 7.012 15.217 7.064 Z  M 12.799 6.969 C 12.932 7.022 12.968 7.233 12.86 7.433 C 12.763 7.644 12.569 7.76 12.424 7.707 C 12.291 7.654 12.267 7.444 12.364 7.243 C 12.473 7.033 12.666 6.927 12.799 6.969 Z " fill-rule="evenodd" fill="rgb(55,41,40)"/></g></g></svg>