<?xml version="1.0" encoding="UTF-8" standalone="no"?><!-- Generator: Gravit.io --><svg xmlns="http://www.w3.org/2000/svg" xmlns:xlink="http://www.w3.org/1999/xlink" style="isolation:isolate" viewBox="0 0 20 20" width="20pt" height="20pt"><defs><clipPath id="_clipPath_3T5dgo4zVwb1ZQ1tYi6rLp0Onb9M9UJ4"><rect width="20" height="20"/></clipPath></defs><g clip-path="url(#_clipPath_3T5dgo4zVwb1ZQ1tYi6rLp0Onb9M9UJ4)"><g><path d=" M 9.345 4.161 C 9.345 4.161 9.63 2.628 11.236 2.754 C 11.236 2.754 16.824 3.432 18.096 9.449 C 18.096 9.449 18.774 10.29 15.064 11.421 C 15.064 11.421 14.945 13.179 13.471 12.903 C 13.471 12.903 13.673 14.787 12.044 14.561 C 10.748 14.385 11.307 12.778 11.307 12.778 L 10.594 13.016 C 10.594 13.016 10.344 14.385 9.083 13.468 L 8.025 13.87 C 8.025 13.87 8.061 14.913 7.585 14.712 C 7.585 14.712 7.609 16.345 5.814 15.855 C 4.732 15.554 5.088 15.013 5.088 15.013 C 5.088 15.013 4.339 15.717 3.769 15.164 C 3.769 15.164 3.804 17.249 2.223 16.885 C 0.641 16.508 1.569 14.75 1.89 13.908 C 2.223 13.066 3.281 11.886 3.281 11.886 C 3.281 11.886 3.233 11.258 4.446 10.441 L 5.73 8.846 C 5.73 8.846 5.611 7.477 7.205 6.861 L 8.061 5.856 C 8.061 5.856 8.263 4.6 9.357 4.161 L 9.345 4.161 Z " fill-rule="evenodd" fill="rgb(0,0,0)" fill-opacity="0.2"/><path d=" M 10.13 3.52 C 10.13 3.52 10.403 2.013 12.008 2.113 C 12.008 2.113 17.597 2.791 18.869 8.821 C 18.869 8.821 19.535 9.662 15.825 10.793 C 15.825 10.793 15.706 12.551 14.232 12.275 C 14.232 12.275 14.434 14.159 12.805 13.933 C 11.521 13.757 12.068 12.149 12.068 12.149 L 11.366 12.376 C 11.366 12.376 11.105 13.757 9.856 12.84 L 8.786 13.242 C 8.786 13.242 8.834 14.272 8.358 14.071 C 8.358 14.071 8.382 15.717 6.587 15.227 C 5.504 14.925 5.849 14.373 5.849 14.373 C 5.849 14.373 5.1 15.089 4.541 14.536 C 4.541 14.536 4.577 16.621 2.996 16.257 C 1.414 15.88 2.33 14.122 2.663 13.28 C 2.996 12.438 4.054 11.245 4.054 11.245 C 4.054 11.245 4.006 10.617 5.207 9.813 L 6.491 8.205 C 6.491 8.205 6.396 6.849 7.99 6.221 L 8.834 5.216 C 8.834 5.216 9.036 3.972 10.142 3.52 L 10.13 3.52 Z " fill-rule="evenodd" fill="rgb(255,255,255)"/><path d=" M 11.866 2 L 11.937 2 L 11.973 2.013 L 12.056 2.013 L 12.08 2.025 L 12.116 2.025 L 12.163 2.038 L 12.211 2.038 L 12.27 2.063 L 12.33 2.063 L 12.401 2.088 L 12.472 2.1 L 12.508 2.1 L 12.555 2.113 L 12.591 2.126 L 12.639 2.138 L 12.686 2.151 L 12.734 2.163 L 12.769 2.176 L 12.817 2.188 L 12.876 2.201 L 12.924 2.214 L 12.972 2.239 L 13.031 2.239 L 13.079 2.264 L 13.138 2.289 L 13.198 2.301 L 13.257 2.327 L 13.316 2.339 L 13.376 2.364 L 13.435 2.377 L 13.495 2.402 L 13.554 2.427 L 13.614 2.452 L 13.685 2.477 L 13.744 2.502 L 13.816 2.528 L 13.875 2.553 L 13.947 2.578 L 14.006 2.615 L 14.077 2.641 L 14.149 2.666 L 14.22 2.703 L 14.28 2.741 L 14.351 2.766 L 14.422 2.804 L 14.494 2.842 L 14.565 2.879 L 14.636 2.917 L 14.708 2.955 L 14.791 2.992 L 14.862 3.03 L 14.934 3.08 L 15.005 3.118 L 15.076 3.168 L 15.148 3.206 L 15.231 3.256 L 15.266 3.281 L 15.302 3.306 L 15.338 3.331 L 15.373 3.357 L 15.409 3.382 L 15.457 3.407 L 15.492 3.432 L 15.528 3.457 L 15.564 3.482 L 15.599 3.507 L 15.635 3.532 L 15.671 3.558 L 15.718 3.583 L 15.754 3.62 L 15.79 3.646 L 15.825 3.671 L 15.861 3.696 L 15.897 3.733 L 15.932 3.759 L 15.968 3.784 L 16.016 3.821 L 16.051 3.846 L 16.087 3.884 L 16.123 3.909 L 16.158 3.934 L 16.194 3.972 L 16.23 4.01 L 16.265 4.035 L 16.313 4.073 L 16.348 4.098 L 16.384 4.135 L 16.42 4.173 L 16.455 4.198 L 16.491 4.236 L 16.527 4.274 L 16.562 4.311 L 16.598 4.336 L 16.634 4.374 L 16.669 4.412 L 16.705 4.449 L 16.741 4.487 L 16.777 4.525 L 16.812 4.562 L 16.848 4.6 L 16.884 4.638 L 16.919 4.676 L 16.955 4.713 L 16.991 4.751 L 17.026 4.789 L 17.062 4.839 L 17.098 4.877 L 17.133 4.914 L 17.157 4.952 L 17.193 5.002 L 17.228 5.04 L 17.264 5.077 L 17.3 5.128 L 17.335 5.165 L 17.359 5.216 L 17.395 5.253 L 17.43 5.304 L 17.466 5.341 L 17.502 5.392 L 17.526 5.429 L 17.561 5.479 L 17.597 5.53 L 17.621 5.567 L 17.656 5.618 L 17.692 5.668 L 17.716 5.718 L 17.752 5.756 L 17.775 5.806 L 17.811 5.856 L 17.847 5.907 L 17.87 5.957 L 17.906 6.007 L 17.93 6.057 L 17.966 6.108 L 17.989 6.158 L 18.013 6.208 L 18.049 6.271 L 18.073 6.321 L 18.108 6.371 L 18.132 6.422 L 18.156 6.484 L 18.191 6.535 L 18.215 6.585 L 18.239 6.648 L 18.263 6.698 L 18.298 6.761 L 18.322 6.811 L 18.346 6.874 L 18.37 6.924 L 18.394 6.987 L 18.417 7.05 L 18.441 7.1 L 18.465 7.163 L 18.489 7.225 L 18.512 7.288 L 18.536 7.339 L 18.56 7.401 L 18.584 7.464 L 18.608 7.527 L 18.631 7.59 L 18.655 7.653 L 18.667 7.715 L 18.691 7.778 L 18.715 7.841 L 18.738 7.916 L 18.75 7.979 L 18.774 8.042 L 18.786 8.105 L 18.81 8.18 L 18.834 8.243 L 18.845 8.306 L 18.869 8.381 L 18.869 8.444 L 18.893 8.519 L 18.917 8.582 L 18.929 8.657 L 18.941 8.72 L 18.952 8.77 L 18.964 8.796 L 18.964 8.808 L 18.976 8.833 L 18.988 8.858 L 18.988 8.884 L 19 8.896 L 19 9.135 L 18.988 9.147 L 18.988 9.172 L 18.976 9.172 L 18.976 9.198 L 18.964 9.21 L 18.964 9.223 L 18.952 9.248 L 18.941 9.26 L 18.941 9.273 L 18.917 9.298 L 18.917 9.311 L 18.905 9.323 L 18.893 9.348 L 18.881 9.361 L 18.869 9.373 L 18.857 9.399 L 18.845 9.411 L 18.822 9.436 L 18.822 9.449 L 18.798 9.461 L 18.786 9.486 L 18.762 9.499 L 18.75 9.524 L 18.727 9.537 L 18.715 9.562 L 18.691 9.574 L 18.667 9.6 L 18.643 9.612 L 18.631 9.637 L 18.608 9.65 L 18.584 9.675 L 18.56 9.687 L 18.524 9.713 L 18.501 9.738 L 18.477 9.75 L 18.453 9.775 L 18.417 9.788 L 18.394 9.813 L 18.358 9.838 L 18.322 9.851 L 18.298 9.876 L 18.263 9.901 L 18.227 9.926 L 18.191 9.939 L 18.156 9.964 L 18.12 9.989 L 18.073 10.001 L 18.037 10.027 L 18.001 10.052 L 17.954 10.077 L 17.918 10.102 L 17.87 10.115 L 17.823 10.14 L 17.775 10.165 L 17.728 10.19 L 17.68 10.215 L 17.633 10.24 L 17.573 10.265 L 17.526 10.278 L 17.478 10.303 L 17.419 10.328 L 17.359 10.353 L 17.3 10.378 L 17.24 10.403 L 17.181 10.429 L 17.121 10.454 L 17.062 10.479 L 16.991 10.504 L 16.931 10.529 L 16.86 10.554 L 16.8 10.579 L 16.729 10.604 L 16.658 10.63 L 16.586 10.655 L 16.503 10.68 L 16.432 10.705 L 16.348 10.73 L 16.277 10.755 L 16.194 10.78 L 16.111 10.805 L 16.027 10.843 L 15.944 10.868 L 15.92 10.868 L 15.92 10.944 L 15.909 10.969 L 15.909 10.994 L 15.897 11.019 L 15.897 11.057 L 15.885 11.082 L 15.885 11.119 L 15.873 11.145 L 15.861 11.182 L 15.861 11.22 L 15.837 11.258 L 15.837 11.295 L 15.813 11.333 L 15.813 11.371 L 15.79 11.408 L 15.79 11.446 L 15.766 11.484 L 15.742 11.521 L 15.742 11.547 L 15.73 11.572 L 15.73 11.584 L 15.706 11.609 L 15.706 11.622 L 15.694 11.647 L 15.683 11.672 L 15.671 11.685 L 15.671 11.71 L 15.647 11.735 L 15.647 11.747 L 15.623 11.773 L 15.623 11.785 L 15.599 11.81 L 15.599 11.823 L 15.576 11.848 L 15.564 11.873 L 15.552 11.886 L 15.54 11.911 L 15.516 11.923 L 15.516 11.948 L 15.492 11.961 L 15.48 11.986 L 15.457 11.999 L 15.445 12.024 L 15.421 12.036 L 15.409 12.049 L 15.397 12.074 L 15.373 12.087 L 15.362 12.099 L 15.338 12.124 L 15.314 12.137 L 15.302 12.149 L 15.278 12.162 L 15.255 12.187 L 15.243 12.187 L 15.219 12.212 L 15.195 12.225 L 15.171 12.237 L 15.159 12.25 L 15.136 12.263 L 15.112 12.275 L 15.088 12.288 L 15.064 12.3 L 15.041 12.313 L 15.017 12.313 L 14.981 12.338 L 14.957 12.338 L 14.934 12.35 L 14.91 12.35 L 14.886 12.363 L 14.85 12.363 L 14.826 12.376 L 14.803 12.376 L 14.767 12.388 L 14.708 12.388 L 14.684 12.401 L 14.339 12.401 L 14.339 12.752 L 14.327 12.79 L 14.327 12.828 L 14.315 12.878 L 14.315 12.916 L 14.303 12.953 L 14.291 13.004 L 14.291 13.029 L 14.28 13.041 L 14.28 13.066 L 14.268 13.092 L 14.268 13.117 L 14.256 13.129 L 14.256 13.154 L 14.244 13.179 L 14.244 13.205 L 14.232 13.217 L 14.22 13.242 L 14.22 13.267 L 14.208 13.293 L 14.196 13.305 L 14.184 13.33 L 14.184 13.355 L 14.161 13.38 L 14.161 13.393 L 14.149 13.418 L 14.137 13.443 L 14.125 13.456 L 14.113 13.481 L 14.101 13.506 L 14.089 13.519 L 14.077 13.544 L 14.054 13.569 L 14.054 13.581 L 14.03 13.607 L 14.018 13.619 L 14.006 13.644 L 13.982 13.657 L 13.97 13.682 L 13.947 13.694 L 13.935 13.72 L 13.911 13.732 L 13.899 13.757 L 13.875 13.77 L 13.863 13.782 L 13.84 13.808 L 13.816 13.82 L 13.804 13.833 L 13.78 13.858 L 13.756 13.858 L 13.733 13.883 L 13.709 13.895 L 13.685 13.908 L 13.661 13.921 L 13.637 13.933 L 13.614 13.946 L 13.59 13.946 L 13.566 13.971 L 13.53 13.971 L 13.507 13.983 L 13.483 13.996 L 13.447 13.996 L 13.423 14.009 L 13.388 14.009 L 13.364 14.021 L 13.328 14.021 L 13.305 14.034 L 13.233 14.034 L 13.209 14.046 L 12.841 14.046 L 12.805 14.034 L 12.746 14.034 L 12.71 14.021 L 12.674 14.021 L 12.651 14.009 L 12.627 13.996 L 12.591 13.996 L 12.567 13.983 L 12.544 13.971 L 12.508 13.971 L 12.484 13.946 L 12.46 13.946 L 12.437 13.933 L 12.413 13.921 L 12.389 13.908 L 12.365 13.895 L 12.341 13.883 L 12.318 13.87 L 12.306 13.858 L 12.282 13.845 L 12.258 13.82 L 12.234 13.82 L 12.223 13.795 L 12.199 13.782 L 12.187 13.757 L 12.163 13.757 L 12.151 13.732 L 12.139 13.707 L 12.116 13.707 L 12.104 13.682 L 12.092 13.657 L 12.08 13.644 L 12.056 13.619 L 12.056 13.607 L 12.032 13.581 L 12.032 13.569 L 12.008 13.544 L 12.008 13.531 L 11.985 13.506 L 11.985 13.481 L 11.973 13.468 L 11.961 13.443 L 11.961 13.418 L 11.949 13.406 L 11.937 13.38 L 11.937 13.355 L 11.925 13.343 L 11.925 13.318 L 11.913 13.293 L 11.913 13.28 L 11.901 13.255 L 11.901 13.23 L 11.89 13.217 L 11.89 13.167 L 11.878 13.154 L 11.878 13.092 L 11.866 13.066 L 11.866 12.577 L 11.878 12.539 L 11.878 12.514 L 11.89 12.476 L 11.89 12.438 L 11.901 12.413 L 11.901 12.376 L 11.913 12.35 L 11.913 12.3 L 11.45 12.463 L 11.45 12.501 L 11.438 12.514 L 11.438 12.539 L 11.426 12.551 L 11.426 12.577 L 11.414 12.602 L 11.402 12.614 L 11.402 12.639 L 11.378 12.664 L 11.378 12.69 L 11.355 12.715 L 11.355 12.74 L 11.331 12.765 L 11.331 12.803 L 11.307 12.828 L 11.295 12.853 L 11.271 12.891 L 11.259 12.916 L 11.236 12.941 L 11.212 12.966 L 11.2 12.991 L 11.188 12.991 L 11.176 13.016 L 11.164 13.016 L 11.152 13.041 L 11.129 13.041 L 11.117 13.066 L 11.105 13.066 L 11.093 13.079 L 11.081 13.092 L 11.069 13.104 L 11.045 13.117 L 11.022 13.142 L 11.01 13.142 L 10.998 13.154 L 10.974 13.167 L 10.962 13.167 L 10.95 13.179 L 10.926 13.192 L 10.915 13.192 L 10.891 13.205 L 10.879 13.217 L 10.855 13.217 L 10.843 13.23 L 10.819 13.23 L 10.796 13.242 L 10.772 13.242 L 10.76 13.255 L 10.653 13.255 L 10.629 13.267 L 10.475 13.267 L 10.451 13.255 L 10.415 13.255 L 10.391 13.242 L 10.368 13.242 L 10.344 13.23 L 10.32 13.217 L 10.296 13.217 L 10.273 13.205 L 10.249 13.192 L 10.225 13.179 L 10.177 13.179 L 10.154 13.154 L 10.13 13.154 L 10.106 13.129 L 10.07 13.117 L 10.047 13.104 L 10.023 13.092 L 9.987 13.066 L 9.963 13.054 L 9.94 13.041 L 9.904 13.016 L 9.88 13.004 L 9.844 12.978 L 9.833 12.966 L 9.63 13.041 L 8.881 13.33 L 8.881 13.544 L 8.869 13.581 L 8.869 13.657 L 8.858 13.682 L 8.858 13.72 L 8.846 13.745 L 8.846 13.77 L 8.834 13.795 L 8.834 13.82 L 8.822 13.845 L 8.822 13.87 L 8.81 13.883 L 8.81 13.908 L 8.786 13.933 L 8.786 13.958 L 8.774 13.971 L 8.762 13.996 L 8.762 14.021 L 8.739 14.034 L 8.739 14.059 L 8.727 14.059 L 8.715 14.084 L 8.703 14.096 L 8.679 14.122 L 8.667 14.122 L 8.667 14.147 L 8.644 14.147 L 8.632 14.159 L 8.608 14.172 L 8.596 14.184 L 8.584 14.184 L 8.572 14.197 L 8.548 14.197 L 8.537 14.209 L 8.441 14.209 L 8.441 14.272 L 8.43 14.297 L 8.43 14.323 L 8.418 14.36 L 8.418 14.385 L 8.406 14.423 L 8.406 14.448 L 8.394 14.486 L 8.382 14.511 L 8.382 14.549 L 8.358 14.586 L 8.358 14.624 L 8.334 14.649 L 8.334 14.687 L 8.322 14.712 L 8.311 14.725 L 8.311 14.75 L 8.299 14.75 L 8.287 14.775 L 8.275 14.8 L 8.275 14.812 L 8.251 14.838 L 8.251 14.85 L 8.239 14.875 L 8.227 14.888 L 8.215 14.9 L 8.204 14.925 L 8.192 14.938 L 8.18 14.963 L 8.168 14.976 L 8.156 14.988 L 8.144 15.013 L 8.132 15.026 L 8.108 15.051 L 8.085 15.076 L 8.073 15.089 L 8.049 15.114 L 8.037 15.114 L 8.013 15.139 L 8.001 15.152 L 7.99 15.177 L 7.966 15.177 L 7.942 15.202 L 7.93 15.214 L 7.906 15.227 L 7.894 15.24 L 7.871 15.252 L 7.847 15.265 L 7.823 15.277 L 7.799 15.29 L 7.787 15.302 L 7.764 15.315 L 7.74 15.315 L 7.716 15.34 L 7.692 15.34 L 7.669 15.353 L 7.633 15.353 L 7.609 15.378 L 7.562 15.378 L 7.526 15.39 L 7.502 15.39 L 7.478 15.403 L 7.443 15.403 L 7.419 15.415 L 7.359 15.415 L 7.324 15.428 L 6.967 15.428 L 6.931 15.415 L 6.884 15.415 L 6.848 15.403 L 6.812 15.403 L 6.765 15.39 L 6.729 15.39 L 6.694 15.365 L 6.646 15.365 L 6.61 15.353 L 6.563 15.34 L 6.539 15.34 L 6.515 15.315 L 6.491 15.302 L 6.456 15.302 L 6.432 15.29 L 6.408 15.29 L 6.396 15.277 L 6.372 15.265 L 6.349 15.265 L 6.325 15.252 L 6.301 15.24 L 6.277 15.24 L 6.265 15.227 L 6.242 15.214 L 6.218 15.214 L 6.206 15.202 L 6.182 15.189 L 6.17 15.189 L 6.147 15.177 L 6.135 15.164 L 6.111 15.164 L 6.099 15.139 L 6.087 15.139 L 6.063 15.126 L 6.051 15.126 L 6.04 15.101 L 6.016 15.101 L 5.992 15.089 L 5.968 15.064 L 5.956 15.064 L 5.944 15.051 L 5.933 15.039 L 5.921 15.039 L 5.909 15.013 L 5.897 15.013 L 5.885 15.001 L 5.885 14.988 L 5.861 14.988 L 5.861 14.963 L 5.849 14.963 L 5.837 14.951 L 5.826 14.938 L 5.814 14.913 L 5.802 14.913 L 5.802 14.9 L 5.79 14.888 L 5.778 14.875 L 5.754 14.838 L 5.754 14.825 L 5.742 14.8 L 5.73 14.775 L 5.73 14.762 L 5.719 14.737 L 5.707 14.712 L 5.707 14.674 L 5.695 14.662 L 5.695 14.624 L 5.683 14.624 L 5.659 14.637 L 5.647 14.649 L 5.623 14.662 L 5.6 14.674 L 5.576 14.687 L 5.552 14.699 L 5.528 14.712 L 5.504 14.712 L 5.481 14.737 L 5.457 14.737 L 5.433 14.762 L 5.421 14.762 L 5.386 14.775 L 5.362 14.787 L 5.338 14.787 L 5.302 14.812 L 5.255 14.812 L 5.219 14.825 L 5.195 14.825 L 5.16 14.838 L 4.851 14.838 L 4.827 14.825 L 4.803 14.825 L 4.779 14.812 L 4.767 14.812 L 4.744 14.8 L 4.72 14.787 L 4.696 14.787 L 4.684 14.775 L 4.672 14.762 L 4.648 14.762 L 4.636 14.737 L 4.625 14.762 L 4.625 14.875 L 4.613 14.913 L 4.613 14.951 L 4.601 14.988 L 4.601 15.026 L 4.589 15.064 L 4.589 15.114 L 4.565 15.152 L 4.565 15.202 L 4.553 15.252 L 4.541 15.29 L 4.529 15.34 L 4.529 15.365 L 4.518 15.39 L 4.506 15.415 L 4.506 15.428 L 4.494 15.453 L 4.494 15.478 L 4.47 15.503 L 4.47 15.528 L 4.458 15.554 L 4.458 15.579 L 4.434 15.604 L 4.434 15.616 L 4.422 15.641 L 4.411 15.667 L 4.399 15.692 L 4.387 15.717 L 4.375 15.742 L 4.363 15.755 L 4.351 15.78 L 4.339 15.805 L 4.327 15.83 L 4.315 15.855 L 4.304 15.868 L 4.28 15.893 L 4.28 15.918 L 4.256 15.93 L 4.244 15.956 L 4.22 15.981 L 4.208 15.993 L 4.197 16.018 L 4.173 16.043 L 4.161 16.056 L 4.137 16.081 L 4.125 16.094 L 4.101 16.119 L 4.078 16.131 L 4.066 16.144 L 4.042 16.169 L 4.018 16.182 L 3.994 16.194 L 3.971 16.219 L 3.959 16.219 L 3.935 16.244 L 3.911 16.257 L 3.887 16.27 L 3.864 16.282 L 3.84 16.295 L 3.804 16.307 L 3.78 16.32 L 3.757 16.32 L 3.733 16.345 L 3.697 16.345 L 3.673 16.357 L 3.65 16.357 L 3.614 16.37 L 3.59 16.37 L 3.554 16.383 L 3.495 16.383 L 3.459 16.395 L 3.126 16.395 L 3.091 16.383 L 3.043 16.383 L 3.008 16.37 L 2.972 16.357 L 2.924 16.357 L 2.889 16.332 L 2.841 16.332 L 2.805 16.32 L 2.782 16.307 L 2.746 16.295 L 2.71 16.282 L 2.675 16.27 L 2.639 16.257 L 2.615 16.244 L 2.579 16.219 L 2.568 16.219 L 2.532 16.194 L 2.508 16.182 L 2.484 16.156 L 2.461 16.144 L 2.437 16.131 L 2.401 16.106 L 2.377 16.094 L 2.365 16.069 L 2.342 16.056 L 2.318 16.031 L 2.294 16.006 L 2.27 15.993 L 2.258 15.968 L 2.235 15.943 L 2.223 15.918 L 2.199 15.905 L 2.187 15.88 L 2.175 15.855 L 2.151 15.83 L 2.151 15.805 L 2.128 15.78 L 2.116 15.755 L 2.104 15.729 L 2.104 15.704 L 2.08 15.679 L 2.08 15.654 L 2.068 15.629 L 2.056 15.604 L 2.056 15.579 L 2.044 15.554 L 2.033 15.528 L 2.033 15.491 L 2.021 15.466 L 2.021 15.415 L 2.009 15.39 L 2.009 15.277 L 1.997 15.24 L 1.997 14.988 L 2.009 14.963 L 2.009 14.9 L 2.021 14.875 L 2.021 14.812 L 2.033 14.787 L 2.033 14.75 L 2.044 14.725 L 2.044 14.699 L 2.056 14.662 L 2.056 14.637 L 2.068 14.611 L 2.08 14.574 L 2.08 14.549 L 2.092 14.524 L 2.092 14.486 L 2.116 14.461 L 2.128 14.398 L 2.151 14.348 L 2.163 14.285 L 2.187 14.235 L 2.199 14.172 L 2.223 14.122 L 2.247 14.059 L 2.258 14.009 L 2.282 13.946 L 2.306 13.895 L 2.33 13.845 L 2.342 13.795 L 2.365 13.732 L 2.389 13.682 L 2.425 13.594 L 2.508 13.406 L 2.544 13.318 L 2.556 13.28 L 2.579 13.23 L 2.579 13.192 L 2.603 13.154 L 2.627 13.117 L 2.651 13.066 L 2.663 13.029 L 2.686 12.978 L 2.71 12.941 L 2.734 12.903 L 2.758 12.853 L 2.782 12.815 L 2.805 12.765 L 2.829 12.727 L 2.853 12.677 L 2.889 12.639 L 2.912 12.589 L 2.936 12.551 L 2.96 12.501 L 2.996 12.463 L 3.019 12.413 L 3.055 12.376 L 3.079 12.338 L 3.115 12.288 L 3.138 12.25 L 3.174 12.2 L 3.198 12.162 L 3.233 12.124 L 3.257 12.087 L 3.293 12.036 L 3.34 11.961 L 3.4 11.886 L 3.459 11.81 L 3.519 11.735 L 3.566 11.672 L 3.626 11.609 L 3.673 11.547 L 3.721 11.484 L 3.769 11.433 L 3.804 11.383 L 3.84 11.333 L 3.876 11.295 L 3.935 11.232 L 3.959 11.207 L 3.959 11.107 L 3.971 11.082 L 3.971 11.069 L 3.983 11.057 L 3.983 11.019 L 4.006 10.994 L 4.006 10.956 L 4.03 10.931 L 4.03 10.906 L 4.042 10.881 L 4.054 10.856 L 4.066 10.831 L 4.078 10.805 L 4.09 10.78 L 4.101 10.755 L 4.125 10.73 L 4.137 10.705 L 4.161 10.68 L 4.173 10.655 L 4.197 10.617 L 4.208 10.592 L 4.232 10.567 L 4.256 10.529 L 4.28 10.504 L 4.304 10.466 L 4.339 10.441 L 4.363 10.403 L 4.387 10.378 L 4.422 10.341 L 4.446 10.303 L 4.482 10.278 L 4.518 10.24 L 4.553 10.202 L 4.589 10.165 L 4.625 10.14 L 4.672 10.102 L 4.708 10.064 L 4.755 10.027 L 4.803 9.989 L 4.851 9.951 L 4.898 9.914 L 4.946 9.876 L 4.993 9.838 L 5.053 9.801 L 5.1 9.763 L 5.148 9.738 L 6.396 8.155 L 6.396 7.992 L 6.408 7.967 L 6.408 7.879 L 6.42 7.841 L 6.42 7.816 L 6.444 7.778 L 6.456 7.74 L 6.456 7.703 L 6.479 7.678 L 6.479 7.653 L 6.491 7.615 L 6.503 7.565 L 6.515 7.527 L 6.539 7.489 L 6.539 7.452 L 6.563 7.426 L 6.563 7.414 L 6.575 7.389 L 6.575 7.364 L 6.598 7.351 L 6.598 7.326 L 6.61 7.301 L 6.622 7.288 L 6.634 7.263 L 6.634 7.238 L 6.658 7.225 L 6.658 7.2 L 6.682 7.175 L 6.682 7.15 L 6.705 7.138 L 6.717 7.112 L 6.729 7.087 L 6.741 7.075 L 6.765 7.05 L 6.765 7.024 L 6.789 6.999 L 6.812 6.987 L 6.812 6.962 L 6.836 6.937 L 6.86 6.911 L 6.872 6.899 L 6.896 6.874 L 6.908 6.849 L 6.931 6.836 L 6.943 6.811 L 6.967 6.773 L 6.979 6.761 L 7.003 6.736 L 7.026 6.71 L 7.05 6.698 L 7.074 6.673 L 7.086 6.648 L 7.11 6.635 L 7.133 6.61 L 7.157 6.597 L 7.181 6.572 L 7.217 6.547 L 7.24 6.535 L 7.264 6.509 L 7.288 6.497 L 7.324 6.472 L 7.347 6.459 L 7.371 6.434 L 7.407 6.409 L 7.431 6.396 L 7.466 6.384 L 7.49 6.359 L 7.526 6.346 L 7.562 6.321 L 7.585 6.308 L 7.621 6.283 L 7.657 6.271 L 7.692 6.258 L 7.728 6.233 L 7.752 6.221 L 7.787 6.208 L 7.835 6.183 L 7.871 6.183 L 7.906 6.158 L 7.918 6.158 L 8.739 5.191 L 8.739 5.128 L 8.751 5.09 L 8.762 5.052 L 8.762 5.015 L 8.774 4.99 L 8.786 4.964 L 8.786 4.939 L 8.798 4.914 L 8.81 4.889 L 8.822 4.851 L 8.822 4.826 L 8.846 4.789 L 8.846 4.763 L 8.869 4.726 L 8.869 4.701 L 8.893 4.663 L 8.905 4.638 L 8.929 4.6 L 8.941 4.562 L 8.953 4.525 L 8.976 4.487 L 9 4.449 L 9.012 4.424 L 9.036 4.387 L 9.06 4.349 L 9.083 4.311 L 9.107 4.274 L 9.131 4.236 L 9.155 4.198 L 9.179 4.161 L 9.202 4.123 L 9.214 4.11 L 9.226 4.085 L 9.25 4.073 L 9.25 4.047 L 9.274 4.035 L 9.286 4.01 L 9.309 3.997 L 9.321 3.972 L 9.333 3.96 L 9.357 3.934 L 9.369 3.922 L 9.393 3.909 L 9.405 3.884 L 9.428 3.872 L 9.44 3.846 L 9.464 3.834 L 9.476 3.821 L 9.5 3.796 L 9.512 3.784 L 9.535 3.771 L 9.547 3.746 L 9.571 3.733 L 9.595 3.721 L 9.619 3.696 L 9.63 3.696 L 9.654 3.671 L 9.678 3.658 L 9.702 3.633 L 9.714 3.633 L 9.737 3.608 L 9.761 3.595 L 9.785 3.583 L 9.809 3.57 L 9.833 3.558 L 9.856 3.532 L 9.88 3.532 L 9.904 3.507 L 9.928 3.507 L 9.951 3.482 L 9.975 3.482 L 10.011 3.457 L 10.035 3.457 L 10.035 3.432 L 10.047 3.394 L 10.047 3.382 L 10.058 3.369 L 10.07 3.344 L 10.07 3.319 L 10.082 3.294 L 10.094 3.269 L 10.106 3.231 L 10.118 3.206 L 10.13 3.181 L 10.142 3.143 L 10.154 3.118 L 10.177 3.08 L 10.177 3.043 L 10.201 3.017 L 10.225 2.98 L 10.237 2.942 L 10.261 2.904 L 10.284 2.867 L 10.308 2.842 L 10.308 2.816 L 10.332 2.804 L 10.332 2.754 L 10.38 2.754 L 10.38 2.729 L 10.403 2.716 L 10.415 2.691 L 10.427 2.678 L 10.439 2.666 L 10.463 2.641 L 10.463 2.628 L 10.487 2.603 L 10.498 2.59 L 10.522 2.565 L 10.534 2.553 L 10.558 2.54 L 10.558 2.502 L 10.582 2.49 L 10.605 2.477 L 10.617 2.452 L 10.641 2.44 L 10.653 2.427 L 10.677 2.402 L 10.701 2.389 L 10.712 2.377 L 10.736 2.352 L 10.76 2.339 L 10.772 2.327 L 10.796 2.314 L 10.819 2.289 L 10.843 2.289 L 10.867 2.264 L 10.891 2.251 L 10.915 2.239 L 10.938 2.226 L 10.962 2.214 L 10.986 2.201 L 11.01 2.188 L 11.033 2.176 L 11.057 2.163 L 11.081 2.151 L 11.105 2.138 L 11.14 2.126 L 11.164 2.126 L 11.188 2.1 L 11.224 2.1 L 11.248 2.088 L 11.283 2.075 L 11.307 2.075 L 11.343 2.063 L 11.366 2.063 L 11.402 2.05 L 11.426 2.038 L 11.462 2.038 L 11.497 2.025 L 11.557 2.025 L 11.592 2.013 L 11.687 2.013 L 11.723 2 L 11.878 2 L 11.866 2 Z  M 10.094 3.545 L 10.07 3.558 L 10.058 3.558 L 10.035 3.583 L 10.011 3.583 L 9.987 3.608 L 9.963 3.608 L 9.94 3.633 L 9.916 3.633 L 9.892 3.658 L 9.868 3.658 L 9.844 3.683 L 9.833 3.696 L 9.809 3.708 L 9.785 3.721 L 9.761 3.733 L 9.737 3.746 L 9.726 3.771 L 9.702 3.771 L 9.678 3.796 L 9.666 3.809 L 9.642 3.821 L 9.63 3.846 L 9.607 3.859 L 9.595 3.872 L 9.571 3.884 L 9.559 3.909 L 9.535 3.922 L 9.523 3.934 L 9.5 3.96 L 9.488 3.972 L 9.464 3.985 L 9.464 4.01 L 9.44 4.01 L 9.416 4.022 L 9.416 4.047 L 9.393 4.06 L 9.381 4.085 L 9.357 4.098 L 9.357 4.11 L 9.333 4.135 L 9.321 4.148 L 9.309 4.173 L 9.297 4.186 L 9.262 4.223 L 9.238 4.261 L 9.214 4.299 L 9.19 4.324 L 9.179 4.362 L 9.155 4.399 L 9.131 4.437 L 9.107 4.475 L 9.095 4.5 L 9.072 4.537 L 9.06 4.575 L 9.036 4.613 L 9.036 4.638 L 9.012 4.676 L 9 4.713 L 8.988 4.738 L 8.965 4.776 L 8.965 4.801 L 8.953 4.826 L 8.941 4.864 L 8.929 4.889 L 8.917 4.914 L 8.917 4.939 L 8.905 4.964 L 8.893 4.99 L 8.893 5.015 L 8.881 5.04 L 8.881 5.065 L 8.858 5.103 L 8.858 5.165 L 8.846 5.191 L 8.846 5.216 L 7.99 6.221 L 7.954 6.246 L 7.918 6.246 L 7.883 6.271 L 7.847 6.283 L 7.811 6.296 L 7.776 6.321 L 7.74 6.334 L 7.704 6.346 L 7.68 6.371 L 7.645 6.384 L 7.609 6.396 L 7.585 6.422 L 7.55 6.434 L 7.526 6.459 L 7.49 6.472 L 7.466 6.484 L 7.443 6.522 L 7.407 6.522 L 7.383 6.547 L 7.359 6.56 L 7.336 6.585 L 7.312 6.597 L 7.288 6.623 L 7.264 6.635 L 7.24 6.66 L 7.217 6.673 L 7.193 6.698 L 7.169 6.723 L 7.145 6.736 L 7.122 6.761 L 7.098 6.773 L 7.086 6.798 L 7.062 6.824 L 7.038 6.836 L 7.026 6.861 L 7.003 6.874 L 6.991 6.899 L 6.967 6.924 L 6.955 6.937 L 6.931 6.962 L 6.919 6.987 L 6.908 6.999 L 6.884 7.024 L 6.872 7.05 L 6.86 7.062 L 6.848 7.087 L 6.824 7.112 L 6.824 7.125 L 6.801 7.15 L 6.789 7.163 L 6.777 7.188 L 6.765 7.213 L 6.753 7.225 L 6.741 7.251 L 6.741 7.276 L 6.717 7.288 L 6.717 7.313 L 6.694 7.326 L 6.694 7.351 L 6.682 7.376 L 6.67 7.389 L 6.67 7.414 L 6.658 7.426 L 6.646 7.452 L 6.646 7.464 L 6.634 7.489 L 6.61 7.527 L 6.61 7.565 L 6.587 7.602 L 6.587 7.64 L 6.563 7.678 L 6.563 7.715 L 6.551 7.74 L 6.551 7.778 L 6.539 7.816 L 6.527 7.841 L 6.527 7.904 L 6.515 7.929 L 6.515 7.992 L 6.503 8.017 L 6.503 8.205 L 5.195 9.813 L 5.148 9.851 L 5.088 9.888 L 5.041 9.926 L 4.993 9.964 L 4.934 10.001 L 4.886 10.039 L 4.851 10.064 L 4.803 10.102 L 4.755 10.14 L 4.72 10.177 L 4.684 10.215 L 4.648 10.24 L 4.613 10.278 L 4.577 10.316 L 4.541 10.341 L 4.506 10.378 L 4.482 10.416 L 4.446 10.441 L 4.422 10.479 L 4.399 10.504 L 4.375 10.529 L 4.351 10.567 L 4.327 10.592 L 4.304 10.617 L 4.28 10.655 L 4.256 10.68 L 4.244 10.705 L 4.22 10.73 L 4.208 10.755 L 4.197 10.78 L 4.185 10.805 L 4.161 10.831 L 4.161 10.856 L 4.137 10.881 L 4.137 10.906 L 4.125 10.931 L 4.113 10.944 L 4.113 10.969 L 4.09 10.994 L 4.09 11.032 L 4.078 11.044 L 4.078 11.057 L 4.066 11.082 L 4.066 11.107 L 4.054 11.119 L 4.054 11.157 L 4.042 11.182 L 4.042 11.245 L 4.03 11.258 L 3.994 11.295 L 3.935 11.358 L 3.911 11.408 L 3.864 11.446 L 3.828 11.496 L 3.78 11.547 L 3.733 11.609 L 3.685 11.672 L 3.638 11.735 L 3.578 11.798 L 3.531 11.873 L 3.471 11.948 L 3.412 12.024 L 3.352 12.099 L 3.329 12.149 L 3.293 12.187 L 3.269 12.225 L 3.233 12.263 L 3.21 12.313 L 3.174 12.35 L 3.15 12.388 L 3.115 12.438 L 3.091 12.476 L 3.067 12.514 L 3.031 12.564 L 3.008 12.602 L 2.984 12.652 L 2.948 12.69 L 2.924 12.74 L 2.901 12.778 L 2.877 12.815 L 2.853 12.865 L 2.829 12.903 L 2.805 12.953 L 2.782 12.991 L 2.758 13.029 L 2.746 13.079 L 2.722 13.117 L 2.698 13.154 L 2.686 13.192 L 2.663 13.23 L 2.663 13.28 L 2.639 13.318 L 2.615 13.355 L 2.579 13.443 L 2.508 13.632 L 2.461 13.732 L 2.449 13.782 L 2.425 13.833 L 2.401 13.883 L 2.377 13.933 L 2.365 13.983 L 2.342 14.046 L 2.318 14.096 L 2.306 14.147 L 2.282 14.209 L 2.258 14.26 L 2.247 14.323 L 2.223 14.373 L 2.211 14.436 L 2.199 14.486 L 2.187 14.511 L 2.187 14.549 L 2.175 14.574 L 2.163 14.599 L 2.163 14.637 L 2.151 14.662 L 2.151 14.687 L 2.14 14.712 L 2.14 14.75 L 2.128 14.775 L 2.128 14.8 L 2.116 14.825 L 2.116 14.888 L 2.104 14.913 L 2.104 14.963 L 2.092 15.001 L 2.092 15.428 L 2.104 15.453 L 2.104 15.478 L 2.116 15.503 L 2.116 15.528 L 2.128 15.541 L 2.128 15.566 L 2.14 15.591 L 2.151 15.616 L 2.151 15.641 L 2.175 15.667 L 2.175 15.692 L 2.187 15.704 L 2.199 15.729 L 2.211 15.755 L 2.223 15.78 L 2.235 15.792 L 2.258 15.817 L 2.258 15.842 L 2.282 15.855 L 2.294 15.88 L 2.318 15.893 L 2.33 15.918 L 2.354 15.93 L 2.365 15.956 L 2.389 15.968 L 2.413 15.993 L 2.437 16.006 L 2.449 16.018 L 2.472 16.043 L 2.496 16.056 L 2.52 16.069 L 2.544 16.094 L 2.568 16.094 L 2.603 16.119 L 2.627 16.119 L 2.651 16.144 L 2.686 16.156 L 2.71 16.169 L 2.746 16.182 L 2.77 16.194 L 2.805 16.194 L 2.841 16.219 L 2.877 16.219 L 2.912 16.232 L 2.948 16.244 L 2.984 16.244 L 3.019 16.257 L 3.055 16.27 L 3.091 16.27 L 3.126 16.282 L 3.198 16.282 L 3.222 16.295 L 3.507 16.295 L 3.531 16.282 L 3.578 16.282 L 3.614 16.27 L 3.638 16.27 L 3.661 16.244 L 3.709 16.244 L 3.733 16.219 L 3.757 16.219 L 3.78 16.207 L 3.804 16.194 L 3.828 16.182 L 3.852 16.169 L 3.864 16.156 L 3.887 16.144 L 3.911 16.131 L 3.935 16.119 L 3.947 16.094 L 3.971 16.094 L 3.983 16.069 L 4.006 16.056 L 4.018 16.031 L 4.042 16.031 L 4.054 16.006 L 4.078 15.981 L 4.09 15.968 L 4.101 15.956 L 4.125 15.93 L 4.125 15.918 L 4.149 15.893 L 4.161 15.868 L 4.185 15.855 L 4.185 15.83 L 4.208 15.817 L 4.208 15.792 L 4.232 15.767 L 4.232 15.755 L 4.256 15.729 L 4.256 15.704 L 4.28 15.692 L 4.28 15.667 L 4.304 15.641 L 4.304 15.629 L 4.315 15.604 L 4.327 15.579 L 4.327 15.554 L 4.351 15.528 L 4.351 15.516 L 4.363 15.491 L 4.363 15.466 L 4.375 15.44 L 4.375 15.428 L 4.399 15.403 L 4.399 15.353 L 4.411 15.327 L 4.411 15.315 L 4.434 15.265 L 4.434 15.214 L 4.458 15.177 L 4.458 15.139 L 4.47 15.089 L 4.47 15.051 L 4.482 15.013 L 4.482 14.963 L 4.494 14.925 L 4.494 14.85 L 4.506 14.825 L 4.506 14.725 L 4.518 14.699 L 4.518 14.536 L 4.541 14.549 L 4.541 14.561 L 4.589 14.561 L 4.601 14.586 L 4.613 14.586 L 4.625 14.599 L 4.636 14.611 L 4.66 14.624 L 4.684 14.637 L 4.696 14.649 L 4.708 14.649 L 4.72 14.662 L 4.744 14.674 L 4.767 14.687 L 4.779 14.687 L 4.791 14.699 L 4.827 14.699 L 4.827 14.712 L 4.862 14.712 L 4.874 14.725 L 4.922 14.725 L 4.934 14.737 L 5.219 14.737 L 5.243 14.725 L 5.267 14.725 L 5.29 14.712 L 5.314 14.699 L 5.35 14.699 L 5.374 14.687 L 5.397 14.674 L 5.421 14.662 L 5.445 14.662 L 5.469 14.637 L 5.493 14.637 L 5.516 14.611 L 5.54 14.611 L 5.552 14.599 L 5.576 14.586 L 5.6 14.574 L 5.623 14.561 L 5.635 14.549 L 5.659 14.536 L 5.671 14.524 L 5.695 14.524 L 5.707 14.498 L 5.742 14.473 L 5.766 14.461 L 5.79 14.436 L 5.814 14.423 L 5.837 14.41 L 5.837 14.398 L 5.861 14.385 L 5.861 14.398 L 5.849 14.41 L 5.849 14.423 L 5.837 14.436 L 5.837 14.461 L 5.826 14.473 L 5.826 14.524 L 5.814 14.536 L 5.814 14.687 L 5.826 14.699 L 5.826 14.725 L 5.837 14.737 L 5.849 14.75 L 5.849 14.775 L 5.873 14.787 L 5.873 14.812 L 5.885 14.812 L 5.885 14.838 L 5.897 14.838 L 5.897 14.85 L 5.921 14.85 L 5.921 14.875 L 5.944 14.875 L 5.944 14.9 L 5.968 14.9 L 5.968 14.925 L 5.98 14.925 L 5.992 14.938 L 6.004 14.938 L 6.004 14.951 L 6.028 14.963 L 6.051 14.988 L 6.075 14.988 L 6.075 15.013 L 6.099 15.013 L 6.111 15.026 L 6.123 15.026 L 6.147 15.039 L 6.147 15.051 L 6.17 15.051 L 6.182 15.064 L 6.206 15.076 L 6.218 15.076 L 6.242 15.089 L 6.254 15.101 L 6.277 15.101 L 6.289 15.114 L 6.313 15.126 L 6.325 15.126 L 6.349 15.139 L 6.372 15.139 L 6.384 15.152 L 6.408 15.164 L 6.432 15.164 L 6.456 15.177 L 6.479 15.177 L 6.503 15.189 L 6.527 15.202 L 6.551 15.202 L 6.575 15.214 L 6.598 15.214 L 6.646 15.24 L 6.682 15.24 L 6.717 15.252 L 6.765 15.265 L 6.801 15.265 L 6.836 15.277 L 6.872 15.277 L 6.919 15.29 L 6.955 15.29 L 6.967 15.315 L 7.062 15.315 L 7.098 15.327 L 7.383 15.327 L 7.419 15.315 L 7.466 15.315 L 7.49 15.302 L 7.526 15.302 L 7.55 15.29 L 7.573 15.29 L 7.597 15.277 L 7.621 15.277 L 7.645 15.252 L 7.669 15.252 L 7.692 15.24 L 7.704 15.24 L 7.728 15.214 L 7.752 15.214 L 7.776 15.202 L 7.787 15.189 L 7.811 15.189 L 7.835 15.164 L 7.847 15.164 L 7.871 15.139 L 7.883 15.139 L 7.906 15.114 L 7.918 15.114 L 7.93 15.089 L 7.954 15.076 L 7.966 15.064 L 7.978 15.051 L 8.001 15.039 L 8.001 15.013 L 8.025 15.013 L 8.037 14.988 L 8.049 14.976 L 8.061 14.963 L 8.073 14.938 L 8.085 14.938 L 8.097 14.913 L 8.108 14.9 L 8.12 14.875 L 8.132 14.875 L 8.144 14.85 L 8.144 14.825 L 8.168 14.825 L 8.168 14.8 L 8.18 14.787 L 8.192 14.762 L 8.192 14.75 L 8.204 14.737 L 8.215 14.712 L 8.215 14.699 L 8.227 14.687 L 8.227 14.662 L 8.251 14.649 L 8.251 14.611 L 8.275 14.586 L 8.275 14.549 L 8.287 14.511 L 8.299 14.486 L 8.299 14.448 L 8.311 14.423 L 8.322 14.398 L 8.322 14.335 L 8.334 14.31 L 8.334 14.26 L 8.346 14.235 L 8.346 14.134 L 8.358 14.109 L 8.358 14.096 L 8.406 14.096 L 8.418 14.109 L 8.548 14.109 L 8.548 14.096 L 8.572 14.096 L 8.572 14.059 L 8.608 14.059 L 8.608 14.046 L 8.62 14.046 L 8.62 14.034 L 8.632 14.034 L 8.632 14.021 L 8.644 13.996 L 8.655 13.996 L 8.667 13.971 L 8.667 13.958 L 8.691 13.933 L 8.691 13.921 L 8.703 13.895 L 8.703 13.883 L 8.715 13.858 L 8.715 13.845 L 8.727 13.82 L 8.727 13.795 L 8.739 13.782 L 8.739 13.757 L 8.751 13.732 L 8.751 13.707 L 8.762 13.694 L 8.762 13.619 L 8.774 13.607 L 8.774 13.519 L 8.786 13.481 L 8.786 13.255 L 9.856 12.84 L 9.88 12.853 L 9.916 12.878 L 9.94 12.891 L 9.975 12.916 L 9.999 12.928 L 10.023 12.953 L 10.047 12.966 L 10.082 12.978 L 10.106 12.991 L 10.13 13.016 L 10.154 13.016 L 10.177 13.041 L 10.201 13.041 L 10.237 13.054 L 10.261 13.066 L 10.284 13.079 L 10.308 13.079 L 10.332 13.092 L 10.344 13.104 L 10.368 13.104 L 10.391 13.117 L 10.415 13.117 L 10.439 13.129 L 10.475 13.129 L 10.498 13.142 L 10.784 13.142 L 10.784 13.129 L 10.819 13.129 L 10.843 13.117 L 10.855 13.117 L 10.867 13.104 L 10.891 13.104 L 10.891 13.092 L 10.915 13.092 L 10.926 13.066 L 10.95 13.066 L 10.962 13.041 L 10.986 13.041 L 10.998 13.016 L 11.01 13.016 L 11.022 13.004 L 11.033 13.004 L 11.045 12.978 L 11.057 12.978 L 11.069 12.966 L 11.081 12.953 L 11.093 12.941 L 11.093 12.928 L 11.117 12.928 L 11.117 12.903 L 11.129 12.903 L 11.14 12.878 L 11.152 12.865 L 11.176 12.84 L 11.188 12.815 L 11.212 12.79 L 11.212 12.765 L 11.236 12.74 L 11.248 12.715 L 11.259 12.69 L 11.271 12.664 L 11.271 12.639 L 11.295 12.627 L 11.295 12.602 L 11.307 12.577 L 11.319 12.551 L 11.319 12.539 L 11.331 12.514 L 11.331 12.501 L 11.343 12.476 L 11.355 12.438 L 11.355 12.413 L 11.366 12.388 L 12.08 12.149 L 12.068 12.162 L 12.068 12.187 L 12.044 12.212 L 12.044 12.25 L 12.032 12.3 L 12.032 12.325 L 12.02 12.35 L 12.02 12.376 L 12.008 12.401 L 12.008 12.426 L 11.997 12.463 L 11.997 12.489 L 11.985 12.526 L 11.985 12.564 L 11.973 12.589 L 11.973 12.664 L 11.961 12.702 L 11.961 13.117 L 11.973 13.129 L 11.973 13.192 L 11.985 13.205 L 11.985 13.23 L 11.997 13.255 L 11.997 13.267 L 12.008 13.293 L 12.008 13.305 L 12.02 13.33 L 12.02 13.343 L 12.032 13.368 L 12.032 13.38 L 12.044 13.406 L 12.056 13.418 L 12.056 13.443 L 12.08 13.456 L 12.08 13.468 L 12.092 13.494 L 12.104 13.506 L 12.116 13.531 L 12.127 13.544 L 12.139 13.556 L 12.151 13.581 L 12.163 13.581 L 12.175 13.607 L 12.187 13.619 L 12.199 13.644 L 12.223 13.644 L 12.223 13.669 L 12.246 13.682 L 12.258 13.694 L 12.282 13.707 L 12.294 13.732 L 12.318 13.732 L 12.33 13.757 L 12.353 13.757 L 12.365 13.782 L 12.389 13.782 L 12.413 13.808 L 12.437 13.808 L 12.448 13.82 L 12.472 13.833 L 12.496 13.845 L 12.52 13.845 L 12.544 13.858 L 12.567 13.87 L 12.591 13.87 L 12.615 13.883 L 12.651 13.895 L 12.674 13.895 L 12.698 13.908 L 12.722 13.908 L 12.758 13.921 L 12.817 13.921 L 12.853 13.933 L 12.96 13.933 L 12.995 13.946 L 13.257 13.946 L 13.281 13.933 L 13.34 13.933 L 13.376 13.921 L 13.4 13.921 L 13.423 13.908 L 13.447 13.895 L 13.471 13.895 L 13.507 13.883 L 13.53 13.87 L 13.554 13.87 L 13.578 13.845 L 13.59 13.845 L 13.614 13.833 L 13.637 13.82 L 13.661 13.808 L 13.685 13.795 L 13.697 13.782 L 13.721 13.77 L 13.744 13.745 L 13.756 13.745 L 13.78 13.72 L 13.792 13.72 L 13.816 13.694 L 13.828 13.682 L 13.851 13.657 L 13.863 13.657 L 13.875 13.632 L 13.899 13.607 L 13.911 13.594 L 13.923 13.581 L 13.935 13.556 L 13.947 13.544 L 13.97 13.519 L 13.97 13.506 L 13.994 13.481 L 13.994 13.468 L 14.018 13.443 L 14.018 13.431 L 14.042 13.406 L 14.042 13.393 L 14.054 13.368 L 14.066 13.355 L 14.077 13.33 L 14.077 13.305 L 14.089 13.293 L 14.101 13.267 L 14.101 13.242 L 14.125 13.23 L 14.125 13.192 L 14.137 13.167 L 14.149 13.142 L 14.149 13.129 L 14.161 13.104 L 14.161 13.079 L 14.173 13.066 L 14.173 13.016 L 14.184 13.004 L 14.184 12.978 L 14.196 12.941 L 14.208 12.903 L 14.208 12.853 L 14.22 12.815 L 14.22 12.74 L 14.232 12.702 L 14.232 12.564 L 14.244 12.539 L 14.244 12.275 L 14.268 12.275 L 14.303 12.288 L 14.375 12.288 L 14.398 12.3 L 14.755 12.3 L 14.779 12.288 L 14.803 12.288 L 14.826 12.275 L 14.862 12.275 L 14.886 12.263 L 14.91 12.263 L 14.934 12.25 L 14.957 12.237 L 14.981 12.237 L 14.993 12.212 L 15.017 12.212 L 15.041 12.2 L 15.064 12.187 L 15.088 12.175 L 15.1 12.162 L 15.124 12.162 L 15.148 12.137 L 15.159 12.137 L 15.183 12.112 L 15.207 12.099 L 15.219 12.087 L 15.243 12.074 L 15.255 12.062 L 15.278 12.036 L 15.29 12.036 L 15.302 12.011 L 15.326 11.999 L 15.338 11.974 L 15.362 11.974 L 15.362 11.948 L 15.385 11.936 L 15.397 11.911 L 15.421 11.898 L 15.421 11.873 L 15.445 11.861 L 15.457 11.848 L 15.469 11.823 L 15.48 11.81 L 15.492 11.785 L 15.504 11.773 L 15.516 11.747 L 15.528 11.735 L 15.54 11.71 L 15.552 11.697 L 15.564 11.672 L 15.564 11.66 L 15.587 11.634 L 15.587 11.622 L 15.599 11.597 L 15.611 11.584 L 15.623 11.559 L 15.623 11.547 L 15.635 11.521 L 15.647 11.509 L 15.647 11.484 L 15.671 11.446 L 15.683 11.408 L 15.694 11.371 L 15.718 11.333 L 15.718 11.295 L 15.742 11.258 L 15.742 11.232 L 15.754 11.195 L 15.766 11.157 L 15.766 11.132 L 15.778 11.094 L 15.778 11.069 L 15.79 11.032 L 15.79 11.006 L 15.802 10.981 L 15.802 10.956 L 15.813 10.931 L 15.813 10.868 L 15.825 10.831 L 15.825 10.793 L 15.92 10.768 L 16.004 10.743 L 16.087 10.717 L 16.17 10.692 L 16.241 10.655 L 16.325 10.63 L 16.396 10.604 L 16.479 10.579 L 16.551 10.554 L 16.622 10.529 L 16.693 10.504 L 16.765 10.479 L 16.824 10.454 L 16.895 10.429 L 16.967 10.403 L 17.026 10.378 L 17.086 10.353 L 17.145 10.328 L 17.205 10.303 L 17.264 10.278 L 17.323 10.265 L 17.383 10.24 L 17.43 10.215 L 17.49 10.19 L 17.537 10.165 L 17.585 10.14 L 17.645 10.115 L 17.692 10.089 L 17.74 10.077 L 17.775 10.052 L 17.823 10.027 L 17.87 10.001 L 17.906 9.989 L 17.954 9.964 L 17.989 9.939 L 18.025 9.914 L 18.073 9.901 L 18.108 9.876 L 18.144 9.851 L 18.18 9.826 L 18.215 9.813 L 18.239 9.788 L 18.275 9.775 L 18.31 9.75 L 18.334 9.725 L 18.37 9.713 L 18.394 9.687 L 18.417 9.675 L 18.441 9.65 L 18.465 9.625 L 18.501 9.612 L 18.512 9.587 L 18.536 9.574 L 18.56 9.549 L 18.584 9.537 L 18.608 9.524 L 18.62 9.499 L 18.643 9.486 L 18.655 9.461 L 18.679 9.449 L 18.691 9.436 L 18.703 9.411 L 18.727 9.399 L 18.738 9.386 L 18.75 9.361 L 18.762 9.348 L 18.774 9.336 L 18.786 9.311 L 18.798 9.311 L 18.81 9.286 L 18.81 9.273 L 18.822 9.26 L 18.834 9.235 L 18.857 9.21 L 18.857 9.185 L 18.869 9.172 L 18.869 9.16 L 18.881 9.147 L 18.881 9.122 L 18.893 9.11 L 18.893 9.072 L 18.905 9.059 L 18.905 8.884 L 18.893 8.871 L 18.893 8.858 L 18.881 8.846 L 18.881 8.833 L 18.857 8.833 L 18.857 8.821 L 18.834 8.745 L 18.834 8.683 L 18.81 8.607 L 18.786 8.544 L 18.774 8.469 L 18.75 8.406 L 18.738 8.343 L 18.715 8.268 L 18.703 8.205 L 18.679 8.142 L 18.667 8.08 L 18.643 8.004 L 18.631 7.941 L 18.608 7.879 L 18.584 7.816 L 18.56 7.753 L 18.548 7.69 L 18.524 7.627 L 18.501 7.565 L 18.477 7.502 L 18.453 7.439 L 18.429 7.389 L 18.417 7.326 L 18.394 7.263 L 18.37 7.2 L 18.346 7.15 L 18.322 7.087 L 18.287 7.024 L 18.263 6.974 L 18.239 6.911 L 18.215 6.861 L 18.191 6.798 L 18.168 6.748 L 18.144 6.698 L 18.108 6.635 L 18.084 6.585 L 18.061 6.535 L 18.037 6.472 L 18.001 6.422 L 17.977 6.371 L 17.954 6.321 L 17.918 6.271 L 17.894 6.221 L 17.859 6.17 L 17.835 6.12 L 17.799 6.07 L 17.775 6.02 L 17.752 5.969 L 17.716 5.919 L 17.68 5.869 L 17.656 5.819 L 17.621 5.768 L 17.597 5.731 L 17.561 5.68 L 17.537 5.63 L 17.502 5.593 L 17.466 5.542 L 17.442 5.492 L 17.407 5.454 L 17.371 5.404 L 17.335 5.366 L 17.312 5.316 L 17.276 5.278 L 17.24 5.228 L 17.205 5.191 L 17.181 5.153 L 17.145 5.103 L 17.109 5.065 L 17.074 5.027 L 17.038 4.99 L 17.002 4.939 L 16.979 4.902 L 16.943 4.864 L 16.907 4.826 L 16.872 4.789 L 16.836 4.751 L 16.8 4.713 L 16.765 4.676 L 16.729 4.638 L 16.693 4.6 L 16.658 4.562 L 16.622 4.525 L 16.586 4.487 L 16.551 4.449 L 16.515 4.424 L 16.479 4.387 L 16.444 4.349 L 16.408 4.311 L 16.372 4.286 L 16.337 4.248 L 16.301 4.211 L 16.265 4.186 L 16.23 4.148 L 16.194 4.123 L 16.158 4.085 L 16.123 4.06 L 16.087 4.022 L 16.051 3.997 L 16.016 3.96 L 15.98 3.934 L 15.944 3.897 L 15.897 3.872 L 15.861 3.846 L 15.825 3.809 L 15.79 3.784 L 15.754 3.759 L 15.718 3.733 L 15.683 3.696 L 15.647 3.671 L 15.611 3.646 L 15.564 3.62 L 15.528 3.595 L 15.492 3.57 L 15.457 3.545 L 15.421 3.52 L 15.385 3.495 L 15.35 3.47 L 15.314 3.445 L 15.278 3.419 L 15.243 3.394 L 15.195 3.369 L 15.159 3.344 L 15.088 3.306 L 15.017 3.256 L 14.945 3.206 L 14.874 3.168 L 14.803 3.131 L 14.731 3.093 L 14.66 3.043 L 14.589 3.005 L 14.517 2.967 L 14.446 2.93 L 14.375 2.904 L 14.303 2.867 L 14.232 2.829 L 14.161 2.804 L 14.101 2.754 L 14.042 2.754 L 13.97 2.716 L 13.899 2.691 L 13.84 2.666 L 13.768 2.641 L 13.709 2.615 L 13.649 2.59 L 13.578 2.565 L 13.519 2.54 L 13.459 2.515 L 13.4 2.49 L 13.34 2.477 L 13.281 2.452 L 13.221 2.427 L 13.162 2.415 L 13.114 2.402 L 13.055 2.377 L 13.007 2.364 L 12.948 2.352 L 12.9 2.327 L 12.853 2.327 L 12.793 2.301 L 12.746 2.301 L 12.698 2.276 L 12.674 2.276 L 12.627 2.251 L 12.555 2.251 L 12.52 2.239 L 12.472 2.226 L 12.437 2.226 L 12.365 2.201 L 12.294 2.188 L 12.234 2.176 L 12.175 2.163 L 12.127 2.163 L 12.092 2.151 L 12.056 2.151 L 12.032 2.138 L 11.913 2.138 L 11.878 2.126 L 11.604 2.126 L 11.58 2.138 L 11.509 2.138 L 11.485 2.151 L 11.45 2.151 L 11.426 2.163 L 11.39 2.163 L 11.366 2.176 L 11.331 2.176 L 11.307 2.188 L 11.283 2.201 L 11.248 2.201 L 11.224 2.214 L 11.2 2.226 L 11.176 2.226 L 11.152 2.251 L 11.129 2.251 L 11.105 2.264 L 11.081 2.276 L 11.057 2.289 L 11.033 2.301 L 11.01 2.314 L 10.986 2.327 L 10.962 2.339 L 10.95 2.352 L 10.926 2.364 L 10.903 2.377 L 10.879 2.389 L 10.855 2.402 L 10.843 2.415 L 10.819 2.44 L 10.796 2.44 L 10.784 2.465 L 10.76 2.477 L 10.748 2.49 L 10.724 2.515 L 10.712 2.515 L 10.689 2.54 L 10.677 2.553 L 10.653 2.578 L 10.641 2.603 L 10.617 2.628 L 10.605 2.628 L 10.594 2.653 L 10.57 2.678 L 10.546 2.703 L 10.534 2.729 L 10.522 2.729 L 10.498 2.754 L 10.487 2.779 L 10.463 2.779 L 10.463 2.804 L 10.439 2.829 L 10.439 2.842 L 10.415 2.854 L 10.415 2.879 L 10.403 2.892 L 10.38 2.93 L 10.356 2.967 L 10.332 2.992 L 10.32 3.03 L 10.308 3.068 L 10.284 3.093 L 10.273 3.131 L 10.261 3.156 L 10.249 3.193 L 10.237 3.218 L 10.225 3.244 L 10.213 3.269 L 10.201 3.306 L 10.201 3.331 L 10.177 3.357 L 10.177 3.394 L 10.165 3.419 L 10.165 3.432 L 10.142 3.47 L 10.142 3.532 L 10.106 3.545 L 10.094 3.545 Z " fill-rule="evenodd" fill="rgb(207,207,207)"/><path d=" M 17.954 9.235 C 17.954 9.235 18.477 8.607 17.859 7.565 C 16.907 5.982 15.599 4.512 15.599 4.512 C 15.599 4.512 14.375 3.294 13.566 3.055 C 12.758 2.829 12.258 2.578 12.258 2.578 C 12.258 2.578 11.664 2.465 11.14 2.967 C 10.617 3.47 10.855 3.796 10.891 3.872 C 11.033 4.186 15.421 9.047 15.421 9.047 L 16.075 9.512 L 17.966 9.235 L 17.954 9.235 Z " fill-rule="evenodd" fill="rgb(199,116,86)"/><path d=" M 15.183 10.303 L 17.966 9.21 C 17.966 9.21 17.977 7.464 16.729 7.904 C 16.123 8.105 15.659 9.323 15.659 9.323 L 15.362 9.625 L 15.183 10.303 Z " fill-rule="evenodd" fill="rgb(205,172,139)"/><path d=" M 10.843 3.834 C 10.843 3.834 4.946 11.647 4.351 11.923 C 3.757 12.212 3.566 12.752 3.4 13.129 C 3.222 13.506 3.055 13.531 3.019 13.556 C 2.972 13.581 2.782 14.021 2.96 14.172 C 3.126 14.323 3.126 14.26 3.079 14.473 C 3.043 14.687 2.663 15.353 2.96 15.579 C 3.245 15.83 3.602 15.704 3.673 15.503 C 3.769 15.302 3.792 14.385 3.864 14.247 C 3.923 14.109 4.03 13.808 4.363 13.782 C 4.72 13.782 4.506 13.757 4.553 13.908 C 4.589 14.046 5.088 14.147 5.065 13.833 C 5.029 13.519 5.1 13.531 5.136 13.644 C 5.183 13.77 5.421 14.096 5.719 13.908 C 5.968 13.757 5.992 13.456 5.968 13.406 C 5.968 13.406 6.515 13.368 6.741 13.129 C 6.741 13.129 6.67 14.009 6.503 14.096 C 6.313 14.197 6.384 14.524 6.622 14.649 C 6.86 14.775 7.454 14.812 7.573 14.348 C 7.692 13.895 7.478 13.293 7.645 12.991 C 7.823 12.677 7.764 13.041 7.787 13.217 C 7.811 13.393 8.334 13.519 8.322 13.066 C 8.299 12.627 8.287 12.539 8.548 12.539 C 8.81 12.539 9.44 12.564 9.868 12.099 C 10.082 11.873 10.142 12.124 10.165 12.25 C 10.201 12.376 10.641 12.966 10.998 12.074 L 11.152 11.634 C 11.152 11.634 11.711 11.346 11.997 11.346 C 12.116 11.346 12.08 11.471 12.092 11.509 C 12.092 11.547 12.234 12.049 12.615 11.559 C 12.983 11.057 12.995 10.956 12.912 11.295 L 12.508 12.891 C 12.508 12.891 12.437 13.255 12.734 13.406 C 13.031 13.569 13.507 13.418 13.519 13.029 C 13.53 12.627 13.614 11.145 13.709 11.094 C 13.804 11.044 13.887 10.956 13.923 11.107 C 13.947 11.27 13.923 11.371 14.042 11.32 C 14.161 11.27 14.161 10.843 14.161 10.843 C 14.161 10.843 14.28 10.717 14.28 10.881 C 14.28 11.044 14.137 11.32 14.351 11.446 C 14.553 11.572 15.005 11.697 15.088 11.119 C 15.171 10.542 15.255 10.127 15.29 10.165 C 15.326 10.19 15.124 9.662 15.48 9.461 C 15.837 9.248 15.885 9.248 15.837 9.122 C 15.79 8.997 15.35 7.188 15.076 6.949 C 14.815 6.71 14.256 6.547 14.089 6.17 C 13.688 5.486 13.158 4.896 12.532 4.437 C 12.175 4.349 11.616 4.047 11.473 3.947 C 11.343 3.859 11.236 3.796 11.117 3.821 L 10.831 3.821 L 10.843 3.834 Z " fill-rule="evenodd" fill="rgb(238,193,67)"/><path d=" M 5.98 10.165 C 6.741 9.976 7.466 10.316 7.597 10.906 C 7.716 11.496 7.205 12.124 6.444 12.313 C 5.683 12.501 4.958 12.162 4.827 11.572 C 4.708 10.981 5.219 10.353 5.98 10.165 Z  M 10.641 10.429 C 10.867 10.265 11.117 10.202 11.117 10.516 L 11.117 10.567 C 11.129 10.667 11.081 10.793 10.974 10.931 C 10.748 11.27 10.261 11.521 9.856 11.685 L 9.797 11.71 C 8.965 12.049 8.37 12.175 8.251 11.873 C 8.144 11.572 8.548 10.818 9.428 10.68 C 9.94 10.604 10.344 10.479 10.641 10.429 Z  M 8.537 6.786 C 9.345 6.698 10.047 7.163 10.118 7.816 C 10.189 8.482 9.583 9.085 8.774 9.185 C 7.966 9.273 7.252 8.808 7.181 8.142 C 7.122 7.477 7.728 6.874 8.537 6.786 Z  M 12.175 6.723 C 13.079 6.459 13.959 6.761 14.113 7.414 C 14.28 8.042 13.685 8.783 12.781 9.047 C 11.878 9.298 11.01 8.997 10.843 8.356 C 10.677 7.715 11.283 6.974 12.175 6.723 Z  M 10.689 3.859 C 11.438 3.646 12.211 4.035 12.389 4.738 C 12.567 5.429 12.104 6.183 11.343 6.396 C 10.582 6.623 9.821 6.233 9.63 5.517 C 9.452 4.826 9.928 4.085 10.689 3.859 Z " fill-rule="evenodd" fill="rgb(231,47,47)"/><path d=" M 10.712 3.733 C 10.69 3.639 10.69 3.539 10.712 3.445 C 10.725 3.384 10.745 3.324 10.772 3.269 C 10.842 3.135 10.934 3.015 11.045 2.917 C 11.191 2.77 11.36 2.651 11.545 2.565 L 11.723 2.502 L 11.783 2.49 C 11.938 2.451 12.099 2.439 12.258 2.452 L 12.282 2.452 L 12.294 2.465 L 12.365 2.502 C 12.722 2.672 13.092 2.811 13.471 2.917 L 13.59 2.955 L 13.637 2.967 L 13.756 3.005 L 14.113 3.193 C 14.669 3.539 15.187 3.947 15.659 4.412 L 15.659 4.424 C 16.267 5.108 16.831 5.834 17.347 6.597 C 17.528 6.861 17.702 7.129 17.87 7.401 L 17.989 7.577 C 18.163 7.89 18.257 8.245 18.263 8.607 C 18.263 8.733 18.227 8.871 18.191 8.997 C 18.165 9.099 18.117 9.194 18.049 9.273 C 18.036 9.29 18.02 9.303 18.001 9.311 L 17.989 9.311 L 15.338 10.366 L 15.314 10.454 C 15.271 10.631 15.239 10.812 15.219 10.994 L 15.195 11.17 L 15.195 11.207 C 15.183 11.273 15.163 11.336 15.136 11.396 C 15.117 11.441 15.093 11.483 15.064 11.521 C 15.016 11.578 14.954 11.621 14.886 11.647 C 14.764 11.695 14.63 11.7 14.505 11.66 C 14.486 11.656 14.466 11.652 14.446 11.647 L 14.375 11.609 C 14.333 11.588 14.293 11.563 14.256 11.534 C 14.209 11.499 14.172 11.451 14.149 11.396 L 14.125 11.408 L 14.101 11.433 L 14.054 11.446 C 14.015 11.459 13.973 11.459 13.935 11.446 L 13.899 11.433 L 13.875 11.408 C 13.858 11.386 13.846 11.36 13.84 11.333 L 13.828 11.283 L 13.816 11.182 L 13.792 11.182 L 13.792 11.232 C 13.768 11.323 13.753 11.415 13.744 11.509 C 13.685 11.929 13.65 12.353 13.637 12.778 C 13.636 12.87 13.636 12.962 13.637 13.054 L 13.637 13.066 C 13.627 13.157 13.594 13.244 13.542 13.318 L 13.495 13.38 C 13.36 13.533 13.169 13.615 12.972 13.607 C 12.932 13.606 12.892 13.602 12.853 13.594 C 12.731 13.572 12.619 13.511 12.532 13.418 C 12.472 13.347 12.431 13.26 12.413 13.167 C 12.395 13.076 12.395 12.982 12.413 12.891 L 12.413 12.878 L 12.71 11.672 L 12.722 11.609 C 12.71 11.626 12.698 11.642 12.686 11.66 L 12.651 11.697 C 12.639 11.71 12.627 11.723 12.615 11.735 C 12.552 11.813 12.47 11.869 12.377 11.898 C 12.32 11.906 12.263 11.898 12.211 11.873 C 12.131 11.83 12.068 11.759 12.032 11.672 C 12.019 11.644 12.007 11.614 11.997 11.584 L 11.997 11.484 L 11.961 11.484 C 11.901 11.484 11.842 11.509 11.794 11.521 C 11.611 11.578 11.432 11.649 11.259 11.735 L 11.248 11.735 L 11.105 12.137 L 11.081 12.187 L 11.069 12.225 L 11.033 12.3 L 10.998 12.376 L 10.962 12.426 C 10.904 12.526 10.822 12.608 10.724 12.664 C 10.69 12.677 10.654 12.686 10.617 12.69 C 10.578 12.695 10.538 12.695 10.498 12.69 C 10.374 12.668 10.261 12.601 10.177 12.501 C 10.156 12.473 10.136 12.444 10.118 12.413 C 10.098 12.382 10.082 12.348 10.07 12.313 L 10.058 12.25 C 10.05 12.215 10.038 12.182 10.023 12.149 C 10.005 12.159 9.989 12.172 9.975 12.187 L 9.916 12.25 C 9.669 12.485 9.355 12.626 9.024 12.652 C 8.894 12.67 8.763 12.679 8.632 12.677 L 8.501 12.677 L 8.453 12.69 L 8.43 12.69 L 8.43 12.752 L 8.418 12.828 L 8.418 13.129 C 8.423 13.171 8.423 13.213 8.418 13.255 C 8.393 13.341 8.338 13.413 8.263 13.456 C 8.155 13.523 8.025 13.537 7.906 13.494 C 7.882 13.483 7.858 13.47 7.835 13.456 C 7.779 13.426 7.733 13.377 7.704 13.318 L 7.692 13.293 L 7.692 13.531 L 7.704 13.808 C 7.718 13.992 7.71 14.178 7.68 14.36 L 7.657 14.448 C 7.632 14.527 7.591 14.6 7.538 14.662 C 7.514 14.662 7.502 14.687 7.49 14.699 C 7.357 14.806 7.194 14.864 7.026 14.863 C 6.963 14.865 6.899 14.861 6.836 14.85 C 6.78 14.842 6.724 14.83 6.67 14.812 C 6.564 14.778 6.469 14.713 6.396 14.624 C 6.383 14.604 6.371 14.583 6.361 14.561 L 6.337 14.511 C 6.281 14.408 6.268 14.285 6.301 14.172 L 6.325 14.134 C 6.344 14.094 6.373 14.059 6.408 14.034 L 6.432 14.021 L 6.444 14.021 L 6.444 14.009 C 6.463 13.982 6.479 13.952 6.491 13.921 L 6.527 13.795 L 6.61 13.38 L 6.575 13.393 C 6.422 13.457 6.262 13.499 6.099 13.519 L 6.087 13.519 L 6.087 13.556 L 6.075 13.581 C 6.055 13.672 6.019 13.757 5.968 13.833 C 5.925 13.903 5.868 13.963 5.802 14.009 C 5.689 14.096 5.542 14.12 5.409 14.071 C 5.319 14.037 5.238 13.981 5.172 13.908 L 5.172 13.946 C 5.158 14.006 5.124 14.06 5.076 14.096 C 5.007 14.149 4.924 14.175 4.839 14.172 C 4.799 14.173 4.759 14.168 4.72 14.159 C 4.679 14.152 4.639 14.139 4.601 14.122 C 4.535 14.097 4.48 14.048 4.446 13.983 C 4.438 13.959 4.434 13.934 4.434 13.908 L 4.351 13.908 C 4.277 13.916 4.207 13.946 4.149 13.996 C 4.081 14.062 4.028 14.143 3.994 14.235 L 3.971 14.272 L 3.959 14.31 C 3.948 14.351 3.94 14.393 3.935 14.436 L 3.911 14.586 L 3.876 15.026 L 3.852 15.177 L 3.828 15.39 L 3.804 15.491 L 3.78 15.566 C 3.741 15.654 3.673 15.725 3.59 15.767 C 3.462 15.838 3.315 15.86 3.174 15.83 C 3.049 15.801 2.933 15.736 2.841 15.641 C 2.81 15.605 2.785 15.562 2.77 15.516 C 2.733 15.398 2.729 15.272 2.758 15.152 C 2.767 15.101 2.779 15.05 2.793 15.001 L 2.829 14.888 L 2.877 14.75 L 2.948 14.574 L 2.948 14.536 L 2.972 14.473 L 2.972 14.423 L 2.996 14.373 L 2.924 14.31 L 2.889 14.272 L 2.865 14.26 C 2.851 14.244 2.839 14.228 2.829 14.209 C 2.782 14.122 2.766 14.02 2.782 13.921 L 2.782 13.87 L 2.793 13.808 C 2.804 13.755 2.82 13.705 2.841 13.657 C 2.854 13.622 2.87 13.588 2.889 13.556 C 2.904 13.528 2.924 13.502 2.948 13.481 L 2.972 13.456 C 3.004 13.441 3.036 13.424 3.067 13.406 C 3.108 13.379 3.144 13.345 3.174 13.305 C 3.216 13.247 3.252 13.183 3.281 13.117 L 3.376 12.903 C 3.481 12.68 3.608 12.469 3.757 12.275 C 3.899 12.098 4.072 11.953 4.268 11.848 L 4.292 11.848 L 4.315 11.823 C 4.344 11.804 4.372 11.783 4.399 11.76 L 4.458 11.697 C 4.541 11.617 4.62 11.533 4.696 11.446 C 4.686 11.337 4.695 11.226 4.72 11.119 C 4.755 10.994 4.815 10.868 4.898 10.743 C 4.993 10.604 5.124 10.479 5.255 10.366 C 5.409 10.253 5.576 10.177 5.73 10.115 L 5.849 10.077 C 6.281 9.536 6.709 8.991 7.133 8.444 C 7.095 8.335 7.071 8.221 7.062 8.105 C 7.051 7.946 7.075 7.787 7.133 7.64 C 7.24 7.376 7.419 7.15 7.645 6.987 C 7.828 6.854 8.034 6.76 8.251 6.71 L 8.299 6.71 L 8.525 6.66 L 9.476 5.404 C 9.44 5.106 9.503 4.804 9.654 4.55 C 9.828 4.218 10.105 3.961 10.439 3.821 L 10.641 3.746 L 10.701 3.746 L 10.712 3.733 Z  M 12.448 4.55 C 12.494 4.679 12.522 4.814 12.532 4.952 C 12.549 5.206 12.495 5.459 12.377 5.68 L 12.282 5.856 C 12.053 6.186 11.72 6.417 11.343 6.509 C 10.847 6.661 10.313 6.543 9.916 6.195 C 9.783 6.077 9.674 5.932 9.595 5.768 L 9.571 5.693 L 8.822 6.66 L 8.917 6.66 C 9.226 6.698 9.547 6.811 9.797 7.024 C 9.979 7.177 10.115 7.382 10.189 7.615 C 10.256 7.855 10.243 8.112 10.154 8.343 C 10.047 8.595 9.856 8.821 9.63 8.971 C 9.322 9.194 8.957 9.312 8.584 9.311 L 8.406 9.311 C 8.081 9.283 7.772 9.156 7.514 8.946 C 7.419 8.867 7.334 8.774 7.264 8.67 L 6.408 9.75 L 6.206 10.001 C 6.372 10.001 6.551 10.001 6.717 10.027 C 7.02 10.071 7.298 10.227 7.502 10.466 C 7.629 10.63 7.704 10.832 7.716 11.044 C 7.721 11.141 7.713 11.238 7.692 11.333 C 7.615 11.615 7.452 11.862 7.229 12.036 C 7.084 12.166 6.919 12.268 6.741 12.338 C 6.345 12.495 5.913 12.517 5.504 12.401 C 5.235 12.318 5 12.141 4.839 11.898 C 4.81 11.846 4.786 11.792 4.767 11.735 L 4.755 11.735 C 4.649 11.841 4.538 11.941 4.422 12.036 L 4.399 12.049 L 4.363 12.074 L 4.315 12.099 C 4.217 12.154 4.125 12.222 4.042 12.3 C 3.923 12.426 3.828 12.551 3.745 12.69 C 3.693 12.779 3.646 12.872 3.602 12.966 L 3.483 13.217 L 3.483 13.255 L 3.447 13.305 C 3.39 13.419 3.308 13.518 3.21 13.594 C 3.176 13.619 3.14 13.64 3.103 13.657 L 3.079 13.707 L 3.043 13.782 C 3.024 13.839 3.012 13.898 3.008 13.958 L 3.008 14.009 C 3.008 14.046 3.008 14.071 3.031 14.096 L 3.079 14.134 L 3.138 14.184 L 3.162 14.197 L 3.198 14.247 C 3.222 14.272 3.222 14.31 3.222 14.348 L 3.222 14.473 L 3.198 14.524 C 3.198 14.574 3.162 14.637 3.15 14.687 L 3.079 14.875 C 3.035 14.99 2.999 15.107 2.972 15.227 L 2.972 15.428 L 3.008 15.478 L 3.043 15.516 L 3.115 15.554 C 3.21 15.616 3.329 15.629 3.447 15.591 C 3.494 15.574 3.535 15.543 3.566 15.503 L 3.59 15.466 L 3.602 15.428 L 3.614 15.353 L 3.661 15.051 L 3.697 14.649 C 3.697 14.561 3.721 14.473 3.733 14.398 C 3.741 14.33 3.753 14.263 3.769 14.197 L 3.816 14.109 L 3.864 14.021 C 3.942 13.869 4.075 13.756 4.232 13.707 L 4.351 13.682 L 4.625 13.682 L 4.636 13.694 L 4.648 13.694 L 4.672 13.732 L 4.684 13.757 L 4.684 13.845 L 4.66 13.883 L 4.684 13.895 L 4.72 13.908 L 4.767 13.933 L 4.839 13.933 C 4.866 13.938 4.894 13.938 4.922 13.933 L 4.958 13.895 L 4.958 13.632 L 4.981 13.531 L 5.017 13.494 C 5.031 13.481 5.047 13.473 5.065 13.468 L 5.112 13.468 L 5.148 13.481 C 5.195 13.506 5.219 13.544 5.243 13.581 L 5.255 13.632 L 5.267 13.644 L 5.326 13.732 L 5.409 13.808 C 5.445 13.833 5.493 13.858 5.528 13.858 L 5.623 13.858 L 5.695 13.82 C 5.75 13.777 5.795 13.721 5.826 13.657 C 5.84 13.633 5.852 13.608 5.861 13.581 C 5.872 13.541 5.876 13.498 5.873 13.456 L 5.873 13.38 C 5.888 13.343 5.919 13.314 5.956 13.305 L 6.028 13.305 L 6.075 13.293 C 6.206 13.267 6.337 13.242 6.468 13.192 C 6.542 13.165 6.611 13.123 6.67 13.066 L 6.682 13.041 L 6.717 13.041 C 6.758 13.026 6.804 13.036 6.836 13.066 L 6.848 13.092 C 6.854 13.103 6.858 13.116 6.86 13.129 L 6.86 13.154 C 6.838 13.313 6.819 13.472 6.801 13.632 C 6.774 13.782 6.734 13.929 6.682 14.071 C 6.652 14.123 6.612 14.166 6.563 14.197 L 6.563 14.209 L 6.539 14.222 L 6.539 14.235 C 6.515 14.247 6.515 14.272 6.515 14.297 L 6.515 14.335 L 6.551 14.423 C 6.595 14.504 6.668 14.562 6.753 14.586 L 6.848 14.611 C 6.943 14.629 7.039 14.629 7.133 14.611 C 7.193 14.611 7.252 14.586 7.3 14.561 C 7.348 14.53 7.389 14.487 7.419 14.436 C 7.453 14.387 7.478 14.331 7.49 14.272 C 7.514 14.147 7.514 14.046 7.502 13.933 L 7.502 13.77 L 7.478 13.556 L 7.478 13.217 C 7.491 13.105 7.528 12.998 7.585 12.903 L 7.609 12.865 C 7.633 12.828 7.666 12.797 7.704 12.778 L 7.74 12.765 L 7.764 12.765 C 7.795 12.765 7.825 12.779 7.847 12.803 C 7.883 12.84 7.894 12.891 7.906 12.941 L 7.906 13.205 L 7.93 13.23 C 7.945 13.24 7.961 13.248 7.978 13.255 C 8.013 13.267 8.073 13.28 8.12 13.267 C 8.143 13.261 8.164 13.248 8.18 13.23 C 8.215 13.205 8.215 13.154 8.215 13.117 L 8.215 12.765 C 8.213 12.695 8.23 12.625 8.263 12.564 L 8.299 12.526 C 8.31 12.517 8.322 12.508 8.334 12.501 C 8.357 12.485 8.381 12.473 8.406 12.463 C 8.453 12.453 8.501 12.449 8.548 12.451 L 8.703 12.451 C 8.822 12.451 8.917 12.451 9.036 12.426 C 9.297 12.388 9.544 12.275 9.749 12.099 L 9.785 12.062 L 9.833 12.024 L 9.856 11.999 C 9.9 11.959 9.954 11.933 10.011 11.923 L 10.07 11.923 L 10.118 11.936 L 10.165 11.961 L 10.213 12.024 L 10.273 12.175 L 10.284 12.225 L 10.284 12.25 C 10.326 12.329 10.388 12.395 10.463 12.438 C 10.496 12.456 10.533 12.465 10.57 12.463 C 10.628 12.459 10.683 12.433 10.724 12.388 L 10.736 12.363 L 10.772 12.325 L 10.796 12.275 C 10.822 12.235 10.846 12.193 10.867 12.149 L 10.903 12.049 L 11.069 11.622 L 11.081 11.584 L 11.105 11.572 L 11.117 11.559 C 11.201 11.511 11.288 11.469 11.378 11.433 C 11.503 11.381 11.63 11.335 11.759 11.295 L 11.83 11.27 L 11.89 11.27 C 11.937 11.259 11.984 11.25 12.032 11.245 C 12.077 11.251 12.119 11.273 12.151 11.308 C 12.181 11.334 12.202 11.369 12.211 11.408 L 12.211 11.534 C 12.225 11.571 12.245 11.605 12.27 11.634 C 12.283 11.651 12.299 11.664 12.318 11.672 L 12.377 11.672 L 12.389 11.66 C 12.415 11.642 12.439 11.621 12.46 11.597 C 12.49 11.569 12.518 11.54 12.544 11.509 L 12.603 11.421 L 12.662 11.346 L 12.734 11.245 L 12.829 11.107 L 12.853 11.082 L 12.876 11.044 C 12.893 11.027 12.913 11.014 12.936 11.006 L 12.995 11.006 L 13.031 11.032 L 13.043 11.044 L 13.043 11.057 L 13.067 11.094 L 13.067 11.207 L 13.031 11.346 L 12.96 11.622 L 12.805 12.275 L 12.686 12.74 L 12.627 12.941 C 12.617 12.999 12.617 13.059 12.627 13.117 C 12.642 13.164 12.666 13.206 12.698 13.242 C 12.746 13.318 12.817 13.355 12.9 13.368 C 12.955 13.378 13.012 13.378 13.067 13.368 L 13.114 13.368 L 13.162 13.355 C 13.256 13.329 13.336 13.266 13.388 13.179 L 13.4 13.129 L 13.423 13.041 L 13.423 12.903 C 13.452 12.429 13.492 11.956 13.542 11.484 L 13.542 11.358 L 13.554 11.283 L 13.578 11.207 L 13.59 11.132 C 13.6 11.1 13.616 11.07 13.637 11.044 L 13.673 11.019 L 13.697 10.994 L 13.756 10.969 L 13.78 10.956 L 13.851 10.931 L 13.899 10.931 L 13.935 10.944 L 13.959 10.969 C 13.994 10.994 14.018 11.032 14.03 11.069 L 14.03 11.132 C 14.051 11.046 14.063 10.957 14.066 10.868 L 14.066 10.843 L 14.101 10.793 L 14.137 10.755 C 14.164 10.728 14.197 10.706 14.232 10.692 L 14.291 10.692 C 14.318 10.697 14.343 10.71 14.363 10.73 L 14.375 10.755 C 14.41 10.805 14.422 10.881 14.41 10.931 L 14.41 10.994 L 14.375 11.132 L 14.375 11.308 L 14.41 11.346 L 14.446 11.371 C 14.495 11.399 14.547 11.42 14.601 11.433 C 14.612 11.438 14.624 11.443 14.636 11.446 L 14.684 11.446 C 14.731 11.459 14.791 11.446 14.838 11.433 L 14.862 11.408 C 14.922 11.371 14.957 11.295 14.981 11.22 L 14.981 11.182 L 15.005 11.145 L 15.005 11.069 L 15.029 10.956 C 15.072 10.677 15.128 10.401 15.195 10.127 L 15.195 10.077 L 15.183 9.901 C 15.18 9.778 15.208 9.656 15.266 9.549 C 15.31 9.482 15.367 9.427 15.433 9.386 L 15.671 9.248 C 15.7 9.229 15.727 9.208 15.754 9.185 L 15.754 9.16 L 15.742 9.135 L 15.718 9.047 L 15.599 8.657 C 15.471 8.191 15.324 7.73 15.159 7.276 C 15.125 7.202 15.085 7.13 15.041 7.062 L 15.005 7.037 C 14.559 7.027 14.166 6.727 14.018 6.283 L 13.994 6.221 C 13.608 5.63 13.153 5.094 12.639 4.625 C 12.612 4.606 12.585 4.589 12.555 4.575 L 12.484 4.55 L 12.46 4.55 L 12.448 4.55 Z  M 5.992 10.29 C 5.785 10.344 5.588 10.433 5.409 10.554 C 5.29 10.642 5.195 10.743 5.1 10.856 C 5.036 10.951 4.987 11.057 4.958 11.17 C 4.914 11.317 4.914 11.475 4.958 11.622 C 4.977 11.684 5.005 11.744 5.041 11.798 C 5.16 11.974 5.338 12.087 5.516 12.162 L 5.611 12.187 L 5.742 12.225 C 5.868 12.25 5.995 12.258 6.123 12.25 C 6.497 12.222 6.854 12.073 7.145 11.823 L 7.217 11.747 C 7.378 11.58 7.479 11.357 7.502 11.119 C 7.505 11.017 7.489 10.914 7.454 10.818 C 7.42 10.734 7.372 10.658 7.312 10.592 C 7.236 10.51 7.148 10.442 7.05 10.391 C 6.927 10.313 6.789 10.266 6.646 10.253 C 6.436 10.218 6.222 10.227 6.016 10.278 L 5.992 10.278 L 5.992 10.29 Z  M 10.594 10.328 L 10.629 10.29 C 10.674 10.257 10.722 10.228 10.772 10.202 C 10.81 10.185 10.85 10.173 10.891 10.165 L 10.986 10.165 C 11.029 10.17 11.07 10.187 11.105 10.215 C 11.129 10.215 11.129 10.24 11.14 10.253 C 11.196 10.323 11.226 10.412 11.224 10.504 L 11.224 10.579 C 11.226 10.692 11.193 10.803 11.129 10.893 C 11.029 11.057 10.899 11.197 10.748 11.308 C 10.57 11.452 10.374 11.57 10.165 11.66 L 9.833 11.81 L 9.726 11.848 C 9.4 11.97 9.066 12.066 8.727 12.137 L 8.513 12.137 C 8.415 12.137 8.32 12.106 8.239 12.049 C 8.212 12.023 8.188 11.994 8.168 11.961 C 8.154 11.937 8.142 11.912 8.132 11.886 C 8.122 11.841 8.118 11.794 8.12 11.747 C 8.12 11.685 8.12 11.622 8.144 11.559 C 8.173 11.47 8.213 11.386 8.263 11.308 C 8.311 11.207 8.382 11.119 8.453 11.044 C 8.663 10.822 8.926 10.665 9.214 10.592 L 9.274 10.579 L 9.357 10.567 L 9.476 10.542 L 9.892 10.466 L 10.368 10.353 L 10.463 10.341 L 10.582 10.316 L 10.594 10.328 Z  M 10.284 10.63 C 9.958 10.711 9.629 10.778 9.297 10.831 C 8.996 10.9 8.728 11.078 8.537 11.333 C 8.459 11.429 8.398 11.54 8.358 11.66 L 8.358 11.835 L 8.37 11.861 C 8.394 11.886 8.43 11.911 8.465 11.911 L 8.501 11.911 L 8.525 11.923 C 8.56 11.927 8.596 11.927 8.632 11.923 L 8.774 11.923 L 8.869 11.898 L 9.06 11.848 L 9.06 11.835 C 9.077 11.818 9.097 11.805 9.119 11.798 L 9.202 11.76 C 9.473 11.582 9.735 11.389 9.987 11.182 C 10.03 11.139 10.069 11.093 10.106 11.044 C 10.12 11.034 10.133 11.021 10.142 11.006 L 10.142 10.944 C 10.143 10.901 10.151 10.858 10.165 10.818 C 10.188 10.769 10.216 10.723 10.249 10.68 L 10.284 10.63 Z  M 10.998 10.579 L 10.986 10.567 C 10.976 10.555 10.964 10.547 10.95 10.542 L 10.831 10.542 C 10.78 10.537 10.728 10.537 10.677 10.542 C 10.547 10.65 10.442 10.787 10.368 10.944 L 10.356 10.969 L 10.356 11.044 C 10.343 11.109 10.314 11.17 10.273 11.22 C 10.177 11.325 10.074 11.421 9.963 11.509 C 10.277 11.36 10.569 11.165 10.831 10.931 L 10.891 10.856 C 10.949 10.775 10.986 10.68 10.998 10.579 Z  M 15.409 10.102 L 15.433 10.077 L 16.907 9.499 L 17.859 9.122 C 17.843 8.944 17.811 8.767 17.763 8.595 C 17.747 8.531 17.727 8.468 17.704 8.406 C 17.639 8.25 17.532 8.119 17.395 8.029 C 17.321 7.988 17.24 7.962 17.157 7.954 C 17.07 7.946 16.982 7.95 16.895 7.967 L 16.872 7.967 C 16.806 7.984 16.742 8.009 16.681 8.042 C 16.613 8.079 16.549 8.126 16.491 8.18 C 16.408 8.255 16.348 8.343 16.277 8.431 C 16.136 8.608 16.016 8.802 15.92 9.009 L 15.92 9.034 L 15.944 9.097 L 15.956 9.135 L 15.956 9.16 L 15.968 9.235 L 15.968 9.273 L 15.956 9.298 C 15.921 9.353 15.871 9.397 15.813 9.424 L 15.778 9.449 L 15.742 9.474 C 15.654 9.531 15.567 9.59 15.48 9.65 L 15.445 9.675 C 15.4 9.75 15.379 9.838 15.385 9.926 L 15.385 9.989 L 15.397 10.052 L 15.409 10.102 Z  M 12.199 6.585 C 12.472 6.52 12.752 6.499 13.031 6.522 C 13.139 6.534 13.247 6.555 13.352 6.585 L 13.471 6.623 C 13.731 6.712 13.956 6.888 14.113 7.125 C 14.18 7.243 14.221 7.377 14.232 7.514 L 14.232 7.816 C 14.143 8.15 13.961 8.447 13.709 8.67 C 13.156 9.125 12.451 9.32 11.759 9.21 C 11.562 9.18 11.373 9.112 11.2 9.009 C 11.092 8.943 10.996 8.858 10.915 8.758 C 10.743 8.542 10.669 8.257 10.712 7.979 C 10.757 7.697 10.886 7.437 11.081 7.238 C 11.158 7.155 11.241 7.079 11.331 7.012 C 11.574 6.826 11.849 6.69 12.139 6.61 L 12.187 6.597 L 12.199 6.585 Z  M 8.513 6.911 L 8.322 6.937 C 8.168 6.974 8.025 7.037 7.883 7.112 C 7.764 7.2 7.645 7.288 7.538 7.414 C 7.457 7.506 7.393 7.612 7.347 7.728 C 7.255 7.981 7.281 8.265 7.419 8.494 C 7.555 8.712 7.756 8.876 7.99 8.959 C 8.144 9.027 8.309 9.065 8.477 9.072 C 8.665 9.086 8.855 9.065 9.036 9.009 C 9.233 8.954 9.419 8.86 9.583 8.733 C 9.779 8.576 9.922 8.355 9.987 8.105 L 10.011 7.967 C 10.02 7.789 9.974 7.612 9.88 7.464 C 9.816 7.358 9.736 7.265 9.642 7.188 C 9.31 6.954 8.909 6.855 8.513 6.911 Z  M 12.199 6.836 C 11.953 6.908 11.72 7.023 11.509 7.175 C 11.366 7.276 11.248 7.401 11.152 7.527 C 11.076 7.629 11.016 7.744 10.974 7.866 C 10.949 7.939 10.933 8.015 10.926 8.092 C 10.925 8.225 10.957 8.355 11.022 8.469 C 11.105 8.657 11.259 8.783 11.426 8.858 C 11.58 8.946 11.759 8.984 11.925 9.009 C 12.205 9.042 12.488 9.016 12.758 8.934 C 13.031 8.846 13.293 8.72 13.519 8.532 C 13.649 8.431 13.768 8.306 13.863 8.155 C 13.969 7.997 14.027 7.808 14.03 7.615 C 14.028 7.401 13.936 7.199 13.78 7.062 C 13.685 6.976 13.576 6.908 13.459 6.861 C 13.307 6.799 13.146 6.761 12.983 6.748 C 12.732 6.727 12.478 6.752 12.234 6.824 L 12.187 6.836 L 12.199 6.836 Z  M 18.025 8.77 C 18.055 8.617 18.055 8.459 18.025 8.306 C 17.986 8.092 17.91 7.887 17.799 7.703 C 17.732 7.578 17.661 7.457 17.585 7.339 L 17.419 7.087 C 16.935 6.338 16.402 5.624 15.825 4.952 L 15.54 4.613 L 15.528 4.588 C 15.054 4.126 14.536 3.717 13.982 3.369 C 13.846 3.291 13.702 3.228 13.554 3.181 L 13.423 3.143 C 13.031 3.022 12.645 2.876 12.27 2.703 L 12.234 2.691 L 12.199 2.691 C 11.819 2.661 11.445 2.808 11.176 3.093 C 11.132 3.139 11.092 3.189 11.057 3.244 C 11.041 3.26 11.025 3.277 11.01 3.294 C 10.951 3.382 10.918 3.487 10.915 3.595 L 10.915 3.646 L 10.926 3.696 C 11.274 3.65 11.626 3.73 11.925 3.922 C 12.044 3.997 12.163 4.11 12.27 4.236 C 12.371 4.277 12.474 4.31 12.579 4.336 L 12.627 4.362 C 12.775 4.439 12.912 4.541 13.031 4.663 C 13.31 4.925 13.565 5.216 13.792 5.53 C 13.933 5.719 14.064 5.916 14.184 6.12 L 14.208 6.158 L 14.22 6.183 C 14.28 6.283 14.375 6.359 14.458 6.434 L 14.672 6.56 L 14.862 6.685 L 14.934 6.71 L 15.1 6.836 L 15.148 6.861 L 15.195 6.911 C 15.305 7.069 15.393 7.243 15.457 7.426 L 15.54 7.678 C 15.648 8.014 15.747 8.353 15.837 8.695 L 15.909 8.582 C 16.033 8.372 16.181 8.178 16.348 8.004 C 16.442 7.923 16.546 7.855 16.658 7.803 C 16.835 7.73 17.026 7.7 17.216 7.715 C 17.36 7.734 17.496 7.795 17.609 7.891 C 17.782 8.04 17.907 8.242 17.966 8.469 L 17.989 8.582 C 18.008 8.644 18.024 8.707 18.037 8.77 L 18.025 8.77 Z  M 10.712 3.985 L 10.534 4.047 C 10.253 4.173 10.016 4.388 9.856 4.663 C 9.737 4.893 9.695 5.158 9.737 5.417 C 9.801 5.778 10.034 6.081 10.356 6.221 C 10.656 6.36 10.993 6.383 11.307 6.283 C 11.682 6.186 12.004 5.932 12.199 5.58 C 12.289 5.394 12.33 5.186 12.318 4.977 C 12.298 4.622 12.11 4.3 11.818 4.123 C 11.679 4.035 11.526 3.976 11.366 3.947 C 11.165 3.91 10.958 3.919 10.76 3.972 L 10.712 3.972 L 10.712 3.985 Z " fill-rule="evenodd" fill="rgb(67,50,49)"/></g></g></svg>