<?xml version="1.0" encoding="UTF-8" standalone="no"?><!-- Generator: Gravit.io --><svg xmlns="http://www.w3.org/2000/svg" xmlns:xlink="http://www.w3.org/1999/xlink" style="isolation:isolate" viewBox="0 0 20 20" width="20pt" height="20pt"><defs><clipPath id="_clipPath_yhKixsqw4IzJJuOPkjbLALA0QHQV2uOi"><rect width="20" height="20"/></clipPath></defs><g clip-path="url(#_clipPath_yhKixsqw4IzJJuOPkjbLALA0QHQV2uOi)"><g><path d=" M 2.746 9.815 C 2.746 9.815 3.431 1.686 9.246 1.299 C 15.06 0.894 16.511 8.038 16.747 10.906 C 16.747 10.906 17.372 11.188 17.455 12.032 C 17.455 12.032 18.269 12.349 18.434 13.317 C 18.611 14.372 18.092 15.023 18.092 15.023 C 18.092 15.023 18.328 16.607 17.773 16.836 C 17.219 17.047 16.983 16.941 16.983 16.941 C 16.983 16.941 16.464 17.786 15.568 17.17 C 15.568 17.17 14.931 18.015 14.223 17.733 C 14.223 17.733 13.987 17.751 13.716 17.328 C 13.716 17.328 12.725 17.557 12.265 16.765 C 11.793 15.956 11.911 14.883 11.911 14.883 C 11.911 14.883 11.38 13.968 11.734 12.877 C 11.899 12.384 12.324 12.419 12.324 12.419 C 12.324 12.419 12.218 11.927 12.466 11.434 C 12.466 11.434 12.076 9.252 9.576 9.235 C 7.405 9.235 7.323 10.29 7.099 10.413 C 7.099 10.413 7.96 11.258 7.618 12.666 C 7.618 12.666 8.361 14.619 7.264 15.217 C 7.264 15.217 7.229 16.519 6.556 16.924 C 5.872 17.311 5.707 16.871 5.707 16.871 C 5.707 16.871 4.775 18.419 3.749 16.977 C 3.749 16.977 2.57 16.941 2.31 15.393 C 1.732 15.78 0.352 13.422 1.626 12.226 C 1.626 12.226 1.201 11.223 1.874 10.431 C 2.168 10.079 2.522 10.273 2.522 10.273 C 2.522 10.273 2.57 9.798 2.735 9.815 L 2.746 9.815 Z " fill-rule="evenodd" fill="rgb(0,0,0)" fill-opacity="0.2"/><path d=" M 3.242 9.639 C 3.242 9.639 3.926 1.493 9.729 1.088 C 15.544 0.683 16.995 7.845 17.231 10.713 C 17.231 10.713 17.856 10.994 17.938 11.839 C 17.938 11.839 18.764 12.155 18.917 13.106 C 19.094 14.161 18.575 14.812 18.575 14.812 C 18.575 14.812 18.811 16.413 18.257 16.642 C 17.703 16.853 17.478 16.642 17.478 16.642 C 17.478 16.642 16.853 17.276 16.051 16.994 C 16.051 16.994 15.426 17.804 14.707 17.522 C 14.707 17.522 14.471 17.557 14.199 17.135 C 14.199 17.135 13.209 17.364 12.749 16.572 C 12.277 15.762 12.395 14.689 12.395 14.689 C 12.395 14.689 11.864 13.809 12.241 12.701 C 12.395 12.208 12.831 12.226 12.831 12.226 C 12.831 12.226 12.713 11.751 12.961 11.24 C 12.961 11.24 12.572 9.076 10.071 9.059 C 7.901 9.059 7.818 10.114 7.606 10.238 C 7.606 10.238 8.455 11.065 8.113 12.49 C 8.113 12.49 8.868 14.425 7.759 15.041 C 7.759 15.041 7.724 16.343 7.052 16.73 C 6.379 17.135 6.202 16.695 6.202 16.695 C 6.202 16.695 5.282 18.243 4.244 16.783 C 4.244 16.783 3.065 16.748 2.805 15.217 C 2.227 15.587 0.859 13.229 2.121 12.05 C 2.121 12.05 1.697 11.029 2.369 10.238 C 2.676 9.886 3.018 10.097 3.018 10.097 C 3.018 10.097 3.065 9.622 3.23 9.639 L 3.242 9.639 Z " fill-rule="evenodd" fill="rgb(255,255,255)"/><path d=" M 2.841 9.974 L 2.947 9.974 L 2.959 9.991 L 2.982 9.991 L 2.982 9.974 L 2.994 9.956 L 2.994 9.903 L 3.006 9.886 L 3.006 9.85 L 3.018 9.833 L 3.018 9.815 L 3.03 9.78 L 3.041 9.762 L 3.041 9.745 L 3.065 9.71 L 3.065 9.692 L 3.077 9.692 L 3.077 9.674 L 3.088 9.674 L 3.088 9.639 L 3.1 9.639 L 3.112 9.622 L 3.136 9.604 L 3.147 9.604 L 3.147 9.569 L 3.171 9.569 L 3.183 9.551 L 3.183 9.516 L 3.195 9.463 L 3.195 9.411 L 3.218 9.34 L 3.218 9.252 L 3.23 9.164 L 3.254 9.059 L 3.265 8.971 L 3.265 8.9 L 3.289 8.848 L 3.289 8.795 L 3.301 8.724 L 3.313 8.672 L 3.324 8.601 L 3.336 8.531 L 3.348 8.46 L 3.372 8.39 L 3.372 8.337 L 3.395 8.267 L 3.407 8.196 L 3.431 8.108 L 3.442 8.038 L 3.466 7.95 L 3.478 7.88 L 3.501 7.792 L 3.525 7.704 L 3.537 7.633 L 3.56 7.545 L 3.584 7.457 L 3.607 7.369 L 3.631 7.282 L 3.655 7.194 L 3.678 7.106 L 3.714 7.018 L 3.737 6.912 L 3.761 6.824 L 3.796 6.736 L 3.82 6.648 L 3.855 6.543 L 3.891 6.455 L 3.926 6.349 L 3.95 6.261 L 3.985 6.155 L 4.02 6.067 L 4.056 5.962 L 4.103 5.874 L 4.138 5.768 L 4.174 5.68 L 4.221 5.575 L 4.244 5.522 L 4.256 5.469 L 4.28 5.434 L 4.303 5.381 L 4.327 5.328 L 4.351 5.276 L 4.374 5.223 L 4.398 5.188 L 4.41 5.135 L 4.433 5.082 L 4.457 5.029 L 4.48 4.994 L 4.516 4.941 L 4.539 4.889 L 4.563 4.836 L 4.586 4.783 L 4.61 4.748 L 4.634 4.695 L 4.657 4.642 L 4.693 4.589 L 4.716 4.537 L 4.74 4.501 L 4.763 4.449 L 4.799 4.396 L 4.822 4.343 L 4.846 4.308 L 4.881 4.255 L 4.905 4.202 L 4.94 4.167 L 4.964 4.114 L 4.999 4.062 L 5.023 4.026 L 5.058 3.974 L 5.082 3.921 L 5.117 3.868 L 5.153 3.833 L 5.176 3.78 L 5.212 3.745 L 5.247 3.692 L 5.271 3.639 L 5.306 3.604 L 5.341 3.551 L 5.377 3.516 L 5.412 3.463 L 5.448 3.411 L 5.471 3.375 L 5.506 3.323 L 5.542 3.287 L 5.577 3.235 L 5.613 3.199 L 5.648 3.147 L 5.695 3.111 L 5.719 3.059 L 5.754 3.006 L 5.79 2.971 L 5.825 2.918 L 5.86 2.883 L 5.908 2.848 L 5.943 2.795 L 5.978 2.76 L 6.025 2.724 L 6.061 2.672 L 6.108 2.636 L 6.143 2.601 L 6.191 2.566 L 6.226 2.513 L 6.273 2.478 L 6.309 2.443 L 6.356 2.408 L 6.391 2.372 L 6.438 2.337 L 6.485 2.302 L 6.533 2.249 L 6.568 2.214 L 6.615 2.179 L 6.662 2.144 L 6.71 2.109 L 6.757 2.073 L 6.804 2.056 L 6.851 2.021 L 6.898 1.985 L 6.945 1.95 L 6.993 1.915 L 7.04 1.88 L 7.087 1.845 L 7.134 1.827 L 7.181 1.792 L 7.24 1.757 L 7.288 1.739 L 7.335 1.704 L 7.394 1.669 L 7.441 1.651 L 7.488 1.616 L 7.547 1.598 L 7.594 1.563 L 7.653 1.545 L 7.7 1.51 L 7.759 1.493 L 7.818 1.457 L 7.865 1.44 L 7.924 1.422 L 7.983 1.387 L 8.031 1.387 L 8.09 1.352 L 8.149 1.334 L 8.208 1.317 L 8.267 1.282 L 8.325 1.282 L 8.384 1.246 L 8.443 1.246 L 8.502 1.211 L 8.561 1.211 L 8.62 1.176 L 8.679 1.176 L 8.738 1.158 L 8.809 1.141 L 8.868 1.123 L 8.927 1.123 L 8.998 1.106 L 9.057 1.088 L 9.116 1.088 L 9.187 1.07 L 9.246 1.053 L 9.316 1.053 L 9.387 1.035 L 9.517 1.035 L 9.588 1.018 L 9.717 1.018 L 9.788 1 L 10.779 1 L 10.838 1.018 L 10.956 1.018 L 11.027 1.035 L 11.086 1.035 L 11.145 1.053 L 11.203 1.053 L 11.262 1.07 L 11.321 1.088 L 11.38 1.088 L 11.439 1.106 L 11.498 1.123 L 11.557 1.123 L 11.605 1.158 L 11.663 1.158 L 11.722 1.176 L 11.781 1.194 L 11.84 1.211 L 11.888 1.229 L 11.947 1.246 L 11.994 1.264 L 12.053 1.282 L 12.112 1.299 L 12.159 1.317 L 12.218 1.352 L 12.265 1.352 L 12.324 1.387 L 12.371 1.405 L 12.418 1.422 L 12.477 1.457 L 12.525 1.457 L 12.572 1.493 L 12.631 1.528 L 12.678 1.545 L 12.725 1.563 L 12.772 1.598 L 12.831 1.616 L 12.878 1.651 L 12.926 1.669 L 12.973 1.704 L 13.02 1.739 L 13.067 1.757 L 13.114 1.792 L 13.161 1.809 L 13.209 1.845 L 13.256 1.88 L 13.303 1.915 L 13.338 1.933 L 13.386 1.968 L 13.433 2.003 L 13.48 2.038 L 13.527 2.073 L 13.562 2.091 L 13.61 2.126 L 13.657 2.161 L 13.692 2.196 L 13.739 2.232 L 13.775 2.267 L 13.822 2.302 L 13.857 2.337 L 13.905 2.372 L 13.94 2.408 L 13.987 2.443 L 14.022 2.496 L 14.07 2.531 L 14.105 2.566 L 14.14 2.601 L 14.188 2.636 L 14.223 2.672 L 14.258 2.724 L 14.294 2.76 L 14.341 2.795 L 14.376 2.83 L 14.412 2.883 L 14.447 2.918 L 14.483 2.953 L 14.518 3.006 L 14.553 3.041 L 14.589 3.094 L 14.624 3.129 L 14.659 3.164 L 14.695 3.217 L 14.73 3.252 L 14.766 3.305 L 14.801 3.34 L 14.836 3.393 L 14.872 3.428 L 14.895 3.481 L 14.931 3.516 L 14.966 3.569 L 15.001 3.604 L 15.025 3.657 L 15.06 3.71 L 15.096 3.745 L 15.119 3.798 L 15.155 3.85 L 15.19 3.886 L 15.214 3.938 L 15.249 3.974 L 15.273 4.026 L 15.308 4.079 L 15.332 4.132 L 15.367 4.167 L 15.391 4.22 L 15.426 4.273 L 15.45 4.326 L 15.473 4.361 L 15.509 4.413 L 15.532 4.466 L 15.556 4.519 L 15.591 4.554 L 15.615 4.607 L 15.638 4.66 L 15.662 4.713 L 15.686 4.765 L 15.721 4.818 L 15.745 4.853 L 15.768 4.906 L 15.792 4.959 L 15.815 5.012 L 15.839 5.065 L 15.863 5.117 L 15.886 5.17 L 15.91 5.223 L 15.933 5.258 L 15.957 5.311 L 15.98 5.364 L 16.004 5.416 L 16.028 5.469 L 16.051 5.522 L 16.063 5.575 L 16.087 5.628 L 16.11 5.68 L 16.134 5.733 L 16.157 5.786 L 16.169 5.839 L 16.216 5.944 L 16.252 6.032 L 16.299 6.138 L 16.334 6.243 L 16.37 6.349 L 16.405 6.455 L 16.452 6.578 L 16.488 6.683 L 16.523 6.789 L 16.558 6.894 L 16.582 7 L 16.617 7.106 L 16.641 7.194 L 16.676 7.299 L 16.7 7.405 L 16.735 7.51 L 16.759 7.616 L 16.783 7.721 L 16.818 7.809 L 16.842 7.915 L 16.865 8.021 L 16.889 8.126 L 16.912 8.214 L 16.924 8.32 L 16.948 8.408 L 16.971 8.513 L 16.995 8.601 L 17.007 8.707 L 17.03 8.795 L 17.042 8.9 L 17.066 8.988 L 17.077 9.076 L 17.101 9.164 L 17.113 9.27 L 17.125 9.358 L 17.136 9.446 L 17.16 9.534 L 17.16 9.622 L 17.184 9.71 L 17.184 9.798 L 17.207 9.868 L 17.207 9.956 L 17.231 10.044 L 17.231 10.097 L 17.243 10.185 L 17.254 10.255 L 17.254 10.326 L 17.266 10.413 L 17.278 10.484 L 17.278 10.554 L 17.29 10.625 L 17.29 10.642 L 17.302 10.642 L 17.325 10.66 L 17.349 10.66 L 17.36 10.695 L 17.384 10.695 L 17.419 10.73 L 17.443 10.73 L 17.467 10.765 L 17.49 10.765 L 17.502 10.801 L 17.514 10.801 L 17.537 10.818 L 17.549 10.818 L 17.561 10.853 L 17.585 10.853 L 17.596 10.889 L 17.608 10.889 L 17.632 10.924 L 17.655 10.959 L 17.667 10.977 L 17.679 10.994 L 17.703 11.012 L 17.714 11.047 L 17.726 11.065 L 17.75 11.082 L 17.762 11.117 L 17.773 11.135 L 17.797 11.17 L 17.809 11.188 L 17.82 11.223 L 17.832 11.24 L 17.856 11.276 L 17.856 11.311 L 17.879 11.346 L 17.891 11.364 L 17.903 11.399 L 17.915 11.434 L 17.915 11.469 L 17.938 11.504 L 17.938 11.54 L 17.95 11.575 L 17.962 11.61 L 17.962 11.645 L 17.974 11.698 L 17.986 11.733 L 17.986 11.768 L 18.021 11.768 L 18.033 11.786 L 18.068 11.786 L 18.092 11.821 L 18.127 11.821 L 18.163 11.856 L 18.198 11.874 L 18.21 11.874 L 18.233 11.909 L 18.245 11.909 L 18.269 11.927 L 18.292 11.944 L 18.316 11.962 L 18.328 11.962 L 18.351 11.997 L 18.375 11.997 L 18.398 12.032 L 18.422 12.05 L 18.434 12.067 L 18.457 12.085 L 18.481 12.12 L 18.505 12.138 L 18.528 12.155 L 18.552 12.191 L 18.564 12.208 L 18.587 12.226 L 18.611 12.261 L 18.634 12.296 L 18.658 12.314 L 18.67 12.349 L 18.693 12.384 L 18.717 12.402 L 18.729 12.437 L 18.752 12.472 L 18.776 12.507 L 18.788 12.543 L 18.811 12.578 L 18.823 12.613 L 18.835 12.648 L 18.847 12.666 L 18.847 12.683 L 18.858 12.701 L 18.87 12.718 L 18.87 12.754 L 18.882 12.754 L 18.894 12.789 L 18.894 12.806 L 18.906 12.824 L 18.906 12.842 L 18.917 12.877 L 18.917 12.894 L 18.929 12.912 L 18.929 12.93 L 18.941 12.965 L 18.941 13 L 18.953 13.035 L 18.953 13.053 L 18.965 13.07 L 18.965 13.123 L 18.976 13.158 L 18.976 13.229 L 18.988 13.282 L 18.988 13.369 L 19 13.422 L 19 13.792 L 18.988 13.827 L 18.988 13.915 L 18.976 13.95 L 18.965 13.985 L 18.965 14.038 L 18.953 14.073 L 18.953 14.108 L 18.929 14.144 L 18.929 14.179 L 18.917 14.214 L 18.917 14.249 L 18.894 14.267 L 18.894 14.302 L 18.882 14.337 L 18.87 14.372 L 18.858 14.39 L 18.858 14.425 L 18.835 14.443 L 18.835 14.478 L 18.811 14.496 L 18.811 14.531 L 18.799 14.548 L 18.788 14.584 L 18.776 14.601 L 18.764 14.619 L 18.764 14.636 L 18.729 14.689 L 18.717 14.724 L 18.693 14.742 L 18.682 14.777 L 18.658 14.812 L 18.634 14.847 L 18.634 14.918 L 18.646 14.953 L 18.646 15.006 L 18.658 15.059 L 18.658 15.129 L 18.67 15.182 L 18.67 15.411 L 18.682 15.446 L 18.682 15.85 L 18.67 15.903 L 18.67 15.938 L 18.658 15.974 L 18.658 16.062 L 18.634 16.097 L 18.634 16.185 L 18.623 16.185 L 18.623 16.22 L 18.611 16.22 L 18.611 16.273 L 18.599 16.29 L 18.599 16.308 L 18.587 16.326 L 18.587 16.343 L 18.564 16.361 L 18.564 16.396 L 18.552 16.413 L 18.552 16.431 L 18.528 16.431 L 18.528 16.466 L 18.505 16.484 L 18.505 16.501 L 18.493 16.519 L 18.481 16.537 L 18.457 16.572 L 18.446 16.589 L 18.434 16.589 L 18.422 16.607 L 18.41 16.625 L 18.398 16.625 L 18.387 16.642 L 18.375 16.642 L 18.363 16.66 L 18.339 16.66 L 18.339 16.677 L 18.316 16.677 L 18.304 16.695 L 18.281 16.695 L 18.245 16.713 L 18.222 16.713 L 18.198 16.73 L 18.174 16.73 L 18.151 16.748 L 18.127 16.748 L 18.104 16.765 L 18.056 16.765 L 18.033 16.783 L 17.95 16.783 L 17.927 16.801 L 17.632 16.801 L 17.608 16.783 L 17.585 16.783 L 17.561 16.765 L 17.526 16.765 L 17.526 16.748 L 17.502 16.748 L 17.49 16.73 L 17.455 16.73 L 17.431 16.765 L 17.408 16.765 L 17.384 16.801 L 17.36 16.818 L 17.325 16.836 L 17.29 16.871 L 17.278 16.871 L 17.254 16.889 L 17.231 16.889 L 17.219 16.924 L 17.195 16.924 L 17.172 16.941 L 17.148 16.941 L 17.125 16.959 L 17.101 16.977 L 17.077 16.977 L 17.054 16.994 L 17.03 17.012 L 17.007 17.012 L 16.971 17.029 L 16.948 17.029 L 16.924 17.047 L 16.889 17.065 L 16.865 17.065 L 16.83 17.082 L 16.771 17.082 L 16.747 17.1 L 16.712 17.1 L 16.676 17.117 L 16.228 17.117 L 16.193 17.1 L 16.157 17.1 L 16.11 17.082 L 16.075 17.065 L 16.051 17.065 L 16.039 17.082 L 16.016 17.117 L 15.992 17.135 L 15.969 17.17 L 15.945 17.188 L 15.91 17.223 L 15.874 17.258 L 15.863 17.258 L 15.839 17.293 L 15.815 17.293 L 15.804 17.328 L 15.78 17.328 L 15.756 17.364 L 15.733 17.364 L 15.709 17.399 L 15.686 17.399 L 15.674 17.434 L 15.638 17.434 L 15.615 17.452 L 15.591 17.469 L 15.568 17.487 L 15.544 17.504 L 15.52 17.522 L 15.485 17.522 L 15.461 17.557 L 15.438 17.557 L 15.403 17.575 L 15.379 17.575 L 15.344 17.592 L 15.32 17.61 L 15.273 17.61 L 15.249 17.628 L 15.178 17.628 L 15.155 17.645 L 15.06 17.645 L 15.025 17.663 L 14.848 17.663 L 14.836 17.645 L 14.777 17.645 L 14.766 17.628 L 14.718 17.628 L 14.707 17.61 L 14.612 17.61 L 14.6 17.592 L 14.565 17.592 L 14.541 17.575 L 14.53 17.575 L 14.506 17.557 L 14.494 17.557 L 14.471 17.522 L 14.447 17.522 L 14.424 17.504 L 14.4 17.487 L 14.376 17.452 L 14.353 17.452 L 14.353 17.434 L 14.329 17.416 L 14.317 17.416 L 14.306 17.381 L 14.294 17.381 L 14.282 17.364 L 14.27 17.364 L 14.258 17.328 L 14.247 17.328 L 14.235 17.293 L 14.211 17.293 L 14.211 17.258 L 14.188 17.258 L 14.176 17.223 L 13.94 17.223 L 13.905 17.24 L 13.645 17.24 L 13.61 17.223 L 13.551 17.223 L 13.527 17.205 L 13.492 17.205 L 13.456 17.188 L 13.433 17.188 L 13.397 17.17 L 13.374 17.17 L 13.338 17.152 L 13.303 17.152 L 13.279 17.117 L 13.244 17.117 L 13.209 17.1 L 13.185 17.082 L 13.15 17.065 L 13.114 17.047 L 13.091 17.029 L 13.055 16.994 L 13.032 16.994 L 13.02 16.977 L 12.996 16.959 L 12.985 16.959 L 12.973 16.941 L 12.961 16.924 L 12.937 16.924 L 12.937 16.889 L 12.914 16.889 L 12.902 16.871 L 12.89 16.853 L 12.867 16.853 L 12.867 16.818 L 12.843 16.818 L 12.831 16.801 L 12.819 16.783 L 12.808 16.765 L 12.796 16.748 L 12.784 16.73 L 12.772 16.713 L 12.76 16.695 L 12.749 16.677 L 12.737 16.66 L 12.725 16.642 L 12.713 16.607 L 12.69 16.572 L 12.666 16.537 L 12.642 16.501 L 12.619 16.449 L 12.607 16.413 L 12.583 16.378 L 12.572 16.326 L 12.548 16.29 L 12.548 16.255 L 12.525 16.202 L 12.513 16.167 L 12.489 16.132 L 12.489 16.079 L 12.466 16.044 L 12.466 16.009 L 12.442 15.956 L 12.442 15.921 L 12.43 15.886 L 12.418 15.833 L 12.418 15.798 L 12.407 15.762 L 12.395 15.71 L 12.395 15.674 L 12.383 15.639 L 12.383 15.604 L 12.371 15.551 L 12.371 15.516 L 12.359 15.481 L 12.359 15.411 L 12.336 15.375 L 12.336 15.27 L 12.324 15.235 L 12.324 14.672 L 12.3 14.654 L 12.3 14.619 L 12.277 14.584 L 12.253 14.548 L 12.241 14.513 L 12.241 14.478 L 12.218 14.478 L 12.218 14.443 L 12.206 14.408 L 12.206 14.39 L 12.182 14.355 L 12.182 14.337 L 12.171 14.302 L 12.159 14.267 L 12.159 14.232 L 12.135 14.214 L 12.135 14.179 L 12.123 14.144 L 12.123 14.108 L 12.112 14.073 L 12.1 14.038 L 12.1 14.003 L 12.088 13.968 L 12.088 13.915 L 12.076 13.88 L 12.076 13.845 L 12.065 13.809 L 12.065 13.757 L 12.053 13.721 L 12.053 13.176 L 12.065 13.158 L 12.065 13.088 L 12.076 13.053 L 12.076 13.018 L 12.088 12.982 L 12.088 12.965 L 12.1 12.93 L 12.1 12.912 L 12.112 12.877 L 12.112 12.859 L 12.123 12.824 L 12.123 12.806 L 12.135 12.771 L 12.135 12.754 L 12.159 12.718 L 12.159 12.736 L 12.171 12.701 L 12.171 12.683 L 12.182 12.648 L 12.194 12.63 L 12.206 12.613 L 12.206 12.56 L 12.23 12.56 L 12.23 12.525 L 12.253 12.507 L 12.253 12.49 L 12.265 12.472 L 12.277 12.455 L 12.289 12.437 L 12.3 12.419 L 12.324 12.402 L 12.324 12.384 L 12.348 12.384 L 12.348 12.349 L 12.371 12.349 L 12.371 12.331 L 12.395 12.331 L 12.407 12.314 L 12.418 12.296 L 12.43 12.296 L 12.454 12.279 L 12.477 12.261 L 12.489 12.261 L 12.501 12.243 L 12.525 12.243 L 12.536 12.226 L 12.572 12.208 L 12.595 12.208 L 12.619 12.191 L 12.666 12.191 L 12.69 12.173 L 12.749 12.173 L 12.749 11.733 L 12.76 11.698 L 12.76 11.628 L 12.772 11.628 L 12.772 11.592 L 12.784 11.575 L 12.784 11.54 L 12.796 11.522 L 12.796 11.504 L 12.808 11.469 L 12.808 11.452 L 12.819 11.434 L 12.819 11.399 L 12.843 11.381 L 12.843 11.328 L 12.855 11.311 L 12.867 11.293 L 12.867 11.258 L 12.89 11.24 L 12.89 11.17 L 12.878 11.135 L 12.878 11.152 L 12.867 11.117 L 12.855 11.1 L 12.843 11.065 L 12.843 11.029 L 12.819 10.994 L 12.808 10.959 L 12.796 10.924 L 12.772 10.889 L 12.76 10.836 L 12.737 10.801 L 12.725 10.765 L 12.701 10.713 L 12.678 10.677 L 12.678 10.625 L 12.654 10.607 L 12.654 10.589 L 12.631 10.554 L 12.619 10.537 L 12.607 10.519 L 12.595 10.484 L 12.572 10.466 L 12.572 10.431 L 12.548 10.413 L 12.536 10.396 L 12.513 10.361 L 12.501 10.343 L 12.477 10.308 L 12.466 10.29 L 12.442 10.273 L 12.43 10.238 L 12.407 10.22 L 12.395 10.185 L 12.371 10.167 L 12.348 10.132 L 12.336 10.114 L 12.324 10.097 L 12.3 10.062 L 12.277 10.044 L 12.253 10.009 L 12.23 9.991 L 12.206 9.974 L 12.182 9.938 L 12.159 9.921 L 12.135 9.886 L 12.112 9.868 L 12.088 9.85 L 12.065 9.815 L 12.029 9.798 L 12.006 9.78 L 11.982 9.745 L 11.947 9.745 L 11.923 9.71 L 11.888 9.692 L 11.864 9.657 L 11.829 9.639 L 11.805 9.622 L 11.77 9.604 L 11.734 9.569 L 11.699 9.569 L 11.663 9.534 L 11.628 9.516 L 11.605 9.499 L 11.569 9.481 L 11.522 9.463 L 11.487 9.446 L 11.451 9.428 L 11.416 9.411 L 11.38 9.393 L 11.333 9.375 L 11.298 9.358 L 11.262 9.34 L 11.215 9.323 L 11.18 9.323 L 11.133 9.287 L 11.086 9.287 L 11.05 9.27 L 11.003 9.27 L 10.956 9.235 L 10.861 9.235 L 10.814 9.217 L 10.767 9.199 L 10.72 9.199 L 10.673 9.182 L 10.555 9.182 L 10.508 9.164 L 10.401 9.164 L 10.342 9.147 L 9.493 9.147 L 9.458 9.164 L 9.316 9.164 L 9.281 9.182 L 9.21 9.182 L 9.175 9.199 L 9.139 9.199 L 9.104 9.217 L 9.021 9.217 L 8.986 9.235 L 8.962 9.235 L 8.927 9.252 L 8.903 9.252 L 8.88 9.27 L 8.844 9.27 L 8.821 9.287 L 8.785 9.287 L 8.762 9.305 L 8.727 9.323 L 8.703 9.323 L 8.679 9.34 L 8.656 9.34 L 8.62 9.358 L 8.597 9.358 L 8.573 9.393 L 8.526 9.393 L 8.502 9.411 L 8.479 9.428 L 8.455 9.428 L 8.432 9.446 L 8.42 9.463 L 8.396 9.463 L 8.373 9.481 L 8.349 9.499 L 8.337 9.499 L 8.314 9.534 L 8.278 9.534 L 8.267 9.569 L 8.243 9.569 L 8.231 9.587 L 8.196 9.587 L 8.196 9.622 L 8.16 9.657 L 8.137 9.674 L 8.101 9.71 L 8.078 9.727 L 8.054 9.762 L 8.031 9.78 L 8.007 9.815 L 7.983 9.833 L 7.96 9.85 L 7.936 9.886 L 7.924 9.903 L 7.901 9.938 L 7.889 9.956 L 7.877 9.974 L 7.854 10.009 L 7.842 10.009 L 7.83 10.044 L 7.818 10.062 L 7.795 10.114 L 7.759 10.15 L 7.748 10.185 L 7.736 10.202 L 7.724 10.22 L 7.712 10.238 L 7.7 10.238 L 7.7 10.255 L 7.712 10.29 L 7.736 10.308 L 7.759 10.343 L 7.783 10.378 L 7.795 10.378 L 7.818 10.413 L 7.83 10.449 L 7.842 10.449 L 7.865 10.484 L 7.877 10.519 L 7.901 10.537 L 7.913 10.572 L 7.936 10.607 L 7.948 10.642 L 7.972 10.66 L 7.972 10.695 L 7.995 10.73 L 8.019 10.765 L 8.031 10.801 L 8.054 10.853 L 8.066 10.889 L 8.078 10.924 L 8.101 10.959 L 8.101 11.012 L 8.125 11.047 L 8.137 11.1 L 8.149 11.135 L 8.149 11.17 L 8.172 11.188 L 8.172 11.24 L 8.184 11.258 L 8.184 11.311 L 8.196 11.328 L 8.196 11.364 L 8.208 11.381 L 8.208 11.434 L 8.219 11.469 L 8.219 11.522 L 8.231 11.54 L 8.231 11.628 L 8.243 11.663 L 8.243 12.12 L 8.231 12.138 L 8.231 12.208 L 8.219 12.243 L 8.219 12.279 L 8.196 12.314 L 8.196 12.402 L 8.184 12.437 L 8.172 12.472 L 8.172 12.49 L 8.196 12.56 L 8.208 12.613 L 8.219 12.648 L 8.231 12.683 L 8.231 12.718 L 8.255 12.754 L 8.255 12.789 L 8.267 12.824 L 8.278 12.877 L 8.29 12.912 L 8.302 12.947 L 8.302 13 L 8.325 13.053 L 8.325 13.088 L 8.337 13.141 L 8.349 13.194 L 8.349 13.246 L 8.361 13.299 L 8.373 13.352 L 8.373 13.405 L 8.384 13.457 L 8.384 13.563 L 8.396 13.598 L 8.396 14.056 L 8.384 14.091 L 8.384 14.144 L 8.373 14.179 L 8.373 14.232 L 8.361 14.249 L 8.361 14.284 L 8.349 14.32 L 8.337 14.337 L 8.337 14.372 L 8.325 14.39 L 8.314 14.425 L 8.314 14.443 L 8.302 14.478 L 8.29 14.496 L 8.278 14.531 L 8.267 14.548 L 8.255 14.584 L 8.243 14.601 L 8.231 14.636 L 8.219 14.636 L 8.208 14.672 L 8.196 14.707 L 8.172 14.724 L 8.16 14.742 L 8.149 14.777 L 8.125 14.777 L 8.113 14.812 L 8.09 14.83 L 8.078 14.865 L 8.054 14.865 L 8.042 14.9 L 8.019 14.918 L 7.995 14.935 L 7.983 14.953 L 7.96 14.988 L 7.936 14.988 L 7.913 15.023 L 7.889 15.023 L 7.865 15.059 L 7.842 15.059 L 7.818 15.076 L 7.795 15.094 L 7.795 15.217 L 7.783 15.27 L 7.783 15.323 L 7.771 15.375 L 7.759 15.411 L 7.759 15.481 L 7.748 15.516 L 7.748 15.534 L 7.736 15.569 L 7.724 15.604 L 7.724 15.639 L 7.712 15.674 L 7.7 15.71 L 7.7 15.745 L 7.689 15.78 L 7.677 15.833 L 7.665 15.868 L 7.653 15.903 L 7.641 15.938 L 7.63 15.974 L 7.618 16.009 L 7.606 16.044 L 7.594 16.079 L 7.571 16.114 L 7.559 16.167 L 7.547 16.202 L 7.523 16.238 L 7.512 16.273 L 7.488 16.308 L 7.476 16.343 L 7.453 16.378 L 7.429 16.413 L 7.405 16.431 L 7.405 16.449 L 7.394 16.466 L 7.382 16.484 L 7.37 16.501 L 7.358 16.519 L 7.347 16.519 L 7.335 16.554 L 7.323 16.554 L 7.299 16.572 L 7.299 16.589 L 7.276 16.607 L 7.252 16.642 L 7.24 16.66 L 7.217 16.66 L 7.217 16.695 L 7.193 16.695 L 7.181 16.713 L 7.158 16.713 L 7.158 16.73 L 7.134 16.748 L 7.122 16.748 L 7.099 16.765 L 7.087 16.765 L 7.063 16.783 L 7.04 16.801 L 7.004 16.818 L 6.969 16.836 L 6.945 16.853 L 6.898 16.853 L 6.875 16.889 L 6.816 16.889 L 6.792 16.906 L 6.78 16.906 L 6.757 16.924 L 6.71 16.924 L 6.686 16.941 L 6.592 16.941 L 6.58 16.959 L 6.426 16.959 L 6.415 16.941 L 6.391 16.941 L 6.368 16.924 L 6.344 16.924 L 6.332 16.906 L 6.309 16.906 L 6.309 16.889 L 6.285 16.889 L 6.285 16.871 L 6.261 16.871 L 6.25 16.853 L 6.238 16.836 L 6.214 16.818 L 6.214 16.801 L 6.191 16.801 L 6.155 16.836 L 6.132 16.871 L 6.12 16.889 L 6.096 16.906 L 6.084 16.941 L 6.061 16.959 L 6.037 16.977 L 6.014 17.012 L 6.002 17.029 L 5.978 17.065 L 5.943 17.082 L 5.919 17.1 L 5.896 17.135 L 5.872 17.152 L 5.837 17.188 L 5.813 17.205 L 5.778 17.24 L 5.754 17.24 L 5.719 17.276 L 5.683 17.293 L 5.672 17.311 L 5.648 17.311 L 5.636 17.328 L 5.613 17.328 L 5.601 17.346 L 5.577 17.346 L 5.565 17.364 L 5.542 17.364 L 5.53 17.381 L 5.506 17.381 L 5.495 17.399 L 5.483 17.399 L 5.459 17.416 L 5.424 17.416 L 5.4 17.434 L 5.365 17.434 L 5.341 17.452 L 5.259 17.452 L 5.235 17.469 L 5.023 17.469 L 4.999 17.452 L 4.952 17.452 L 4.929 17.434 L 4.893 17.434 L 4.87 17.416 L 4.846 17.399 L 4.822 17.399 L 4.799 17.381 L 4.775 17.364 L 4.752 17.364 L 4.728 17.346 L 4.704 17.328 L 4.681 17.311 L 4.657 17.311 L 4.634 17.293 L 4.61 17.276 L 4.586 17.258 L 4.563 17.24 L 4.539 17.205 L 4.516 17.205 L 4.492 17.17 L 4.469 17.135 L 4.421 17.135 L 4.398 17.117 L 4.374 17.082 L 4.351 17.047 L 4.315 17.029 L 4.292 16.994 L 4.268 16.959 L 4.244 16.941 L 4.221 16.906 L 4.221 16.889 L 4.15 16.889 L 4.115 16.871 L 4.032 16.871 L 4.009 16.853 L 3.985 16.853 L 3.961 16.836 L 3.914 16.836 L 3.891 16.818 L 3.867 16.801 L 3.832 16.801 L 3.808 16.783 L 3.773 16.765 L 3.749 16.765 L 3.714 16.73 L 3.678 16.713 L 3.643 16.695 L 3.619 16.677 L 3.584 16.642 L 3.548 16.642 L 3.525 16.607 L 3.49 16.589 L 3.454 16.554 L 3.431 16.537 L 3.395 16.501 L 3.36 16.501 L 3.336 16.466 L 3.324 16.466 L 3.313 16.449 L 3.289 16.431 L 3.277 16.413 L 3.265 16.396 L 3.242 16.378 L 3.23 16.361 L 3.218 16.343 L 3.195 16.326 L 3.183 16.308 L 3.171 16.29 L 3.147 16.273 L 3.147 16.255 L 3.124 16.22 L 3.112 16.185 L 3.088 16.167 L 3.088 16.15 L 3.065 16.114 L 3.053 16.097 L 3.041 16.079 L 3.018 16.044 L 3.018 16.026 L 2.994 15.991 L 2.994 15.974 L 2.971 15.956 L 2.959 15.921 L 2.947 15.903 L 2.935 15.868 L 2.923 15.833 L 2.912 15.815 L 2.9 15.78 L 2.888 15.762 L 2.888 15.727 L 2.864 15.692 L 2.864 15.657 L 2.841 15.639 L 2.841 15.604 L 2.829 15.569 L 2.817 15.534 L 2.817 15.499 L 2.805 15.463 L 2.794 15.428 L 2.794 15.375 L 2.782 15.34 L 2.77 15.323 L 2.534 15.323 L 2.522 15.305 L 2.475 15.305 L 2.463 15.287 L 2.44 15.27 L 2.428 15.27 L 2.404 15.252 L 2.393 15.235 L 2.369 15.235 L 2.345 15.217 L 2.334 15.199 L 2.31 15.182 L 2.298 15.164 L 2.275 15.147 L 2.251 15.129 L 2.239 15.111 L 2.216 15.094 L 2.204 15.076 L 2.18 15.059 L 2.168 15.041 L 2.145 15.006 L 2.121 14.971 L 2.11 14.953 L 2.086 14.918 L 2.074 14.9 L 2.051 14.865 L 2.039 14.847 L 2.015 14.83 L 2.003 14.795 L 1.98 14.777 L 1.968 14.742 L 1.944 14.724 L 1.933 14.689 L 1.921 14.654 L 1.897 14.636 L 1.885 14.601 L 1.874 14.566 L 1.85 14.548 L 1.85 14.513 L 1.826 14.478 L 1.815 14.443 L 1.791 14.425 L 1.791 14.39 L 1.767 14.355 L 1.756 14.32 L 1.744 14.284 L 1.732 14.249 L 1.72 14.214 L 1.708 14.179 L 1.697 14.161 L 1.685 14.126 L 1.673 14.091 L 1.661 14.056 L 1.661 14.021 L 1.638 13.985 L 1.638 13.95 L 1.626 13.915 L 1.626 13.862 L 1.614 13.827 L 1.602 13.792 L 1.602 13.757 L 1.591 13.721 L 1.591 13.686 L 1.579 13.651 L 1.579 13.581 L 1.567 13.545 L 1.567 13.422 L 1.555 13.387 L 1.555 13.088 L 1.567 13.053 L 1.567 13 L 1.579 12.965 L 1.579 12.93 L 1.591 12.912 L 1.602 12.877 L 1.602 12.842 L 1.626 12.806 L 1.626 12.736 L 1.638 12.701 L 1.649 12.648 L 1.673 12.613 L 1.673 12.578 L 1.708 12.56 L 1.72 12.525 L 1.744 12.49 L 1.744 12.455 L 1.767 12.419 L 1.791 12.384 L 1.815 12.367 L 1.826 12.331 L 1.85 12.296 L 1.874 12.261 L 1.897 12.226 L 1.921 12.191 L 1.944 12.155 L 1.968 12.138 L 2.003 12.103 L 2.027 12.067 L 2.051 12.032 L 2.062 12.032 L 2.062 12.015 L 2.051 11.979 L 2.039 11.944 L 2.027 11.909 L 2.027 11.856 L 2.003 11.856 L 2.003 11.821 L 1.992 11.786 L 1.992 11.768 L 1.98 11.733 L 1.98 11.716 L 1.968 11.68 L 1.968 11.628 L 1.956 11.592 L 1.956 11.557 L 1.944 11.557 L 1.944 11.117 L 1.956 11.065 L 1.956 11.029 L 1.968 10.994 L 1.968 10.959 L 1.98 10.924 L 1.98 10.889 L 1.992 10.871 L 1.992 10.853 L 2.003 10.836 L 2.003 10.801 L 2.015 10.801 L 2.015 10.765 L 2.027 10.748 L 2.027 10.73 L 2.039 10.713 L 2.039 10.677 L 2.062 10.677 L 2.062 10.625 L 2.074 10.607 L 2.074 10.589 L 2.098 10.572 L 2.098 10.537 L 2.11 10.537 L 2.11 10.501 L 2.133 10.484 L 2.133 10.466 L 2.157 10.449 L 2.157 10.413 L 2.18 10.413 L 2.18 10.378 L 2.204 10.378 L 2.204 10.343 L 2.227 10.326 L 2.227 10.308 L 2.251 10.29 L 2.263 10.273 L 2.286 10.238 L 2.31 10.202 L 2.334 10.185 L 2.334 10.167 L 2.357 10.15 L 2.369 10.132 L 2.393 10.132 L 2.404 10.097 L 2.44 10.097 L 2.463 10.062 L 2.487 10.062 L 2.511 10.044 L 2.522 10.044 L 2.546 10.026 L 2.558 10.026 L 2.57 10.009 L 2.593 10.009 L 2.617 9.991 L 2.652 9.991 L 2.676 9.974 L 2.841 9.974 Z  M 3.277 9.674 L 3.265 9.692 L 3.242 9.692 L 3.242 9.71 L 3.183 9.71 L 3.183 9.727 L 3.171 9.727 L 3.159 9.745 L 3.159 9.762 L 3.147 9.762 L 3.147 9.78 L 3.136 9.78 L 3.136 9.815 L 3.124 9.815 L 3.124 9.85 L 3.112 9.868 L 3.112 9.886 L 3.1 9.903 L 3.1 9.921 L 3.088 9.956 L 3.088 9.991 L 3.077 9.991 L 3.077 10.062 L 3.065 10.097 L 3.065 10.132 L 3.053 10.132 L 3.053 10.15 L 3.041 10.15 L 3.041 10.167 L 2.959 10.167 L 2.935 10.15 L 2.912 10.15 L 2.9 10.132 L 2.617 10.132 L 2.605 10.15 L 2.581 10.15 L 2.558 10.167 L 2.534 10.185 L 2.511 10.202 L 2.499 10.202 L 2.487 10.22 L 2.475 10.22 L 2.463 10.255 L 2.44 10.255 L 2.44 10.273 L 2.416 10.273 L 2.416 10.308 L 2.393 10.308 L 2.381 10.343 L 2.357 10.343 L 2.357 10.378 L 2.334 10.378 L 2.322 10.413 L 2.31 10.413 L 2.298 10.449 L 2.286 10.449 L 2.275 10.484 L 2.263 10.501 L 2.251 10.519 L 2.251 10.537 L 2.227 10.554 L 2.227 10.572 L 2.216 10.589 L 2.204 10.607 L 2.192 10.625 L 2.192 10.642 L 2.18 10.66 L 2.168 10.677 L 2.168 10.695 L 2.157 10.713 L 2.157 10.748 L 2.133 10.748 L 2.121 10.783 L 2.11 10.818 L 2.098 10.853 L 2.098 10.889 L 2.086 10.889 L 2.086 10.924 L 2.074 10.924 L 2.074 10.977 L 2.062 10.994 L 2.062 11.029 L 2.051 11.065 L 2.051 11.135 L 2.039 11.17 L 2.039 11.557 L 2.051 11.575 L 2.051 11.628 L 2.062 11.663 L 2.062 11.68 L 2.074 11.716 L 2.074 11.768 L 2.086 11.768 L 2.086 11.804 L 2.098 11.821 L 2.098 11.856 L 2.121 11.891 L 2.121 11.927 L 2.133 11.962 L 2.133 11.979 L 2.145 11.997 L 2.157 12.015 L 2.157 12.103 L 2.145 12.12 L 2.11 12.155 L 2.086 12.173 L 2.062 12.208 L 2.039 12.243 L 2.015 12.261 L 1.992 12.296 L 1.968 12.331 L 1.944 12.349 L 1.921 12.384 L 1.897 12.419 L 1.885 12.437 L 1.862 12.472 L 1.85 12.507 L 1.826 12.543 L 1.815 12.56 L 1.803 12.595 L 1.779 12.63 L 1.779 12.666 L 1.756 12.701 L 1.756 12.718 L 1.732 12.754 L 1.732 12.789 L 1.708 12.824 L 1.708 12.859 L 1.697 12.894 L 1.697 12.93 L 1.685 12.947 L 1.685 12.982 L 1.673 13.018 L 1.673 13.053 L 1.661 13.088 L 1.661 13.158 L 1.649 13.194 L 1.649 13.581 L 1.661 13.616 L 1.661 13.651 L 1.673 13.686 L 1.673 13.721 L 1.685 13.757 L 1.685 13.792 L 1.697 13.827 L 1.708 13.862 L 1.708 13.88 L 1.72 13.915 L 1.732 13.95 L 1.732 13.985 L 1.756 14.021 L 1.756 14.056 L 1.779 14.091 L 1.779 14.108 L 1.791 14.144 L 1.803 14.179 L 1.815 14.214 L 1.826 14.249 L 1.838 14.267 L 1.862 14.302 L 1.862 14.337 L 1.885 14.355 L 1.885 14.39 L 1.909 14.425 L 1.921 14.443 L 1.933 14.478 L 1.956 14.513 L 1.956 14.531 L 1.98 14.566 L 2.003 14.584 L 2.003 14.619 L 2.027 14.636 L 2.039 14.672 L 2.062 14.689 L 2.074 14.707 L 2.098 14.742 L 2.098 14.76 L 2.121 14.777 L 2.145 14.812 L 2.157 14.83 L 2.18 14.847 L 2.192 14.865 L 2.204 14.9 L 2.227 14.9 L 2.239 14.935 L 2.263 14.935 L 2.275 14.971 L 2.298 14.971 L 2.31 15.006 L 2.334 15.006 L 2.334 15.023 L 2.357 15.041 L 2.381 15.059 L 2.393 15.059 L 2.416 15.094 L 2.452 15.094 L 2.452 15.111 L 2.475 15.129 L 2.499 15.129 L 2.511 15.147 L 2.546 15.147 L 2.558 15.164 L 2.617 15.164 L 2.628 15.182 L 2.735 15.182 L 2.746 15.164 L 2.77 15.164 L 2.77 15.147 L 2.817 15.147 L 2.817 15.164 L 2.829 15.164 L 2.829 15.182 L 2.841 15.199 L 2.841 15.235 L 2.853 15.27 L 2.853 15.305 L 2.864 15.34 L 2.864 15.375 L 2.888 15.393 L 2.888 15.463 L 2.912 15.499 L 2.912 15.516 L 2.923 15.551 L 2.935 15.587 L 2.935 15.604 L 2.959 15.639 L 2.959 15.657 L 2.971 15.692 L 2.982 15.71 L 2.994 15.745 L 3.006 15.762 L 3.018 15.798 L 3.03 15.815 L 3.03 15.833 L 3.053 15.868 L 3.053 15.886 L 3.077 15.903 L 3.088 15.938 L 3.1 15.956 L 3.112 15.974 L 3.124 15.991 L 3.136 16.026 L 3.147 16.026 L 3.171 16.062 L 3.171 16.079 L 3.195 16.097 L 3.206 16.114 L 3.218 16.132 L 3.23 16.15 L 3.254 16.167 L 3.254 16.185 L 3.277 16.202 L 3.289 16.22 L 3.301 16.238 L 3.324 16.238 L 3.324 16.273 L 3.348 16.273 L 3.36 16.29 L 3.383 16.308 L 3.383 16.326 L 3.407 16.326 L 3.419 16.361 L 3.454 16.378 L 3.478 16.413 L 3.513 16.413 L 3.537 16.449 L 3.572 16.466 L 3.607 16.484 L 3.631 16.519 L 3.666 16.519 L 3.69 16.537 L 3.725 16.554 L 3.749 16.572 L 3.773 16.589 L 3.808 16.589 L 3.832 16.607 L 3.855 16.625 L 3.891 16.625 L 3.914 16.642 L 3.938 16.642 L 3.961 16.66 L 4.009 16.66 L 4.032 16.677 L 4.067 16.677 L 4.091 16.695 L 4.162 16.695 L 4.185 16.713 L 4.244 16.713 L 4.256 16.73 L 4.292 16.765 L 4.315 16.801 L 4.339 16.836 L 4.362 16.853 L 4.386 16.889 L 4.41 16.924 L 4.433 16.941 L 4.457 16.977 L 4.48 16.994 L 4.504 17.012 L 4.527 17.047 L 4.551 17.047 L 4.563 17.082 L 4.586 17.1 L 4.61 17.117 L 4.657 17.135 L 4.681 17.152 L 4.704 17.17 L 4.728 17.17 L 4.752 17.205 L 4.775 17.205 L 4.799 17.223 L 4.811 17.223 L 4.834 17.258 L 4.881 17.258 L 4.905 17.276 L 4.917 17.276 L 4.94 17.293 L 4.987 17.293 L 5.011 17.311 L 5.046 17.311 L 5.07 17.328 L 5.365 17.328 L 5.389 17.311 L 5.424 17.311 L 5.436 17.293 L 5.471 17.293 L 5.495 17.276 L 5.506 17.276 L 5.53 17.258 L 5.542 17.258 L 5.554 17.24 L 5.577 17.24 L 5.589 17.223 L 5.613 17.223 L 5.624 17.205 L 5.636 17.205 L 5.66 17.188 L 5.683 17.152 L 5.719 17.152 L 5.742 17.117 L 5.778 17.1 L 5.801 17.065 L 5.825 17.047 L 5.849 17.029 L 5.884 16.994 L 5.908 16.977 L 5.931 16.959 L 5.943 16.924 L 5.966 16.906 L 5.99 16.889 L 6.014 16.853 L 6.025 16.836 L 6.049 16.818 L 6.061 16.801 L 6.073 16.783 L 6.084 16.748 L 6.096 16.748 L 6.12 16.713 L 6.143 16.677 L 6.167 16.642 L 6.179 16.642 L 6.191 16.625 L 6.226 16.625 L 6.238 16.642 L 6.238 16.66 L 6.25 16.66 L 6.25 16.677 L 6.261 16.677 L 6.261 16.695 L 6.285 16.713 L 6.297 16.73 L 6.309 16.73 L 6.309 16.748 L 6.32 16.748 L 6.344 16.765 L 6.356 16.765 L 6.379 16.783 L 6.403 16.783 L 6.403 16.801 L 6.45 16.801 L 6.474 16.818 L 6.71 16.818 L 6.733 16.801 L 6.757 16.801 L 6.78 16.783 L 6.804 16.783 L 6.828 16.765 L 6.863 16.765 L 6.886 16.748 L 6.91 16.73 L 6.945 16.73 L 6.969 16.695 L 7.016 16.695 L 7.04 16.66 L 7.075 16.66 L 7.075 16.642 L 7.099 16.642 L 7.111 16.625 L 7.122 16.625 L 7.146 16.589 L 7.17 16.589 L 7.181 16.572 L 7.193 16.554 L 7.205 16.554 L 7.217 16.519 L 7.24 16.519 L 7.252 16.484 L 7.264 16.484 L 7.276 16.466 L 7.288 16.466 L 7.299 16.431 L 7.323 16.413 L 7.323 16.396 L 7.335 16.396 L 7.347 16.361 L 7.358 16.361 L 7.382 16.326 L 7.394 16.29 L 7.417 16.255 L 7.429 16.22 L 7.453 16.185 L 7.464 16.167 L 7.476 16.132 L 7.5 16.097 L 7.5 16.062 L 7.523 16.026 L 7.535 15.991 L 7.547 15.956 L 7.559 15.921 L 7.571 15.886 L 7.582 15.85 L 7.582 15.815 L 7.606 15.78 L 7.606 15.745 L 7.618 15.71 L 7.618 15.674 L 7.641 15.657 L 7.641 15.587 L 7.653 15.551 L 7.653 15.516 L 7.665 15.481 L 7.665 15.463 L 7.677 15.428 L 7.677 15.375 L 7.689 15.34 L 7.689 15.287 L 7.7 15.235 L 7.7 15.199 L 7.712 15.147 L 7.712 15.006 L 7.724 15.006 L 7.736 14.988 L 7.748 14.988 L 7.771 14.953 L 7.795 14.953 L 7.818 14.935 L 7.842 14.918 L 7.865 14.9 L 7.889 14.883 L 7.913 14.865 L 7.924 14.865 L 7.948 14.83 L 7.972 14.83 L 7.983 14.795 L 8.007 14.777 L 8.019 14.76 L 8.042 14.742 L 8.042 14.724 L 8.066 14.707 L 8.078 14.689 L 8.101 14.654 L 8.125 14.619 L 8.137 14.601 L 8.149 14.584 L 8.16 14.548 L 8.172 14.548 L 8.172 14.513 L 8.196 14.496 L 8.196 14.46 L 8.208 14.425 L 8.208 14.408 L 8.231 14.372 L 8.231 14.337 L 8.243 14.302 L 8.255 14.284 L 8.255 14.267 L 8.267 14.232 L 8.267 14.179 L 8.278 14.161 L 8.278 14.144 L 8.29 14.108 L 8.29 14.038 L 8.302 14.003 L 8.302 13.44 L 8.29 13.387 L 8.278 13.334 L 8.278 13.299 L 8.267 13.246 L 8.255 13.194 L 8.255 13.158 L 8.231 13.106 L 8.231 13.088 L 8.219 13.035 L 8.219 13 L 8.196 12.912 L 8.184 12.877 L 8.172 12.842 L 8.16 12.806 L 8.16 12.771 L 8.137 12.736 L 8.137 12.718 L 8.113 12.666 L 8.101 12.613 L 8.09 12.578 L 8.09 12.56 L 8.066 12.543 L 8.066 12.437 L 8.078 12.402 L 8.09 12.384 L 8.09 12.349 L 8.101 12.314 L 8.101 12.279 L 8.113 12.261 L 8.113 12.191 L 8.125 12.173 L 8.125 12.103 L 8.137 12.085 L 8.137 11.504 L 8.125 11.469 L 8.125 11.434 L 8.113 11.399 L 8.113 11.364 L 8.101 11.328 L 8.09 11.293 L 8.09 11.276 L 8.078 11.24 L 8.066 11.205 L 8.066 11.188 L 8.042 11.135 L 8.042 11.1 L 8.019 11.065 L 8.019 11.012 L 7.995 10.977 L 7.983 10.941 L 7.96 10.906 L 7.948 10.871 L 7.936 10.836 L 7.913 10.801 L 7.901 10.765 L 7.889 10.748 L 7.865 10.713 L 7.854 10.677 L 7.842 10.66 L 7.818 10.625 L 7.807 10.607 L 7.783 10.572 L 7.783 10.554 L 7.759 10.519 L 7.748 10.519 L 7.724 10.484 L 7.724 10.466 L 7.7 10.449 L 7.689 10.431 L 7.677 10.413 L 7.653 10.378 L 7.63 10.361 L 7.606 10.343 L 7.606 10.326 L 7.582 10.326 L 7.582 10.308 L 7.571 10.29 L 7.571 10.273 L 7.559 10.273 L 7.559 10.202 L 7.571 10.185 L 7.582 10.185 L 7.582 10.167 L 7.606 10.167 L 7.606 10.15 L 7.618 10.15 L 7.63 10.132 L 7.63 10.097 L 7.653 10.097 L 7.653 10.062 L 7.665 10.062 L 7.689 10.009 L 7.712 9.974 L 7.736 9.938 L 7.748 9.903 L 7.771 9.886 L 7.783 9.868 L 7.795 9.833 L 7.818 9.815 L 7.83 9.78 L 7.854 9.762 L 7.877 9.727 L 7.901 9.71 L 7.924 9.674 L 7.948 9.657 L 7.972 9.622 L 7.995 9.604 L 8.019 9.569 L 8.054 9.534 L 8.078 9.516 L 8.113 9.481 L 8.149 9.463 L 8.16 9.463 L 8.196 9.428 L 8.219 9.411 L 8.231 9.411 L 8.255 9.375 L 8.278 9.375 L 8.29 9.358 L 8.314 9.358 L 8.337 9.323 L 8.361 9.323 L 8.373 9.305 L 8.396 9.305 L 8.42 9.287 L 8.443 9.27 L 8.467 9.27 L 8.491 9.252 L 8.514 9.235 L 8.55 9.235 L 8.573 9.217 L 8.597 9.199 L 8.62 9.199 L 8.644 9.182 L 8.679 9.182 L 8.703 9.164 L 8.738 9.164 L 8.762 9.129 L 8.821 9.129 L 8.856 9.111 L 8.892 9.111 L 8.915 9.094 L 8.951 9.094 L 8.986 9.076 L 9.021 9.076 L 9.057 9.059 L 9.128 9.059 L 9.163 9.041 L 9.198 9.041 L 9.234 9.023 L 9.316 9.023 L 9.352 9.006 L 9.47 9.006 L 9.517 8.988 L 9.694 8.988 L 9.741 8.971 L 10.472 8.971 L 10.519 8.988 L 10.578 8.988 L 10.626 9.006 L 10.732 9.006 L 10.779 9.023 L 10.826 9.041 L 10.873 9.041 L 10.92 9.059 L 10.968 9.059 L 11.015 9.094 L 11.062 9.094 L 11.109 9.111 L 11.156 9.111 L 11.192 9.147 L 11.239 9.147 L 11.286 9.182 L 11.321 9.182 L 11.369 9.199 L 11.404 9.217 L 11.439 9.235 L 11.487 9.252 L 11.522 9.287 L 11.557 9.287 L 11.593 9.323 L 11.628 9.323 L 11.663 9.358 L 11.699 9.375 L 11.734 9.393 L 11.77 9.428 L 11.805 9.428 L 11.84 9.463 L 11.876 9.481 L 11.899 9.499 L 11.935 9.534 L 11.97 9.551 L 11.994 9.569 L 12.029 9.604 L 12.053 9.622 L 12.088 9.657 L 12.112 9.657 L 12.135 9.692 L 12.171 9.727 L 12.194 9.745 L 12.218 9.78 L 12.241 9.798 L 12.265 9.815 L 12.289 9.85 L 12.312 9.868 L 12.336 9.903 L 12.359 9.921 L 12.383 9.956 L 12.407 9.974 L 12.43 10.009 L 12.454 10.026 L 12.466 10.062 L 12.489 10.079 L 12.513 10.114 L 12.525 10.132 L 12.548 10.167 L 12.56 10.185 L 12.583 10.22 L 12.595 10.238 L 12.619 10.273 L 12.631 10.29 L 12.642 10.326 L 12.666 10.343 L 12.678 10.378 L 12.69 10.378 L 12.701 10.413 L 12.725 10.449 L 12.725 10.466 L 12.749 10.501 L 12.76 10.519 L 12.772 10.537 L 12.796 10.589 L 12.819 10.642 L 12.843 10.677 L 12.855 10.73 L 12.878 10.765 L 12.89 10.818 L 12.902 10.853 L 12.926 10.889 L 12.926 10.924 L 12.949 10.959 L 12.949 10.994 L 12.961 11.029 L 12.973 11.065 L 12.973 11.082 L 12.985 11.1 L 12.985 11.135 L 12.996 11.135 L 12.996 11.188 L 13.008 11.188 L 13.008 11.258 L 12.996 11.293 L 12.985 11.311 L 12.985 11.346 L 12.961 11.346 L 12.961 11.381 L 12.949 11.399 L 12.949 11.434 L 12.937 11.434 L 12.914 11.504 L 12.914 11.522 L 12.902 11.54 L 12.902 11.575 L 12.89 11.575 L 12.89 11.628 L 12.878 11.645 L 12.878 11.68 L 12.867 11.716 L 12.867 11.768 L 12.855 11.786 L 12.855 11.927 L 12.843 11.962 L 12.843 12.12 L 12.855 12.155 L 12.855 12.208 L 12.867 12.208 L 12.867 12.279 L 12.855 12.279 L 12.843 12.296 L 12.749 12.296 L 12.737 12.314 L 12.654 12.314 L 12.642 12.331 L 12.619 12.331 L 12.595 12.349 L 12.572 12.349 L 12.572 12.367 L 12.56 12.367 L 12.536 12.384 L 12.513 12.402 L 12.489 12.419 L 12.466 12.437 L 12.442 12.455 L 12.43 12.472 L 12.418 12.49 L 12.407 12.49 L 12.395 12.507 L 12.395 12.525 L 12.371 12.525 L 12.371 12.56 L 12.359 12.56 L 12.348 12.578 L 12.348 12.595 L 12.324 12.613 L 12.324 12.63 L 12.312 12.648 L 12.312 12.666 L 12.3 12.683 L 12.289 12.701 L 12.289 12.718 L 12.277 12.754 L 12.265 12.771 L 12.265 12.806 L 12.253 12.824 L 12.253 12.842 L 12.241 12.877 L 12.241 12.894 L 12.23 12.93 L 12.23 12.947 L 12.218 12.965 L 12.218 13 L 12.206 13.018 L 12.206 13.035 L 12.194 13.07 L 12.194 13.106 L 12.182 13.141 L 12.182 13.211 L 12.171 13.211 L 12.171 13.334 L 12.159 13.387 L 12.159 13.757 L 12.171 13.792 L 12.171 13.827 L 12.182 13.862 L 12.182 13.897 L 12.194 13.933 L 12.194 13.968 L 12.206 14.003 L 12.206 14.038 L 12.218 14.073 L 12.23 14.108 L 12.23 14.144 L 12.241 14.161 L 12.253 14.196 L 12.253 14.232 L 12.265 14.249 L 12.277 14.284 L 12.289 14.302 L 12.289 14.337 L 12.3 14.355 L 12.312 14.39 L 12.336 14.425 L 12.336 14.443 L 12.359 14.478 L 12.359 14.513 L 12.383 14.548 L 12.395 14.566 L 12.407 14.601 L 12.418 14.619 L 12.43 14.636 L 12.43 15.287 L 12.442 15.323 L 12.442 15.411 L 12.454 15.446 L 12.454 15.481 L 12.466 15.534 L 12.466 15.569 L 12.477 15.604 L 12.477 15.639 L 12.489 15.674 L 12.489 15.71 L 12.501 15.745 L 12.513 15.798 L 12.513 15.833 L 12.536 15.868 L 12.536 15.903 L 12.548 15.938 L 12.56 15.991 L 12.572 16.026 L 12.583 16.062 L 12.595 16.097 L 12.607 16.132 L 12.631 16.185 L 12.631 16.22 L 12.654 16.255 L 12.666 16.29 L 12.69 16.326 L 12.701 16.361 L 12.725 16.413 L 12.749 16.449 L 12.76 16.484 L 12.784 16.519 L 12.808 16.554 L 12.831 16.589 L 12.843 16.607 L 12.855 16.625 L 12.867 16.642 L 12.878 16.66 L 12.89 16.66 L 12.902 16.695 L 12.914 16.695 L 12.926 16.713 L 12.937 16.73 L 12.961 16.73 L 12.961 16.748 L 12.985 16.765 L 13.008 16.783 L 13.02 16.801 L 13.032 16.801 L 13.044 16.818 L 13.055 16.836 L 13.079 16.836 L 13.102 16.871 L 13.126 16.871 L 13.161 16.906 L 13.185 16.906 L 13.22 16.941 L 13.244 16.941 L 13.268 16.959 L 13.303 16.977 L 13.327 16.977 L 13.362 16.994 L 13.386 17.012 L 13.421 17.012 L 13.445 17.029 L 13.48 17.029 L 13.504 17.047 L 13.562 17.047 L 13.598 17.065 L 13.704 17.065 L 13.728 17.082 L 14.152 17.082 L 14.164 17.065 L 14.235 17.065 L 14.247 17.1 L 14.258 17.117 L 14.27 17.135 L 14.282 17.152 L 14.294 17.17 L 14.306 17.17 L 14.317 17.205 L 14.329 17.205 L 14.341 17.223 L 14.353 17.24 L 14.365 17.24 L 14.376 17.258 L 14.388 17.276 L 14.412 17.293 L 14.412 17.311 L 14.435 17.328 L 14.459 17.346 L 14.483 17.364 L 14.506 17.364 L 14.518 17.399 L 14.553 17.399 L 14.565 17.416 L 14.589 17.416 L 14.6 17.434 L 14.648 17.434 L 14.659 17.452 L 14.73 17.452 L 14.754 17.469 L 14.789 17.469 L 14.813 17.487 L 14.884 17.487 L 14.884 17.504 L 15.19 17.504 L 15.226 17.487 L 15.273 17.487 L 15.296 17.469 L 15.32 17.469 L 15.355 17.434 L 15.403 17.434 L 15.426 17.399 L 15.461 17.399 L 15.485 17.381 L 15.509 17.381 L 15.532 17.346 L 15.556 17.346 L 15.579 17.328 L 15.603 17.311 L 15.627 17.293 L 15.65 17.276 L 15.674 17.258 L 15.686 17.258 L 15.709 17.223 L 15.733 17.223 L 15.745 17.188 L 15.768 17.188 L 15.792 17.152 L 15.804 17.152 L 15.827 17.135 L 15.851 17.1 L 15.886 17.065 L 15.91 17.047 L 15.933 17.012 L 15.957 16.994 L 15.98 16.977 L 15.98 16.959 L 16.004 16.941 L 16.016 16.924 L 16.028 16.924 L 16.028 16.906 L 16.098 16.906 L 16.134 16.924 L 16.169 16.924 L 16.205 16.941 L 16.24 16.941 L 16.275 16.959 L 16.346 16.959 L 16.382 16.977 L 16.7 16.977 L 16.724 16.959 L 16.759 16.959 L 16.783 16.941 L 16.842 16.941 L 16.865 16.924 L 16.9 16.924 L 16.924 16.906 L 16.948 16.889 L 16.971 16.889 L 16.995 16.871 L 17.018 16.871 L 17.042 16.853 L 17.066 16.836 L 17.089 16.836 L 17.113 16.818 L 17.136 16.801 L 17.16 16.801 L 17.172 16.783 L 17.195 16.765 L 17.219 16.765 L 17.231 16.748 L 17.254 16.73 L 17.278 16.713 L 17.313 16.677 L 17.337 16.677 L 17.36 16.642 L 17.384 16.642 L 17.408 16.607 L 17.419 16.607 L 17.431 16.589 L 17.443 16.572 L 17.514 16.572 L 17.526 16.589 L 17.537 16.589 L 17.561 16.607 L 17.585 16.607 L 17.608 16.625 L 17.632 16.625 L 17.655 16.642 L 18.033 16.642 L 18.056 16.625 L 18.104 16.625 L 18.127 16.607 L 18.151 16.607 L 18.174 16.589 L 18.198 16.589 L 18.222 16.572 L 18.257 16.572 L 18.269 16.554 L 18.292 16.554 L 18.304 16.537 L 18.328 16.537 L 18.328 16.519 L 18.339 16.519 L 18.351 16.501 L 18.375 16.484 L 18.387 16.466 L 18.398 16.431 L 18.41 16.431 L 18.422 16.413 L 18.422 16.396 L 18.434 16.396 L 18.446 16.361 L 18.457 16.361 L 18.457 16.326 L 18.469 16.326 L 18.469 16.308 L 18.481 16.29 L 18.493 16.255 L 18.493 16.22 L 18.505 16.22 L 18.505 16.202 L 18.516 16.185 L 18.516 16.15 L 18.528 16.132 L 18.528 16.097 L 18.54 16.062 L 18.54 16.026 L 18.552 15.991 L 18.552 15.956 L 18.564 15.921 L 18.564 15.798 L 18.575 15.762 L 18.575 15.199 L 18.564 15.147 L 18.564 15.023 L 18.552 14.988 L 18.552 14.935 L 18.54 14.9 L 18.54 14.777 L 18.552 14.76 L 18.564 14.742 L 18.575 14.724 L 18.587 14.707 L 18.599 14.672 L 18.623 14.654 L 18.634 14.619 L 18.658 14.584 L 18.67 14.548 L 18.682 14.548 L 18.682 14.513 L 18.705 14.496 L 18.705 14.478 L 18.717 14.443 L 18.729 14.425 L 18.741 14.408 L 18.741 14.372 L 18.764 14.355 L 18.764 14.32 L 18.776 14.302 L 18.788 14.267 L 18.788 14.249 L 18.811 14.214 L 18.811 14.179 L 18.823 14.144 L 18.823 14.126 L 18.835 14.091 L 18.847 14.056 L 18.847 14.021 L 18.858 13.985 L 18.858 13.95 L 18.87 13.915 L 18.87 13.88 L 18.882 13.845 L 18.882 13.774 L 18.894 13.739 L 18.894 13.264 L 18.882 13.229 L 18.882 13.194 L 18.87 13.158 L 18.87 13.088 L 18.858 13.07 L 18.858 13.053 L 18.847 13.018 L 18.847 12.982 L 18.835 12.982 L 18.835 12.947 L 18.811 12.93 L 18.811 12.877 L 18.799 12.859 L 18.799 12.842 L 18.788 12.824 L 18.788 12.806 L 18.764 12.789 L 18.764 12.736 L 18.741 12.701 L 18.729 12.666 L 18.705 12.63 L 18.693 12.595 L 18.67 12.56 L 18.658 12.543 L 18.634 12.507 L 18.623 12.49 L 18.599 12.455 L 18.587 12.419 L 18.564 12.402 L 18.54 12.384 L 18.528 12.349 L 18.505 12.331 L 18.481 12.296 L 18.469 12.296 L 18.446 12.261 L 18.422 12.243 L 18.41 12.226 L 18.387 12.191 L 18.363 12.191 L 18.339 12.155 L 18.328 12.155 L 18.304 12.12 L 18.281 12.12 L 18.269 12.103 L 18.245 12.085 L 18.222 12.067 L 18.21 12.067 L 18.186 12.032 L 18.174 12.032 L 18.151 12.015 L 18.115 11.997 L 18.092 11.979 L 18.056 11.962 L 18.033 11.944 L 18.009 11.944 L 17.986 11.909 L 17.938 11.909 L 17.927 11.891 L 17.915 11.891 L 17.915 11.874 L 17.903 11.874 L 17.903 11.804 L 17.891 11.768 L 17.891 11.733 L 17.879 11.698 L 17.868 11.663 L 17.868 11.628 L 17.856 11.592 L 17.844 11.557 L 17.844 11.54 L 17.82 11.504 L 17.82 11.469 L 17.797 11.452 L 17.797 11.416 L 17.785 11.381 L 17.773 11.364 L 17.75 11.328 L 17.726 11.311 L 17.726 11.276 L 17.703 11.258 L 17.691 11.24 L 17.679 11.205 L 17.655 11.205 L 17.655 11.152 L 17.632 11.152 L 17.62 11.135 L 17.596 11.117 L 17.596 11.082 L 17.573 11.082 L 17.561 11.047 L 17.537 11.047 L 17.537 11.029 L 17.514 11.012 L 17.502 10.994 L 17.478 10.994 L 17.478 10.959 L 17.455 10.959 L 17.443 10.941 L 17.419 10.941 L 17.419 10.906 L 17.384 10.906 L 17.36 10.871 L 17.337 10.871 L 17.313 10.836 L 17.29 10.836 L 17.278 10.818 L 17.254 10.818 L 17.254 10.801 L 17.219 10.801 L 17.219 10.783 L 17.207 10.783 L 17.195 10.765 L 17.195 10.73 L 17.184 10.66 L 17.184 10.589 L 17.16 10.519 L 17.16 10.378 L 17.136 10.29 L 17.136 10.22 L 17.125 10.15 L 17.125 10.062 L 17.101 9.974 L 17.101 9.921 L 17.077 9.833 L 17.077 9.745 L 17.054 9.674 L 17.054 9.569 L 17.03 9.481 L 17.018 9.393 L 17.007 9.305 L 16.983 9.217 L 16.983 9.111 L 16.959 9.023 L 16.936 8.935 L 16.924 8.848 L 16.9 8.742 L 16.889 8.654 L 16.865 8.548 L 16.842 8.46 L 16.818 8.355 L 16.794 8.267 L 16.783 8.161 L 16.759 8.073 L 16.735 7.968 L 16.7 7.862 L 16.676 7.774 L 16.653 7.669 L 16.629 7.563 L 16.594 7.457 L 16.57 7.369 L 16.547 7.264 L 16.511 7.158 L 16.476 7.053 L 16.452 6.947 L 16.417 6.859 L 16.382 6.754 L 16.346 6.648 L 16.311 6.543 L 16.275 6.437 L 16.24 6.331 L 16.205 6.226 L 16.169 6.138 L 16.122 6.032 L 16.087 5.927 L 16.063 5.874 L 16.051 5.821 L 16.028 5.768 L 16.004 5.716 L 15.98 5.663 L 15.957 5.628 L 15.945 5.575 L 15.921 5.522 L 15.898 5.469 L 15.874 5.416 L 15.851 5.364 L 15.827 5.311 L 15.804 5.258 L 15.78 5.223 L 15.756 5.17 L 15.733 5.117 L 15.709 5.065 L 15.686 5.012 L 15.662 4.959 L 15.638 4.924 L 15.615 4.871 L 15.579 4.818 L 15.556 4.765 L 15.532 4.73 L 15.509 4.677 L 15.485 4.625 L 15.45 4.572 L 15.426 4.519 L 15.403 4.484 L 15.367 4.431 L 15.344 4.378 L 15.32 4.343 L 15.273 4.29 L 15.273 4.238 L 15.237 4.202 L 15.214 4.15 L 15.19 4.097 L 15.155 4.062 L 15.119 4.009 L 15.096 3.956 L 15.06 3.921 L 15.037 3.868 L 15.001 3.833 L 14.978 3.78 L 14.943 3.745 L 14.907 3.692 L 14.872 3.657 L 14.848 3.604 L 14.813 3.569 L 14.777 3.516 L 14.742 3.481 L 14.718 3.428 L 14.683 3.393 L 14.648 3.34 L 14.612 3.305 L 14.577 3.252 L 14.541 3.217 L 14.506 3.182 L 14.471 3.129 L 14.435 3.094 L 14.4 3.059 L 14.365 3.023 L 14.329 2.971 L 14.294 2.935 L 14.258 2.9 L 14.211 2.865 L 14.176 2.812 L 14.14 2.777 L 14.105 2.742 L 14.058 2.707 L 14.022 2.672 L 13.987 2.636 L 13.94 2.601 L 13.905 2.566 L 13.869 2.531 L 13.822 2.496 L 13.787 2.46 L 13.739 2.425 L 13.704 2.39 L 13.657 2.355 L 13.621 2.32 L 13.574 2.284 L 13.527 2.249 L 13.492 2.214 L 13.445 2.179 L 13.397 2.161 L 13.362 2.126 L 13.315 2.091 L 13.268 2.056 L 13.22 2.038 L 13.173 2.003 L 13.138 1.968 L 13.091 1.95 L 13.044 1.915 L 12.996 1.88 L 12.949 1.862 L 12.902 1.827 L 12.855 1.809 L 12.808 1.774 L 12.76 1.757 L 12.701 1.721 L 12.654 1.721 L 12.607 1.686 L 12.56 1.651 L 12.513 1.651 L 12.454 1.616 L 12.407 1.581 L 12.359 1.581 L 12.3 1.545 L 12.253 1.528 L 12.206 1.51 L 12.147 1.493 L 12.1 1.475 L 12.041 1.44 L 11.994 1.44 L 11.935 1.405 L 11.876 1.405 L 11.829 1.387 L 11.77 1.37 L 11.711 1.352 L 11.663 1.334 L 11.605 1.334 L 11.534 1.299 L 11.475 1.299 L 11.428 1.282 L 11.369 1.282 L 11.31 1.264 L 11.251 1.246 L 11.192 1.246 L 11.133 1.229 L 11.074 1.229 L 11.015 1.211 L 10.956 1.211 L 10.897 1.194 L 10.767 1.194 L 10.708 1.176 L 10.46 1.176 L 10.39 1.158 L 9.729 1.158 L 9.67 1.176 L 9.529 1.176 L 9.47 1.194 L 9.399 1.194 L 9.34 1.211 L 9.257 1.211 L 9.198 1.229 L 9.139 1.229 L 9.08 1.246 L 9.021 1.264 L 8.951 1.264 L 8.903 1.299 L 8.833 1.299 L 8.774 1.317 L 8.715 1.317 L 8.656 1.352 L 8.585 1.352 L 8.526 1.387 L 8.467 1.387 L 8.408 1.422 L 8.361 1.422 L 8.302 1.457 L 8.243 1.457 L 8.184 1.493 L 8.125 1.51 L 8.078 1.528 L 8.019 1.563 L 7.96 1.581 L 7.913 1.598 L 7.854 1.633 L 7.795 1.651 L 7.748 1.669 L 7.689 1.704 L 7.641 1.721 L 7.594 1.757 L 7.535 1.774 L 7.488 1.809 L 7.429 1.827 L 7.382 1.862 L 7.335 1.897 L 7.288 1.915 L 7.24 1.95 L 7.181 1.985 L 7.134 2.003 L 7.087 2.038 L 7.04 2.073 L 6.993 2.109 L 6.945 2.126 L 6.898 2.161 L 6.851 2.196 L 6.816 2.232 L 6.769 2.267 L 6.721 2.302 L 6.674 2.337 L 6.627 2.372 L 6.592 2.408 L 6.544 2.443 L 6.497 2.478 L 6.462 2.513 L 6.415 2.548 L 6.379 2.584 L 6.332 2.619 L 6.297 2.672 L 6.25 2.707 L 6.214 2.742 L 6.167 2.777 L 6.132 2.812 L 6.096 2.865 L 6.049 2.9 L 6.014 2.935 L 5.978 2.971 L 5.943 3.023 L 5.896 3.059 L 5.86 3.094 L 5.825 3.147 L 5.79 3.182 L 5.754 3.235 L 5.719 3.27 L 5.683 3.305 L 5.648 3.358 L 5.613 3.393 L 5.577 3.446 L 5.542 3.481 L 5.506 3.534 L 5.471 3.569 L 5.448 3.622 L 5.412 3.657 L 5.377 3.71 L 5.341 3.745 L 5.318 3.798 L 5.282 3.85 L 5.247 3.886 L 5.223 3.938 L 5.188 3.974 L 5.153 4.026 L 5.129 4.079 L 5.094 4.114 L 5.07 4.167 L 5.035 4.22 L 5.011 4.255 L 4.987 4.308 L 4.952 4.361 L 4.929 4.396 L 4.905 4.449 L 4.87 4.501 L 4.846 4.537 L 4.822 4.589 L 4.787 4.642 L 4.763 4.695 L 4.74 4.73 L 4.716 4.783 L 4.693 4.836 L 4.669 4.871 L 4.645 4.924 L 4.61 4.977 L 4.586 5.029 L 4.563 5.065 L 4.539 5.117 L 4.516 5.17 L 4.504 5.223 L 4.48 5.258 L 4.457 5.311 L 4.433 5.364 L 4.41 5.416 L 4.386 5.469 L 4.362 5.504 L 4.351 5.557 L 4.327 5.61 L 4.303 5.663 L 4.268 5.751 L 4.221 5.856 L 4.185 5.944 L 4.15 6.032 L 4.115 6.138 L 4.079 6.226 L 4.044 6.331 L 4.009 6.419 L 3.973 6.525 L 3.95 6.613 L 3.914 6.701 L 3.891 6.789 L 3.855 6.894 L 3.832 6.982 L 3.808 7.07 L 3.773 7.158 L 3.749 7.246 L 3.725 7.334 L 3.702 7.422 L 3.678 7.51 L 3.655 7.598 L 3.631 7.686 L 3.619 7.757 L 3.596 7.845 L 3.572 7.933 L 3.56 8.003 L 3.537 8.073 L 3.537 8.161 L 3.513 8.232 L 3.49 8.302 L 3.49 8.372 L 3.466 8.443 L 3.454 8.513 L 3.442 8.584 L 3.431 8.654 L 3.419 8.724 L 3.407 8.777 L 3.395 8.848 L 3.383 8.9 L 3.383 8.953 L 3.36 9.006 L 3.36 9.111 L 3.336 9.217 L 3.324 9.305 L 3.313 9.375 L 3.313 9.446 L 3.301 9.499 L 3.301 9.551 L 3.289 9.604 L 3.289 9.657 L 3.277 9.657 L 3.277 9.674 Z " fill-rule="evenodd" fill="rgb(207,207,207)"/><path d=" M 13.362 12.613 C 13.244 12.49 13.15 10.413 14.506 11.029 C 14.412 10.853 15.497 9.639 16.098 11.188 C 16.098 11.188 17.042 10.625 17.49 12.595 C 17.632 12.261 19.177 13.123 17.962 14.619 C 18.163 14.742 18.516 16.66 17.266 15.886 C 17.266 15.886 16.488 17.082 15.957 15.991 C 16.075 16.238 14.931 17.804 14.258 16.29 C 14.294 16.801 12.359 16.378 12.926 14.584 C 12.926 14.584 12.112 12.859 13.362 12.613 Z  M 7.134 14.548 C 7.252 14.672 7.264 16.801 5.955 16.097 C 6.037 16.273 4.929 17.434 4.386 15.833 C 4.386 15.833 3.431 16.343 3.053 14.302 C 2.9 14.636 1.402 13.669 2.652 12.208 C 2.452 12.067 2.157 10.097 3.36 10.977 C 3.36 10.977 4.185 9.798 4.669 10.924 C 4.563 10.677 5.731 9.164 6.344 10.748 C 6.332 10.22 8.231 10.765 7.618 12.56 C 7.618 12.56 8.361 14.372 7.134 14.548 Z  M 7.134 14.548 L 7.111 14.548 L 7.134 14.548 Z  M 13.362 12.613 L 13.35 12.613 L 13.362 12.613 Z " fill-rule="evenodd" fill="rgb(255,255,255)"/><path d=" M 5.896 9.375 C 5.896 9.375 5.011 4.273 10.991 5.17 C 15.119 5.804 14.671 10.818 14.671 10.818 C 14.872 10.413 15.226 10.273 15.438 10.396 C 15.768 10.625 16.016 11.188 16.346 11.135 C 16.535 11.1 16.476 11.188 16.594 11.117 C 16.594 11.117 16.24 1.915 10.201 1.862 C 4.009 1.792 3.867 10.554 3.867 10.554 C 4.067 10.625 4.126 10.431 4.292 10.449 C 4.41 10.449 4.516 10.818 4.645 10.783 C 4.799 10.73 4.987 10.29 5.117 10.255 C 5.454 10.157 5.741 9.832 5.896 9.375 Z " fill-rule="evenodd" fill="rgb(236,128,158)"/><path d=" M 5.931 10.097 C 5.931 10.097 5.023 5.575 11.003 6.49 C 15.131 7.123 14.718 10.677 14.718 10.677 L 15.355 10.396 L 15.898 10.853 C 15.898 10.853 15.839 3.358 10.189 3.164 C 4.551 2.988 4.527 10.765 4.527 10.765 L 5.53 9.956 L 5.919 10.097 L 5.931 10.097 Z " fill-rule="evenodd" fill="rgb(236,226,128)"/><path d=" M 5.931 10.238 C 5.931 10.238 6.426 6.402 10.602 6.543 C 14.766 6.666 14.6 10.853 14.6 10.853 L 15.273 10.431 C 15.273 10.431 15.226 4.431 10.201 4.308 C 5.459 4.185 5.306 10.185 5.306 10.185 L 5.66 10.062 L 5.931 10.238 Z " fill-rule="evenodd" fill="rgb(128,236,135)"/><path d=" M 6.58 10.519 C 6.58 10.519 6.533 6.859 10.885 7.933 C 13.48 8.566 14.105 10.977 14.105 10.977 L 14.471 10.924 L 14.707 10.73 C 14.707 10.73 14.27 5.786 10.26 5.61 C 6.25 5.434 5.896 10.097 5.896 10.097 L 6.285 10.642 L 6.58 10.501 L 6.58 10.519 Z " fill-rule="evenodd" fill="rgb(128,233,236)"/><path d=" M 6.839 10.625 C 6.839 10.625 7.205 7.774 10.684 8.39 C 12.808 8.777 13.515 11.135 13.515 11.135 L 14.27 10.871 C 14.27 10.871 13.539 6.982 10.26 6.859 C 6.957 6.754 6.32 10.73 6.32 10.73 C 6.484 10.629 6.664 10.598 6.839 10.642 L 6.839 10.625 Z " fill-rule="evenodd" fill="rgb(209,128,236)"/><path d=" M 3.737 10.413 C 3.804 9.692 3.91 8.98 4.056 8.284 C 4.396 6.645 5.004 5.158 5.825 3.956 C 6.461 3.08 7.23 2.446 8.066 2.109 C 9.928 1.35 11.915 1.697 13.61 3.076 C 14.35 3.767 14.975 4.699 15.438 5.804 C 15.885 6.814 16.219 7.925 16.429 9.094 C 16.552 9.729 16.647 10.375 16.712 11.029 L 16.712 11.012 L 16.712 11.029 C 16.809 11.071 16.9 11.137 16.983 11.223 C 17.046 11.286 17.105 11.357 17.16 11.434 C 17.337 11.698 17.455 12.032 17.549 12.367 L 17.549 12.384 L 17.573 12.384 L 17.797 12.402 C 18.047 12.491 18.269 12.709 18.422 13.018 C 18.479 13.144 18.515 13.289 18.528 13.44 C 18.531 13.487 18.531 13.534 18.528 13.581 C 18.507 13.839 18.437 14.082 18.328 14.284 L 18.281 14.355 C 18.233 14.442 18.182 14.524 18.127 14.601 L 18.115 14.619 L 18.115 14.654 L 18.139 14.707 C 18.235 14.97 18.276 15.27 18.257 15.569 C 18.256 15.771 18.19 15.961 18.08 16.079 L 18.033 16.114 C 17.905 16.211 17.76 16.242 17.62 16.202 C 17.519 16.179 17.42 16.137 17.325 16.079 L 17.302 16.079 L 17.302 16.062 C 17.278 16.062 17.266 16.079 17.266 16.097 L 17.148 16.238 C 17.095 16.296 17.04 16.348 16.983 16.396 C 16.813 16.552 16.616 16.625 16.417 16.607 C 16.334 16.585 16.255 16.544 16.181 16.484 C 16.113 16.439 16.049 16.38 15.992 16.308 L 15.98 16.326 C 15.875 16.528 15.743 16.696 15.591 16.818 C 15.349 17.045 15.06 17.132 14.777 17.065 C 14.571 16.987 14.388 16.807 14.258 16.554 L 14.247 16.554 L 14.223 16.572 C 14.148 16.617 14.068 16.64 13.987 16.642 C 13.806 16.644 13.626 16.597 13.456 16.501 C 13.387 16.464 13.319 16.417 13.256 16.361 C 13.077 16.232 12.926 16.031 12.819 15.78 C 12.743 15.577 12.71 15.343 12.725 15.111 C 12.725 14.935 12.76 14.76 12.808 14.619 L 12.784 14.531 L 12.76 14.478 C 12.734 14.409 12.711 14.339 12.69 14.267 L 12.642 14.108 L 12.619 13.985 C 12.56 13.736 12.552 13.467 12.595 13.211 C 12.646 12.977 12.756 12.781 12.902 12.666 C 12.998 12.585 13.101 12.526 13.209 12.49 L 13.209 12.402 C 13.183 12.065 13.219 11.724 13.315 11.416 C 13.338 11.311 13.386 11.24 13.433 11.152 C 13.433 11.135 13.433 11.117 13.456 11.117 C 13.212 10.536 12.901 10.023 12.536 9.604 C 11.973 8.97 11.295 8.602 10.59 8.548 C 10.116 8.478 9.637 8.478 9.163 8.548 L 8.962 8.601 C 8.455 8.725 7.974 9.027 7.559 9.481 C 7.328 9.765 7.136 10.111 6.993 10.501 C 7.086 10.548 7.177 10.607 7.264 10.677 C 7.5 10.843 7.689 11.13 7.795 11.487 L 7.83 11.716 L 7.83 12.032 C 7.818 12.208 7.783 12.384 7.736 12.543 L 7.759 12.63 L 7.771 12.683 C 7.822 12.847 7.861 13.018 7.889 13.194 C 7.942 13.458 7.942 13.739 7.889 14.003 C 7.856 14.136 7.804 14.256 7.736 14.355 C 7.687 14.425 7.631 14.485 7.571 14.531 C 7.477 14.598 7.378 14.645 7.276 14.672 L 7.276 14.777 C 7.292 15.13 7.243 15.483 7.134 15.798 C 7.054 16.013 6.93 16.185 6.78 16.29 C 6.568 16.401 6.337 16.413 6.12 16.326 L 6.025 16.273 L 6.014 16.308 L 5.99 16.308 C 5.748 16.646 5.425 16.824 5.094 16.801 C 4.896 16.773 4.709 16.649 4.563 16.449 C 4.47 16.321 4.39 16.172 4.327 16.009 L 4.303 16.009 L 4.268 16.026 C 4.174 16.046 4.079 16.046 3.985 16.026 C 3.77 15.973 3.571 15.819 3.419 15.587 C 3.227 15.289 3.085 14.927 3.006 14.531 L 3.006 14.513 L 2.935 14.513 C 2.812 14.492 2.692 14.439 2.581 14.355 C 2.409 14.235 2.262 14.046 2.157 13.809 C 2.09 13.639 2.061 13.442 2.074 13.246 C 2.098 12.982 2.192 12.718 2.298 12.543 L 2.345 12.437 C 2.395 12.347 2.45 12.265 2.511 12.191 L 2.511 12.155 L 2.487 12.103 C 2.4 11.829 2.368 11.524 2.393 11.223 C 2.393 11.117 2.416 11.047 2.452 10.959 C 2.482 10.863 2.526 10.779 2.581 10.713 C 2.6 10.693 2.62 10.675 2.64 10.66 C 2.758 10.589 2.888 10.589 3.006 10.625 L 3.065 10.625 L 3.136 10.66 C 3.209 10.692 3.28 10.733 3.348 10.783 L 3.36 10.783 L 3.407 10.73 L 3.454 10.677 L 3.548 10.589 L 3.631 10.501 L 3.749 10.413 L 3.737 10.413 Z  M 13.598 11.328 C 13.542 11.421 13.498 11.528 13.468 11.645 C 13.409 11.868 13.388 12.111 13.409 12.349 L 13.445 12.701 L 13.445 12.718 L 13.421 12.736 C 13.406 12.747 13.39 12.753 13.374 12.754 L 13.35 12.754 L 13.303 12.771 C 13.209 12.794 13.118 12.836 13.032 12.894 C 12.985 12.927 12.941 12.968 12.902 13.018 C 12.864 13.067 12.832 13.127 12.808 13.194 C 12.765 13.368 12.757 13.558 12.784 13.739 L 12.796 13.845 C 12.828 13.99 12.867 14.131 12.914 14.267 L 13.008 14.496 L 13.044 14.584 L 13.008 14.689 L 12.985 14.742 C 12.951 14.871 12.931 15.008 12.926 15.147 C 12.917 15.304 12.938 15.462 12.985 15.604 C 13.055 15.78 13.173 15.956 13.291 16.062 L 13.362 16.114 C 13.567 16.267 13.793 16.346 14.022 16.343 L 14.046 16.343 L 14.129 16.308 L 14.341 16.202 L 14.376 16.273 L 14.412 16.326 C 14.459 16.431 14.53 16.519 14.589 16.607 C 14.683 16.705 14.793 16.765 14.907 16.783 C 15.072 16.818 15.261 16.748 15.403 16.625 C 15.528 16.533 15.643 16.414 15.745 16.273 L 15.98 15.903 L 16.24 16.202 C 16.291 16.246 16.347 16.276 16.405 16.29 C 16.547 16.318 16.691 16.281 16.818 16.185 L 16.877 16.132 C 16.944 16.083 17.007 16.024 17.066 15.956 L 17.243 15.71 C 17.35 15.779 17.46 15.838 17.573 15.886 L 17.726 15.903 C 17.797 15.903 17.856 15.903 17.927 15.868 C 17.949 15.849 17.969 15.826 17.986 15.798 C 18.031 15.718 18.06 15.62 18.068 15.516 L 18.068 15.287 C 18.05 15.138 18.014 14.996 17.962 14.865 L 17.938 14.812 L 17.915 14.777 L 17.891 14.513 C 17.915 14.513 17.927 14.478 17.95 14.46 L 17.997 14.39 L 18.08 14.267 C 18.131 14.178 18.178 14.084 18.222 13.985 C 18.299 13.836 18.333 13.645 18.316 13.457 L 18.316 13.369 C 18.28 13.206 18.209 13.064 18.115 12.965 L 18.068 12.93 L 17.997 12.859 C 17.938 12.806 17.875 12.765 17.809 12.736 C 17.671 12.715 17.533 12.692 17.396 12.666 L 17.372 12.56 L 17.349 12.455 C 17.273 12.144 17.152 11.861 16.995 11.628 C 16.77 11.302 16.444 11.187 16.146 11.328 L 16.051 11.381 L 15.992 11.223 C 15.935 11.084 15.863 10.959 15.78 10.853 C 15.613 10.63 15.387 10.533 15.167 10.589 C 15.023 10.621 14.886 10.699 14.766 10.818 C 14.733 10.851 14.701 10.886 14.671 10.924 L 14.471 11.188 L 14.412 11.17 L 14.353 11.135 L 14.247 11.117 L 14.164 11.1 C 14.011 11.065 13.854 11.102 13.716 11.205 C 13.687 11.224 13.659 11.248 13.633 11.276 L 13.598 11.346 L 13.598 11.328 Z  M 3.832 10.677 L 3.808 10.677 L 3.749 10.73 C 3.634 10.829 3.527 10.947 3.431 11.082 L 3.372 11.152 L 3.265 11.082 C 3.152 11.006 3.033 10.947 2.912 10.906 C 2.841 10.906 2.77 10.906 2.711 10.941 C 2.699 10.946 2.687 10.952 2.676 10.959 C 2.605 11.029 2.581 11.152 2.558 11.276 C 2.554 11.328 2.554 11.381 2.558 11.434 L 2.558 11.54 L 2.57 11.663 L 2.617 11.927 L 2.699 12.331 L 2.652 12.402 C 2.569 12.506 2.49 12.618 2.416 12.736 L 2.381 12.806 C 2.298 12.982 2.239 13.158 2.251 13.369 L 2.251 13.475 L 2.298 13.651 C 2.322 13.721 2.357 13.774 2.404 13.827 C 2.452 13.933 2.534 13.985 2.593 14.056 C 2.676 14.161 3.136 14.302 3.136 14.249 L 3.159 14.372 L 3.183 14.478 L 3.218 14.636 C 3.277 14.83 3.336 15.023 3.419 15.182 C 3.511 15.374 3.632 15.531 3.773 15.639 C 3.884 15.711 4.005 15.747 4.126 15.745 C 4.199 15.744 4.27 15.726 4.339 15.692 L 4.421 15.639 L 4.48 15.815 L 4.504 15.886 C 4.551 16.009 4.622 16.132 4.681 16.238 L 4.858 16.413 C 4.99 16.508 5.138 16.538 5.282 16.501 C 5.377 16.501 5.459 16.449 5.542 16.396 C 5.624 16.361 5.966 15.956 5.978 15.938 C 5.99 15.921 6.014 15.974 6.037 15.974 L 6.096 16.009 L 6.179 16.044 L 6.261 16.044 C 6.415 16.097 6.58 16.097 6.721 15.991 C 6.785 15.937 6.841 15.865 6.886 15.78 C 6.925 15.705 6.957 15.622 6.981 15.534 C 7.016 15.41 7.04 15.28 7.052 15.147 C 7.063 15.041 7.04 14.478 7.04 14.478 L 7.028 14.443 C 7.055 14.4 7.095 14.38 7.134 14.39 L 7.181 14.39 C 7.271 14.372 7.358 14.337 7.441 14.284 C 7.515 14.239 7.58 14.166 7.63 14.073 L 7.665 14.003 C 7.725 13.823 7.741 13.618 7.712 13.422 L 7.712 13.334 C 7.674 13.092 7.61 12.861 7.523 12.648 L 7.488 12.56 L 7.523 12.455 C 7.569 12.322 7.601 12.179 7.618 12.032 C 7.629 11.891 7.621 11.747 7.594 11.61 L 7.571 11.504 C 7.486 11.273 7.354 11.088 7.193 10.977 C 7.119 10.905 7.04 10.846 6.957 10.801 C 6.835 10.74 6.708 10.704 6.58 10.695 C 6.548 10.696 6.516 10.702 6.485 10.713 L 6.25 10.818 L 6.214 10.748 C 6.158 10.613 6.086 10.494 6.002 10.396 C 5.917 10.289 5.816 10.216 5.707 10.185 C 5.518 10.152 5.327 10.214 5.164 10.361 C 5.079 10.42 4.999 10.497 4.929 10.589 L 4.622 10.994 C 4.514 10.864 4.4 10.747 4.28 10.642 C 4.154 10.577 4.017 10.577 3.891 10.642 L 3.832 10.677 Z  M 16.547 10.977 C 16.424 9.78 16.182 8.617 15.827 7.528 C 15.498 6.466 15.061 5.486 14.53 4.625 C 13.62 3.187 12.393 2.288 11.074 2.091 C 10.779 2.038 10.484 2.003 10.177 2.003 L 10.083 2.003 C 8.935 1.964 7.802 2.389 6.804 3.235 C 6.444 3.561 6.111 3.951 5.813 4.396 C 4.769 6.003 4.114 8.083 3.95 10.308 C 4.043 10.283 4.139 10.283 4.233 10.308 C 4.316 10.325 4.396 10.367 4.469 10.431 C 4.539 10.484 4.586 10.554 4.634 10.607 L 4.657 10.607 C 4.725 10.458 4.814 10.332 4.917 10.238 C 5.117 10.026 5.353 9.886 5.601 9.886 L 5.624 9.886 C 5.829 9.888 6.026 10.001 6.179 10.202 C 6.25 10.273 6.297 10.378 6.356 10.466 L 6.368 10.466 C 6.442 10.418 6.522 10.394 6.603 10.396 C 6.662 10.396 6.721 10.396 6.792 10.431 L 6.91 10.114 L 6.945 10.044 C 7.116 9.67 7.332 9.348 7.582 9.094 C 8.089 8.592 8.674 8.295 9.281 8.232 C 10.116 8.125 10.958 8.262 11.758 8.636 C 12.69 9.217 13.244 10.255 13.527 10.994 L 13.551 10.994 C 13.608 10.928 13.672 10.875 13.739 10.836 C 13.964 10.756 14.199 10.756 14.424 10.836 L 14.447 10.836 L 14.447 10.801 C 14.621 10.527 14.848 10.343 15.096 10.273 C 15.382 10.182 15.679 10.3 15.898 10.589 C 16.004 10.713 16.075 10.853 16.134 10.994 L 16.216 10.994 C 16.275 10.975 16.334 10.963 16.393 10.959 L 16.558 10.959 L 16.547 10.977 Z " fill-rule="evenodd" fill="rgb(67,50,49)"/></g></g></svg>