<?xml version="1.0" encoding="UTF-8" standalone="no"?><!-- Generator: Gravit.io --><svg xmlns="http://www.w3.org/2000/svg" xmlns:xlink="http://www.w3.org/1999/xlink" style="isolation:isolate" viewBox="0 0 20 20" width="20pt" height="20pt"><defs><clipPath id="_clipPath_IYPoh2Nl3KIuQcsolsIILWglZpm4IXTl"><rect width="20" height="20"/></clipPath></defs><g clip-path="url(#_clipPath_IYPoh2Nl3KIuQcsolsIILWglZpm4IXTl)"><g><path d=" M 1.052 9.828 C 1.655 0.201 17.612 0.279 18.323 9.828 C 18.323 9.828 19.156 12.274 14.307 15.936 C 14.307 15.936 15.911 18.989 11.328 18.485 C 10.363 19.106 9.302 19.183 8.072 18.485 C 3.477 18.989 5.081 15.936 5.081 15.936 C 0.232 12.274 1.052 9.828 1.052 9.828 Z " fill-rule="evenodd" fill="rgb(0,0,0)" fill-opacity="0.2"/><path d=" M 1.619 9.272 C 2.222 -0.355 18.179 -0.277 18.89 9.272 C 18.89 9.272 19.723 11.717 14.874 15.379 C 14.874 15.379 16.478 18.42 11.895 17.928 C 10.93 18.549 9.869 18.627 8.639 17.928 C 4.043 18.42 5.648 15.379 5.648 15.379 C 0.799 11.717 1.619 9.272 1.619 9.272 Z " fill-rule="evenodd" fill="rgb(255,255,255)"/><path d=" M 1.68 9.285 L 1.68 9.324 L 1.668 9.35 L 1.668 9.401 L 1.655 9.427 L 1.655 9.453 L 1.643 9.492 L 1.643 9.634 L 1.631 9.66 L 1.631 9.945 L 1.643 9.984 L 1.643 10.074 L 1.655 10.113 L 1.655 10.152 L 1.668 10.191 L 1.668 10.229 L 1.68 10.268 L 1.692 10.307 L 1.692 10.346 L 1.716 10.385 L 1.716 10.423 L 1.728 10.462 L 1.74 10.514 L 1.752 10.553 L 1.764 10.592 L 1.776 10.643 L 1.788 10.682 L 1.812 10.734 L 1.812 10.786 L 1.836 10.825 L 1.86 10.876 L 1.873 10.928 L 1.897 10.98 L 1.909 11.032 L 1.933 11.083 L 1.957 11.135 L 1.981 11.174 L 2.005 11.239 L 2.029 11.29 L 2.053 11.342 L 2.078 11.394 L 2.102 11.446 L 2.138 11.51 L 2.162 11.562 L 2.198 11.627 L 2.222 11.679 L 2.258 11.743 L 2.295 11.795 L 2.331 11.86 L 2.367 11.924 L 2.403 11.976 L 2.439 12.041 L 2.488 12.106 L 2.524 12.17 L 2.572 12.235 L 2.608 12.3 L 2.656 12.364 L 2.705 12.429 L 2.753 12.494 L 2.801 12.558 L 2.862 12.623 L 2.91 12.688 L 2.958 12.765 L 3.018 12.83 L 3.079 12.895 L 3.139 12.973 L 3.199 13.037 L 3.26 13.115 L 3.32 13.18 L 3.38 13.257 L 3.453 13.335 L 3.513 13.4 L 3.585 13.477 L 3.658 13.555 L 3.73 13.632 L 3.802 13.697 L 3.887 13.775 L 3.959 13.852 L 4.043 13.93 L 4.128 14.008 L 4.2 14.085 L 4.297 14.163 L 4.381 14.241 L 4.466 14.331 L 4.562 14.409 L 4.647 14.486 L 4.743 14.564 L 4.839 14.655 L 4.936 14.732 L 5.045 14.81 L 5.141 14.9 L 5.25 14.978 L 5.358 15.069 L 5.467 15.146 L 5.575 15.237 L 5.684 15.315 L 5.696 15.327 L 5.696 15.353 L 5.708 15.353 L 5.708 15.405 L 5.684 15.431 L 5.684 15.457 L 5.672 15.47 L 5.66 15.496 L 5.648 15.534 L 5.636 15.56 L 5.611 15.599 L 5.611 15.638 L 5.587 15.677 L 5.575 15.716 L 5.551 15.767 L 5.551 15.806 L 5.539 15.832 L 5.539 15.858 L 5.527 15.884 L 5.515 15.91 L 5.515 15.936 L 5.503 15.961 L 5.503 15.987 L 5.491 16.026 L 5.491 16.052 L 5.479 16.078 L 5.479 16.104 L 5.467 16.13 L 5.467 16.194 L 5.455 16.22 L 5.455 16.285 L 5.443 16.311 L 5.443 16.699 L 5.455 16.725 L 5.455 16.751 L 5.467 16.79 L 5.467 16.815 L 5.491 16.854 L 5.491 16.893 L 5.503 16.906 L 5.503 16.932 L 5.515 16.932 L 5.515 16.971 L 5.527 16.984 L 5.527 16.997 L 5.551 17.023 L 5.551 17.048 L 5.563 17.061 L 5.563 17.074 L 5.587 17.087 L 5.587 17.113 L 5.611 17.139 L 5.611 17.165 L 5.636 17.178 L 5.636 17.191 L 5.648 17.204 L 5.66 17.217 L 5.672 17.242 L 5.696 17.268 L 5.72 17.294 L 5.744 17.32 L 5.744 17.333 L 5.768 17.346 L 5.768 17.359 L 5.792 17.372 L 5.792 17.385 L 5.816 17.398 L 5.828 17.411 L 5.841 17.424 L 5.865 17.437 L 5.865 17.449 L 5.889 17.462 L 5.901 17.475 L 5.925 17.475 L 5.937 17.501 L 5.961 17.501 L 5.973 17.527 L 5.985 17.527 L 6.009 17.54 L 6.021 17.553 L 6.046 17.566 L 6.058 17.579 L 6.082 17.592 L 6.106 17.592 L 6.118 17.618 L 6.142 17.618 L 6.166 17.631 L 6.19 17.644 L 6.202 17.644 L 6.226 17.669 L 6.251 17.669 L 6.275 17.682 L 6.299 17.682 L 6.323 17.708 L 6.347 17.708 L 6.371 17.721 L 6.395 17.721 L 6.419 17.734 L 6.444 17.747 L 6.468 17.747 L 6.492 17.76 L 6.528 17.773 L 6.552 17.773 L 6.576 17.786 L 6.6 17.786 L 6.637 17.799 L 6.661 17.799 L 6.697 17.812 L 6.721 17.812 L 6.757 17.825 L 6.781 17.825 L 6.817 17.838 L 6.842 17.838 L 6.878 17.851 L 6.914 17.851 L 6.938 17.864 L 7.01 17.864 L 7.047 17.876 L 7.155 17.876 L 7.191 17.889 L 7.3 17.889 L 7.336 17.902 L 8.265 17.902 L 8.313 17.889 L 8.409 17.889 L 8.458 17.876 L 8.518 17.876 L 8.566 17.864 L 8.651 17.864 L 8.711 17.889 L 8.771 17.928 L 8.832 17.954 L 8.88 17.98 L 8.94 18.019 L 9 18.045 L 9.049 18.058 L 9.109 18.084 L 9.157 18.109 L 9.193 18.122 L 9.218 18.122 L 9.242 18.148 L 9.266 18.148 L 9.302 18.161 L 9.326 18.174 L 9.35 18.174 L 9.374 18.187 L 9.411 18.2 L 9.435 18.2 L 9.459 18.213 L 9.483 18.226 L 9.519 18.226 L 9.543 18.239 L 9.567 18.252 L 9.591 18.252 L 9.616 18.265 L 9.652 18.265 L 9.676 18.278 L 9.7 18.278 L 9.724 18.291 L 9.772 18.291 L 9.809 18.303 L 9.857 18.303 L 9.881 18.316 L 9.929 18.316 L 9.965 18.329 L 10.038 18.329 L 10.062 18.342 L 10.219 18.342 L 10.243 18.355 L 10.556 18.355 L 10.58 18.342 L 10.689 18.342 L 10.713 18.329 L 10.761 18.329 L 10.785 18.316 L 10.822 18.316 L 10.846 18.303 L 10.87 18.303 L 10.894 18.291 L 10.918 18.291 L 10.942 18.278 L 10.991 18.278 L 11.039 18.252 L 11.087 18.239 L 11.135 18.226 L 11.183 18.213 L 11.232 18.187 L 11.268 18.174 L 11.316 18.148 L 11.364 18.135 L 11.413 18.109 L 11.461 18.096 L 11.497 18.071 L 11.545 18.045 L 11.594 18.019 L 11.642 18.006 L 11.678 17.98 L 11.726 17.954 L 11.774 17.928 L 11.811 17.889 L 11.859 17.864 L 12.052 17.864 L 12.1 17.876 L 12.209 17.876 L 12.257 17.889 L 12.402 17.889 L 12.45 17.902 L 13.33 17.902 L 13.366 17.889 L 13.439 17.889 L 13.475 17.876 L 13.535 17.876 L 13.572 17.864 L 13.644 17.864 L 13.668 17.851 L 13.704 17.851 L 13.728 17.838 L 13.764 17.838 L 13.801 17.825 L 13.825 17.825 L 13.849 17.812 L 13.885 17.812 L 13.909 17.799 L 13.945 17.799 L 13.97 17.786 L 13.994 17.773 L 14.018 17.773 L 14.042 17.76 L 14.078 17.76 L 14.102 17.734 L 14.15 17.734 L 14.175 17.708 L 14.199 17.708 L 14.223 17.695 L 14.247 17.695 L 14.271 17.669 L 14.295 17.657 L 14.319 17.657 L 14.343 17.631 L 14.368 17.631 L 14.38 17.618 L 14.404 17.605 L 14.428 17.592 L 14.44 17.592 L 14.464 17.566 L 14.476 17.566 L 14.5 17.54 L 14.512 17.54 L 14.536 17.527 L 14.548 17.514 L 14.561 17.501 L 14.585 17.488 L 14.597 17.475 L 14.609 17.462 L 14.633 17.462 L 14.645 17.437 L 14.657 17.437 L 14.669 17.411 L 14.693 17.411 L 14.693 17.385 L 14.717 17.385 L 14.729 17.359 L 14.741 17.346 L 14.753 17.333 L 14.766 17.32 L 14.778 17.307 L 14.79 17.294 L 14.802 17.281 L 14.802 17.268 L 14.826 17.255 L 14.826 17.242 L 14.85 17.217 L 14.862 17.191 L 14.874 17.191 L 14.874 17.165 L 14.886 17.152 L 14.898 17.139 L 14.898 17.126 L 14.922 17.113 L 14.922 17.087 L 14.934 17.061 L 14.946 17.048 L 14.946 17.035 L 14.959 17.023 L 14.959 16.997 L 14.971 16.997 L 14.971 16.971 L 14.983 16.958 L 14.983 16.945 L 14.995 16.932 L 14.995 16.906 L 15.007 16.906 L 15.007 16.867 L 15.019 16.854 L 15.019 16.815 L 15.031 16.79 L 15.031 16.751 L 15.043 16.725 L 15.043 16.699 L 15.055 16.66 L 15.055 16.57 L 15.067 16.531 L 15.067 16.259 L 15.055 16.22 L 15.055 16.169 L 15.043 16.13 L 15.043 16.104 L 15.031 16.078 L 15.031 16.052 L 15.019 16.026 L 15.019 15.987 L 15.007 15.961 L 15.007 15.936 L 14.995 15.91 L 14.995 15.884 L 14.983 15.858 L 14.971 15.832 L 14.971 15.806 L 14.959 15.78 L 14.959 15.767 L 14.934 15.716 L 14.922 15.677 L 14.898 15.638 L 14.898 15.599 L 14.874 15.56 L 14.862 15.534 L 14.85 15.496 L 14.838 15.47 L 14.838 15.457 L 14.814 15.431 L 14.814 15.405 L 14.802 15.405 L 14.802 15.327 L 14.814 15.327 L 14.934 15.237 L 15.055 15.146 L 15.151 15.069 L 15.26 14.978 L 15.369 14.9 L 15.465 14.81 L 15.562 14.732 L 15.658 14.655 L 15.755 14.564 L 15.851 14.486 L 15.947 14.409 L 16.032 14.331 L 16.128 14.241 L 16.213 14.163 L 16.297 14.085 L 16.382 14.008 L 16.466 13.93 L 16.538 13.852 L 16.623 13.775 L 16.695 13.697 L 16.768 13.632 L 16.84 13.555 L 16.912 13.477 L 16.985 13.4 L 17.057 13.335 L 17.117 13.257 L 17.19 13.18 L 17.25 13.115 L 17.31 13.037 L 17.371 12.973 L 17.431 12.895 L 17.491 12.83 L 17.54 12.765 L 17.6 12.688 L 17.648 12.623 L 17.696 12.558 L 17.745 12.494 L 17.793 12.429 L 17.841 12.364 L 17.889 12.3 L 17.938 12.235 L 17.974 12.17 L 18.022 12.106 L 18.058 12.041 L 18.094 11.976 L 18.143 11.924 L 18.179 11.86 L 18.215 11.795 L 18.239 11.743 L 18.275 11.679 L 18.311 11.627 L 18.336 11.562 L 18.372 11.51 L 18.396 11.446 L 18.432 11.394 L 18.456 11.342 L 18.48 11.29 L 18.504 11.239 L 18.529 11.174 L 18.553 11.122 L 18.577 11.07 L 18.589 11.019 L 18.613 10.98 L 18.637 10.928 L 18.649 10.876 L 18.673 10.825 L 18.673 10.786 L 18.697 10.734 L 18.709 10.682 L 18.734 10.643 L 18.734 10.592 L 18.758 10.553 L 18.758 10.514 L 18.782 10.462 L 18.782 10.423 L 18.794 10.385 L 18.806 10.346 L 18.806 10.307 L 18.818 10.268 L 18.818 10.229 L 18.83 10.191 L 18.83 10.139 L 18.842 10.1 L 18.842 10.061 L 18.854 10.035 L 18.854 9.958 L 18.866 9.932 L 18.866 9.44 L 18.854 9.414 L 18.854 9.362 L 18.842 9.337 L 18.842 9.311 L 18.83 9.298 L 18.83 9.259 L 18.818 9.207 L 18.818 9.104 L 18.806 9.039 L 18.806 8.987 L 18.794 8.935 L 18.794 8.884 L 18.782 8.832 L 18.782 8.767 L 18.758 8.715 L 18.758 8.612 L 18.734 8.56 L 18.734 8.508 L 18.721 8.457 L 18.721 8.405 L 18.697 8.353 L 18.697 8.301 L 18.685 8.25 L 18.673 8.198 L 18.661 8.146 L 18.661 8.094 L 18.637 8.043 L 18.637 7.991 L 18.613 7.939 L 18.613 7.887 L 18.589 7.849 L 18.577 7.797 L 18.565 7.745 L 18.553 7.693 L 18.529 7.642 L 18.529 7.603 L 18.504 7.551 L 18.492 7.499 L 18.48 7.447 L 18.456 7.409 L 18.444 7.357 L 18.432 7.305 L 18.408 7.266 L 18.396 7.215 L 18.372 7.176 L 18.372 7.124 L 18.348 7.072 L 18.323 7.033 L 18.311 6.982 L 18.287 6.943 L 18.263 6.891 L 18.251 6.852 L 18.227 6.8 L 18.215 6.762 L 18.191 6.71 L 18.167 6.671 L 18.155 6.619 L 18.131 6.581 L 18.106 6.542 L 18.082 6.49 L 18.07 6.451 L 18.046 6.412 L 18.022 6.361 L 17.998 6.322 L 17.974 6.283 L 17.95 6.231 L 17.938 6.192 L 17.913 6.154 L 17.889 6.128 L 17.865 6.089 L 17.841 6.037 L 17.817 5.998 L 17.793 5.959 L 17.769 5.921 L 17.732 5.882 L 17.708 5.843 L 17.684 5.804 L 17.66 5.765 L 17.636 5.727 L 17.612 5.688 L 17.588 5.649 L 17.552 5.61 L 17.527 5.571 L 17.503 5.532 L 17.467 5.494 L 17.443 5.455 L 17.419 5.416 L 17.395 5.377 L 17.359 5.338 L 17.334 5.3 L 17.298 5.261 L 17.274 5.222 L 17.238 5.196 L 17.214 5.157 L 17.19 5.118 L 17.154 5.08 L 17.129 5.054 L 17.093 5.015 L 17.057 4.976 L 17.033 4.937 L 16.997 4.911 L 16.973 4.873 L 16.936 4.834 L 16.9 4.808 L 16.876 4.769 L 16.84 4.743 L 16.804 4.704 L 16.78 4.665 L 16.744 4.64 L 16.707 4.601 L 16.683 4.575 L 16.659 4.536 L 16.623 4.51 L 16.587 4.471 L 16.551 4.446 L 16.514 4.42 L 16.49 4.381 L 16.454 4.355 L 16.418 4.316 L 16.382 4.29 L 16.346 4.264 L 16.309 4.226 L 16.273 4.2 L 16.237 4.174 L 16.201 4.135 L 16.165 4.109 L 16.128 4.083 L 16.092 4.057 L 16.056 4.019 L 16.02 3.993 L 15.984 3.967 L 15.947 3.941 L 15.911 3.915 L 15.875 3.889 L 15.827 3.85 L 15.791 3.824 L 15.755 3.799 L 15.718 3.773 L 15.682 3.747 L 15.646 3.721 L 15.598 3.695 L 15.562 3.669 L 15.525 3.643 L 15.489 3.617 L 15.441 3.592 L 15.405 3.566 L 15.369 3.54 L 15.32 3.514 L 15.284 3.501 L 15.248 3.475 L 15.2 3.449 L 15.164 3.423 L 15.127 3.397 L 15.079 3.372 L 15.043 3.359 L 15.007 3.333 L 14.959 3.307 L 14.922 3.281 L 14.874 3.281 L 14.838 3.255 L 14.79 3.229 L 14.753 3.216 L 14.705 3.19 L 14.669 3.165 L 14.621 3.152 L 14.585 3.126 L 14.536 3.113 L 14.5 3.087 L 14.452 3.074 L 14.416 3.048 L 14.368 3.022 L 14.331 3.009 L 14.283 2.996 L 14.235 2.97 L 14.199 2.958 L 14.15 2.932 L 14.114 2.919 L 14.066 2.893 L 14.018 2.88 L 13.982 2.867 L 13.933 2.841 L 13.885 2.828 L 13.849 2.815 L 13.801 2.789 L 13.752 2.776 L 13.704 2.763 L 13.668 2.75 L 13.62 2.725 L 13.572 2.712 L 13.535 2.699 L 13.487 2.686 L 13.439 2.673 L 13.391 2.647 L 13.354 2.647 L 13.306 2.621 L 13.258 2.608 L 13.21 2.595 L 13.161 2.582 L 13.125 2.569 L 13.077 2.556 L 13.029 2.543 L 12.981 2.531 L 12.884 2.505 L 12.8 2.479 L 12.703 2.453 L 12.607 2.44 L 12.522 2.414 L 12.426 2.388 L 12.329 2.375 L 12.233 2.349 L 12.136 2.336 L 12.04 2.323 L 11.943 2.298 L 11.859 2.272 L 11.762 2.259 L 11.666 2.246 L 11.569 2.233 L 11.473 2.22 L 11.376 2.207 L 11.28 2.207 L 11.183 2.194 L 11.087 2.181 L 10.991 2.181 L 10.894 2.168 L 10.798 2.168 L 10.701 2.155 L 10.412 2.155 L 10.315 2.142 L 9.736 2.142 L 9.64 2.155 L 9.543 2.155 L 9.447 2.181 L 9.35 2.181 L 9.254 2.194 L 9.157 2.194 L 9.061 2.22 L 8.964 2.22 L 8.868 2.233 L 8.771 2.246 L 8.675 2.259 L 8.578 2.272 L 8.482 2.298 L 8.385 2.298 L 8.289 2.323 L 8.204 2.349 L 8.108 2.349 L 8.011 2.375 L 7.915 2.401 L 7.819 2.427 L 7.734 2.44 L 7.638 2.466 L 7.589 2.479 L 7.541 2.492 L 7.517 2.492 L 7.469 2.518 L 7.396 2.518 L 7.348 2.543 L 7.3 2.543 L 7.264 2.569 L 7.215 2.582 L 7.167 2.595 L 7.119 2.608 L 7.071 2.621 L 7.035 2.634 L 6.986 2.647 L 6.938 2.673 L 6.914 2.673 L 6.878 2.699 L 6.83 2.712 L 6.781 2.725 L 6.745 2.75 L 6.673 2.75 L 6.624 2.776 L 6.588 2.789 L 6.54 2.815 L 6.492 2.828 L 6.456 2.841 L 6.407 2.867 L 6.359 2.88 L 6.323 2.906 L 6.275 2.906 L 6.226 2.932 L 6.19 2.958 L 6.142 2.97 L 6.106 2.996 L 6.058 3.009 L 6.021 3.035 L 5.973 3.048 L 5.937 3.074 L 5.889 3.087 L 5.853 3.113 L 5.804 3.126 L 5.768 3.152 L 5.72 3.177 L 5.684 3.19 L 5.636 3.216 L 5.599 3.242 L 5.551 3.255 L 5.515 3.281 L 5.467 3.307 L 5.43 3.333 L 5.394 3.346 L 5.346 3.372 L 5.31 3.397 L 5.274 3.423 L 5.225 3.436 L 5.189 3.462 L 5.153 3.488 L 5.105 3.514 L 5.069 3.54 L 5.032 3.566 L 4.996 3.592 L 4.948 3.617 L 4.912 3.643 L 4.876 3.669 L 4.839 3.695 L 4.803 3.721 L 4.755 3.747 L 4.719 3.773 L 4.683 3.799 L 4.647 3.824 L 4.61 3.85 L 4.574 3.876 L 4.538 3.902 L 4.49 3.928 L 4.454 3.954 L 4.417 3.993 L 4.381 4.019 L 4.345 4.044 L 4.309 4.07 L 4.273 4.096 L 4.236 4.135 L 4.2 4.161 L 4.164 4.187 L 4.14 4.226 L 4.104 4.251 L 4.068 4.277 L 4.031 4.316 L 3.995 4.342 L 3.959 4.368 L 3.923 4.407 L 3.899 4.433 L 3.863 4.471 L 3.826 4.497 L 3.79 4.536 L 3.754 4.562 L 3.73 4.601 L 3.694 4.627 L 3.658 4.665 L 3.633 4.691 L 3.597 4.73 L 3.561 4.756 L 3.537 4.795 L 3.501 4.834 L 3.477 4.86 L 3.44 4.898 L 3.404 4.937 L 3.38 4.963 L 3.344 5.002 L 3.32 5.041 L 3.284 5.08 L 3.26 5.105 L 3.223 5.144 L 3.199 5.183 L 3.175 5.222 L 3.139 5.261 L 3.115 5.3 L 3.091 5.325 L 3.055 5.364 L 3.03 5.403 L 3.006 5.442 L 2.97 5.481 L 2.946 5.519 L 2.922 5.558 L 2.898 5.597 L 2.862 5.636 L 2.837 5.675 L 2.813 5.714 L 2.789 5.752 L 2.765 5.791 L 2.741 5.83 L 2.717 5.869 L 2.693 5.908 L 2.669 5.959 L 2.644 5.998 L 2.62 6.037 L 2.596 6.076 L 2.572 6.115 L 2.548 6.166 L 2.524 6.205 L 2.5 6.244 L 2.476 6.283 L 2.451 6.335 L 2.439 6.373 L 2.415 6.412 L 2.391 6.464 L 2.367 6.503 L 2.355 6.542 L 2.331 6.593 L 2.307 6.632 L 2.295 6.684 L 2.271 6.723 L 2.246 6.762 L 2.234 6.813 L 2.21 6.852 L 2.21 6.904 L 2.186 6.943 L 2.174 6.995 L 2.15 7.046 L 2.138 7.085 L 2.114 7.137 L 2.114 7.163 L 2.09 7.215 L 2.066 7.266 L 2.066 7.305 L 2.041 7.357 L 2.017 7.409 L 2.017 7.447 L 1.993 7.499 L 1.981 7.551 L 1.969 7.603 L 1.957 7.642 L 1.933 7.693 L 1.933 7.745 L 1.909 7.797 L 1.909 7.849 L 1.885 7.9 L 1.885 7.952 L 1.86 7.991 L 1.86 8.043 L 1.836 8.094 L 1.836 8.146 L 1.824 8.198 L 1.812 8.25 L 1.812 8.301 L 1.788 8.353 L 1.788 8.405 L 1.776 8.457 L 1.776 8.508 L 1.752 8.573 L 1.752 8.677 L 1.728 8.715 L 1.728 8.897 L 1.716 8.961 L 1.716 9.013 L 1.704 9.065 L 1.704 9.117 L 1.692 9.181 L 1.692 9.298 L 1.68 9.285 Z  M 1.571 9.155 L 1.571 9.039 L 1.583 8.987 L 1.583 8.935 L 1.595 8.871 L 1.595 8.819 L 1.607 8.767 L 1.607 8.715 L 1.619 8.651 L 1.631 8.599 L 1.631 8.547 L 1.643 8.496 L 1.655 8.444 L 1.655 8.392 L 1.68 8.327 L 1.68 8.276 L 1.692 8.224 L 1.704 8.172 L 1.704 8.12 L 1.728 8.069 L 1.728 8.017 L 1.752 7.965 L 1.752 7.913 L 1.776 7.861 L 1.776 7.81 L 1.8 7.758 L 1.8 7.706 L 1.824 7.667 L 1.836 7.616 L 1.848 7.564 L 1.86 7.512 L 1.885 7.46 L 1.885 7.422 L 1.909 7.383 L 1.921 7.331 L 1.945 7.279 L 1.957 7.227 L 1.969 7.189 L 1.993 7.137 L 2.005 7.085 L 2.029 7.046 L 2.041 6.995 L 2.066 6.943 L 2.078 6.904 L 2.102 6.852 L 2.114 6.813 L 2.138 6.762 L 2.15 6.71 L 2.174 6.671 L 2.198 6.619 L 2.21 6.581 L 2.234 6.529 L 2.258 6.49 L 2.283 6.451 L 2.295 6.399 L 2.319 6.361 L 2.343 6.309 L 2.367 6.27 L 2.391 6.231 L 2.415 6.179 L 2.427 6.141 L 2.451 6.102 L 2.476 6.05 L 2.5 6.011 L 2.524 5.972 L 2.548 5.921 L 2.572 5.869 L 2.596 5.83 L 2.62 5.791 L 2.656 5.752 L 2.681 5.714 L 2.705 5.662 L 2.729 5.623 L 2.753 5.584 L 2.777 5.545 L 2.813 5.507 L 2.837 5.468 L 2.862 5.429 L 2.886 5.39 L 2.922 5.351 L 2.946 5.312 L 2.97 5.274 L 3.006 5.235 L 3.03 5.196 L 3.067 5.157 L 3.091 5.118 L 3.115 5.092 L 3.151 5.054 L 3.175 5.015 L 3.211 4.976 L 3.235 4.937 L 3.272 4.911 L 3.308 4.873 L 3.332 4.834 L 3.368 4.795 L 3.392 4.769 L 3.428 4.73 L 3.465 4.691 L 3.489 4.665 L 3.525 4.627 L 3.561 4.588 L 3.585 4.562 L 3.621 4.523 L 3.658 4.484 L 3.694 4.458 L 3.73 4.42 L 3.754 4.394 L 3.79 4.355 L 3.826 4.329 L 3.863 4.29 L 3.899 4.264 L 3.935 4.226 L 3.971 4.2 L 3.995 4.174 L 4.031 4.135 L 4.068 4.109 L 4.104 4.083 L 4.14 4.044 L 4.176 4.019 L 4.212 3.993 L 4.249 3.954 L 4.285 3.928 L 4.321 3.902 L 4.369 3.876 L 4.405 3.837 L 4.441 3.811 L 4.478 3.786 L 4.514 3.76 L 4.55 3.734 L 4.586 3.708 L 4.634 3.669 L 4.671 3.643 L 4.707 3.617 L 4.743 3.592 L 4.779 3.566 L 4.827 3.54 L 4.864 3.514 L 4.9 3.488 L 4.936 3.462 L 4.984 3.436 L 5.02 3.41 L 5.057 3.385 L 5.105 3.359 L 5.141 3.346 L 5.189 3.32 L 5.225 3.281 L 5.262 3.255 L 5.31 3.229 L 5.346 3.203 L 5.394 3.19 L 5.43 3.165 L 5.467 3.139 L 5.515 3.113 L 5.551 3.1 L 5.599 3.074 L 5.636 3.048 L 5.684 3.035 L 5.72 3.009 L 5.768 2.983 L 5.804 2.97 L 5.853 2.945 L 5.901 2.932 L 5.937 2.906 L 5.985 2.893 L 6.021 2.867 L 6.07 2.841 L 6.118 2.828 L 6.154 2.815 L 6.202 2.789 L 6.239 2.776 L 6.287 2.75 L 6.335 2.738 L 6.371 2.712 L 6.419 2.699 L 6.468 2.686 L 6.516 2.66 L 6.552 2.647 L 6.6 2.634 L 6.649 2.608 L 6.685 2.608 L 6.733 2.582 L 6.781 2.569 L 6.83 2.556 L 6.866 2.531 L 6.914 2.531 L 6.962 2.505 L 7.01 2.492 L 7.059 2.479 L 7.095 2.466 L 7.143 2.44 L 7.191 2.44 L 7.24 2.414 L 7.288 2.414 L 7.336 2.388 L 7.372 2.388 L 7.421 2.362 L 7.469 2.362 L 7.517 2.336 L 7.565 2.336 L 7.613 2.311 L 7.71 2.298 L 7.794 2.272 L 7.891 2.246 L 7.987 2.233 L 8.084 2.207 L 8.18 2.194 L 8.277 2.168 L 8.373 2.155 L 8.47 2.142 L 8.566 2.129 L 8.663 2.116 L 8.759 2.091 L 8.856 2.091 L 8.952 2.078 L 9.049 2.065 L 9.145 2.052 L 9.242 2.052 L 9.338 2.039 L 9.435 2.039 L 9.531 2.026 L 9.628 2.026 L 9.724 2.013 L 10.026 2.013 L 10.122 2 L 10.701 2 L 10.81 2.013 L 10.906 2.013 L 11.003 2.026 L 11.099 2.026 L 11.196 2.052 L 11.292 2.052 L 11.389 2.065 L 11.485 2.078 L 11.581 2.078 L 11.678 2.104 L 11.774 2.116 L 11.871 2.129 L 11.967 2.142 L 12.064 2.168 L 12.16 2.181 L 12.257 2.194 L 12.353 2.22 L 12.45 2.233 L 12.546 2.259 L 12.643 2.285 L 12.727 2.311 L 12.824 2.323 L 12.92 2.349 L 13.017 2.375 L 13.053 2.388 L 13.101 2.401 L 13.149 2.414 L 13.198 2.427 L 13.246 2.44 L 13.294 2.466 L 13.342 2.466 L 13.379 2.492 L 13.427 2.492 L 13.475 2.518 L 13.523 2.531 L 13.572 2.543 L 13.608 2.569 L 13.656 2.569 L 13.704 2.595 L 13.752 2.608 L 13.801 2.634 L 13.837 2.634 L 13.885 2.66 L 13.933 2.686 L 13.97 2.686 L 14.018 2.712 L 14.066 2.738 L 14.114 2.75 L 14.15 2.763 L 14.199 2.789 L 14.247 2.802 L 14.283 2.828 L 14.331 2.841 L 14.38 2.867 L 14.416 2.88 L 14.464 2.906 L 14.5 2.919 L 14.548 2.945 L 14.597 2.97 L 14.633 2.983 L 14.681 3.009 L 14.717 3.022 L 14.766 3.048 L 14.802 3.074 L 14.85 3.087 L 14.886 3.113 L 14.934 3.139 L 14.971 3.165 L 15.019 3.177 L 15.055 3.203 L 15.103 3.229 L 15.139 3.255 L 15.188 3.281 L 15.224 3.294 L 15.26 3.32 L 15.308 3.346 L 15.344 3.372 L 15.393 3.397 L 15.429 3.423 L 15.465 3.449 L 15.513 3.475 L 15.549 3.501 L 15.586 3.527 L 15.622 3.553 L 15.67 3.579 L 15.706 3.604 L 15.742 3.63 L 15.779 3.656 L 15.827 3.682 L 15.863 3.708 L 15.899 3.734 L 15.935 3.76 L 15.972 3.799 L 16.02 3.824 L 16.056 3.85 L 16.092 3.876 L 16.128 3.902 L 16.165 3.941 L 16.201 3.967 L 16.237 3.993 L 16.273 4.031 L 16.309 4.057 L 16.346 4.083 L 16.382 4.122 L 16.418 4.148 L 16.454 4.174 L 16.49 4.213 L 16.526 4.238 L 16.563 4.277 L 16.599 4.303 L 16.635 4.329 L 16.671 4.368 L 16.707 4.394 L 16.731 4.433 L 16.768 4.471 L 16.804 4.497 L 16.84 4.536 L 16.876 4.562 L 16.9 4.601 L 16.936 4.64 L 16.973 4.665 L 17.009 4.704 L 17.033 4.73 L 17.069 4.769 L 17.105 4.808 L 17.129 4.847 L 17.166 4.873 L 17.19 4.911 L 17.226 4.95 L 17.262 4.989 L 17.286 5.028 L 17.322 5.054 L 17.347 5.092 L 17.383 5.131 L 17.407 5.17 L 17.431 5.209 L 17.467 5.248 L 17.491 5.287 L 17.527 5.325 L 17.552 5.364 L 17.576 5.403 L 17.612 5.442 L 17.636 5.481 L 17.66 5.519 L 17.696 5.558 L 17.72 5.597 L 17.745 5.636 L 17.769 5.675 L 17.793 5.714 L 17.829 5.752 L 17.853 5.791 L 17.877 5.83 L 17.901 5.882 L 17.925 5.921 L 17.95 5.959 L 17.974 5.998 L 17.998 6.05 L 18.022 6.089 L 18.046 6.128 L 18.07 6.179 L 18.094 6.218 L 18.118 6.257 L 18.143 6.309 L 18.167 6.348 L 18.191 6.386 L 18.203 6.438 L 18.227 6.477 L 18.251 6.529 L 18.275 6.568 L 18.287 6.619 L 18.311 6.658 L 18.336 6.71 L 18.348 6.749 L 18.372 6.8 L 18.396 6.839 L 18.408 6.891 L 18.432 6.93 L 18.444 6.982 L 18.468 7.033 L 18.48 7.072 L 18.504 7.124 L 18.516 7.176 L 18.541 7.215 L 18.553 7.266 L 18.565 7.318 L 18.589 7.357 L 18.601 7.409 L 18.613 7.46 L 18.637 7.512 L 18.637 7.564 L 18.661 7.603 L 18.673 7.654 L 18.685 7.706 L 18.709 7.758 L 18.709 7.81 L 18.734 7.861 L 18.734 7.913 L 18.758 7.965 L 18.758 8.017 L 18.782 8.069 L 18.782 8.12 L 18.806 8.172 L 18.806 8.224 L 18.818 8.276 L 18.83 8.327 L 18.842 8.379 L 18.842 8.431 L 18.866 8.483 L 18.866 8.534 L 18.878 8.586 L 18.878 8.651 L 18.89 8.703 L 18.902 8.754 L 18.902 8.806 L 18.914 8.858 L 18.914 8.923 L 18.927 8.974 L 18.927 9.026 L 18.939 9.091 L 18.939 9.194 L 18.951 9.246 L 18.951 9.272 L 18.963 9.285 L 18.963 9.337 L 18.975 9.362 L 18.975 9.388 L 18.987 9.427 L 18.987 9.505 L 18.999 9.518 L 18.999 10.009 L 18.987 10.048 L 18.987 10.126 L 18.975 10.152 L 18.975 10.191 L 18.963 10.229 L 18.951 10.281 L 18.951 10.32 L 18.939 10.359 L 18.927 10.398 L 18.927 10.436 L 18.902 10.488 L 18.902 10.527 L 18.878 10.579 L 18.878 10.618 L 18.854 10.669 L 18.842 10.721 L 18.83 10.76 L 18.806 10.812 L 18.794 10.863 L 18.77 10.915 L 18.758 10.954 L 18.734 11.006 L 18.721 11.057 L 18.697 11.109 L 18.673 11.174 L 18.649 11.226 L 18.625 11.277 L 18.601 11.329 L 18.577 11.381 L 18.553 11.446 L 18.516 11.497 L 18.492 11.562 L 18.456 11.614 L 18.432 11.679 L 18.396 11.73 L 18.36 11.795 L 18.323 11.86 L 18.287 11.911 L 18.251 11.976 L 18.215 12.041 L 18.179 12.106 L 18.131 12.17 L 18.094 12.235 L 18.046 12.3 L 17.998 12.364 L 17.95 12.429 L 17.901 12.494 L 17.853 12.558 L 17.805 12.623 L 17.757 12.701 L 17.696 12.765 L 17.648 12.83 L 17.588 12.908 L 17.527 12.973 L 17.467 13.05 L 17.407 13.115 L 17.347 13.192 L 17.286 13.257 L 17.226 13.335 L 17.154 13.412 L 17.081 13.477 L 17.009 13.555 L 16.936 13.632 L 16.864 13.71 L 16.792 13.788 L 16.719 13.865 L 16.635 13.943 L 16.563 14.021 L 16.478 14.098 L 16.394 14.176 L 16.309 14.253 L 16.213 14.331 L 16.128 14.409 L 16.032 14.486 L 15.947 14.577 L 15.851 14.655 L 15.755 14.732 L 15.646 14.823 L 15.549 14.9 L 15.441 14.991 L 15.344 15.069 L 15.236 15.159 L 15.127 15.237 L 15.007 15.327 L 14.946 15.379 L 14.959 15.405 L 14.971 15.431 L 14.983 15.457 L 14.995 15.496 L 15.007 15.534 L 15.031 15.573 L 15.043 15.612 L 15.055 15.664 L 15.079 15.703 L 15.079 15.754 L 15.103 15.78 L 15.103 15.832 L 15.115 15.858 L 15.127 15.897 L 15.127 15.923 L 15.139 15.949 L 15.139 15.974 L 15.151 16.013 L 15.151 16.039 L 15.164 16.065 L 15.164 16.104 L 15.176 16.13 L 15.176 16.22 L 15.188 16.259 L 15.188 16.388 L 15.2 16.414 L 15.2 16.66 L 15.188 16.686 L 15.188 16.764 L 15.176 16.79 L 15.176 16.828 L 15.151 16.867 L 15.151 16.919 L 15.139 16.932 L 15.139 16.945 L 15.127 16.971 L 15.127 16.984 L 15.115 16.997 L 15.115 17.023 L 15.103 17.035 L 15.103 17.048 L 15.091 17.074 L 15.079 17.1 L 15.067 17.113 L 15.067 17.139 L 15.055 17.152 L 15.043 17.165 L 15.043 17.191 L 15.019 17.191 L 15.019 17.217 L 15.007 17.23 L 14.995 17.255 L 14.971 17.281 L 14.971 17.294 L 14.946 17.32 L 14.934 17.346 L 14.922 17.359 L 14.91 17.372 L 14.898 17.385 L 14.874 17.411 L 14.85 17.437 L 14.838 17.449 L 14.826 17.462 L 14.814 17.475 L 14.79 17.488 L 14.79 17.514 L 14.766 17.514 L 14.753 17.54 L 14.729 17.54 L 14.717 17.566 L 14.693 17.579 L 14.681 17.592 L 14.669 17.605 L 14.645 17.618 L 14.633 17.631 L 14.609 17.644 L 14.597 17.657 L 14.573 17.669 L 14.548 17.682 L 14.536 17.695 L 14.512 17.695 L 14.488 17.721 L 14.476 17.721 L 14.452 17.747 L 14.428 17.747 L 14.404 17.76 L 14.38 17.773 L 14.355 17.786 L 14.331 17.786 L 14.307 17.812 L 14.283 17.812 L 14.259 17.825 L 14.235 17.838 L 14.211 17.838 L 14.187 17.851 L 14.162 17.864 L 14.138 17.864 L 14.114 17.889 L 14.054 17.889 L 14.03 17.915 L 13.97 17.915 L 13.945 17.928 L 13.909 17.941 L 13.885 17.941 L 13.849 17.954 L 13.825 17.954 L 13.789 17.967 L 13.752 17.967 L 13.728 17.98 L 13.692 17.98 L 13.656 17.993 L 13.596 17.993 L 13.559 18.006 L 13.487 18.006 L 13.451 18.019 L 13.379 18.019 L 13.342 18.032 L 13.222 18.032 L 13.186 18.045 L 12.293 18.045 L 12.245 18.032 L 12.148 18.032 L 12.1 18.019 L 11.979 18.019 L 11.931 18.006 L 11.895 18.006 L 11.859 18.019 L 11.823 18.045 L 11.774 18.071 L 11.726 18.096 L 11.678 18.122 L 11.63 18.148 L 11.594 18.174 L 11.545 18.2 L 11.497 18.226 L 11.449 18.252 L 11.401 18.265 L 11.352 18.291 L 11.304 18.303 L 11.256 18.329 L 11.208 18.342 L 11.159 18.355 L 11.111 18.368 L 11.063 18.394 L 11.015 18.394 L 10.991 18.407 L 10.966 18.407 L 10.942 18.42 L 10.918 18.42 L 10.894 18.433 L 10.834 18.433 L 10.81 18.446 L 10.785 18.446 L 10.761 18.459 L 10.689 18.459 L 10.665 18.472 L 10.593 18.472 L 10.556 18.485 L 10.387 18.485 L 10.363 18.498 L 10.074 18.498 L 10.05 18.485 L 9.941 18.485 L 9.917 18.472 L 9.869 18.472 L 9.833 18.459 L 9.809 18.459 L 9.784 18.446 L 9.736 18.446 L 9.7 18.433 L 9.688 18.433 L 9.664 18.42 L 9.628 18.42 L 9.604 18.407 L 9.567 18.407 L 9.543 18.394 L 9.507 18.381 L 9.483 18.381 L 9.459 18.368 L 9.423 18.368 L 9.398 18.342 L 9.374 18.342 L 9.35 18.329 L 9.314 18.329 L 9.29 18.303 L 9.266 18.303 L 9.23 18.291 L 9.206 18.291 L 9.181 18.265 L 9.145 18.265 L 9.121 18.239 L 9.061 18.226 L 9 18.2 L 8.952 18.174 L 8.892 18.148 L 8.832 18.109 L 8.771 18.084 L 8.711 18.058 L 8.663 18.019 L 8.615 18.006 L 8.482 18.006 L 8.434 18.019 L 8.337 18.019 L 8.277 18.032 L 8.084 18.032 L 8.036 18.045 L 7.179 18.045 L 7.143 18.032 L 7.071 18.032 L 7.035 17.993 L 6.962 17.993 L 6.926 17.98 L 6.89 17.98 L 6.866 17.967 L 6.793 17.967 L 6.757 17.954 L 6.733 17.954 L 6.697 17.941 L 6.673 17.941 L 6.637 17.928 L 6.612 17.915 L 6.576 17.915 L 6.552 17.902 L 6.516 17.902 L 6.492 17.889 L 6.468 17.876 L 6.432 17.876 L 6.407 17.864 L 6.383 17.851 L 6.359 17.851 L 6.335 17.825 L 6.299 17.825 L 6.275 17.812 L 6.251 17.812 L 6.226 17.786 L 6.202 17.786 L 6.178 17.773 L 6.154 17.76 L 6.142 17.76 L 6.118 17.734 L 6.094 17.734 L 6.07 17.721 L 6.046 17.708 L 6.034 17.695 L 6.009 17.682 L 5.985 17.669 L 5.961 17.657 L 5.949 17.657 L 5.925 17.631 L 5.913 17.631 L 5.889 17.605 L 5.877 17.605 L 5.853 17.579 L 5.841 17.579 L 5.816 17.553 L 5.804 17.54 L 5.792 17.527 L 5.768 17.514 L 5.756 17.501 L 5.744 17.488 L 5.72 17.462 L 5.696 17.437 L 5.684 17.437 L 5.672 17.411 L 5.648 17.398 L 5.648 17.385 L 5.623 17.359 L 5.599 17.333 L 5.599 17.32 L 5.575 17.307 L 5.575 17.294 L 5.551 17.268 L 5.539 17.242 L 5.527 17.23 L 5.515 17.204 L 5.491 17.178 L 5.491 17.165 L 5.479 17.139 L 5.455 17.113 L 5.455 17.087 L 5.443 17.061 L 5.43 17.048 L 5.43 17.023 L 5.418 17.01 L 5.418 16.997 L 5.406 16.971 L 5.394 16.945 L 5.394 16.919 L 5.382 16.919 L 5.382 16.893 L 5.37 16.867 L 5.37 16.841 L 5.358 16.803 L 5.346 16.764 L 5.346 16.738 L 5.334 16.699 L 5.334 16.596 L 5.322 16.57 L 5.322 16.207 L 5.334 16.181 L 5.334 16.143 L 5.346 16.117 L 5.346 16.078 L 5.358 16.052 L 5.358 16.026 L 5.37 15.987 L 5.37 15.961 L 5.382 15.936 L 5.382 15.91 L 5.394 15.884 L 5.394 15.845 L 5.418 15.819 L 5.418 15.767 L 5.43 15.742 L 5.443 15.716 L 5.455 15.677 L 5.479 15.625 L 5.491 15.586 L 5.503 15.547 L 5.527 15.509 L 5.527 15.483 L 5.551 15.444 L 5.551 15.418 L 5.575 15.392 L 5.503 15.34 L 5.382 15.25 L 5.286 15.172 L 5.165 15.082 L 5.069 15.004 L 4.972 14.913 L 4.864 14.836 L 4.767 14.758 L 4.671 14.668 L 4.574 14.59 L 4.478 14.512 L 4.393 14.422 L 4.297 14.344 L 4.212 14.266 L 4.128 14.189 L 4.043 14.111 L 3.959 14.034 L 3.887 13.956 L 3.802 13.878 L 3.73 13.801 L 3.645 13.723 L 3.573 13.645 L 3.501 13.568 L 3.44 13.49 L 3.368 13.425 L 3.296 13.348 L 3.235 13.27 L 3.175 13.205 L 3.103 13.128 L 3.042 13.063 L 2.982 12.985 L 2.934 12.921 L 2.874 12.843 L 2.813 12.778 L 2.765 12.714 L 2.717 12.636 L 2.656 12.571 L 2.608 12.507 L 2.56 12.442 L 2.524 12.377 L 2.476 12.313 L 2.427 12.248 L 2.391 12.183 L 2.343 12.119 L 2.307 12.054 L 2.271 11.989 L 2.234 11.924 L 2.198 11.873 L 2.162 11.808 L 2.126 11.743 L 2.09 11.692 L 2.066 11.627 L 2.029 11.575 L 2.005 11.51 L 1.969 11.459 L 1.945 11.394 L 1.921 11.342 L 1.897 11.29 L 1.873 11.239 L 1.848 11.174 L 1.824 11.122 L 1.8 11.07 L 1.776 11.019 L 1.764 10.967 L 1.728 10.915 L 1.728 10.876 L 1.704 10.825 L 1.704 10.773 L 1.68 10.734 L 1.668 10.682 L 1.655 10.63 L 1.631 10.592 L 1.631 10.527 L 1.607 10.501 L 1.607 10.462 L 1.595 10.398 L 1.583 10.359 L 1.583 10.32 L 1.571 10.281 L 1.559 10.242 L 1.559 10.204 L 1.547 10.165 L 1.547 10.087 L 1.535 10.048 L 1.535 9.984 L 1.523 9.945 L 1.523 9.802 L 1.499 9.751 L 1.499 9.505 L 1.511 9.466 L 1.511 9.388 L 1.523 9.362 L 1.523 9.337 L 1.535 9.311 L 1.535 9.272 L 1.547 9.259 L 1.547 9.194 L 1.559 9.142 L 1.571 9.155 Z " fill-rule="evenodd" fill="rgb(207,207,207)"/><path d=" M 8.627 3.32 C 8.916 2.919 10.496 2.155 11.316 3.255 C 11.34 3.281 11.352 3.436 11.364 3.682 L 11.389 3.63 C 12.498 2.556 14.211 4.019 14.042 4.303 L 14.042 4.394 C 15.176 3.747 16.153 5.092 15.972 5.338 C 15.942 5.49 15.91 5.641 15.875 5.791 C 17.166 5.403 17.54 7.292 17.322 7.486 L 17.274 7.59 C 18.118 8.159 18.118 10.139 17.901 10.268 C 16.702 12.208 15.239 13.944 13.559 15.418 C 13.825 15.638 14.223 16.026 14.162 16.414 C 14.066 16.971 13.668 17.061 11.823 16.932 C 11.449 17.165 10.978 17.359 10.412 17.411 C 9.869 17.462 9.266 17.217 8.759 16.919 C 6.854 17.074 6.456 16.984 6.347 16.401 C 6.299 16.026 6.685 15.625 6.95 15.405 C 5.272 13.935 3.808 12.204 2.608 10.268 C 2.391 10.139 2.391 8.159 3.235 7.59 L 3.199 7.486 C 2.982 7.292 3.344 5.416 4.647 5.791 C 4.608 5.641 4.572 5.49 4.538 5.338 C 4.369 5.08 5.334 3.747 6.468 4.394 L 6.468 4.316 C 6.323 4.083 7.577 2.958 8.639 3.333 L 8.627 3.32 Z " fill-rule="evenodd" fill="rgb(196,126,235)"/><path d=" M 8.578 3.1 L 8.602 3.074 C 8.718 2.968 8.848 2.88 8.988 2.815 C 9.339 2.615 9.726 2.5 10.122 2.479 L 10.182 2.479 C 10.455 2.486 10.722 2.557 10.966 2.686 C 11.137 2.783 11.288 2.915 11.413 3.074 L 11.449 3.113 C 11.468 3.136 11.485 3.162 11.497 3.19 L 11.521 3.281 L 11.618 3.229 C 11.834 3.109 12.074 3.046 12.317 3.048 L 12.546 3.048 C 13.151 3.147 13.704 3.467 14.114 3.954 C 14.15 4.003 14.182 4.055 14.211 4.109 C 14.371 4.056 14.538 4.03 14.705 4.031 L 14.886 4.031 C 15.317 4.118 15.704 4.371 15.972 4.743 C 16.032 4.834 16.092 4.924 16.128 5.015 L 16.14 5.067 C 16.165 5.157 16.189 5.248 16.165 5.325 L 16.153 5.403 L 16.128 5.507 L 16.128 5.545 L 16.321 5.545 C 16.493 5.565 16.658 5.627 16.804 5.727 C 17.095 5.923 17.316 6.22 17.431 6.568 C 17.493 6.733 17.534 6.907 17.552 7.085 L 17.552 7.305 C 17.552 7.383 17.552 7.46 17.515 7.538 C 17.73 7.74 17.893 7.999 17.986 8.288 C 18.158 8.753 18.232 9.252 18.203 9.751 C 18.197 9.913 18.172 10.073 18.131 10.229 C 18.113 10.287 18.084 10.34 18.046 10.385 L 17.925 10.566 C 16.975 12.023 15.892 13.375 14.693 14.603 L 13.849 15.405 L 13.909 15.47 L 14.114 15.703 C 14.199 15.832 14.271 15.949 14.307 16.091 C 14.346 16.211 14.354 16.341 14.331 16.466 L 14.307 16.557 C 14.28 16.666 14.23 16.768 14.162 16.854 C 14.085 16.941 13.99 17.008 13.885 17.048 L 13.644 17.126 C 13.433 17.165 13.218 17.178 13.005 17.165 C 12.63 17.167 12.256 17.149 11.883 17.113 L 11.859 17.113 C 11.487 17.345 11.078 17.499 10.653 17.566 L 10.496 17.592 C 10.392 17.603 10.287 17.603 10.182 17.592 C 10.002 17.592 9.821 17.553 9.64 17.514 C 9.315 17.423 9.003 17.289 8.711 17.113 L 8.59 17.113 C 8.189 17.141 7.787 17.158 7.384 17.165 C 7.228 17.165 7.083 17.165 6.926 17.126 C 6.814 17.114 6.704 17.084 6.6 17.035 C 6.504 16.991 6.417 16.925 6.347 16.841 C 6.265 16.738 6.211 16.613 6.19 16.479 C 6.179 16.437 6.171 16.393 6.166 16.35 C 6.164 16.315 6.164 16.281 6.166 16.246 C 6.199 16.041 6.282 15.849 6.407 15.69 C 6.486 15.585 6.575 15.49 6.673 15.405 C 5.879 14.709 5.14 13.943 4.466 13.115 C 3.765 12.277 3.116 11.391 2.524 10.462 L 2.488 10.411 L 2.476 10.385 L 2.439 10.333 C 2.415 10.302 2.395 10.267 2.379 10.229 C 2.338 10.082 2.314 9.93 2.307 9.777 C 2.284 9.411 2.317 9.044 2.403 8.69 C 2.435 8.553 2.475 8.419 2.524 8.288 L 2.572 8.159 C 2.669 7.926 2.813 7.693 3.006 7.512 C 2.978 7.443 2.961 7.368 2.958 7.292 C 2.949 7.153 2.961 7.013 2.994 6.878 C 3.087 6.428 3.321 6.026 3.658 5.739 C 3.745 5.681 3.838 5.633 3.935 5.597 C 4.082 5.544 4.238 5.522 4.393 5.532 L 4.381 5.481 L 4.381 5.429 L 4.369 5.429 L 4.369 5.403 C 4.36 5.386 4.352 5.369 4.345 5.351 C 4.327 5.246 4.34 5.138 4.381 5.041 L 4.405 4.989 C 4.445 4.905 4.493 4.827 4.55 4.756 C 4.609 4.674 4.674 4.596 4.743 4.523 C 5.07 4.198 5.504 4.026 5.949 4.044 C 6.072 4.054 6.194 4.08 6.311 4.122 C 6.327 4.077 6.347 4.034 6.371 3.993 L 6.407 3.954 C 6.467 3.868 6.536 3.79 6.612 3.721 C 7.044 3.33 7.581 3.099 8.144 3.061 L 8.192 3.061 C 8.313 3.061 8.434 3.074 8.542 3.1 L 8.578 3.1 Z  M 11.473 15.172 C 11.087 15.03 10.677 14.913 10.327 14.913 C 9.929 14.913 9.543 15.03 9.193 15.172 L 8.904 15.302 C 8.651 15.431 8.422 15.586 8.241 15.716 L 8.217 15.716 C 8.024 15.858 7.915 15.974 7.915 15.974 C 7.915 15.974 8.325 16.401 8.313 16.414 L 8.494 16.544 L 8.53 16.557 C 8.94 16.88 9.507 17.204 10.158 17.23 C 10.5 17.236 10.839 17.175 11.159 17.048 C 12.148 16.66 12.848 15.832 12.848 15.832 C 12.848 15.832 12.293 15.496 11.642 15.237 L 11.473 15.172 Z  M 13.547 15.664 L 13.439 15.754 L 12.956 16.13 C 12.777 16.368 12.575 16.585 12.353 16.777 L 12.39 16.777 C 12.751 16.796 13.113 16.796 13.475 16.777 L 13.68 16.725 C 13.763 16.708 13.84 16.662 13.897 16.596 C 13.945 16.531 13.957 16.466 13.97 16.388 L 13.97 16.337 C 13.975 16.298 13.975 16.259 13.97 16.22 C 13.95 16.156 13.922 16.095 13.885 16.039 C 13.795 15.889 13.68 15.758 13.547 15.651 L 13.547 15.664 Z  M 6.962 15.664 L 6.842 15.793 C 6.758 15.859 6.688 15.943 6.637 16.039 C 6.6 16.095 6.572 16.156 6.552 16.22 C 6.539 16.258 6.53 16.297 6.528 16.337 L 6.528 16.388 L 6.612 16.596 C 6.661 16.647 6.733 16.686 6.793 16.712 C 7.166 16.755 7.54 16.78 7.915 16.79 L 8.156 16.764 C 7.939 16.621 7.433 16.052 7.433 16.039 L 6.998 15.69 L 6.962 15.664 Z  M 7.348 14.693 C 6.199 13.296 5.166 11.794 4.261 10.204 C 3.851 9.466 3.477 8.69 3.163 7.913 C 3.091 7.991 3.03 8.081 2.97 8.185 L 2.922 8.276 C 2.813 8.52 2.744 8.783 2.717 9.052 C 2.671 9.369 2.663 9.69 2.693 10.009 L 2.717 10.113 L 2.741 10.126 L 2.753 10.152 L 2.874 10.346 C 3.07 10.669 3.284 10.98 3.513 11.277 C 4.528 12.702 5.685 14.003 6.962 15.159 L 6.974 15.159 L 7.3 15.444 L 7.662 15.729 L 8.024 15.418 L 7.348 14.68 L 7.348 14.693 Z  M 13.572 15.146 C 14.391 14.435 15.149 13.647 15.839 12.791 C 16.531 11.957 17.171 11.075 17.757 10.152 L 17.769 10.126 L 17.793 10.113 L 17.793 10.087 L 17.817 9.984 C 17.866 9.684 17.866 9.377 17.817 9.078 C 17.787 8.911 17.747 8.747 17.696 8.586 L 17.636 8.418 L 17.588 8.288 L 17.54 8.185 C 17.491 8.081 17.419 7.991 17.347 7.9 L 17.045 8.625 C 15.991 10.828 14.678 12.876 13.137 14.719 L 13.077 14.797 L 12.908 15.004 L 12.763 15.159 L 12.788 15.159 L 12.667 15.289 L 12.993 15.509 L 12.981 15.509 L 13.005 15.534 L 13.053 15.56 L 13.077 15.56 L 13.584 15.146 L 13.572 15.146 Z  M 4.936 7.383 C 4.852 7.15 4.743 6.904 4.671 6.658 C 4.598 6.425 4.55 6.192 4.49 5.946 L 4.297 5.946 C 4.189 5.946 4.083 5.968 3.983 6.011 C 3.802 6.104 3.651 6.253 3.549 6.438 C 3.509 6.514 3.473 6.591 3.44 6.671 C 3.387 6.809 3.346 6.952 3.32 7.098 L 3.32 7.331 L 3.465 7.68 C 4.464 10.138 5.851 12.393 7.565 14.344 C 7.794 14.642 8.036 14.926 8.289 15.198 L 8.349 15.159 L 8.361 15.185 L 8.964 14.849 L 8.988 14.836 L 9.025 14.81 C 7.986 13.432 7.032 11.984 6.166 10.475 L 5.515 8.923 L 4.936 7.383 Z  M 17.19 7.292 L 17.19 7.189 C 17.179 7.01 17.138 6.834 17.069 6.671 C 17.038 6.591 17.002 6.513 16.961 6.438 C 16.862 6.255 16.715 6.106 16.538 6.011 C 16.44 5.963 16.333 5.937 16.225 5.934 L 16.068 5.934 L 16.02 5.946 C 15.869 6.589 15.679 7.22 15.453 7.836 L 14.995 9.052 L 14.331 10.618 L 14.307 10.656 C 13.693 12.04 13.033 13.399 12.329 14.732 L 12.16 15.03 L 12.317 15.107 C 13.614 13.635 14.77 12.027 15.767 10.307 C 16.242 9.476 16.665 8.611 17.033 7.719 L 17.069 7.693 L 17.214 7.305 L 17.19 7.305 L 17.19 7.292 Z  M 15.718 5.636 L 15.73 5.636 L 15.803 5.3 L 15.803 5.261 L 15.827 5.248 L 15.827 5.222 C 15.806 5.166 15.778 5.113 15.742 5.067 C 15.507 4.698 15.132 4.461 14.717 4.42 L 14.669 4.42 C 14.533 4.422 14.399 4.448 14.271 4.497 L 14.223 4.523 C 14.153 5.282 14.032 6.034 13.861 6.775 C 13.673 7.655 13.452 8.527 13.198 9.388 L 13.125 9.634 L 13.137 9.608 L 13.149 9.595 L 12.51 11.562 L 11.75 13.309 L 11.208 14.577 L 11.569 14.745 C 11.666 14.784 11.75 14.849 11.835 14.875 L 11.871 14.888 L 13.053 12.558 L 14.09 10.359 L 14.307 9.764 L 14.343 9.686 C 14.782 8.631 15.176 7.556 15.525 6.464 L 15.562 6.309 L 15.61 6.179 L 15.767 5.636 L 15.73 5.636 L 15.718 5.636 Z  M 8.422 5.714 L 8.422 5.636 C 8.39 4.92 8.39 4.204 8.422 3.488 L 8.422 3.462 C 8.35 3.448 8.277 3.439 8.204 3.436 L 8.18 3.436 C 7.939 3.443 7.702 3.501 7.481 3.604 C 7.219 3.723 6.978 3.89 6.769 4.096 C 6.723 4.147 6.683 4.204 6.649 4.264 L 6.649 4.277 L 6.769 5.248 L 6.769 5.235 C 6.836 5.761 6.924 6.283 7.035 6.8 C 7.373 8.365 7.796 9.907 8.301 11.42 C 8.434 11.679 8.904 13.322 9.025 13.594 L 9.411 14.603 L 9.664 14.551 L 9.591 14.072 L 8.397 5.714 L 8.422 5.714 Z  M 10.315 10.825 L 10.375 10.1 C 10.556 8.144 10.789 6.193 11.075 4.251 C 11.108 4.051 11.148 3.853 11.196 3.656 L 11.196 3.617 L 11.183 3.462 L 11.171 3.346 L 11.135 3.307 C 11.003 3.15 10.838 3.03 10.653 2.958 C 10.416 2.871 10.164 2.849 9.917 2.893 C 9.81 2.907 9.705 2.933 9.604 2.97 C 9.392 3.032 9.189 3.123 9 3.242 L 9 3.255 L 8.964 3.255 L 8.964 3.281 L 8.783 3.553 L 8.783 3.617 L 8.759 3.617 C 8.711 4.385 8.72 5.155 8.783 5.921 C 8.837 6.812 8.921 7.701 9.037 8.586 C 9.281 10.558 9.603 12.518 10.002 14.461 C 10.002 14.435 10.243 14.422 10.243 14.422 L 10.279 11.562 L 10.303 10.838 L 10.315 10.825 Z  M 13.849 4.2 C 13.761 4.079 13.655 3.974 13.535 3.889 C 13.392 3.781 13.239 3.69 13.077 3.617 C 12.864 3.514 12.635 3.452 12.402 3.436 L 12.329 3.436 C 12.269 3.436 12.197 3.436 12.124 3.462 C 11.915 3.502 11.72 3.601 11.557 3.747 L 11.389 3.954 C 11.389 3.954 11.171 6.309 11.171 6.141 C 10.94 7.998 10.755 9.862 10.617 11.73 C 10.58 12.313 10.544 12.895 10.532 13.464 C 10.52 13.801 10.544 14.059 10.556 14.396 C 10.556 14.422 10.978 14.473 10.978 14.473 L 11.232 13.826 L 11.931 12.106 L 12.209 11.42 C 12.709 9.808 13.151 8.177 13.535 6.529 L 13.68 5.765 L 13.801 5.287 L 13.957 4.29 L 13.837 4.2 L 13.849 4.2 Z  M 7.095 8.508 C 6.844 7.539 6.631 6.559 6.456 5.571 C 6.395 5.222 6.335 4.873 6.311 4.523 C 6.177 4.462 6.034 4.427 5.889 4.42 L 5.853 4.42 L 5.66 4.433 C 5.38 4.49 5.126 4.645 4.936 4.873 C 4.855 4.961 4.786 5.061 4.731 5.17 C 4.709 5.254 4.697 5.341 4.695 5.429 C 4.695 5.481 5.032 6.593 5.081 6.762 L 5.394 7.642 C 5.672 8.418 5.973 9.155 6.287 9.893 C 6.371 10.087 6.83 11.006 7.01 11.252 C 7.276 11.64 8.409 13.516 8.494 13.671 L 9.181 14.668 L 7.457 9.595 L 7.095 8.508 Z " fill-rule="evenodd" fill="rgb(67,50,49)"/></g></g></svg>