<?xml version="1.0" encoding="UTF-8" standalone="no"?><!-- Generator: Gravit.io --><svg xmlns="http://www.w3.org/2000/svg" xmlns:xlink="http://www.w3.org/1999/xlink" style="isolation:isolate" viewBox="0 0 20 20" width="20pt" height="20pt"><defs><clipPath id="_clipPath_Ntc2mjpAvzUVjQ2TfSmXU1tOWdKhSAP3"><rect width="20" height="20"/></clipPath></defs><g clip-path="url(#_clipPath_Ntc2mjpAvzUVjQ2TfSmXU1tOWdKhSAP3)"><g><path d=" M 1.18 11.583 C 1.16 10.9 1.227 10.217 1.38 9.552 C 1.564 8.56 1.902 7.604 2.382 6.719 C 3.366 4.858 4.957 3.401 6.884 2.597 C 7.653 2.248 8.466 2.007 9.3 1.88 C 10.492 1.715 11.707 1.85 12.835 2.274 C 13.472 2.537 14.085 2.895 14.639 3.349 C 15.446 4.018 16.128 4.827 16.654 5.74 C 17.102 6.492 17.444 7.293 17.715 8.13 C 18.29 9.901 18.55 11.763 18.481 13.627 L 18.469 13.937 C 18.445 14.117 18.41 14.296 18.339 14.463 C 18.26 14.648 18.139 14.812 17.986 14.941 C 17.941 14.977 17.894 15.009 17.844 15.037 C 17.585 15.204 16.371 15.993 14.65 14.882 C 14.368 14.702 14.332 15.634 14.32 16.041 C 14.297 17.021 13.13 18.514 12.529 18.443 C 12.482 18.443 12.447 18.467 12.399 18.479 C 12.166 18.528 11.93 18.559 11.692 18.574 C 11.374 18.586 11.056 18.562 10.785 18.407 C 10.509 18.223 10.263 17.997 10.054 17.738 C 9.995 17.642 9.5 17.977 9.335 18.096 C 9.17 18.229 8.988 18.338 8.793 18.419 C 8.271 18.636 7.683 18.614 7.178 18.359 C 7.061 18.299 6.907 17.869 6.589 17.809 C 6.271 17.762 6.023 18.096 5.988 18.108 C 5.562 18.326 5.083 18.413 4.609 18.359 C 4.436 18.324 4.272 18.255 4.126 18.156 C 3.784 17.917 3.572 17.558 3.419 17.176 C 3.32 16.938 3.249 16.689 3.207 16.435 L 2.971 14.559 L 2.971 14.547 L 2.888 14.499 C 2.504 14.288 2.17 13.994 1.91 13.639 C 1.566 13.175 1.34 12.634 1.25 12.061 C 1.222 11.919 1.198 11.775 1.18 11.631 L 1.18 11.583 Z " fill-rule="evenodd" fill="rgb(0,0,0)" fill-opacity="0.2"/><mask id="_mask_ZmRAOsVQXKTuZQd40NStkOqAAzXmDGz2" x="-200%" y="-200%" width="400%" height="400%"><rect x="-200%" y="-200%" width="400%" height="400%" style="fill:white;"/><path d=" M 1.698 10.771 C 1.674 10.088 1.738 9.405 1.887 8.739 C 2.081 7.754 2.419 6.803 2.888 5.919 C 3.87 4.048 5.467 2.584 7.402 1.784 C 8.168 1.449 8.982 1.186 9.818 1.067 C 11.007 0.904 12.217 1.039 13.342 1.461 C 13.99 1.724 14.603 2.083 15.145 2.537 C 15.956 3.204 16.643 4.014 17.173 4.927 C 17.609 5.668 17.962 6.48 18.233 7.317 C 18.757 8.936 19.015 10.632 18.999 12.336 L 18.999 12.814 C 18.999 12.91 18.999 13.017 18.976 13.113 C 18.964 13.304 18.917 13.471 18.858 13.651 C 18.779 13.836 18.658 14 18.504 14.129 L 18.363 14.224 C 18.104 14.38 16.89 15.18 15.157 14.069 C 14.886 13.89 14.851 14.822 14.839 15.228 C 14.804 16.196 13.637 17.69 13.048 17.618 C 13 17.618 12.953 17.654 12.918 17.654 C 12.763 17.693 12.605 17.721 12.447 17.738 L 12.199 17.762 C 11.893 17.773 11.574 17.75 11.292 17.594 C 11.016 17.41 10.769 17.184 10.561 16.925 C 10.514 16.817 10.019 17.164 9.854 17.284 C 9.687 17.411 9.505 17.515 9.312 17.594 C 8.864 17.773 8.345 17.833 7.897 17.642 C 7.824 17.616 7.753 17.584 7.685 17.546 C 7.579 17.487 7.426 17.045 7.096 16.997 C 6.789 16.949 6.53 17.284 6.507 17.295 C 6.077 17.516 5.594 17.603 5.116 17.546 C 4.947 17.51 4.787 17.441 4.644 17.343 C 4.316 17.097 4.069 16.755 3.937 16.363 C 3.879 16.224 3.832 16.08 3.796 15.933 C 3.769 15.83 3.746 15.727 3.725 15.622 L 3.489 13.734 L 3.407 13.686 C 3.023 13.475 2.689 13.182 2.429 12.826 C 2.24 12.599 2.122 12.348 2.005 12.085 C 1.841 11.685 1.738 11.262 1.698 10.83 L 1.698 10.771 Z " fill-rule="evenodd" fill="black" stroke="none"/></mask><path d=" M 1.698 10.771 C 1.674 10.088 1.738 9.405 1.887 8.739 C 2.081 7.754 2.419 6.803 2.888 5.919 C 3.87 4.048 5.467 2.584 7.402 1.784 C 8.168 1.449 8.982 1.186 9.818 1.067 C 11.007 0.904 12.217 1.039 13.342 1.461 C 13.99 1.724 14.603 2.083 15.145 2.537 C 15.956 3.204 16.643 4.014 17.173 4.927 C 17.609 5.668 17.962 6.48 18.233 7.317 C 18.757 8.936 19.015 10.632 18.999 12.336 L 18.999 12.814 C 18.999 12.91 18.999 13.017 18.976 13.113 C 18.964 13.304 18.917 13.471 18.858 13.651 C 18.779 13.836 18.658 14 18.504 14.129 L 18.363 14.224 C 18.104 14.38 16.89 15.18 15.157 14.069 C 14.886 13.89 14.851 14.822 14.839 15.228 C 14.804 16.196 13.637 17.69 13.048 17.618 C 13 17.618 12.953 17.654 12.918 17.654 C 12.763 17.693 12.605 17.721 12.447 17.738 L 12.199 17.762 C 11.893 17.773 11.574 17.75 11.292 17.594 C 11.016 17.41 10.769 17.184 10.561 16.925 C 10.514 16.817 10.019 17.164 9.854 17.284 C 9.687 17.411 9.505 17.515 9.312 17.594 C 8.864 17.773 8.345 17.833 7.897 17.642 C 7.824 17.616 7.753 17.584 7.685 17.546 C 7.579 17.487 7.426 17.045 7.096 16.997 C 6.789 16.949 6.53 17.284 6.507 17.295 C 6.077 17.516 5.594 17.603 5.116 17.546 C 4.947 17.51 4.787 17.441 4.644 17.343 C 4.316 17.097 4.069 16.755 3.937 16.363 C 3.879 16.224 3.832 16.08 3.796 15.933 C 3.769 15.83 3.746 15.727 3.725 15.622 L 3.489 13.734 L 3.407 13.686 C 3.023 13.475 2.689 13.182 2.429 12.826 C 2.24 12.599 2.122 12.348 2.005 12.085 C 1.841 11.685 1.738 11.262 1.698 10.83 L 1.698 10.771 Z " fill-rule="evenodd" fill="rgb(255,255,255)"/><path d=" M 1.698 10.771 C 1.674 10.088 1.738 9.405 1.887 8.739 C 2.081 7.754 2.419 6.803 2.888 5.919 C 3.87 4.048 5.467 2.584 7.402 1.784 C 8.168 1.449 8.982 1.186 9.818 1.067 C 11.007 0.904 12.217 1.039 13.342 1.461 C 13.99 1.724 14.603 2.083 15.145 2.537 C 15.956 3.204 16.643 4.014 17.173 4.927 C 17.609 5.668 17.962 6.48 18.233 7.317 C 18.757 8.936 19.015 10.632 18.999 12.336 L 18.999 12.814 C 18.999 12.91 18.999 13.017 18.976 13.113 C 18.964 13.304 18.917 13.471 18.858 13.651 C 18.779 13.836 18.658 14 18.504 14.129 L 18.363 14.224 C 18.104 14.38 16.89 15.18 15.157 14.069 C 14.886 13.89 14.851 14.822 14.839 15.228 C 14.804 16.196 13.637 17.69 13.048 17.618 C 13 17.618 12.953 17.654 12.918 17.654 C 12.763 17.693 12.605 17.721 12.447 17.738 L 12.199 17.762 C 11.893 17.773 11.574 17.75 11.292 17.594 C 11.016 17.41 10.769 17.184 10.561 16.925 C 10.514 16.817 10.019 17.164 9.854 17.284 C 9.687 17.411 9.505 17.515 9.312 17.594 C 8.864 17.773 8.345 17.833 7.897 17.642 C 7.824 17.616 7.753 17.584 7.685 17.546 C 7.579 17.487 7.426 17.045 7.096 16.997 C 6.789 16.949 6.53 17.284 6.507 17.295 C 6.077 17.516 5.594 17.603 5.116 17.546 C 4.947 17.51 4.787 17.441 4.644 17.343 C 4.316 17.097 4.069 16.755 3.937 16.363 C 3.879 16.224 3.832 16.08 3.796 15.933 C 3.769 15.83 3.746 15.727 3.725 15.622 L 3.489 13.734 L 3.407 13.686 C 3.023 13.475 2.689 13.182 2.429 12.826 C 2.24 12.599 2.122 12.348 2.005 12.085 C 1.841 11.685 1.738 11.262 1.698 10.83 L 1.698 10.771 Z " fill-rule="evenodd" fill="rgb(255,255,255)" mask="url(#_mask_ZmRAOsVQXKTuZQd40NStkOqAAzXmDGz2)" vector-effect="non-scaling-stroke" stroke-width="0.158" stroke="rgb(207,207,207)" stroke-linejoin="round" stroke-linecap="butt" stroke-miterlimit="1.41"/><path d=" M 2.829 10.544 C 2.829 10.544 2.511 4.843 8.133 2.609 C 13.755 0.386 18.08 5.19 17.915 12.408 C 17.88 14.32 15.558 13.316 15.145 12.456 C 14.591 11.261 13.708 13.531 13.543 14.81 C 13.425 15.658 13.825 16.327 12.117 16.483 C 10.82 16.602 10.997 15.646 10.926 15.467 C 10.82 15.228 10.573 14.643 10.184 15.587 C 9.807 16.543 7.827 17.08 7.497 15.407 C 7.355 14.726 7.061 15.407 7.025 15.599 C 6.943 16.077 5.163 17.307 4.644 14.798 L 4.409 12.969 C 4.409 12.969 3.042 12.551 2.818 10.544 L 2.829 10.544 Z " fill-rule="evenodd" fill="rgb(255,242,205)"/><path d=" M 2.558 10.508 C 2.542 9.905 2.602 9.303 2.735 8.715 C 2.912 7.819 3.207 6.97 3.631 6.182 C 4.247 5.036 5.129 4.06 6.2 3.338 C 7.31 2.582 8.569 2.081 9.889 1.868 C 10.962 1.72 12.054 1.839 13.071 2.214 C 14.538 2.812 15.76 3.9 16.536 5.297 C 16.937 5.979 17.243 6.696 17.503 7.448 C 18.048 9.11 18.276 10.862 18.174 12.611 C 18.151 12.778 18.115 12.946 18.056 13.089 C 17.966 13.301 17.814 13.481 17.62 13.603 C 17.385 13.746 17.102 13.782 16.831 13.758 C 16.335 13.692 15.865 13.498 15.464 13.197 C 15.252 13.041 15.072 12.847 14.933 12.623 L 14.886 12.515 C 14.868 12.486 14.849 12.458 14.827 12.432 C 14.818 12.414 14.806 12.398 14.792 12.384 L 14.756 12.396 C 14.74 12.406 14.724 12.418 14.709 12.432 C 14.618 12.534 14.539 12.646 14.474 12.766 C 14.331 12.999 14.216 13.247 14.132 13.507 C 13.976 13.944 13.865 14.397 13.802 14.858 C 13.778 15.037 13.778 15.216 13.778 15.419 L 13.778 15.527 L 13.755 15.694 C 13.74 15.797 13.713 15.897 13.672 15.993 C 13.634 16.094 13.578 16.187 13.507 16.268 C 13.315 16.455 13.073 16.584 12.812 16.638 C 12.704 16.671 12.594 16.695 12.482 16.71 C 12.337 16.732 12.192 16.748 12.046 16.758 C 11.763 16.783 11.479 16.733 11.221 16.614 C 11.049 16.524 10.909 16.382 10.82 16.208 C 10.747 16.051 10.707 15.88 10.702 15.706 L 10.679 15.563 C 10.655 15.501 10.628 15.441 10.596 15.383 C 10.57 15.421 10.546 15.461 10.525 15.503 C 10.478 15.563 10.455 15.646 10.408 15.73 L 10.408 15.754 L 10.313 15.909 C 10.219 16.077 10.078 16.22 9.924 16.339 C 9.774 16.456 9.607 16.548 9.429 16.614 C 9.029 16.77 8.557 16.817 8.145 16.65 L 7.968 16.567 C 7.779 16.447 7.614 16.292 7.497 16.112 C 7.403 15.965 7.331 15.804 7.284 15.634 L 7.284 15.67 C 7.251 15.787 7.19 15.893 7.108 15.981 C 6.992 16.124 6.852 16.245 6.695 16.339 C 6.385 16.545 6.013 16.63 5.646 16.578 C 5.489 16.546 5.341 16.481 5.21 16.387 C 4.916 16.168 4.695 15.864 4.574 15.515 C 4.485 15.3 4.422 15.075 4.385 14.846 L 4.173 13.173 L 4.173 13.161 L 4.102 13.125 C 3.755 12.935 3.454 12.669 3.218 12.348 C 2.909 11.939 2.702 11.459 2.617 10.95 L 2.558 10.567 L 2.558 10.508 Z  M 10.785 2.334 C 10.469 2.332 10.154 2.356 9.842 2.405 C 8.62 2.623 7.459 3.104 6.436 3.816 C 4.752 4.981 3.605 6.787 3.254 8.823 C 3.137 9.385 3.077 9.957 3.077 10.532 C 3.109 10.86 3.189 11.182 3.313 11.488 C 3.431 11.727 3.548 11.966 3.725 12.157 C 3.911 12.38 4.14 12.563 4.397 12.695 C 4.432 12.695 4.456 12.718 4.491 12.73 L 4.527 12.742 L 4.574 12.766 L 4.644 12.862 L 4.68 12.946 L 4.762 13.663 L 4.88 14.535 L 4.904 14.774 C 4.963 15.047 5.054 15.312 5.175 15.563 C 5.257 15.706 5.352 15.838 5.481 15.933 C 5.552 15.987 5.632 16.028 5.717 16.053 C 5.908 16.089 6.106 16.063 6.283 15.981 C 6.462 15.901 6.62 15.778 6.742 15.622 C 6.753 15.604 6.761 15.584 6.766 15.563 L 6.766 15.515 L 6.789 15.467 C 6.817 15.363 6.857 15.263 6.907 15.168 C 6.99 15.049 7.084 14.917 7.226 14.87 L 7.308 14.87 C 7.373 14.862 7.439 14.874 7.497 14.905 C 7.544 14.929 7.591 14.977 7.614 15.025 C 7.673 15.097 7.709 15.192 7.732 15.3 L 7.768 15.431 L 7.791 15.515 C 7.815 15.61 7.85 15.706 7.909 15.79 C 7.98 15.909 8.086 16.029 8.204 16.1 C 8.439 16.244 8.71 16.256 8.97 16.22 C 9.055 16.201 9.138 16.173 9.217 16.136 C 9.487 16.037 9.721 15.858 9.889 15.622 C 9.903 15.595 9.915 15.567 9.924 15.539 L 9.995 15.395 L 10.054 15.276 C 10.054 15.24 10.078 15.216 10.101 15.18 C 10.172 15.042 10.283 14.93 10.419 14.858 C 10.468 14.836 10.52 14.824 10.573 14.822 L 10.679 14.822 L 10.82 14.882 C 10.879 14.917 10.938 14.965 10.973 15.025 C 11.056 15.132 11.115 15.252 11.162 15.383 L 11.185 15.443 L 11.209 15.587 L 11.221 15.694 L 11.221 15.742 L 11.303 15.981 C 11.32 16.011 11.34 16.039 11.362 16.065 C 11.457 16.16 11.586 16.208 11.716 16.22 L 11.787 16.232 C 11.826 16.234 11.865 16.234 11.904 16.232 L 12.022 16.232 C 12.208 16.216 12.393 16.192 12.576 16.16 C 12.694 16.136 12.788 16.112 12.883 16.065 C 13 16.017 13.118 15.945 13.177 15.838 C 13.201 15.789 13.217 15.736 13.224 15.682 C 13.248 15.599 13.248 15.515 13.248 15.443 L 13.248 15.121 C 13.265 14.584 13.373 14.055 13.566 13.555 C 13.703 13.14 13.881 12.739 14.096 12.36 L 14.167 12.264 L 14.238 12.169 C 14.356 12.025 14.509 11.894 14.709 11.87 L 14.898 11.87 L 15.016 11.918 L 15.181 12.037 C 15.24 12.097 15.299 12.181 15.334 12.252 L 15.405 12.372 L 15.416 12.408 C 15.469 12.495 15.532 12.576 15.605 12.647 C 15.664 12.695 15.723 12.754 15.805 12.802 C 16.107 13.022 16.453 13.169 16.819 13.232 L 16.925 13.244 C 17.078 13.244 17.243 13.232 17.385 13.137 C 17.482 13.06 17.556 12.956 17.597 12.838 C 17.631 12.734 17.651 12.625 17.656 12.515 L 17.656 12.252 C 17.662 11.308 17.592 10.365 17.444 9.432 C 17.26 8.403 16.955 7.4 16.536 6.445 C 15.986 5.222 15.139 4.161 14.073 3.361 C 13.136 2.708 12.028 2.354 10.891 2.346 L 10.785 2.346 L 10.785 2.334 Z  M 8.392 10.783 L 9.17 12.061 L 8.392 13.328 L 7.603 12.061 L 8.392 10.783 Z  M 12.753 10.197 C 12.753 11.065 12.059 11.768 11.203 11.768 C 10.347 11.768 9.653 11.065 9.653 10.197 L 12.729 10.197 L 12.753 10.197 Z  M 7.013 10.197 C 7.013 11.057 6.401 11.762 5.646 11.762 C 4.892 11.762 4.279 11.069 4.279 10.197 L 7.013 10.197 Z " fill-rule="evenodd" fill="rgb(55,41,40)"/></g></g></svg>