<?xml version="1.0" encoding="UTF-8" standalone="no"?><!-- Generator: Gravit.io --><svg xmlns="http://www.w3.org/2000/svg" xmlns:xlink="http://www.w3.org/1999/xlink" style="isolation:isolate" viewBox="0 0 20 20" width="20pt" height="20pt"><defs><clipPath id="_clipPath_pfdsBfo40QOcgUTiMAvV8lziHv7tDvaf"><rect width="20" height="20"/></clipPath></defs><g clip-path="url(#_clipPath_pfdsBfo40QOcgUTiMAvV8lziHv7tDvaf)"><g><path d=" M 8.612 2.585 C 8.612 2.461 8.718 1.696 9.287 1.35 C 9.595 1.276 10.116 2.14 10.127 2.523 C 10.685 2.514 11.242 2.576 11.785 2.708 C 14.017 3.18 16.001 4.5 17.351 6.411 C 17.773 6.985 18.138 7.601 18.44 8.251 C 18.511 8.399 18.594 8.559 18.642 8.732 C 18.784 9.35 18.31 10.016 18.133 9.745 L 18.038 9.646 L 18.002 9.609 C 17.765 9.411 15.515 8.004 13.36 9.584 L 13.005 9.806 C 12.958 9.782 11.146 8.819 10.672 8.794 C 10.72 9.621 11.122 15.164 11.051 17.67 C 11.016 18.608 10.222 18.991 10.08 19.028 C 9.749 19.127 9.216 19.139 8.931 18.941 C 8.256 18.509 7.972 17.608 8.103 17.164 C 8.221 16.793 8.505 16.324 9.133 16.534 C 9.346 16.608 9.405 16.201 9.405 16.164 L 8.955 9.004 C 8.872 9.029 7.25 10.572 7.25 10.572 C 7.203 10.522 4.455 8.35 2.04 10.14 C 1.755 10.337 1.151 10.436 1.08 10.164 C 1.098 9.882 1.137 9.601 1.199 9.325 C 1.294 8.868 1.317 8.634 1.471 8.201 C 1.903 6.972 2.582 5.853 3.461 4.918 C 4.221 4.145 5.129 3.548 6.125 3.165 C 7.001 2.807 7.664 2.671 8.6 2.585 L 8.612 2.585 Z " fill-rule="evenodd" fill="rgb(0,0,0)" fill-opacity="0.2"/><mask id="_mask_V5XMl5kqektSF6bLcwXfdotrzERUDoXU" x="-200%" y="-200%" width="400%" height="400%"><rect x="-200%" y="-200%" width="400%" height="400%" style="fill:white;"/><path d=" M 8.943 2.239 C 8.943 2.116 9.05 1.35 9.618 1.004 C 9.926 0.93 10.447 1.795 10.459 2.177 C 11.017 2.169 11.574 2.231 12.117 2.362 C 14.35 2.831 16.335 4.152 17.683 6.066 C 18.104 6.635 18.469 7.247 18.772 7.893 C 18.843 8.053 18.926 8.214 18.973 8.387 C 19.115 9.004 18.654 9.671 18.464 9.399 L 18.369 9.3 L 18.334 9.263 C 18.097 9.066 15.847 7.658 13.692 9.238 L 13.337 9.461 C 13.289 9.436 11.489 8.473 11.004 8.448 C 11.051 9.275 11.454 14.818 11.383 17.324 C 11.347 18.262 10.554 18.645 10.412 18.682 C 10.08 18.781 9.559 18.781 9.263 18.596 C 8.588 18.164 8.304 17.263 8.434 16.806 C 8.553 16.435 8.837 15.979 9.464 16.189 C 9.677 16.25 9.737 15.855 9.737 15.818 L 9.287 8.658 C 8.709 9.161 8.145 9.68 7.593 10.214 C 7.546 10.177 4.799 7.992 2.383 9.782 C 2.099 9.991 1.495 10.09 1.436 9.806 C 1.454 9.528 1.494 9.251 1.554 8.979 C 1.637 8.522 1.672 8.288 1.815 7.856 C 2.245 6.622 2.924 5.499 3.804 4.56 C 4.565 3.787 5.472 3.19 6.468 2.807 C 7.263 2.481 8.103 2.29 8.955 2.239 L 8.943 2.239 Z " fill-rule="evenodd" fill="black" stroke="none"/></mask><path d=" M 8.943 2.239 C 8.943 2.116 9.05 1.35 9.618 1.004 C 9.926 0.93 10.447 1.795 10.459 2.177 C 11.017 2.169 11.574 2.231 12.117 2.362 C 14.35 2.831 16.335 4.152 17.683 6.066 C 18.104 6.635 18.469 7.247 18.772 7.893 C 18.843 8.053 18.926 8.214 18.973 8.387 C 19.115 9.004 18.654 9.671 18.464 9.399 L 18.369 9.3 L 18.334 9.263 C 18.097 9.066 15.847 7.658 13.692 9.238 L 13.337 9.461 C 13.289 9.436 11.489 8.473 11.004 8.448 C 11.051 9.275 11.454 14.818 11.383 17.324 C 11.347 18.262 10.554 18.645 10.412 18.682 C 10.08 18.781 9.559 18.781 9.263 18.596 C 8.588 18.164 8.304 17.263 8.434 16.806 C 8.553 16.435 8.837 15.979 9.464 16.189 C 9.677 16.25 9.737 15.855 9.737 15.818 L 9.287 8.658 C 8.709 9.161 8.145 9.68 7.593 10.214 C 7.546 10.177 4.799 7.992 2.383 9.782 C 2.099 9.991 1.495 10.09 1.436 9.806 C 1.454 9.528 1.494 9.251 1.554 8.979 C 1.637 8.522 1.672 8.288 1.815 7.856 C 2.245 6.622 2.924 5.499 3.804 4.56 C 4.565 3.787 5.472 3.19 6.468 2.807 C 7.263 2.481 8.103 2.29 8.955 2.239 L 8.943 2.239 Z " fill-rule="evenodd" fill="rgb(255,255,255)"/><path d=" M 8.943 2.239 C 8.943 2.116 9.05 1.35 9.618 1.004 C 9.926 0.93 10.447 1.795 10.459 2.177 C 11.017 2.169 11.574 2.231 12.117 2.362 C 14.35 2.831 16.335 4.152 17.683 6.066 C 18.104 6.635 18.469 7.247 18.772 7.893 C 18.843 8.053 18.926 8.214 18.973 8.387 C 19.115 9.004 18.654 9.671 18.464 9.399 L 18.369 9.3 L 18.334 9.263 C 18.097 9.066 15.847 7.658 13.692 9.238 L 13.337 9.461 C 13.289 9.436 11.489 8.473 11.004 8.448 C 11.051 9.275 11.454 14.818 11.383 17.324 C 11.347 18.262 10.554 18.645 10.412 18.682 C 10.08 18.781 9.559 18.781 9.263 18.596 C 8.588 18.164 8.304 17.263 8.434 16.806 C 8.553 16.435 8.837 15.979 9.464 16.189 C 9.677 16.25 9.737 15.855 9.737 15.818 L 9.287 8.658 C 8.709 9.161 8.145 9.68 7.593 10.214 C 7.546 10.177 4.799 7.992 2.383 9.782 C 2.099 9.991 1.495 10.09 1.436 9.806 C 1.454 9.528 1.494 9.251 1.554 8.979 C 1.637 8.522 1.672 8.288 1.815 7.856 C 2.245 6.622 2.924 5.499 3.804 4.56 C 4.565 3.787 5.472 3.19 6.468 2.807 C 7.263 2.481 8.103 2.29 8.955 2.239 L 8.943 2.239 Z " fill-rule="evenodd" fill="rgb(255,255,255)" mask="url(#_mask_V5XMl5kqektSF6bLcwXfdotrzERUDoXU)" vector-effect="non-scaling-stroke" stroke-width="0.079" stroke="rgb(207,207,207)" stroke-linejoin="round" stroke-linecap="butt" stroke-miterlimit="1.41"/><path d=" M 9.689 8.201 C 9.689 8.201 10.163 16.226 10.163 16.88 C 10.139 17.46 9.725 17.509 9.63 17.016 C 9.535 16.522 8.683 16.349 8.872 17.263 C 9.109 18.374 10.116 18.497 10.554 18.053 C 10.992 17.608 11.004 16.386 10.98 15.67 C 10.956 14.942 10.554 8.066 10.554 8.066 L 10.506 7.856 L 9.642 7.979 L 9.689 8.201 Z  M 9.358 2.609 C 9.358 2.609 9.299 2.029 9.677 1.474 C 9.677 1.474 10.127 2.004 10.08 2.671 C 10.045 3.338 9.37 2.609 9.37 2.609 L 9.358 2.609 Z " fill-rule="evenodd" fill="rgb(200,164,120)"/><path d=" M 1.921 9.572 C 1.921 9.572 2.395 2.782 10.009 2.671 C 16.333 2.597 18.725 8.609 18.417 8.745 C 18.417 8.745 16.522 6.893 13.277 8.806 C 13.277 8.806 9.82 6.424 7.51 9.535 C 7.51 9.535 4.668 7.313 1.909 9.572 L 1.921 9.572 Z " fill-rule="evenodd" fill="rgb(107,79,91)"/><path d=" M 9.216 2.572 C 9.216 2.449 9.216 2.338 9.239 2.227 C 9.285 1.923 9.398 1.636 9.571 1.387 L 9.784 1.387 C 9.868 1.489 9.939 1.601 9.997 1.72 C 10.127 1.967 10.21 2.251 10.234 2.535 C 11.203 2.547 12.165 2.71 13.088 3.017 C 14.723 3.576 16.164 4.623 17.233 6.029 C 17.718 6.664 18.124 7.361 18.44 8.103 L 18.5 8.251 L 18.535 8.374 C 18.556 8.435 18.571 8.497 18.582 8.559 C 18.582 8.646 18.594 8.745 18.547 8.806 C 18.533 8.832 18.512 8.853 18.488 8.868 L 18.405 8.917 L 18.31 8.831 C 17.822 8.455 17.253 8.209 16.652 8.115 C 16.404 8.078 16.155 8.078 15.906 8.078 C 15.047 8.162 14.213 8.426 13.455 8.856 L 13.266 8.979 C 12.878 8.712 12.455 8.504 12.01 8.362 C 11.596 8.201 11.146 8.115 10.708 8.078 L 10.862 10.917 L 11.027 13.88 L 11.087 14.917 L 11.11 15.571 L 11.11 15.658 C 11.123 16.156 11.103 16.655 11.051 17.151 C 11.015 17.447 10.923 17.733 10.779 17.991 C 10.678 18.15 10.533 18.275 10.364 18.349 C 10.062 18.477 9.721 18.464 9.429 18.312 C 9.283 18.233 9.154 18.123 9.05 17.991 C 8.898 17.807 8.792 17.586 8.742 17.349 L 8.73 17.25 L 8.718 17.151 C 8.688 16.993 8.709 16.828 8.778 16.682 C 8.831 16.588 8.915 16.518 9.014 16.485 C 9.182 16.442 9.36 16.478 9.5 16.584 L 9.583 16.645 C 9.654 16.719 9.701 16.806 9.737 16.892 L 9.76 16.954 L 9.76 17.028 L 9.784 17.065 L 9.796 17.102 L 9.808 17.127 L 9.808 17.151 L 9.831 17.164 L 9.831 17.176 L 9.843 17.176 L 9.843 17.188 L 9.891 17.213 L 9.914 17.201 L 9.938 17.176 L 9.962 17.139 L 9.985 17.065 C 10.01 16.981 10.022 16.894 10.021 16.806 L 10.021 16.682 L 9.997 16.213 L 9.902 14.226 L 9.583 8.547 L 9.559 8.214 C 9.254 8.288 8.962 8.413 8.695 8.584 C 8.286 8.845 7.929 9.185 7.641 9.584 L 7.522 9.732 C 7.483 9.695 7.444 9.658 7.404 9.621 C 7.368 9.621 7.357 9.596 7.333 9.584 C 6.469 9.003 5.46 8.698 4.432 8.708 C 3.537 8.754 2.682 9.1 1.992 9.695 L 1.838 9.596 L 1.779 9.559 C 1.797 9.309 1.837 9.061 1.897 8.819 C 2.125 7.753 2.547 6.743 3.141 5.844 C 4.007 4.582 5.227 3.633 6.634 3.128 C 7.463 2.807 8.339 2.634 9.216 2.572 Z  M 10.412 8.078 C 10.213 8.082 10.015 8.102 9.82 8.14 L 9.831 8.177 L 9.95 10.066 L 10.116 13.065 C 10.177 14.217 10.232 15.369 10.281 16.522 L 10.281 16.929 C 10.281 17.053 10.258 17.188 10.187 17.3 C 10.135 17.392 10.05 17.459 9.95 17.485 L 9.891 17.485 C 9.867 17.487 9.843 17.487 9.82 17.485 C 9.791 17.476 9.763 17.463 9.737 17.448 C 9.702 17.428 9.67 17.403 9.642 17.374 C 9.568 17.287 9.518 17.18 9.5 17.065 L 9.488 17.016 L 9.476 16.979 C 9.432 16.872 9.346 16.791 9.239 16.756 C 9.168 16.744 9.097 16.744 9.05 16.781 L 9.026 16.818 C 9.015 16.837 9.007 16.858 9.003 16.88 L 8.979 17.003 L 8.991 17.164 C 9.024 17.324 9.08 17.478 9.156 17.621 C 9.295 17.881 9.538 18.062 9.82 18.114 L 9.914 18.127 C 10.092 18.139 10.293 18.09 10.435 17.966 C 10.514 17.889 10.578 17.797 10.625 17.695 L 10.708 17.435 C 10.785 17.163 10.825 16.88 10.826 16.596 C 10.85 16.226 10.85 15.843 10.826 15.46 C 10.826 15.275 10.826 15.09 10.802 14.929 C 10.695 12.74 10.577 10.55 10.447 8.362 L 10.424 8.078 L 10.412 8.078 Z  M 9.417 2.856 C 8.199 2.919 7.004 3.23 5.9 3.77 C 5.027 4.231 4.256 4.879 3.638 5.671 C 2.841 6.685 2.311 7.897 2.099 9.189 L 2.099 9.251 L 2.158 9.214 C 2.561 8.936 2.999 8.72 3.461 8.572 C 4.078 8.395 4.725 8.366 5.355 8.485 C 6.051 8.601 6.719 8.857 7.321 9.238 C 7.259 8.755 7.255 8.266 7.309 7.782 C 7.435 6.12 8.056 4.54 9.085 3.264 C 9.192 3.128 9.405 2.856 9.393 2.844 L 9.417 2.856 Z  M 9.737 2.856 L 9.263 3.535 C 8.71 4.253 8.278 5.062 7.984 5.93 C 7.643 6.977 7.521 8.089 7.629 9.189 C 7.907 8.866 8.226 8.584 8.576 8.35 C 9.201 7.96 9.922 7.772 10.649 7.806 C 11.502 7.834 12.335 8.08 13.076 8.522 L 13.041 8.399 L 12.827 7.695 C 12.626 7.078 12.389 6.461 12.093 5.881 C 11.652 4.995 11.085 4.183 10.412 3.473 C 10.237 3.266 10.074 3.048 9.926 2.819 L 9.725 2.819 L 9.737 2.856 Z  M 10.21 2.832 L 10.412 3.054 C 10.72 3.387 11.039 3.733 11.312 4.091 C 11.714 4.597 12.046 5.165 12.342 5.745 C 12.792 6.651 13.141 7.608 13.384 8.597 L 13.408 8.584 L 13.526 8.522 C 13.957 8.302 14.404 8.121 14.864 7.979 C 15.549 7.798 16.263 7.769 16.96 7.893 C 17.412 7.993 17.845 8.172 18.239 8.424 L 18.263 8.448 L 18.275 8.448 L 18.239 8.362 C 18.135 8.038 17.996 7.728 17.825 7.436 C 16.755 5.527 15.073 4.071 13.076 3.325 C 12.176 3.003 11.233 2.837 10.281 2.832 L 10.21 2.832 Z  M 9.962 2.548 L 9.962 2.523 C 9.938 2.251 9.843 1.98 9.701 1.758 L 9.701 1.733 L 9.677 1.745 L 9.595 1.943 C 9.524 2.128 9.488 2.325 9.5 2.523 L 9.5 2.548 L 9.95 2.535 L 9.962 2.548 Z " fill-rule="evenodd" fill="rgb(67,50,49)"/></g></g></svg>